G04*
G04 #@! TF.GenerationSoftware,Altium Limited,Altium Designer,24.2.2 (26)*
G04*
G04 Layer_Color=32896*
%FSLAX44Y44*%
%MOMM*%
G71*
G04*
G04 #@! TF.SameCoordinates,1593786D-B9FD-428D-A88F-6B9BC25CD130*
G04*
G04*
G04 #@! TF.FilePolarity,Positive*
G04*
G01*
G75*
%ADD13C,0.2540*%
%ADD45C,0.2000*%
%ADD46C,0.2500*%
%ADD67C,0.4000*%
G36*
X1077313Y680456D02*
X1077232Y680411D01*
X1077155Y680358D01*
X1077082Y680298D01*
X1077019Y680239D01*
X1076959Y680186D01*
X1076938Y680162D01*
X1076917Y680144D01*
X1076899Y680127D01*
X1076889Y680113D01*
X1076882Y680106D01*
X1076878Y680102D01*
X1076798Y680007D01*
X1076728Y679906D01*
X1076661Y679808D01*
X1076605Y679716D01*
X1076584Y679678D01*
X1076563Y679639D01*
X1076542Y679604D01*
X1076528Y679576D01*
X1076517Y679552D01*
X1076507Y679534D01*
X1076503Y679524D01*
X1076500Y679520D01*
X1076118D01*
X1076146Y679590D01*
X1076177Y679664D01*
X1076212Y679734D01*
X1076244Y679797D01*
X1076275Y679853D01*
X1076286Y679878D01*
X1076300Y679899D01*
X1076307Y679916D01*
X1076314Y679927D01*
X1076321Y679934D01*
Y679937D01*
X1076374Y680022D01*
X1076423Y680095D01*
X1076468Y680162D01*
X1076510Y680214D01*
X1076545Y680260D01*
X1076570Y680291D01*
X1076587Y680309D01*
X1076594Y680316D01*
X1074067D01*
Y680712D01*
X1077313D01*
Y680456D01*
D02*
G37*
G36*
X1047221Y681017D02*
X1047322Y681000D01*
X1047410Y680971D01*
X1047449Y680957D01*
X1047484Y680943D01*
X1047519Y680929D01*
X1047547Y680915D01*
X1047571Y680901D01*
X1047589Y680887D01*
X1047606Y680877D01*
X1047617Y680870D01*
X1047624Y680866D01*
X1047627Y680863D01*
X1047701Y680800D01*
X1047760Y680726D01*
X1047806Y680652D01*
X1047845Y680582D01*
X1047873Y680516D01*
X1047883Y680488D01*
X1047890Y680467D01*
X1047897Y680446D01*
X1047901Y680432D01*
X1047904Y680421D01*
Y680418D01*
X1047946Y680495D01*
X1047988Y680561D01*
X1048034Y680621D01*
X1048080Y680667D01*
X1048118Y680705D01*
X1048150Y680730D01*
X1048171Y680747D01*
X1048174Y680751D01*
X1048178D01*
X1048244Y680789D01*
X1048311Y680817D01*
X1048374Y680838D01*
X1048434Y680852D01*
X1048483Y680859D01*
X1048525Y680866D01*
X1048560D01*
X1048640Y680863D01*
X1048717Y680849D01*
X1048788Y680828D01*
X1048851Y680807D01*
X1048903Y680786D01*
X1048924Y680775D01*
X1048942Y680765D01*
X1048956Y680758D01*
X1048970Y680751D01*
X1048973Y680747D01*
X1048977D01*
X1049047Y680698D01*
X1049107Y680642D01*
X1049159Y680586D01*
X1049205Y680530D01*
X1049240Y680481D01*
X1049264Y680442D01*
X1049275Y680425D01*
X1049282Y680414D01*
X1049285Y680407D01*
Y680404D01*
X1049324Y680319D01*
X1049352Y680235D01*
X1049373Y680151D01*
X1049387Y680078D01*
X1049394Y680011D01*
X1049397Y679986D01*
X1049401Y679962D01*
Y679916D01*
X1049397Y679846D01*
X1049390Y679780D01*
X1049380Y679716D01*
X1049366Y679653D01*
X1049348Y679597D01*
X1049331Y679545D01*
X1049310Y679496D01*
X1049292Y679454D01*
X1049271Y679412D01*
X1049250Y679377D01*
X1049233Y679349D01*
X1049215Y679321D01*
X1049201Y679303D01*
X1049191Y679285D01*
X1049184Y679278D01*
X1049180Y679275D01*
X1049138Y679229D01*
X1049089Y679187D01*
X1049040Y679149D01*
X1048991Y679114D01*
X1048938Y679082D01*
X1048889Y679058D01*
X1048788Y679012D01*
X1048742Y678995D01*
X1048700Y678980D01*
X1048661Y678970D01*
X1048630Y678959D01*
X1048602Y678952D01*
X1048581Y678949D01*
X1048567Y678945D01*
X1048563D01*
X1048493Y679342D01*
X1048595Y679362D01*
X1048682Y679391D01*
X1048760Y679422D01*
X1048819Y679457D01*
X1048868Y679485D01*
X1048900Y679513D01*
X1048921Y679531D01*
X1048928Y679538D01*
X1048977Y679601D01*
X1049012Y679664D01*
X1049040Y679731D01*
X1049057Y679790D01*
X1049068Y679846D01*
X1049072Y679867D01*
Y679888D01*
X1049075Y679906D01*
Y679927D01*
X1049068Y680011D01*
X1049054Y680085D01*
X1049029Y680151D01*
X1049005Y680207D01*
X1048977Y680249D01*
X1048952Y680281D01*
X1048938Y680302D01*
X1048931Y680309D01*
X1048903Y680337D01*
X1048875Y680358D01*
X1048812Y680397D01*
X1048753Y680425D01*
X1048696Y680442D01*
X1048644Y680453D01*
X1048605Y680456D01*
X1048588Y680460D01*
X1048567D01*
X1048518Y680456D01*
X1048472Y680449D01*
X1048427Y680442D01*
X1048388Y680428D01*
X1048318Y680393D01*
X1048262Y680358D01*
X1048216Y680319D01*
X1048185Y680284D01*
X1048174Y680270D01*
X1048167Y680263D01*
X1048160Y680256D01*
Y680253D01*
X1048114Y680176D01*
X1048083Y680095D01*
X1048058Y680018D01*
X1048044Y679948D01*
X1048034Y679888D01*
X1048030Y679864D01*
Y679839D01*
X1048027Y679822D01*
Y679776D01*
X1048030Y679755D01*
X1048034Y679738D01*
Y679731D01*
X1047687Y679688D01*
X1047701Y679748D01*
X1047711Y679804D01*
X1047719Y679850D01*
X1047726Y679892D01*
Y679923D01*
X1047729Y679948D01*
Y679969D01*
X1047726Y680018D01*
X1047722Y680067D01*
X1047701Y680155D01*
X1047673Y680232D01*
X1047641Y680298D01*
X1047606Y680351D01*
X1047592Y680372D01*
X1047578Y680389D01*
X1047568Y680404D01*
X1047557Y680414D01*
X1047554Y680418D01*
X1047550Y680421D01*
X1047515Y680453D01*
X1047480Y680481D01*
X1047445Y680505D01*
X1047406Y680526D01*
X1047333Y680558D01*
X1047259Y680582D01*
X1047196Y680593D01*
X1047172Y680596D01*
X1047147Y680600D01*
X1047130Y680603D01*
X1047102D01*
X1047049Y680600D01*
X1047000Y680596D01*
X1046905Y680572D01*
X1046825Y680544D01*
X1046755Y680509D01*
X1046723Y680488D01*
X1046698Y680470D01*
X1046674Y680456D01*
X1046656Y680442D01*
X1046642Y680428D01*
X1046632Y680418D01*
X1046625Y680414D01*
X1046621Y680411D01*
X1046586Y680372D01*
X1046558Y680333D01*
X1046534Y680295D01*
X1046509Y680256D01*
X1046474Y680176D01*
X1046453Y680099D01*
X1046439Y680035D01*
X1046435Y680004D01*
X1046432Y679983D01*
X1046429Y679962D01*
Y679934D01*
X1046435Y679850D01*
X1046453Y679769D01*
X1046474Y679703D01*
X1046502Y679643D01*
X1046530Y679594D01*
X1046551Y679559D01*
X1046562Y679548D01*
X1046569Y679538D01*
X1046576Y679534D01*
Y679531D01*
X1046607Y679503D01*
X1046639Y679475D01*
X1046712Y679426D01*
X1046793Y679387D01*
X1046874Y679355D01*
X1046947Y679331D01*
X1046979Y679324D01*
X1047007Y679317D01*
X1047031Y679310D01*
X1047049Y679306D01*
X1047059Y679303D01*
X1047063D01*
X1047010Y678907D01*
X1046937Y678917D01*
X1046867Y678931D01*
X1046800Y678952D01*
X1046737Y678973D01*
X1046677Y678998D01*
X1046625Y679026D01*
X1046572Y679054D01*
X1046530Y679082D01*
X1046488Y679110D01*
X1046453Y679135D01*
X1046422Y679159D01*
X1046397Y679180D01*
X1046376Y679201D01*
X1046362Y679215D01*
X1046355Y679222D01*
X1046351Y679226D01*
X1046306Y679278D01*
X1046267Y679338D01*
X1046236Y679394D01*
X1046204Y679454D01*
X1046180Y679513D01*
X1046162Y679573D01*
X1046145Y679629D01*
X1046131Y679685D01*
X1046120Y679738D01*
X1046113Y679783D01*
X1046106Y679825D01*
X1046103Y679864D01*
Y679892D01*
X1046099Y679916D01*
Y679934D01*
X1046103Y680022D01*
X1046113Y680102D01*
X1046127Y680179D01*
X1046145Y680253D01*
X1046166Y680323D01*
X1046190Y680386D01*
X1046218Y680446D01*
X1046246Y680498D01*
X1046271Y680547D01*
X1046299Y680589D01*
X1046323Y680628D01*
X1046344Y680656D01*
X1046362Y680680D01*
X1046376Y680698D01*
X1046386Y680708D01*
X1046390Y680712D01*
X1046446Y680768D01*
X1046506Y680814D01*
X1046565Y680856D01*
X1046628Y680891D01*
X1046688Y680922D01*
X1046748Y680947D01*
X1046804Y680968D01*
X1046860Y680985D01*
X1046912Y681000D01*
X1046958Y681006D01*
X1047000Y681013D01*
X1047038Y681021D01*
X1047066D01*
X1047091Y681024D01*
X1047165D01*
X1047221Y681017D01*
D02*
G37*
G36*
X1060479Y679413D02*
X1060556Y679469D01*
X1060591Y679497D01*
X1060623Y679526D01*
X1060651Y679550D01*
X1060672Y679568D01*
X1060686Y679582D01*
X1060689Y679585D01*
X1060711Y679606D01*
X1060739Y679634D01*
X1060767Y679666D01*
X1060798Y679701D01*
X1060868Y679774D01*
X1060935Y679852D01*
X1060998Y679925D01*
X1061026Y679957D01*
X1061050Y679988D01*
X1061072Y680009D01*
X1061086Y680030D01*
X1061096Y680041D01*
X1061100Y680044D01*
X1061166Y680121D01*
X1061229Y680195D01*
X1061285Y680262D01*
X1061341Y680321D01*
X1061391Y680377D01*
X1061440Y680426D01*
X1061482Y680472D01*
X1061520Y680514D01*
X1061552Y680549D01*
X1061583Y680577D01*
X1061608Y680602D01*
X1061629Y680623D01*
X1061646Y680637D01*
X1061657Y680651D01*
X1061664Y680654D01*
X1061667Y680658D01*
X1061745Y680724D01*
X1061815Y680777D01*
X1061881Y680822D01*
X1061941Y680861D01*
X1061990Y680889D01*
X1062029Y680910D01*
X1062042Y680917D01*
X1062053Y680921D01*
X1062057Y680924D01*
X1062060D01*
X1062130Y680952D01*
X1062200Y680970D01*
X1062263Y680984D01*
X1062323Y680994D01*
X1062372Y681001D01*
X1062411Y681005D01*
X1062442D01*
X1062512Y681001D01*
X1062579Y680994D01*
X1062642Y680980D01*
X1062705Y680963D01*
X1062761Y680942D01*
X1062814Y680917D01*
X1062863Y680892D01*
X1062905Y680868D01*
X1062947Y680843D01*
X1062982Y680819D01*
X1063013Y680794D01*
X1063038Y680773D01*
X1063055Y680756D01*
X1063073Y680742D01*
X1063080Y680735D01*
X1063083Y680731D01*
X1063129Y680679D01*
X1063168Y680623D01*
X1063203Y680563D01*
X1063234Y680500D01*
X1063259Y680440D01*
X1063280Y680377D01*
X1063297Y680318D01*
X1063311Y680258D01*
X1063322Y680206D01*
X1063329Y680153D01*
X1063336Y680107D01*
X1063339Y680069D01*
X1063343Y680037D01*
Y679992D01*
X1063339Y679908D01*
X1063332Y679827D01*
X1063322Y679753D01*
X1063304Y679683D01*
X1063287Y679617D01*
X1063266Y679557D01*
X1063245Y679501D01*
X1063224Y679452D01*
X1063199Y679406D01*
X1063178Y679368D01*
X1063157Y679333D01*
X1063140Y679305D01*
X1063122Y679284D01*
X1063112Y679270D01*
X1063105Y679259D01*
X1063101Y679256D01*
X1063055Y679206D01*
X1063003Y679165D01*
X1062950Y679126D01*
X1062891Y679091D01*
X1062835Y679063D01*
X1062779Y679035D01*
X1062719Y679014D01*
X1062666Y678996D01*
X1062614Y678979D01*
X1062565Y678968D01*
X1062519Y678958D01*
X1062481Y678951D01*
X1062449Y678947D01*
X1062428Y678944D01*
X1062414Y678940D01*
X1062407D01*
X1062365Y679347D01*
X1062421Y679350D01*
X1062474Y679354D01*
X1062565Y679375D01*
X1062649Y679403D01*
X1062684Y679417D01*
X1062716Y679434D01*
X1062744Y679448D01*
X1062768Y679466D01*
X1062789Y679480D01*
X1062807Y679490D01*
X1062821Y679504D01*
X1062831Y679511D01*
X1062835Y679515D01*
X1062838Y679519D01*
X1062870Y679554D01*
X1062898Y679589D01*
X1062919Y679627D01*
X1062940Y679666D01*
X1062971Y679743D01*
X1062992Y679816D01*
X1063003Y679880D01*
X1063010Y679908D01*
Y679932D01*
X1063013Y679953D01*
Y680030D01*
X1063006Y680079D01*
X1062989Y680167D01*
X1062961Y680240D01*
X1062933Y680307D01*
X1062901Y680356D01*
X1062887Y680377D01*
X1062873Y680395D01*
X1062863Y680409D01*
X1062856Y680419D01*
X1062852Y680423D01*
X1062849Y680426D01*
X1062817Y680458D01*
X1062786Y680482D01*
X1062754Y680507D01*
X1062719Y680525D01*
X1062652Y680556D01*
X1062589Y680577D01*
X1062537Y680588D01*
X1062512Y680595D01*
X1062491D01*
X1062477Y680598D01*
X1062453D01*
X1062411Y680595D01*
X1062368Y680591D01*
X1062284Y680570D01*
X1062204Y680538D01*
X1062130Y680503D01*
X1062067Y680468D01*
X1062042Y680454D01*
X1062018Y680437D01*
X1062000Y680426D01*
X1061986Y680416D01*
X1061979Y680412D01*
X1061976Y680409D01*
X1061927Y680370D01*
X1061874Y680325D01*
X1061818Y680272D01*
X1061762Y680216D01*
X1061646Y680100D01*
X1061538Y679981D01*
X1061485Y679925D01*
X1061440Y679869D01*
X1061397Y679820D01*
X1061363Y679778D01*
X1061331Y679743D01*
X1061310Y679718D01*
X1061292Y679701D01*
X1061289Y679694D01*
X1061236Y679631D01*
X1061187Y679575D01*
X1061142Y679519D01*
X1061096Y679469D01*
X1061054Y679420D01*
X1061012Y679378D01*
X1060977Y679340D01*
X1060942Y679305D01*
X1060910Y679273D01*
X1060882Y679249D01*
X1060858Y679224D01*
X1060840Y679206D01*
X1060823Y679189D01*
X1060812Y679178D01*
X1060805Y679175D01*
X1060802Y679172D01*
X1060724Y679108D01*
X1060647Y679056D01*
X1060574Y679010D01*
X1060507Y678975D01*
X1060451Y678947D01*
X1060427Y678937D01*
X1060409Y678926D01*
X1060392Y678919D01*
X1060381Y678916D01*
X1060374Y678912D01*
X1060370D01*
X1060322Y678895D01*
X1060272Y678884D01*
X1060227Y678874D01*
X1060185Y678870D01*
X1060150Y678867D01*
X1060097D01*
Y681008D01*
X1060479D01*
Y679413D01*
D02*
G37*
G36*
X1089830Y681015D02*
X1089907Y681012D01*
X1089981Y681008D01*
X1090047Y681001D01*
X1090110Y680994D01*
X1090167Y680987D01*
X1090219Y680984D01*
X1090265Y680977D01*
X1090303Y680970D01*
X1090338Y680963D01*
X1090366Y680956D01*
X1090391Y680952D01*
X1090405Y680949D01*
X1090415Y680945D01*
X1090419D01*
X1090521Y680917D01*
X1090615Y680882D01*
X1090696Y680851D01*
X1090766Y680819D01*
X1090794Y680801D01*
X1090822Y680791D01*
X1090847Y680777D01*
X1090864Y680766D01*
X1090878Y680756D01*
X1090889Y680752D01*
X1090896Y680745D01*
X1090899D01*
X1090969Y680696D01*
X1091032Y680640D01*
X1091085Y680588D01*
X1091127Y680535D01*
X1091162Y680489D01*
X1091183Y680454D01*
X1091194Y680440D01*
X1091201Y680430D01*
X1091204Y680423D01*
Y680419D01*
X1091239Y680342D01*
X1091264Y680265D01*
X1091285Y680188D01*
X1091295Y680118D01*
X1091302Y680055D01*
X1091306Y680030D01*
X1091309Y680006D01*
Y679964D01*
X1091306Y679901D01*
X1091302Y679837D01*
X1091292Y679778D01*
X1091281Y679722D01*
X1091267Y679673D01*
X1091250Y679624D01*
X1091232Y679578D01*
X1091215Y679539D01*
X1091197Y679501D01*
X1091180Y679469D01*
X1091165Y679441D01*
X1091148Y679420D01*
X1091137Y679403D01*
X1091127Y679389D01*
X1091124Y679382D01*
X1091120Y679378D01*
X1091081Y679336D01*
X1091043Y679298D01*
X1090955Y679228D01*
X1090868Y679165D01*
X1090780Y679115D01*
X1090738Y679094D01*
X1090703Y679077D01*
X1090668Y679063D01*
X1090640Y679049D01*
X1090615Y679042D01*
X1090594Y679035D01*
X1090584Y679028D01*
X1090580D01*
X1090514Y679007D01*
X1090440Y678989D01*
X1090289Y678961D01*
X1090135Y678940D01*
X1090061Y678933D01*
X1089988Y678926D01*
X1089921Y678923D01*
X1089858Y678919D01*
X1089802Y678916D01*
X1089753D01*
X1089714Y678912D01*
X1089658D01*
X1089494Y678916D01*
X1089339Y678926D01*
X1089199Y678940D01*
X1089069Y678961D01*
X1088950Y678986D01*
X1088842Y679014D01*
X1088747Y679042D01*
X1088659Y679073D01*
X1088586Y679101D01*
X1088519Y679129D01*
X1088466Y679157D01*
X1088421Y679182D01*
X1088386Y679203D01*
X1088361Y679217D01*
X1088347Y679228D01*
X1088344Y679231D01*
X1088284Y679284D01*
X1088235Y679340D01*
X1088190Y679399D01*
X1088151Y679459D01*
X1088120Y679519D01*
X1088092Y679582D01*
X1088070Y679641D01*
X1088053Y679697D01*
X1088039Y679753D01*
X1088028Y679802D01*
X1088021Y679848D01*
X1088018Y679886D01*
X1088014Y679918D01*
X1088011Y679943D01*
Y679964D01*
X1088014Y680030D01*
X1088018Y680090D01*
X1088028Y680149D01*
X1088039Y680206D01*
X1088056Y680258D01*
X1088070Y680304D01*
X1088088Y680349D01*
X1088105Y680388D01*
X1088123Y680426D01*
X1088140Y680458D01*
X1088158Y680486D01*
X1088172Y680507D01*
X1088183Y680525D01*
X1088193Y680538D01*
X1088197Y680546D01*
X1088200Y680549D01*
X1088239Y680591D01*
X1088277Y680633D01*
X1088365Y680703D01*
X1088453Y680763D01*
X1088540Y680812D01*
X1088582Y680833D01*
X1088621Y680851D01*
X1088652Y680864D01*
X1088684Y680879D01*
X1088705Y680889D01*
X1088726Y680892D01*
X1088736Y680900D01*
X1088740D01*
X1088807Y680921D01*
X1088880Y680938D01*
X1089031Y680970D01*
X1089185Y680991D01*
X1089259Y680998D01*
X1089332Y681005D01*
X1089399Y681008D01*
X1089462Y681012D01*
X1089515Y681015D01*
X1089564Y681019D01*
X1089746D01*
X1089830Y681015D01*
D02*
G37*
G36*
X1075858Y678781D02*
X1075932Y678777D01*
X1076002Y678767D01*
X1076069Y678756D01*
X1076132Y678746D01*
X1076191Y678735D01*
X1076247Y678725D01*
X1076296Y678711D01*
X1076339Y678700D01*
X1076377Y678689D01*
X1076409Y678679D01*
X1076433Y678669D01*
X1076454Y678665D01*
X1076465Y678658D01*
X1076468D01*
X1076587Y678605D01*
X1076696Y678546D01*
X1076745Y678514D01*
X1076791Y678483D01*
X1076833Y678451D01*
X1076871Y678420D01*
X1076906Y678392D01*
X1076934Y678363D01*
X1076962Y678339D01*
X1076983Y678318D01*
X1077001Y678300D01*
X1077011Y678286D01*
X1077019Y678279D01*
X1077022Y678276D01*
X1077082Y678199D01*
X1077131Y678118D01*
X1077169Y678041D01*
X1077201Y677968D01*
X1077225Y677901D01*
X1077232Y677873D01*
X1077239Y677848D01*
X1077246Y677831D01*
X1077250Y677817D01*
X1077253Y677806D01*
Y677803D01*
X1077260Y677764D01*
X1077271Y677722D01*
X1077281Y677627D01*
X1077292Y677533D01*
X1077295Y677438D01*
X1077299Y677396D01*
Y677354D01*
X1077302Y677319D01*
Y676113D01*
X1074067D01*
Y677280D01*
X1074071Y677386D01*
X1074074Y677484D01*
X1074085Y677571D01*
X1074095Y677648D01*
X1074099Y677680D01*
X1074102Y677708D01*
X1074109Y677736D01*
X1074113Y677757D01*
X1074116Y677775D01*
Y677785D01*
X1074120Y677792D01*
Y677796D01*
X1074144Y677876D01*
X1074169Y677953D01*
X1074197Y678020D01*
X1074221Y678076D01*
X1074246Y678122D01*
X1074263Y678157D01*
X1074277Y678178D01*
X1074281Y678181D01*
Y678185D01*
X1074326Y678244D01*
X1074372Y678300D01*
X1074421Y678350D01*
X1074470Y678392D01*
X1074512Y678430D01*
X1074544Y678455D01*
X1074558Y678465D01*
X1074568Y678472D01*
X1074572Y678479D01*
X1074575D01*
X1074649Y678528D01*
X1074726Y678570D01*
X1074807Y678609D01*
X1074880Y678641D01*
X1074947Y678665D01*
X1074975Y678676D01*
X1074999Y678686D01*
X1075017Y678689D01*
X1075031Y678697D01*
X1075042Y678700D01*
X1075045D01*
X1075157Y678728D01*
X1075269Y678749D01*
X1075378Y678767D01*
X1075480Y678777D01*
X1075525Y678781D01*
X1075567Y678784D01*
X1075606D01*
X1075637Y678788D01*
X1075701D01*
X1075858Y678781D01*
D02*
G37*
G36*
X1061888Y678484D02*
X1061962Y678481D01*
X1062032Y678470D01*
X1062099Y678460D01*
X1062162Y678449D01*
X1062221Y678439D01*
X1062277Y678428D01*
X1062326Y678414D01*
X1062368Y678404D01*
X1062407Y678393D01*
X1062439Y678383D01*
X1062463Y678372D01*
X1062484Y678369D01*
X1062495Y678362D01*
X1062498D01*
X1062617Y678309D01*
X1062726Y678250D01*
X1062775Y678218D01*
X1062821Y678186D01*
X1062863Y678155D01*
X1062901Y678123D01*
X1062936Y678095D01*
X1062964Y678067D01*
X1062992Y678043D01*
X1063013Y678022D01*
X1063031Y678004D01*
X1063042Y677990D01*
X1063048Y677983D01*
X1063052Y677980D01*
X1063112Y677903D01*
X1063161Y677822D01*
X1063199Y677745D01*
X1063231Y677671D01*
X1063255Y677605D01*
X1063262Y677577D01*
X1063269Y677552D01*
X1063276Y677534D01*
X1063280Y677521D01*
X1063283Y677510D01*
Y677506D01*
X1063290Y677468D01*
X1063301Y677426D01*
X1063311Y677331D01*
X1063322Y677237D01*
X1063325Y677142D01*
X1063329Y677100D01*
Y677058D01*
X1063332Y677023D01*
Y675817D01*
X1060097D01*
Y676984D01*
X1060101Y677089D01*
X1060104Y677188D01*
X1060115Y677275D01*
X1060125Y677352D01*
X1060129Y677384D01*
X1060132Y677412D01*
X1060139Y677440D01*
X1060143Y677461D01*
X1060146Y677478D01*
Y677489D01*
X1060150Y677496D01*
Y677499D01*
X1060174Y677580D01*
X1060199Y677657D01*
X1060227Y677724D01*
X1060251Y677780D01*
X1060276Y677825D01*
X1060293Y677860D01*
X1060307Y677881D01*
X1060311Y677885D01*
Y677889D01*
X1060357Y677948D01*
X1060402Y678004D01*
X1060451Y678053D01*
X1060500Y678095D01*
X1060542Y678134D01*
X1060574Y678158D01*
X1060588Y678169D01*
X1060598Y678176D01*
X1060602Y678183D01*
X1060605D01*
X1060679Y678232D01*
X1060756Y678274D01*
X1060837Y678313D01*
X1060910Y678344D01*
X1060977Y678369D01*
X1061005Y678379D01*
X1061030Y678390D01*
X1061047Y678393D01*
X1061061Y678400D01*
X1061072Y678404D01*
X1061075D01*
X1061187Y678432D01*
X1061299Y678453D01*
X1061408Y678470D01*
X1061510Y678481D01*
X1061555Y678484D01*
X1061597Y678488D01*
X1061636D01*
X1061667Y678492D01*
X1061730D01*
X1061888Y678484D01*
D02*
G37*
G36*
X1089855Y678474D02*
X1089928Y678470D01*
X1089998Y678460D01*
X1090065Y678449D01*
X1090128Y678439D01*
X1090188Y678428D01*
X1090244Y678418D01*
X1090293Y678404D01*
X1090335Y678393D01*
X1090373Y678383D01*
X1090405Y678372D01*
X1090429Y678362D01*
X1090451Y678358D01*
X1090461Y678351D01*
X1090464D01*
X1090584Y678299D01*
X1090692Y678239D01*
X1090741Y678208D01*
X1090787Y678176D01*
X1090829Y678145D01*
X1090868Y678113D01*
X1090903Y678085D01*
X1090931Y678057D01*
X1090959Y678032D01*
X1090980Y678011D01*
X1090997Y677994D01*
X1091008Y677980D01*
X1091015Y677973D01*
X1091018Y677969D01*
X1091078Y677892D01*
X1091127Y677812D01*
X1091165Y677734D01*
X1091197Y677661D01*
X1091222Y677594D01*
X1091229Y677566D01*
X1091236Y677542D01*
X1091243Y677524D01*
X1091246Y677510D01*
X1091250Y677499D01*
Y677496D01*
X1091257Y677457D01*
X1091267Y677415D01*
X1091278Y677321D01*
X1091288Y677226D01*
X1091292Y677132D01*
X1091295Y677089D01*
Y677047D01*
X1091299Y677012D01*
Y675807D01*
X1088063D01*
Y676974D01*
X1088067Y677079D01*
X1088070Y677177D01*
X1088081Y677265D01*
X1088092Y677342D01*
X1088095Y677373D01*
X1088099Y677401D01*
X1088105Y677429D01*
X1088109Y677450D01*
X1088112Y677468D01*
Y677478D01*
X1088116Y677486D01*
Y677489D01*
X1088140Y677570D01*
X1088165Y677647D01*
X1088193Y677713D01*
X1088218Y677769D01*
X1088242Y677815D01*
X1088260Y677850D01*
X1088274Y677871D01*
X1088277Y677875D01*
Y677878D01*
X1088323Y677938D01*
X1088368Y677994D01*
X1088418Y678043D01*
X1088466Y678085D01*
X1088509Y678123D01*
X1088540Y678148D01*
X1088554Y678158D01*
X1088565Y678166D01*
X1088568Y678173D01*
X1088572D01*
X1088645Y678222D01*
X1088722Y678264D01*
X1088803Y678302D01*
X1088877Y678334D01*
X1088943Y678358D01*
X1088971Y678369D01*
X1088996Y678379D01*
X1089013Y678383D01*
X1089027Y678390D01*
X1089038Y678393D01*
X1089041D01*
X1089154Y678421D01*
X1089266Y678442D01*
X1089374Y678460D01*
X1089476Y678470D01*
X1089522Y678474D01*
X1089564Y678477D01*
X1089602D01*
X1089634Y678481D01*
X1089697D01*
X1089855Y678474D01*
D02*
G37*
G36*
X1047946Y678469D02*
X1048020Y678465D01*
X1048090Y678455D01*
X1048157Y678444D01*
X1048220Y678434D01*
X1048279Y678423D01*
X1048335Y678413D01*
X1048384Y678399D01*
X1048427Y678388D01*
X1048465Y678378D01*
X1048497Y678367D01*
X1048521Y678356D01*
X1048542Y678353D01*
X1048553Y678346D01*
X1048556D01*
X1048675Y678293D01*
X1048784Y678234D01*
X1048833Y678202D01*
X1048879Y678171D01*
X1048921Y678139D01*
X1048959Y678108D01*
X1048994Y678080D01*
X1049022Y678052D01*
X1049050Y678027D01*
X1049072Y678006D01*
X1049089Y677989D01*
X1049100Y677974D01*
X1049107Y677968D01*
X1049110Y677964D01*
X1049170Y677887D01*
X1049219Y677806D01*
X1049257Y677729D01*
X1049289Y677655D01*
X1049313Y677589D01*
X1049320Y677561D01*
X1049327Y677536D01*
X1049334Y677519D01*
X1049338Y677505D01*
X1049341Y677494D01*
Y677491D01*
X1049348Y677452D01*
X1049359Y677410D01*
X1049369Y677316D01*
X1049380Y677221D01*
X1049383Y677126D01*
X1049387Y677084D01*
Y677042D01*
X1049390Y677007D01*
Y675801D01*
X1046155D01*
Y676969D01*
X1046159Y677074D01*
X1046162Y677172D01*
X1046173Y677259D01*
X1046183Y677337D01*
X1046187Y677368D01*
X1046190Y677396D01*
X1046197Y677424D01*
X1046201Y677445D01*
X1046204Y677463D01*
Y677473D01*
X1046208Y677480D01*
Y677484D01*
X1046232Y677564D01*
X1046257Y677642D01*
X1046285Y677708D01*
X1046309Y677764D01*
X1046334Y677810D01*
X1046351Y677845D01*
X1046365Y677866D01*
X1046369Y677869D01*
Y677873D01*
X1046414Y677932D01*
X1046460Y677989D01*
X1046509Y678038D01*
X1046558Y678080D01*
X1046600Y678118D01*
X1046632Y678143D01*
X1046646Y678153D01*
X1046656Y678160D01*
X1046660Y678167D01*
X1046663D01*
X1046737Y678216D01*
X1046814Y678258D01*
X1046895Y678297D01*
X1046968Y678328D01*
X1047035Y678353D01*
X1047063Y678363D01*
X1047087Y678374D01*
X1047105Y678378D01*
X1047119Y678385D01*
X1047130Y678388D01*
X1047133D01*
X1047245Y678416D01*
X1047357Y678437D01*
X1047466Y678455D01*
X1047568Y678465D01*
X1047613Y678469D01*
X1047655Y678472D01*
X1047694D01*
X1047726Y678476D01*
X1047789D01*
X1047946Y678469D01*
D02*
G37*
G36*
X1074449Y673537D02*
X1075550D01*
Y675328D01*
X1075932D01*
Y673537D01*
X1076920D01*
Y675451D01*
X1077302D01*
Y673109D01*
X1074067D01*
Y675524D01*
X1074449D01*
Y673537D01*
D02*
G37*
G36*
X1060479Y673241D02*
X1061580D01*
Y675032D01*
X1061962D01*
Y673241D01*
X1062950D01*
Y675154D01*
X1063332D01*
Y672813D01*
X1060097D01*
Y675228D01*
X1060479D01*
Y673241D01*
D02*
G37*
G36*
X1088446Y673230D02*
X1089546D01*
Y675021D01*
X1089928D01*
Y673230D01*
X1090917D01*
Y675144D01*
X1091299D01*
Y672803D01*
X1088063D01*
Y675218D01*
X1088446D01*
Y673230D01*
D02*
G37*
G36*
X1046537Y673225D02*
X1047638D01*
Y675016D01*
X1048020D01*
Y673225D01*
X1049008D01*
Y675139D01*
X1049390D01*
Y672797D01*
X1046155D01*
Y675212D01*
X1046537D01*
Y673225D01*
D02*
G37*
G36*
X1074449Y670996D02*
X1077302D01*
Y670568D01*
X1074067D01*
Y672590D01*
X1074449D01*
Y670996D01*
D02*
G37*
G36*
X1060479Y670699D02*
X1063332D01*
Y670272D01*
X1060097D01*
Y672294D01*
X1060479D01*
Y670699D01*
D02*
G37*
G36*
X1088446Y670689D02*
X1091299D01*
Y670261D01*
X1088063D01*
Y672284D01*
X1088446D01*
Y670689D01*
D02*
G37*
G36*
X1046537Y670684D02*
X1049390D01*
Y670256D01*
X1046155D01*
Y672279D01*
X1046537D01*
Y670684D01*
D02*
G37*
G36*
X1070935Y562161D02*
X1070553D01*
Y563756D01*
X1067700D01*
Y564184D01*
X1070935D01*
Y562161D01*
D02*
G37*
G36*
X1029027Y562156D02*
X1028644D01*
Y563751D01*
X1025791D01*
Y564179D01*
X1029027D01*
Y562156D01*
D02*
G37*
G36*
X1056993Y562146D02*
X1056611D01*
Y563741D01*
X1053758D01*
Y564168D01*
X1056993D01*
Y562146D01*
D02*
G37*
G36*
X1043023Y561850D02*
X1042641D01*
Y563444D01*
X1039788D01*
Y563872D01*
X1043023D01*
Y561850D01*
D02*
G37*
G36*
X1070935Y559228D02*
X1070553D01*
Y561215D01*
X1069452D01*
Y559424D01*
X1069070D01*
Y561215D01*
X1068082D01*
Y559301D01*
X1067700D01*
Y561643D01*
X1070935D01*
Y559228D01*
D02*
G37*
G36*
X1029027Y559222D02*
X1028644D01*
Y561210D01*
X1027544D01*
Y559419D01*
X1027162D01*
Y561210D01*
X1026173D01*
Y559296D01*
X1025791D01*
Y561637D01*
X1029027D01*
Y559222D01*
D02*
G37*
G36*
X1056993Y559212D02*
X1056611D01*
Y561199D01*
X1055510D01*
Y559408D01*
X1055128D01*
Y561199D01*
X1054140D01*
Y559286D01*
X1053758D01*
Y561627D01*
X1056993D01*
Y559212D01*
D02*
G37*
G36*
X1043023Y558916D02*
X1042641D01*
Y560903D01*
X1041540D01*
Y559112D01*
X1041158D01*
Y560903D01*
X1040170D01*
Y558989D01*
X1039788D01*
Y561331D01*
X1043023D01*
Y558916D01*
D02*
G37*
G36*
X1070935Y557472D02*
X1070931Y557366D01*
X1070928Y557268D01*
X1070917Y557181D01*
X1070907Y557104D01*
X1070903Y557072D01*
X1070900Y557044D01*
X1070893Y557016D01*
X1070889Y556995D01*
X1070886Y556977D01*
Y556967D01*
X1070882Y556960D01*
Y556956D01*
X1070858Y556876D01*
X1070833Y556799D01*
X1070805Y556732D01*
X1070781Y556676D01*
X1070756Y556630D01*
X1070739Y556595D01*
X1070725Y556574D01*
X1070721Y556571D01*
Y556567D01*
X1070676Y556508D01*
X1070630Y556451D01*
X1070581Y556402D01*
X1070532Y556360D01*
X1070490Y556322D01*
X1070458Y556297D01*
X1070444Y556287D01*
X1070434Y556280D01*
X1070430Y556273D01*
X1070427D01*
X1070353Y556224D01*
X1070276Y556182D01*
X1070195Y556143D01*
X1070122Y556111D01*
X1070055Y556087D01*
X1070027Y556077D01*
X1070003Y556066D01*
X1069985Y556062D01*
X1069971Y556055D01*
X1069960Y556052D01*
X1069957D01*
X1069845Y556024D01*
X1069733Y556003D01*
X1069624Y555985D01*
X1069522Y555975D01*
X1069477Y555971D01*
X1069435Y555968D01*
X1069396D01*
X1069364Y555964D01*
X1069336D01*
X1069319D01*
X1069305D01*
X1069301D01*
X1069144Y555971D01*
X1069070Y555975D01*
X1069000Y555985D01*
X1068933Y555996D01*
X1068870Y556006D01*
X1068811Y556017D01*
X1068755Y556027D01*
X1068706Y556041D01*
X1068663Y556052D01*
X1068625Y556062D01*
X1068593Y556073D01*
X1068569Y556083D01*
X1068548Y556087D01*
X1068537Y556094D01*
X1068534D01*
X1068415Y556147D01*
X1068306Y556206D01*
X1068257Y556238D01*
X1068211Y556269D01*
X1068169Y556301D01*
X1068131Y556332D01*
X1068096Y556360D01*
X1068068Y556388D01*
X1068040Y556413D01*
X1068018Y556434D01*
X1068001Y556451D01*
X1067990Y556465D01*
X1067983Y556473D01*
X1067980Y556476D01*
X1067920Y556553D01*
X1067871Y556634D01*
X1067833Y556711D01*
X1067801Y556785D01*
X1067777Y556851D01*
X1067770Y556879D01*
X1067763Y556904D01*
X1067756Y556921D01*
X1067752Y556935D01*
X1067749Y556946D01*
Y556949D01*
X1067742Y556988D01*
X1067731Y557030D01*
X1067721Y557124D01*
X1067710Y557219D01*
X1067707Y557314D01*
X1067703Y557356D01*
Y557398D01*
X1067700Y557433D01*
Y558639D01*
X1070935D01*
Y557472D01*
D02*
G37*
G36*
X1029027Y557466D02*
X1029023Y557361D01*
X1029020Y557263D01*
X1029009Y557175D01*
X1028998Y557098D01*
X1028995Y557067D01*
X1028991Y557039D01*
X1028985Y557011D01*
X1028981Y556990D01*
X1028978Y556972D01*
Y556962D01*
X1028974Y556954D01*
Y556951D01*
X1028950Y556870D01*
X1028925Y556793D01*
X1028897Y556727D01*
X1028872Y556671D01*
X1028848Y556625D01*
X1028830Y556590D01*
X1028816Y556569D01*
X1028813Y556565D01*
Y556562D01*
X1028767Y556502D01*
X1028722Y556446D01*
X1028672Y556397D01*
X1028624Y556355D01*
X1028581Y556317D01*
X1028550Y556292D01*
X1028536Y556282D01*
X1028525Y556274D01*
X1028522Y556268D01*
X1028518D01*
X1028445Y556218D01*
X1028368Y556176D01*
X1028287Y556138D01*
X1028213Y556106D01*
X1028147Y556082D01*
X1028119Y556071D01*
X1028094Y556061D01*
X1028077Y556057D01*
X1028063Y556050D01*
X1028052Y556047D01*
X1028049D01*
X1027936Y556019D01*
X1027824Y555998D01*
X1027716Y555980D01*
X1027614Y555970D01*
X1027568Y555966D01*
X1027526Y555962D01*
X1027488D01*
X1027456Y555959D01*
X1027428D01*
X1027411D01*
X1027397D01*
X1027393D01*
X1027235Y555966D01*
X1027162Y555970D01*
X1027092Y555980D01*
X1027025Y555991D01*
X1026962Y556001D01*
X1026902Y556012D01*
X1026846Y556022D01*
X1026797Y556036D01*
X1026755Y556047D01*
X1026717Y556057D01*
X1026685Y556068D01*
X1026661Y556078D01*
X1026639Y556082D01*
X1026629Y556089D01*
X1026626D01*
X1026506Y556141D01*
X1026398Y556201D01*
X1026349Y556232D01*
X1026303Y556264D01*
X1026261Y556296D01*
X1026222Y556327D01*
X1026187Y556355D01*
X1026159Y556383D01*
X1026131Y556408D01*
X1026110Y556429D01*
X1026093Y556446D01*
X1026082Y556460D01*
X1026075Y556467D01*
X1026072Y556471D01*
X1026012Y556548D01*
X1025963Y556628D01*
X1025925Y556706D01*
X1025893Y556779D01*
X1025868Y556846D01*
X1025861Y556874D01*
X1025854Y556898D01*
X1025847Y556916D01*
X1025844Y556930D01*
X1025840Y556940D01*
Y556944D01*
X1025833Y556983D01*
X1025823Y557025D01*
X1025812Y557119D01*
X1025802Y557214D01*
X1025798Y557309D01*
X1025795Y557351D01*
Y557393D01*
X1025791Y557428D01*
Y558633D01*
X1029027D01*
Y557466D01*
D02*
G37*
G36*
X1056993Y557456D02*
X1056989Y557351D01*
X1056986Y557253D01*
X1056975Y557165D01*
X1056965Y557088D01*
X1056961Y557056D01*
X1056958Y557028D01*
X1056951Y557000D01*
X1056947Y556979D01*
X1056944Y556962D01*
Y556951D01*
X1056940Y556944D01*
Y556940D01*
X1056916Y556860D01*
X1056891Y556783D01*
X1056863Y556716D01*
X1056839Y556660D01*
X1056814Y556614D01*
X1056797Y556580D01*
X1056783Y556558D01*
X1056779Y556555D01*
Y556551D01*
X1056733Y556492D01*
X1056688Y556436D01*
X1056639Y556387D01*
X1056590Y556345D01*
X1056548Y556306D01*
X1056516Y556282D01*
X1056502Y556271D01*
X1056492Y556264D01*
X1056488Y556257D01*
X1056485D01*
X1056411Y556208D01*
X1056334Y556166D01*
X1056253Y556127D01*
X1056180Y556096D01*
X1056113Y556071D01*
X1056085Y556061D01*
X1056060Y556050D01*
X1056043Y556047D01*
X1056029Y556040D01*
X1056018Y556036D01*
X1056015D01*
X1055903Y556008D01*
X1055791Y555987D01*
X1055682Y555970D01*
X1055580Y555959D01*
X1055535Y555956D01*
X1055493Y555952D01*
X1055454D01*
X1055423Y555948D01*
X1055395D01*
X1055377D01*
X1055363D01*
X1055359D01*
X1055202Y555956D01*
X1055128Y555959D01*
X1055058Y555970D01*
X1054991Y555980D01*
X1054928Y555991D01*
X1054869Y556001D01*
X1054813Y556012D01*
X1054764Y556026D01*
X1054722Y556036D01*
X1054683Y556047D01*
X1054651Y556057D01*
X1054627Y556068D01*
X1054606Y556071D01*
X1054595Y556078D01*
X1054592D01*
X1054473Y556131D01*
X1054364Y556190D01*
X1054315Y556222D01*
X1054269Y556254D01*
X1054227Y556285D01*
X1054189Y556317D01*
X1054154Y556345D01*
X1054126Y556373D01*
X1054098Y556397D01*
X1054077Y556418D01*
X1054059Y556436D01*
X1054048Y556450D01*
X1054042Y556457D01*
X1054038Y556460D01*
X1053978Y556537D01*
X1053929Y556618D01*
X1053891Y556695D01*
X1053859Y556769D01*
X1053835Y556835D01*
X1053828Y556863D01*
X1053821Y556888D01*
X1053814Y556906D01*
X1053810Y556920D01*
X1053807Y556930D01*
Y556934D01*
X1053800Y556972D01*
X1053789Y557014D01*
X1053779Y557109D01*
X1053768Y557203D01*
X1053765Y557298D01*
X1053761Y557340D01*
Y557382D01*
X1053758Y557417D01*
Y558623D01*
X1056993D01*
Y557456D01*
D02*
G37*
G36*
X1043023Y557160D02*
X1043019Y557054D01*
X1043016Y556956D01*
X1043005Y556869D01*
X1042995Y556791D01*
X1042991Y556760D01*
X1042988Y556732D01*
X1042981Y556704D01*
X1042977Y556683D01*
X1042974Y556665D01*
Y556655D01*
X1042970Y556648D01*
Y556644D01*
X1042946Y556564D01*
X1042921Y556487D01*
X1042893Y556420D01*
X1042869Y556364D01*
X1042844Y556318D01*
X1042827Y556283D01*
X1042813Y556262D01*
X1042809Y556259D01*
Y556255D01*
X1042764Y556196D01*
X1042718Y556140D01*
X1042669Y556091D01*
X1042620Y556048D01*
X1042578Y556010D01*
X1042546Y555985D01*
X1042532Y555975D01*
X1042522Y555968D01*
X1042518Y555961D01*
X1042515D01*
X1042441Y555912D01*
X1042364Y555870D01*
X1042283Y555831D01*
X1042210Y555799D01*
X1042143Y555775D01*
X1042115Y555765D01*
X1042091Y555754D01*
X1042073Y555751D01*
X1042059Y555743D01*
X1042048Y555740D01*
X1042045D01*
X1041933Y555712D01*
X1041821Y555691D01*
X1041712Y555673D01*
X1041610Y555663D01*
X1041565Y555659D01*
X1041523Y555656D01*
X1041484D01*
X1041453Y555652D01*
X1041424D01*
X1041407D01*
X1041393D01*
X1041389D01*
X1041232Y555659D01*
X1041158Y555663D01*
X1041088Y555673D01*
X1041021Y555684D01*
X1040958Y555694D01*
X1040899Y555705D01*
X1040843Y555715D01*
X1040794Y555729D01*
X1040751Y555740D01*
X1040713Y555751D01*
X1040681Y555761D01*
X1040657Y555771D01*
X1040636Y555775D01*
X1040625Y555782D01*
X1040622D01*
X1040503Y555835D01*
X1040394Y555894D01*
X1040345Y555926D01*
X1040299Y555957D01*
X1040257Y555989D01*
X1040219Y556020D01*
X1040184Y556048D01*
X1040156Y556077D01*
X1040128Y556101D01*
X1040107Y556122D01*
X1040089Y556140D01*
X1040079Y556154D01*
X1040071Y556161D01*
X1040068Y556164D01*
X1040008Y556241D01*
X1039959Y556322D01*
X1039921Y556399D01*
X1039889Y556473D01*
X1039865Y556539D01*
X1039858Y556567D01*
X1039851Y556592D01*
X1039844Y556609D01*
X1039840Y556623D01*
X1039837Y556634D01*
Y556637D01*
X1039830Y556676D01*
X1039819Y556718D01*
X1039809Y556813D01*
X1039798Y556907D01*
X1039795Y557002D01*
X1039791Y557044D01*
Y557086D01*
X1039788Y557121D01*
Y558327D01*
X1043023D01*
Y557160D01*
D02*
G37*
G36*
X1056993Y553432D02*
X1056611D01*
Y555027D01*
X1056534Y554971D01*
X1056499Y554943D01*
X1056467Y554915D01*
X1056439Y554890D01*
X1056418Y554872D01*
X1056404Y554858D01*
X1056401Y554855D01*
X1056379Y554834D01*
X1056351Y554806D01*
X1056323Y554774D01*
X1056292Y554739D01*
X1056222Y554666D01*
X1056155Y554589D01*
X1056092Y554515D01*
X1056064Y554483D01*
X1056040Y554452D01*
X1056018Y554431D01*
X1056004Y554410D01*
X1055994Y554399D01*
X1055990Y554396D01*
X1055924Y554319D01*
X1055861Y554245D01*
X1055805Y554178D01*
X1055749Y554119D01*
X1055699Y554063D01*
X1055650Y554014D01*
X1055608Y553968D01*
X1055570Y553926D01*
X1055538Y553891D01*
X1055507Y553863D01*
X1055482Y553838D01*
X1055461Y553817D01*
X1055444Y553803D01*
X1055433Y553789D01*
X1055426Y553786D01*
X1055423Y553782D01*
X1055345Y553716D01*
X1055275Y553663D01*
X1055209Y553618D01*
X1055149Y553579D01*
X1055100Y553551D01*
X1055061Y553530D01*
X1055048Y553523D01*
X1055037Y553519D01*
X1055033Y553516D01*
X1055030D01*
X1054960Y553488D01*
X1054890Y553470D01*
X1054827Y553456D01*
X1054767Y553446D01*
X1054718Y553439D01*
X1054679Y553435D01*
X1054665D01*
X1054655D01*
X1054651D01*
X1054648D01*
X1054578Y553439D01*
X1054511Y553446D01*
X1054448Y553460D01*
X1054385Y553477D01*
X1054329Y553498D01*
X1054276Y553523D01*
X1054227Y553548D01*
X1054185Y553572D01*
X1054143Y553597D01*
X1054108Y553621D01*
X1054077Y553646D01*
X1054052Y553667D01*
X1054035Y553684D01*
X1054017Y553698D01*
X1054010Y553705D01*
X1054007Y553709D01*
X1053961Y553761D01*
X1053922Y553817D01*
X1053887Y553877D01*
X1053856Y553940D01*
X1053831Y554000D01*
X1053810Y554063D01*
X1053793Y554122D01*
X1053779Y554182D01*
X1053768Y554235D01*
X1053761Y554287D01*
X1053754Y554333D01*
X1053751Y554371D01*
X1053747Y554403D01*
Y554448D01*
X1053751Y554532D01*
X1053758Y554613D01*
X1053768Y554687D01*
X1053786Y554757D01*
X1053803Y554823D01*
X1053824Y554883D01*
X1053845Y554939D01*
X1053866Y554988D01*
X1053891Y555034D01*
X1053912Y555072D01*
X1053933Y555107D01*
X1053950Y555135D01*
X1053968Y555156D01*
X1053978Y555170D01*
X1053985Y555181D01*
X1053989Y555184D01*
X1054035Y555233D01*
X1054087Y555275D01*
X1054140Y555314D01*
X1054199Y555349D01*
X1054255Y555377D01*
X1054311Y555405D01*
X1054371Y555426D01*
X1054424Y555444D01*
X1054476Y555461D01*
X1054525Y555472D01*
X1054571Y555482D01*
X1054609Y555489D01*
X1054641Y555493D01*
X1054662Y555496D01*
X1054676Y555500D01*
X1054683D01*
X1054725Y555093D01*
X1054669Y555090D01*
X1054616Y555086D01*
X1054525Y555065D01*
X1054441Y555037D01*
X1054406Y555023D01*
X1054374Y555006D01*
X1054346Y554992D01*
X1054322Y554974D01*
X1054301Y554960D01*
X1054283Y554950D01*
X1054269Y554935D01*
X1054259Y554929D01*
X1054255Y554925D01*
X1054252Y554921D01*
X1054220Y554887D01*
X1054192Y554851D01*
X1054171Y554813D01*
X1054150Y554774D01*
X1054119Y554697D01*
X1054098Y554624D01*
X1054087Y554561D01*
X1054080Y554532D01*
Y554508D01*
X1054077Y554487D01*
Y554410D01*
X1054084Y554361D01*
X1054101Y554273D01*
X1054129Y554199D01*
X1054157Y554133D01*
X1054189Y554084D01*
X1054203Y554063D01*
X1054217Y554045D01*
X1054227Y554031D01*
X1054234Y554021D01*
X1054238Y554017D01*
X1054241Y554014D01*
X1054273Y553982D01*
X1054304Y553958D01*
X1054336Y553933D01*
X1054371Y553915D01*
X1054438Y553884D01*
X1054501Y553863D01*
X1054553Y553852D01*
X1054578Y553845D01*
X1054599D01*
X1054613Y553842D01*
X1054627D01*
X1054634D01*
X1054637D01*
X1054679Y553845D01*
X1054722Y553849D01*
X1054806Y553870D01*
X1054886Y553901D01*
X1054960Y553937D01*
X1055023Y553972D01*
X1055048Y553986D01*
X1055072Y554003D01*
X1055090Y554014D01*
X1055104Y554024D01*
X1055111Y554028D01*
X1055114Y554031D01*
X1055163Y554070D01*
X1055216Y554115D01*
X1055272Y554168D01*
X1055328Y554224D01*
X1055444Y554340D01*
X1055552Y554459D01*
X1055605Y554515D01*
X1055650Y554571D01*
X1055693Y554620D01*
X1055727Y554662D01*
X1055759Y554697D01*
X1055780Y554722D01*
X1055798Y554739D01*
X1055801Y554746D01*
X1055854Y554809D01*
X1055903Y554865D01*
X1055948Y554921D01*
X1055994Y554971D01*
X1056036Y555020D01*
X1056078Y555062D01*
X1056113Y555100D01*
X1056148Y555135D01*
X1056180Y555167D01*
X1056208Y555191D01*
X1056232Y555216D01*
X1056250Y555233D01*
X1056267Y555251D01*
X1056278Y555261D01*
X1056285Y555265D01*
X1056288Y555269D01*
X1056366Y555332D01*
X1056443Y555384D01*
X1056516Y555430D01*
X1056583Y555465D01*
X1056639Y555493D01*
X1056663Y555503D01*
X1056681Y555514D01*
X1056698Y555521D01*
X1056709Y555524D01*
X1056716Y555528D01*
X1056720D01*
X1056768Y555545D01*
X1056818Y555556D01*
X1056863Y555566D01*
X1056905Y555570D01*
X1056940Y555574D01*
X1056968D01*
X1056986D01*
X1056993D01*
Y553432D01*
D02*
G37*
G36*
X1070153Y555523D02*
X1070223Y555509D01*
X1070290Y555488D01*
X1070353Y555467D01*
X1070413Y555442D01*
X1070465Y555414D01*
X1070518Y555386D01*
X1070560Y555358D01*
X1070602Y555330D01*
X1070637Y555305D01*
X1070668Y555281D01*
X1070693Y555260D01*
X1070714Y555239D01*
X1070728Y555225D01*
X1070735Y555218D01*
X1070739Y555214D01*
X1070784Y555162D01*
X1070823Y555102D01*
X1070854Y555046D01*
X1070886Y554986D01*
X1070910Y554927D01*
X1070928Y554867D01*
X1070945Y554811D01*
X1070959Y554755D01*
X1070970Y554702D01*
X1070977Y554657D01*
X1070984Y554615D01*
X1070987Y554576D01*
Y554548D01*
X1070991Y554524D01*
Y554506D01*
X1070987Y554418D01*
X1070977Y554338D01*
X1070963Y554261D01*
X1070945Y554187D01*
X1070924Y554117D01*
X1070900Y554054D01*
X1070872Y553994D01*
X1070844Y553942D01*
X1070819Y553893D01*
X1070791Y553851D01*
X1070767Y553812D01*
X1070746Y553784D01*
X1070728Y553759D01*
X1070714Y553742D01*
X1070704Y553731D01*
X1070700Y553728D01*
X1070644Y553672D01*
X1070584Y553626D01*
X1070525Y553584D01*
X1070462Y553549D01*
X1070402Y553518D01*
X1070342Y553493D01*
X1070286Y553472D01*
X1070230Y553455D01*
X1070178Y553441D01*
X1070132Y553433D01*
X1070090Y553427D01*
X1070052Y553419D01*
X1070023D01*
X1069999Y553416D01*
X1069985D01*
X1069982D01*
X1069925D01*
X1069869Y553423D01*
X1069768Y553441D01*
X1069680Y553469D01*
X1069641Y553483D01*
X1069606Y553497D01*
X1069571Y553511D01*
X1069543Y553525D01*
X1069519Y553539D01*
X1069501Y553553D01*
X1069484Y553563D01*
X1069473Y553570D01*
X1069466Y553574D01*
X1069463Y553577D01*
X1069389Y553640D01*
X1069330Y553714D01*
X1069284Y553788D01*
X1069245Y553858D01*
X1069217Y553924D01*
X1069207Y553952D01*
X1069200Y553973D01*
X1069193Y553994D01*
X1069189Y554008D01*
X1069186Y554019D01*
Y554022D01*
X1069144Y553945D01*
X1069102Y553879D01*
X1069056Y553819D01*
X1069010Y553773D01*
X1068972Y553735D01*
X1068940Y553710D01*
X1068919Y553693D01*
X1068916Y553689D01*
X1068912D01*
X1068846Y553651D01*
X1068779Y553623D01*
X1068716Y553602D01*
X1068656Y553588D01*
X1068607Y553581D01*
X1068565Y553574D01*
X1068551D01*
X1068541D01*
X1068534D01*
X1068530D01*
X1068450Y553577D01*
X1068373Y553591D01*
X1068303Y553612D01*
X1068239Y553633D01*
X1068187Y553654D01*
X1068166Y553665D01*
X1068148Y553675D01*
X1068134Y553682D01*
X1068120Y553689D01*
X1068117Y553693D01*
X1068113D01*
X1068043Y553742D01*
X1067983Y553798D01*
X1067931Y553854D01*
X1067885Y553910D01*
X1067850Y553959D01*
X1067826Y553998D01*
X1067815Y554015D01*
X1067808Y554026D01*
X1067805Y554033D01*
Y554036D01*
X1067766Y554121D01*
X1067738Y554205D01*
X1067717Y554289D01*
X1067703Y554362D01*
X1067696Y554429D01*
X1067693Y554454D01*
X1067689Y554478D01*
Y554524D01*
X1067693Y554594D01*
X1067700Y554660D01*
X1067710Y554724D01*
X1067724Y554786D01*
X1067742Y554843D01*
X1067759Y554895D01*
X1067780Y554944D01*
X1067798Y554986D01*
X1067819Y555028D01*
X1067840Y555064D01*
X1067857Y555092D01*
X1067875Y555120D01*
X1067889Y555137D01*
X1067899Y555155D01*
X1067906Y555162D01*
X1067910Y555165D01*
X1067952Y555211D01*
X1068001Y555253D01*
X1068050Y555291D01*
X1068099Y555326D01*
X1068152Y555358D01*
X1068201Y555382D01*
X1068303Y555428D01*
X1068348Y555446D01*
X1068390Y555460D01*
X1068429Y555470D01*
X1068460Y555481D01*
X1068488Y555488D01*
X1068509Y555491D01*
X1068523Y555495D01*
X1068527D01*
X1068597Y555098D01*
X1068495Y555078D01*
X1068408Y555049D01*
X1068331Y555018D01*
X1068271Y554983D01*
X1068222Y554955D01*
X1068190Y554927D01*
X1068169Y554909D01*
X1068162Y554902D01*
X1068113Y554839D01*
X1068078Y554776D01*
X1068050Y554709D01*
X1068033Y554650D01*
X1068022Y554594D01*
X1068018Y554573D01*
Y554552D01*
X1068015Y554534D01*
Y554513D01*
X1068022Y554429D01*
X1068036Y554355D01*
X1068061Y554289D01*
X1068085Y554233D01*
X1068113Y554191D01*
X1068138Y554159D01*
X1068152Y554138D01*
X1068159Y554131D01*
X1068187Y554103D01*
X1068215Y554082D01*
X1068278Y554043D01*
X1068337Y554015D01*
X1068394Y553998D01*
X1068446Y553987D01*
X1068485Y553984D01*
X1068502Y553980D01*
X1068513D01*
X1068520D01*
X1068523D01*
X1068572Y553984D01*
X1068618Y553991D01*
X1068663Y553998D01*
X1068702Y554012D01*
X1068772Y554047D01*
X1068828Y554082D01*
X1068874Y554121D01*
X1068905Y554156D01*
X1068916Y554170D01*
X1068923Y554177D01*
X1068930Y554184D01*
Y554187D01*
X1068976Y554264D01*
X1069007Y554345D01*
X1069032Y554422D01*
X1069046Y554492D01*
X1069056Y554552D01*
X1069060Y554576D01*
Y554601D01*
X1069063Y554618D01*
Y554664D01*
X1069060Y554685D01*
X1069056Y554702D01*
Y554709D01*
X1069403Y554752D01*
X1069389Y554692D01*
X1069379Y554636D01*
X1069371Y554590D01*
X1069364Y554548D01*
Y554517D01*
X1069361Y554492D01*
Y554471D01*
X1069364Y554422D01*
X1069368Y554373D01*
X1069389Y554285D01*
X1069417Y554208D01*
X1069449Y554142D01*
X1069484Y554089D01*
X1069498Y554068D01*
X1069512Y554050D01*
X1069522Y554036D01*
X1069533Y554026D01*
X1069536Y554022D01*
X1069540Y554019D01*
X1069575Y553987D01*
X1069610Y553959D01*
X1069645Y553935D01*
X1069684Y553914D01*
X1069757Y553882D01*
X1069831Y553858D01*
X1069894Y553847D01*
X1069918Y553844D01*
X1069943Y553840D01*
X1069960Y553837D01*
X1069978D01*
X1069985D01*
X1069988D01*
X1070041Y553840D01*
X1070090Y553844D01*
X1070185Y553868D01*
X1070265Y553896D01*
X1070335Y553931D01*
X1070367Y553952D01*
X1070392Y553970D01*
X1070416Y553984D01*
X1070434Y553998D01*
X1070448Y554012D01*
X1070458Y554022D01*
X1070465Y554026D01*
X1070469Y554029D01*
X1070504Y554068D01*
X1070532Y554106D01*
X1070556Y554145D01*
X1070581Y554184D01*
X1070616Y554264D01*
X1070637Y554341D01*
X1070651Y554404D01*
X1070654Y554436D01*
X1070658Y554457D01*
X1070661Y554478D01*
Y554506D01*
X1070654Y554590D01*
X1070637Y554671D01*
X1070616Y554738D01*
X1070588Y554797D01*
X1070560Y554846D01*
X1070539Y554881D01*
X1070528Y554892D01*
X1070521Y554902D01*
X1070514Y554906D01*
Y554909D01*
X1070483Y554937D01*
X1070451Y554965D01*
X1070378Y555014D01*
X1070297Y555053D01*
X1070216Y555084D01*
X1070143Y555109D01*
X1070111Y555116D01*
X1070083Y555123D01*
X1070059Y555130D01*
X1070041Y555134D01*
X1070031Y555137D01*
X1070027D01*
X1070080Y555533D01*
X1070153Y555523D01*
D02*
G37*
G36*
X1040944Y554850D02*
X1040913Y554776D01*
X1040878Y554706D01*
X1040846Y554643D01*
X1040815Y554587D01*
X1040804Y554562D01*
X1040790Y554541D01*
X1040783Y554524D01*
X1040776Y554513D01*
X1040769Y554506D01*
Y554503D01*
X1040716Y554418D01*
X1040667Y554345D01*
X1040622Y554278D01*
X1040580Y554226D01*
X1040545Y554180D01*
X1040520Y554149D01*
X1040503Y554131D01*
X1040496Y554124D01*
X1043023D01*
Y553728D01*
X1039777D01*
Y553984D01*
X1039858Y554029D01*
X1039935Y554082D01*
X1040008Y554142D01*
X1040071Y554201D01*
X1040131Y554254D01*
X1040152Y554278D01*
X1040173Y554296D01*
X1040191Y554313D01*
X1040201Y554327D01*
X1040208Y554334D01*
X1040212Y554338D01*
X1040292Y554432D01*
X1040362Y554534D01*
X1040429Y554632D01*
X1040485Y554724D01*
X1040506Y554762D01*
X1040527Y554801D01*
X1040548Y554836D01*
X1040562Y554864D01*
X1040573Y554888D01*
X1040583Y554906D01*
X1040587Y554916D01*
X1040590Y554920D01*
X1040972D01*
X1040944Y554850D01*
D02*
G37*
G36*
X1027596Y555524D02*
X1027751Y555514D01*
X1027891Y555500D01*
X1028021Y555479D01*
X1028140Y555454D01*
X1028248Y555426D01*
X1028343Y555398D01*
X1028431Y555367D01*
X1028504Y555339D01*
X1028571Y555311D01*
X1028624Y555283D01*
X1028669Y555258D01*
X1028704Y555237D01*
X1028729Y555223D01*
X1028743Y555212D01*
X1028746Y555209D01*
X1028806Y555156D01*
X1028855Y555100D01*
X1028900Y555041D01*
X1028939Y554981D01*
X1028970Y554921D01*
X1028998Y554858D01*
X1029020Y554799D01*
X1029037Y554743D01*
X1029051Y554687D01*
X1029062Y554638D01*
X1029069Y554592D01*
X1029072Y554553D01*
X1029076Y554522D01*
X1029079Y554497D01*
Y554476D01*
X1029076Y554410D01*
X1029072Y554350D01*
X1029062Y554291D01*
X1029051Y554235D01*
X1029034Y554182D01*
X1029020Y554136D01*
X1029002Y554091D01*
X1028985Y554052D01*
X1028967Y554014D01*
X1028950Y553982D01*
X1028932Y553954D01*
X1028918Y553933D01*
X1028907Y553915D01*
X1028897Y553901D01*
X1028893Y553895D01*
X1028890Y553891D01*
X1028851Y553849D01*
X1028813Y553807D01*
X1028725Y553737D01*
X1028637Y553677D01*
X1028550Y553628D01*
X1028508Y553607D01*
X1028469Y553590D01*
X1028438Y553576D01*
X1028406Y553562D01*
X1028385Y553551D01*
X1028364Y553548D01*
X1028354Y553540D01*
X1028350D01*
X1028283Y553519D01*
X1028210Y553502D01*
X1028059Y553470D01*
X1027905Y553449D01*
X1027831Y553442D01*
X1027758Y553435D01*
X1027691Y553432D01*
X1027628Y553428D01*
X1027575Y553425D01*
X1027526Y553421D01*
X1027488D01*
X1027456D01*
X1027439D01*
X1027432D01*
X1027344D01*
X1027260Y553425D01*
X1027183Y553428D01*
X1027109Y553432D01*
X1027043Y553439D01*
X1026980Y553446D01*
X1026923Y553453D01*
X1026871Y553456D01*
X1026825Y553463D01*
X1026787Y553470D01*
X1026752Y553477D01*
X1026724Y553484D01*
X1026699Y553488D01*
X1026685Y553491D01*
X1026675Y553495D01*
X1026671D01*
X1026569Y553523D01*
X1026475Y553558D01*
X1026394Y553590D01*
X1026324Y553621D01*
X1026296Y553639D01*
X1026268Y553649D01*
X1026243Y553663D01*
X1026226Y553674D01*
X1026212Y553684D01*
X1026201Y553688D01*
X1026194Y553695D01*
X1026191D01*
X1026121Y553744D01*
X1026058Y553800D01*
X1026005Y553852D01*
X1025963Y553905D01*
X1025928Y553951D01*
X1025907Y553986D01*
X1025896Y554000D01*
X1025889Y554010D01*
X1025886Y554017D01*
Y554021D01*
X1025851Y554098D01*
X1025826Y554175D01*
X1025805Y554252D01*
X1025795Y554322D01*
X1025788Y554385D01*
X1025784Y554410D01*
X1025781Y554434D01*
Y554476D01*
X1025784Y554539D01*
X1025788Y554603D01*
X1025798Y554662D01*
X1025809Y554718D01*
X1025823Y554767D01*
X1025840Y554816D01*
X1025858Y554862D01*
X1025875Y554901D01*
X1025893Y554939D01*
X1025910Y554971D01*
X1025925Y554999D01*
X1025942Y555020D01*
X1025953Y555037D01*
X1025963Y555051D01*
X1025966Y555058D01*
X1025970Y555062D01*
X1026009Y555104D01*
X1026047Y555142D01*
X1026135Y555212D01*
X1026222Y555275D01*
X1026310Y555325D01*
X1026352Y555346D01*
X1026387Y555363D01*
X1026422Y555377D01*
X1026450Y555391D01*
X1026475Y555398D01*
X1026496Y555405D01*
X1026506Y555412D01*
X1026510D01*
X1026576Y555433D01*
X1026650Y555451D01*
X1026801Y555479D01*
X1026955Y555500D01*
X1027029Y555507D01*
X1027102Y555514D01*
X1027169Y555517D01*
X1027232Y555521D01*
X1027288Y555524D01*
X1027337D01*
X1027376Y555528D01*
X1027407D01*
X1027425D01*
X1027432D01*
X1027596Y555524D01*
D02*
G37*
%LPC*%
G36*
X1089732Y680612D02*
X1089658D01*
X1089515Y680609D01*
X1089385Y680605D01*
X1089266Y680595D01*
X1089157Y680584D01*
X1089059Y680570D01*
X1088975Y680553D01*
X1088898Y680535D01*
X1088831Y680518D01*
X1088775Y680500D01*
X1088726Y680482D01*
X1088684Y680468D01*
X1088652Y680451D01*
X1088628Y680440D01*
X1088614Y680430D01*
X1088603Y680426D01*
X1088600Y680423D01*
X1088554Y680388D01*
X1088512Y680349D01*
X1088477Y680311D01*
X1088449Y680272D01*
X1088421Y680234D01*
X1088400Y680195D01*
X1088382Y680160D01*
X1088368Y680125D01*
X1088351Y680062D01*
X1088344Y680034D01*
X1088340Y680009D01*
Y679992D01*
X1088337Y679974D01*
Y679964D01*
X1088340Y679915D01*
X1088347Y679865D01*
X1088361Y679820D01*
X1088379Y679778D01*
X1088418Y679697D01*
X1088466Y679631D01*
X1088516Y679578D01*
X1088537Y679557D01*
X1088554Y679539D01*
X1088572Y679522D01*
X1088586Y679511D01*
X1088593Y679508D01*
X1088596Y679504D01*
X1088652Y679473D01*
X1088719Y679445D01*
X1088792Y679417D01*
X1088873Y679396D01*
X1088961Y679378D01*
X1089048Y679364D01*
X1089227Y679343D01*
X1089311Y679333D01*
X1089392Y679329D01*
X1089465Y679326D01*
X1089529Y679322D01*
X1089581Y679319D01*
X1089658D01*
X1089802Y679322D01*
X1089932Y679329D01*
X1090054Y679336D01*
X1090163Y679350D01*
X1090261Y679364D01*
X1090352Y679382D01*
X1090429Y679403D01*
X1090499Y679420D01*
X1090563Y679438D01*
X1090612Y679459D01*
X1090654Y679476D01*
X1090689Y679491D01*
X1090717Y679504D01*
X1090734Y679515D01*
X1090745Y679519D01*
X1090748Y679522D01*
X1090790Y679554D01*
X1090826Y679589D01*
X1090857Y679624D01*
X1090882Y679659D01*
X1090906Y679697D01*
X1090924Y679732D01*
X1090952Y679802D01*
X1090969Y679865D01*
X1090973Y679894D01*
X1090976Y679915D01*
X1090980Y679936D01*
Y679960D01*
X1090976Y680013D01*
X1090969Y680058D01*
X1090955Y680107D01*
X1090938Y680149D01*
X1090896Y680230D01*
X1090850Y680297D01*
X1090826Y680325D01*
X1090801Y680349D01*
X1090777Y680370D01*
X1090759Y680391D01*
X1090741Y680405D01*
X1090727Y680416D01*
X1090720Y680419D01*
X1090717Y680423D01*
X1090661Y680458D01*
X1090598Y680486D01*
X1090521Y680510D01*
X1090440Y680531D01*
X1090356Y680549D01*
X1090268Y680567D01*
X1090089Y680588D01*
X1090005Y680598D01*
X1089925Y680602D01*
X1089851Y680605D01*
X1089788Y680609D01*
X1089732Y680612D01*
D02*
G37*
G36*
X1075757Y678346D02*
X1075707D01*
X1075574Y678343D01*
X1075455Y678332D01*
X1075399Y678325D01*
X1075350Y678318D01*
X1075301Y678311D01*
X1075259Y678304D01*
X1075220Y678293D01*
X1075185Y678286D01*
X1075154Y678279D01*
X1075129Y678272D01*
X1075108Y678265D01*
X1075094Y678262D01*
X1075087Y678258D01*
X1075084D01*
X1074993Y678223D01*
X1074912Y678185D01*
X1074842Y678146D01*
X1074782Y678111D01*
X1074737Y678076D01*
X1074702Y678048D01*
X1074680Y678030D01*
X1074677Y678027D01*
X1074673Y678024D01*
X1074635Y677981D01*
X1074600Y677932D01*
X1074572Y677883D01*
X1074547Y677838D01*
X1074530Y677796D01*
X1074516Y677764D01*
X1074512Y677750D01*
X1074509Y677740D01*
X1074505Y677736D01*
Y677733D01*
X1074488Y677659D01*
X1074474Y677578D01*
X1074463Y677494D01*
X1074456Y677414D01*
X1074453Y677344D01*
Y677312D01*
X1074449Y677284D01*
Y676541D01*
X1076920D01*
Y677287D01*
X1076917Y677350D01*
X1076913Y677410D01*
X1076910Y677466D01*
X1076906Y677515D01*
X1076899Y677561D01*
X1076892Y677603D01*
X1076889Y677638D01*
X1076882Y677670D01*
X1076875Y677698D01*
X1076868Y677719D01*
X1076864Y677740D01*
X1076861Y677754D01*
X1076857Y677764D01*
X1076854Y677768D01*
Y677771D01*
X1076833Y677817D01*
X1076812Y677859D01*
X1076756Y677936D01*
X1076696Y678006D01*
X1076633Y678066D01*
X1076577Y678111D01*
X1076552Y678132D01*
X1076531Y678146D01*
X1076510Y678160D01*
X1076496Y678171D01*
X1076489Y678174D01*
X1076486Y678178D01*
X1076433Y678206D01*
X1076374Y678234D01*
X1076251Y678276D01*
X1076121Y678304D01*
X1075995Y678325D01*
X1075935Y678332D01*
X1075883Y678339D01*
X1075834Y678343D01*
X1075792D01*
X1075757Y678346D01*
D02*
G37*
G36*
X1061787Y678050D02*
X1061738D01*
X1061604Y678046D01*
X1061485Y678036D01*
X1061429Y678029D01*
X1061380Y678022D01*
X1061331Y678015D01*
X1061289Y678008D01*
X1061250Y677997D01*
X1061215Y677990D01*
X1061184Y677983D01*
X1061159Y677976D01*
X1061138Y677969D01*
X1061124Y677966D01*
X1061117Y677962D01*
X1061114D01*
X1061022Y677927D01*
X1060942Y677889D01*
X1060872Y677850D01*
X1060812Y677815D01*
X1060767Y677780D01*
X1060732Y677752D01*
X1060711Y677734D01*
X1060707Y677731D01*
X1060704Y677727D01*
X1060665Y677685D01*
X1060630Y677636D01*
X1060602Y677587D01*
X1060577Y677542D01*
X1060560Y677499D01*
X1060546Y677468D01*
X1060542Y677454D01*
X1060539Y677443D01*
X1060535Y677440D01*
Y677436D01*
X1060518Y677363D01*
X1060504Y677282D01*
X1060493Y677198D01*
X1060486Y677117D01*
X1060483Y677047D01*
Y677016D01*
X1060479Y676988D01*
Y676245D01*
X1062950D01*
Y676991D01*
X1062947Y677054D01*
X1062943Y677114D01*
X1062940Y677170D01*
X1062936Y677219D01*
X1062929Y677265D01*
X1062922Y677307D01*
X1062919Y677342D01*
X1062912Y677373D01*
X1062905Y677401D01*
X1062898Y677422D01*
X1062894Y677443D01*
X1062891Y677457D01*
X1062887Y677468D01*
X1062884Y677471D01*
Y677475D01*
X1062863Y677521D01*
X1062842Y677563D01*
X1062786Y677640D01*
X1062726Y677710D01*
X1062663Y677769D01*
X1062607Y677815D01*
X1062582Y677836D01*
X1062561Y677850D01*
X1062540Y677864D01*
X1062526Y677875D01*
X1062519Y677878D01*
X1062516Y677881D01*
X1062463Y677910D01*
X1062403Y677938D01*
X1062281Y677980D01*
X1062151Y678008D01*
X1062025Y678029D01*
X1061965Y678036D01*
X1061913Y678043D01*
X1061864Y678046D01*
X1061822D01*
X1061787Y678050D01*
D02*
G37*
G36*
X1089753Y678039D02*
X1089704D01*
X1089571Y678036D01*
X1089452Y678025D01*
X1089395Y678018D01*
X1089346Y678011D01*
X1089297Y678004D01*
X1089255Y677997D01*
X1089217Y677987D01*
X1089182Y677980D01*
X1089150Y677973D01*
X1089126Y677966D01*
X1089105Y677959D01*
X1089090Y677955D01*
X1089083Y677952D01*
X1089080D01*
X1088989Y677917D01*
X1088908Y677878D01*
X1088838Y677840D01*
X1088779Y677804D01*
X1088733Y677769D01*
X1088698Y677741D01*
X1088677Y677724D01*
X1088673Y677720D01*
X1088670Y677717D01*
X1088631Y677675D01*
X1088596Y677626D01*
X1088568Y677577D01*
X1088544Y677531D01*
X1088526Y677489D01*
X1088512Y677457D01*
X1088509Y677443D01*
X1088505Y677433D01*
X1088502Y677429D01*
Y677426D01*
X1088484Y677352D01*
X1088470Y677272D01*
X1088459Y677188D01*
X1088453Y677107D01*
X1088449Y677037D01*
Y677005D01*
X1088446Y676977D01*
Y676234D01*
X1090917D01*
Y676981D01*
X1090913Y677044D01*
X1090910Y677103D01*
X1090906Y677160D01*
X1090903Y677209D01*
X1090896Y677254D01*
X1090889Y677296D01*
X1090885Y677331D01*
X1090878Y677363D01*
X1090871Y677391D01*
X1090864Y677412D01*
X1090861Y677433D01*
X1090857Y677447D01*
X1090854Y677457D01*
X1090850Y677461D01*
Y677465D01*
X1090829Y677510D01*
X1090808Y677552D01*
X1090752Y677629D01*
X1090692Y677699D01*
X1090629Y677759D01*
X1090573Y677804D01*
X1090549Y677825D01*
X1090528Y677840D01*
X1090507Y677853D01*
X1090492Y677864D01*
X1090486Y677868D01*
X1090482Y677871D01*
X1090429Y677899D01*
X1090370Y677927D01*
X1090247Y677969D01*
X1090117Y677997D01*
X1089991Y678018D01*
X1089932Y678025D01*
X1089879Y678032D01*
X1089830Y678036D01*
X1089788D01*
X1089753Y678039D01*
D02*
G37*
G36*
X1047845Y678034D02*
X1047796D01*
X1047662Y678030D01*
X1047543Y678020D01*
X1047487Y678013D01*
X1047438Y678006D01*
X1047389Y677999D01*
X1047347Y677992D01*
X1047308Y677981D01*
X1047273Y677974D01*
X1047242Y677968D01*
X1047217Y677960D01*
X1047196Y677953D01*
X1047182Y677950D01*
X1047175Y677946D01*
X1047172D01*
X1047081Y677911D01*
X1047000Y677873D01*
X1046930Y677834D01*
X1046870Y677799D01*
X1046825Y677764D01*
X1046790Y677736D01*
X1046768Y677719D01*
X1046765Y677715D01*
X1046761Y677712D01*
X1046723Y677670D01*
X1046688Y677620D01*
X1046660Y677571D01*
X1046635Y677526D01*
X1046618Y677484D01*
X1046604Y677452D01*
X1046600Y677438D01*
X1046597Y677428D01*
X1046593Y677424D01*
Y677421D01*
X1046576Y677347D01*
X1046562Y677266D01*
X1046551Y677182D01*
X1046544Y677102D01*
X1046541Y677032D01*
Y677000D01*
X1046537Y676972D01*
Y676229D01*
X1049008D01*
Y676975D01*
X1049005Y677039D01*
X1049001Y677098D01*
X1048998Y677154D01*
X1048994Y677203D01*
X1048987Y677249D01*
X1048980Y677291D01*
X1048977Y677326D01*
X1048970Y677357D01*
X1048963Y677386D01*
X1048956Y677407D01*
X1048952Y677428D01*
X1048949Y677442D01*
X1048945Y677452D01*
X1048942Y677456D01*
Y677459D01*
X1048921Y677505D01*
X1048900Y677547D01*
X1048844Y677624D01*
X1048784Y677694D01*
X1048721Y677754D01*
X1048665Y677799D01*
X1048640Y677820D01*
X1048619Y677834D01*
X1048598Y677848D01*
X1048584Y677859D01*
X1048577Y677862D01*
X1048574Y677866D01*
X1048521Y677894D01*
X1048462Y677922D01*
X1048339Y677964D01*
X1048209Y677992D01*
X1048083Y678013D01*
X1048023Y678020D01*
X1047971Y678027D01*
X1047922Y678030D01*
X1047880D01*
X1047845Y678034D01*
D02*
G37*
G36*
X1070553Y558211D02*
X1068082D01*
Y557464D01*
X1068085Y557401D01*
X1068089Y557342D01*
X1068092Y557286D01*
X1068096Y557237D01*
X1068103Y557191D01*
X1068110Y557149D01*
X1068113Y557114D01*
X1068120Y557082D01*
X1068127Y557054D01*
X1068134Y557033D01*
X1068138Y557012D01*
X1068141Y556998D01*
X1068145Y556988D01*
X1068148Y556984D01*
Y556981D01*
X1068169Y556935D01*
X1068190Y556893D01*
X1068246Y556816D01*
X1068306Y556746D01*
X1068369Y556686D01*
X1068425Y556641D01*
X1068450Y556620D01*
X1068471Y556606D01*
X1068492Y556592D01*
X1068506Y556581D01*
X1068513Y556578D01*
X1068516Y556574D01*
X1068569Y556546D01*
X1068628Y556518D01*
X1068751Y556476D01*
X1068881Y556448D01*
X1069007Y556427D01*
X1069067Y556420D01*
X1069119Y556413D01*
X1069168Y556409D01*
X1069210D01*
X1069245Y556406D01*
X1069273D01*
X1069287D01*
X1069294D01*
X1069428Y556409D01*
X1069547Y556420D01*
X1069603Y556427D01*
X1069652Y556434D01*
X1069701Y556441D01*
X1069743Y556448D01*
X1069782Y556459D01*
X1069817Y556465D01*
X1069848Y556473D01*
X1069873Y556480D01*
X1069894Y556487D01*
X1069908Y556490D01*
X1069915Y556494D01*
X1069918D01*
X1070010Y556529D01*
X1070090Y556567D01*
X1070160Y556606D01*
X1070220Y556641D01*
X1070265Y556676D01*
X1070300Y556704D01*
X1070322Y556721D01*
X1070325Y556725D01*
X1070329Y556728D01*
X1070367Y556771D01*
X1070402Y556820D01*
X1070430Y556869D01*
X1070455Y556914D01*
X1070472Y556956D01*
X1070486Y556988D01*
X1070490Y557002D01*
X1070493Y557012D01*
X1070497Y557016D01*
Y557019D01*
X1070514Y557093D01*
X1070528Y557174D01*
X1070539Y557258D01*
X1070546Y557338D01*
X1070549Y557408D01*
Y557440D01*
X1070553Y557468D01*
Y558211D01*
D02*
G37*
G36*
X1028644Y558206D02*
X1026173D01*
Y557459D01*
X1026177Y557396D01*
X1026180Y557337D01*
X1026184Y557281D01*
X1026187Y557231D01*
X1026194Y557186D01*
X1026201Y557144D01*
X1026205Y557109D01*
X1026212Y557077D01*
X1026219Y557049D01*
X1026226Y557028D01*
X1026229Y557007D01*
X1026233Y556993D01*
X1026236Y556983D01*
X1026240Y556979D01*
Y556976D01*
X1026261Y556930D01*
X1026282Y556888D01*
X1026338Y556811D01*
X1026398Y556741D01*
X1026461Y556681D01*
X1026517Y556636D01*
X1026541Y556614D01*
X1026562Y556600D01*
X1026583Y556586D01*
X1026598Y556576D01*
X1026605Y556572D01*
X1026608Y556569D01*
X1026661Y556541D01*
X1026720Y556513D01*
X1026843Y556471D01*
X1026973Y556443D01*
X1027099Y556422D01*
X1027158Y556415D01*
X1027211Y556408D01*
X1027260Y556404D01*
X1027302D01*
X1027337Y556401D01*
X1027365D01*
X1027379D01*
X1027386D01*
X1027519Y556404D01*
X1027638Y556415D01*
X1027695Y556422D01*
X1027744Y556429D01*
X1027793Y556436D01*
X1027835Y556443D01*
X1027873Y556453D01*
X1027908Y556460D01*
X1027940Y556467D01*
X1027964Y556474D01*
X1027986Y556481D01*
X1027999Y556485D01*
X1028007Y556488D01*
X1028010D01*
X1028101Y556523D01*
X1028182Y556562D01*
X1028252Y556600D01*
X1028311Y556636D01*
X1028357Y556671D01*
X1028392Y556699D01*
X1028413Y556716D01*
X1028417Y556720D01*
X1028420Y556723D01*
X1028459Y556765D01*
X1028494Y556814D01*
X1028522Y556863D01*
X1028546Y556909D01*
X1028564Y556951D01*
X1028578Y556983D01*
X1028581Y556997D01*
X1028585Y557007D01*
X1028588Y557011D01*
Y557014D01*
X1028606Y557088D01*
X1028620Y557168D01*
X1028631Y557253D01*
X1028637Y557333D01*
X1028641Y557403D01*
Y557435D01*
X1028644Y557463D01*
Y558206D01*
D02*
G37*
G36*
X1056611Y558195D02*
X1054140D01*
Y557449D01*
X1054143Y557386D01*
X1054147Y557326D01*
X1054150Y557270D01*
X1054154Y557221D01*
X1054161Y557175D01*
X1054168Y557133D01*
X1054171Y557098D01*
X1054178Y557067D01*
X1054185Y557039D01*
X1054192Y557018D01*
X1054196Y556997D01*
X1054199Y556983D01*
X1054203Y556972D01*
X1054206Y556969D01*
Y556965D01*
X1054227Y556920D01*
X1054248Y556877D01*
X1054304Y556800D01*
X1054364Y556730D01*
X1054427Y556671D01*
X1054483Y556625D01*
X1054508Y556604D01*
X1054529Y556590D01*
X1054550Y556576D01*
X1054564Y556566D01*
X1054571Y556562D01*
X1054574Y556558D01*
X1054627Y556530D01*
X1054687Y556502D01*
X1054809Y556460D01*
X1054939Y556432D01*
X1055065Y556411D01*
X1055125Y556404D01*
X1055177Y556397D01*
X1055226Y556394D01*
X1055268D01*
X1055303Y556390D01*
X1055331D01*
X1055345D01*
X1055352D01*
X1055486Y556394D01*
X1055605Y556404D01*
X1055661Y556411D01*
X1055710Y556418D01*
X1055759Y556425D01*
X1055801Y556432D01*
X1055840Y556443D01*
X1055875Y556450D01*
X1055906Y556457D01*
X1055931Y556464D01*
X1055952Y556471D01*
X1055966Y556474D01*
X1055973Y556478D01*
X1055976D01*
X1056068Y556513D01*
X1056148Y556551D01*
X1056218Y556590D01*
X1056278Y556625D01*
X1056323Y556660D01*
X1056358Y556688D01*
X1056379Y556706D01*
X1056383Y556709D01*
X1056386Y556713D01*
X1056425Y556755D01*
X1056460Y556804D01*
X1056488Y556853D01*
X1056513Y556898D01*
X1056530Y556940D01*
X1056544Y556972D01*
X1056548Y556986D01*
X1056551Y556997D01*
X1056555Y557000D01*
Y557004D01*
X1056572Y557077D01*
X1056586Y557158D01*
X1056597Y557242D01*
X1056604Y557323D01*
X1056607Y557393D01*
Y557424D01*
X1056611Y557452D01*
Y558195D01*
D02*
G37*
G36*
X1042641Y557899D02*
X1040170D01*
Y557153D01*
X1040173Y557090D01*
X1040177Y557030D01*
X1040180Y556974D01*
X1040184Y556925D01*
X1040191Y556879D01*
X1040198Y556837D01*
X1040201Y556802D01*
X1040208Y556771D01*
X1040215Y556742D01*
X1040222Y556721D01*
X1040226Y556700D01*
X1040229Y556686D01*
X1040233Y556676D01*
X1040236Y556672D01*
Y556669D01*
X1040257Y556623D01*
X1040278Y556581D01*
X1040334Y556504D01*
X1040394Y556434D01*
X1040457Y556374D01*
X1040513Y556329D01*
X1040538Y556308D01*
X1040559Y556294D01*
X1040580Y556280D01*
X1040594Y556269D01*
X1040601Y556266D01*
X1040604Y556262D01*
X1040657Y556234D01*
X1040716Y556206D01*
X1040839Y556164D01*
X1040969Y556136D01*
X1041095Y556115D01*
X1041155Y556108D01*
X1041207Y556101D01*
X1041256Y556097D01*
X1041298D01*
X1041333Y556094D01*
X1041361D01*
X1041376D01*
X1041383D01*
X1041516Y556097D01*
X1041635Y556108D01*
X1041691Y556115D01*
X1041740Y556122D01*
X1041789Y556129D01*
X1041831Y556136D01*
X1041870Y556147D01*
X1041905Y556154D01*
X1041936Y556161D01*
X1041961Y556168D01*
X1041982Y556175D01*
X1041996Y556178D01*
X1042003Y556182D01*
X1042006D01*
X1042097Y556217D01*
X1042178Y556255D01*
X1042248Y556294D01*
X1042308Y556329D01*
X1042353Y556364D01*
X1042389Y556392D01*
X1042410Y556409D01*
X1042413Y556413D01*
X1042417Y556417D01*
X1042455Y556459D01*
X1042490Y556508D01*
X1042518Y556557D01*
X1042543Y556602D01*
X1042560Y556644D01*
X1042574Y556676D01*
X1042578Y556690D01*
X1042581Y556700D01*
X1042585Y556704D01*
Y556707D01*
X1042602Y556781D01*
X1042616Y556862D01*
X1042627Y556946D01*
X1042634Y557026D01*
X1042637Y557096D01*
Y557128D01*
X1042641Y557156D01*
Y557899D01*
D02*
G37*
G36*
X1027509Y555121D02*
X1027484D01*
X1027467D01*
X1027453D01*
X1027442D01*
X1027435D01*
X1027432D01*
X1027288Y555118D01*
X1027158Y555111D01*
X1027036Y555104D01*
X1026927Y555090D01*
X1026829Y555076D01*
X1026738Y555058D01*
X1026661Y555037D01*
X1026590Y555020D01*
X1026527Y555002D01*
X1026478Y554981D01*
X1026436Y554964D01*
X1026401Y554949D01*
X1026373Y554935D01*
X1026356Y554925D01*
X1026345Y554921D01*
X1026342Y554918D01*
X1026300Y554886D01*
X1026264Y554851D01*
X1026233Y554816D01*
X1026208Y554781D01*
X1026184Y554743D01*
X1026166Y554708D01*
X1026138Y554638D01*
X1026121Y554575D01*
X1026117Y554546D01*
X1026114Y554525D01*
X1026110Y554504D01*
Y554480D01*
X1026114Y554427D01*
X1026121Y554382D01*
X1026135Y554333D01*
X1026152Y554291D01*
X1026194Y554210D01*
X1026240Y554143D01*
X1026264Y554115D01*
X1026289Y554091D01*
X1026313Y554070D01*
X1026331Y554049D01*
X1026349Y554035D01*
X1026363Y554024D01*
X1026370Y554021D01*
X1026373Y554017D01*
X1026429Y553982D01*
X1026492Y553954D01*
X1026569Y553929D01*
X1026650Y553909D01*
X1026734Y553891D01*
X1026822Y553873D01*
X1027001Y553852D01*
X1027085Y553842D01*
X1027165Y553838D01*
X1027239Y553835D01*
X1027302Y553831D01*
X1027358Y553828D01*
X1027379D01*
X1027397D01*
X1027411D01*
X1027421D01*
X1027428D01*
X1027432D01*
X1027575Y553831D01*
X1027705Y553835D01*
X1027824Y553845D01*
X1027933Y553856D01*
X1028031Y553870D01*
X1028115Y553887D01*
X1028192Y553905D01*
X1028259Y553923D01*
X1028315Y553940D01*
X1028364Y553958D01*
X1028406Y553972D01*
X1028438Y553989D01*
X1028462Y554000D01*
X1028476Y554010D01*
X1028487Y554014D01*
X1028490Y554017D01*
X1028536Y554052D01*
X1028578Y554091D01*
X1028613Y554129D01*
X1028641Y554168D01*
X1028669Y554206D01*
X1028690Y554245D01*
X1028708Y554280D01*
X1028722Y554315D01*
X1028739Y554378D01*
X1028746Y554406D01*
X1028750Y554431D01*
Y554448D01*
X1028753Y554466D01*
Y554476D01*
X1028750Y554525D01*
X1028743Y554575D01*
X1028729Y554620D01*
X1028711Y554662D01*
X1028672Y554743D01*
X1028624Y554809D01*
X1028574Y554862D01*
X1028553Y554883D01*
X1028536Y554901D01*
X1028518Y554918D01*
X1028504Y554929D01*
X1028497Y554932D01*
X1028494Y554935D01*
X1028438Y554967D01*
X1028371Y554995D01*
X1028298Y555023D01*
X1028217Y555044D01*
X1028129Y555062D01*
X1028042Y555076D01*
X1027863Y555097D01*
X1027779Y555107D01*
X1027698Y555111D01*
X1027625Y555114D01*
X1027561Y555118D01*
X1027509Y555121D01*
D02*
G37*
%LPD*%
D13*
X1149352Y514345D02*
X1154431D01*
X1156970Y511806D01*
Y501649D01*
X1154431Y499110D01*
X1149352D01*
X1146813Y501649D01*
Y511806D01*
X1149352Y514345D01*
X1141735Y499110D02*
Y514345D01*
X1131578Y499110D01*
Y514345D01*
X1164593Y565145D02*
X1169671D01*
X1172210Y562606D01*
Y552449D01*
X1169671Y549910D01*
X1164593D01*
X1162053Y552449D01*
Y562606D01*
X1164593Y565145D01*
X1146818D02*
X1156975D01*
Y557528D01*
X1151897D01*
X1156975D01*
Y549910D01*
X1131583Y565145D02*
X1141740D01*
Y557528D01*
X1136662D01*
X1141740D01*
Y549910D01*
X967738Y720095D02*
X962659D01*
X960120Y722634D01*
Y732791D01*
X962659Y735330D01*
X967738D01*
X970277Y732791D01*
Y722634D01*
X967738Y720095D01*
X975355Y735330D02*
Y720095D01*
X985512Y735330D01*
Y720095D01*
X952497Y669295D02*
X947419D01*
X944880Y671834D01*
Y681991D01*
X947419Y684530D01*
X952497D01*
X955037Y681991D01*
Y671834D01*
X952497Y669295D01*
X970272D02*
X960115D01*
Y676913D01*
X965193D01*
X960115D01*
Y684530D01*
X985507Y669295D02*
X975350D01*
Y676913D01*
X980428D01*
X975350D01*
Y684530D01*
D45*
X1086170Y474130D02*
X1126170D01*
X1086170D02*
Y590130D01*
X1126170D01*
Y474130D02*
Y590130D01*
X1006580Y511130D02*
Y553170D01*
X946680Y511130D02*
Y553170D01*
X965340Y502180D02*
X987630D01*
X965340Y562080D02*
X987920D01*
X1030920Y760310D02*
X990920D01*
X1030920D02*
Y644310D01*
X990920D01*
Y760310D02*
Y644310D01*
X1110510Y723310D02*
Y681270D01*
X1170410Y723310D02*
Y681270D01*
X1151750Y732260D02*
X1129460D01*
X1151750Y672360D02*
X1129170D01*
D46*
X955380Y577630D02*
G03*
X955380Y577630I-1250J0D01*
G01*
X1161710Y656810D02*
G03*
X1161710Y656810I1250J0D01*
G01*
D67*
X1023430Y548630D02*
X1031430D01*
X1065340D02*
X1073340D01*
X1051370D02*
X1059370D01*
X1037400D02*
X1045400D01*
X1093660Y685810D02*
X1085660D01*
X1051750D02*
X1043750D01*
X1065720D02*
X1057720D01*
X1079690D02*
X1071690D01*
M02*
