%TF.GenerationSoftware,Altium Limited,Altium Designer,24.2.2 (26)*%
G04 Layer_Color=8388736*
%FSLAX45Y45*%
%MOMM*%
%TF.SameCoordinates,E03CB206-BB87-4E68-BEA4-A169BFC7E2EA*%
%TF.FilePolarity,Positive*%
%TF.FileFunction,Other,Board_Shape*%
%TF.Part,CustomerPanel*%
G01*
G75*
%TA.AperFunction,NonConductor*%
%ADD43C,0.20000*%
%ADD48C,0.15000*%
%ADD50C,0.25400*%
%ADD66C,0.07620*%
%ADD67C,0.50800*%
D43*
X9212360Y4615560D02*
X9502360D01*
Y5615560D02*
Y4615560D01*
X9212360Y5615560D02*
X9502360D01*
X9212360D02*
Y4615560D01*
X316083Y5734319D02*
X741081D01*
X316083Y5334320D02*
Y5734319D01*
Y5334320D02*
X741081D01*
Y5734319D01*
X316083Y4863780D02*
X741081D01*
X316083Y4463781D02*
Y4863780D01*
Y4463781D02*
X741081D01*
Y4863780D01*
X7772720Y3120243D02*
Y3545241D01*
Y3120243D02*
X8172719D01*
Y3545241D01*
X7772720D02*
X8172719D01*
X7160920Y3119979D02*
Y3544981D01*
Y3119979D02*
X7560920D01*
Y3544981D01*
X7160920D02*
X7560920D01*
X7577800Y7132117D02*
Y7782118D01*
Y7132117D02*
X8017800D01*
Y7782118D01*
X7577800D02*
X8017800D01*
X7877800Y7939496D02*
Y8229498D01*
X7717800D02*
X7877800D01*
X7717800Y7939496D02*
Y8229498D01*
Y7939496D02*
X7877800D01*
X6769501Y7221698D02*
X6819499D01*
Y7321697D01*
X6769501D02*
X6819499D01*
X6769501Y7221698D02*
Y7321697D01*
X6906661D02*
X6956659D01*
X6906661Y7221698D02*
Y7321697D01*
Y7221698D02*
X6956659D01*
Y7321697D01*
X8438281Y7700157D02*
X8488279D01*
X8438281Y7600158D02*
Y7700157D01*
Y7600158D02*
X8488279D01*
Y7700157D01*
X7269922Y7467478D02*
X7324918D01*
Y7572477D01*
X7269922D02*
X7324918D01*
X7269922Y7467478D02*
Y7572477D01*
X7264801Y7281459D02*
X7314799D01*
X7264801Y7181459D02*
Y7281459D01*
Y7181459D02*
X7314799D01*
Y7281459D01*
X7122602Y7698217D02*
X7177598D01*
X7122602Y7593218D02*
Y7698217D01*
Y7593218D02*
X7177598D01*
Y7698217D01*
X8290961Y7696271D02*
X8340959D01*
Y7796271D01*
X8290961D02*
X8340959D01*
X8290961Y7696271D02*
Y7796271D01*
X7264801Y7638258D02*
X7314799D01*
Y7738257D01*
X7264801D02*
X7314799D01*
X7264801Y7638258D02*
Y7738257D01*
X7717800Y6735536D02*
Y7025538D01*
Y6735536D02*
X7877800D01*
Y7025538D01*
X7717800D02*
X7877800D01*
X6972701Y5786923D02*
X7022699D01*
Y5886922D01*
X6972701D02*
X7022699D01*
X6972701Y5786923D02*
Y5886922D01*
Y6025276D02*
X7022699D01*
Y6125276D01*
X6972701D02*
X7022699D01*
X6972701Y6025276D02*
Y6125276D01*
X8311281Y5905896D02*
X8361279D01*
Y6005896D01*
X8311281D02*
X8361279D01*
X8311281Y5905896D02*
Y6005896D01*
X7862301Y4026840D02*
X7987299D01*
X7862301Y3826840D02*
Y4026840D01*
Y3826840D02*
X7987299D01*
Y4026840D01*
X7242541Y4045798D02*
X7367539D01*
X7242541Y3845799D02*
Y4045798D01*
Y3845799D02*
X7367539D01*
Y4045798D01*
X9212360Y6965060D02*
X9502360D01*
Y7965060D02*
Y6965060D01*
X9212360Y7965060D02*
X9502360D01*
X9212360D02*
Y6965060D01*
D48*
X253594Y3037987D02*
X2412594D01*
X253594Y1094887D02*
Y3037987D01*
Y1094887D02*
X2412594D01*
Y3037987D01*
X2463394D02*
X4622394D01*
X2463394Y1094887D02*
Y3037987D01*
Y1094887D02*
X4622394D01*
Y3037987D01*
D50*
X9001760Y6195060D02*
X11155680D01*
X4635500Y1094740D02*
Y3037840D01*
X10988089Y96520D02*
X11089657D01*
X11140440Y147303D01*
X11089657Y198087D01*
X10988089D01*
X11064265Y248871D02*
Y350438D01*
X11038873Y502789D02*
Y426613D01*
X11064265Y401221D01*
X11115048D01*
X11140440Y426613D01*
Y502789D01*
X11038873Y553572D02*
X11115048D01*
X11140440Y578964D01*
Y655139D01*
X11038873D01*
X11013481Y731315D02*
X11038873D01*
Y705923D01*
Y756706D01*
Y731315D01*
X11115048D01*
X11140440Y756706D01*
X11417300Y1257251D02*
Y1155683D01*
X11468083Y1104900D01*
X11518867Y1155683D01*
Y1257251D01*
X11569651Y1181075D02*
X11671218D01*
X11823569Y1206467D02*
X11747393D01*
X11722001Y1181075D01*
Y1130292D01*
X11747393Y1104900D01*
X11823569D01*
X11874352Y1206467D02*
Y1130292D01*
X11899744Y1104900D01*
X11975919D01*
Y1206467D01*
X12052095Y1231859D02*
Y1206467D01*
X12026703D01*
X12077486D01*
X12052095D01*
Y1130292D01*
X12077486Y1104900D01*
X111809Y43180D02*
X213377D01*
X264160Y93963D01*
X213377Y144747D01*
X111809D01*
X187985Y195531D02*
Y297098D01*
X162593Y449449D02*
Y373273D01*
X187985Y347881D01*
X238768D01*
X264160Y373273D01*
Y449449D01*
X162593Y500232D02*
X238768D01*
X264160Y525624D01*
Y601799D01*
X162593D01*
X137201Y677975D02*
X162593D01*
Y652583D01*
Y703366D01*
Y677975D01*
X238768D01*
X264160Y703366D01*
X11455400Y8493711D02*
Y8392143D01*
X11506183Y8341360D01*
X11556967Y8392143D01*
Y8493711D01*
X11607751Y8417535D02*
X11709318D01*
X11861669Y8442927D02*
X11785493D01*
X11760101Y8417535D01*
Y8366752D01*
X11785493Y8341360D01*
X11861669D01*
X11912452Y8442927D02*
Y8366752D01*
X11937844Y8341360D01*
X12014019D01*
Y8442927D01*
X12090195Y8468319D02*
Y8442927D01*
X12064803D01*
X12115586D01*
X12090195D01*
Y8366752D01*
X12115586Y8341360D01*
X9118649Y226060D02*
X9220217D01*
X9271000Y276843D01*
X9220217Y327627D01*
X9118649D01*
X9194825Y378411D02*
Y479978D01*
X9169433Y632329D02*
Y556153D01*
X9194825Y530761D01*
X9245608D01*
X9271000Y556153D01*
Y632329D01*
X9169433Y683112D02*
X9245608D01*
X9271000Y708504D01*
Y784679D01*
X9169433D01*
X9144041Y860855D02*
X9169433D01*
Y835463D01*
Y886246D01*
Y860855D01*
X9245608D01*
X9271000Y886246D01*
X11399520Y3223211D02*
Y3121643D01*
X11450303Y3070860D01*
X11501087Y3121643D01*
Y3223211D01*
X11551871Y3147035D02*
X11653438D01*
X11805789Y3172427D02*
X11729613D01*
X11704221Y3147035D01*
Y3096252D01*
X11729613Y3070860D01*
X11805789D01*
X11856572Y3172427D02*
Y3096252D01*
X11881964Y3070860D01*
X11958139D01*
Y3172427D01*
X12034315Y3197819D02*
Y3172427D01*
X12008923D01*
X12059706D01*
X12034315D01*
Y3096252D01*
X12059706Y3070860D01*
D66*
X11160760Y0D02*
Y8737600D01*
X9001760Y0D02*
Y8737600D01*
X0Y1094740D02*
X12242800D01*
X0Y8531860D02*
X12242800D01*
X254000Y0D02*
Y8737600D01*
X0Y3037840D02*
X12242800D01*
D67*
X2438400Y1074420D02*
Y3035300D01*
%TF.MD5,0567c5f79f808ae1ad11c187592964ae*%
M02*
