G04*
G04 #@! TF.GenerationSoftware,Altium Limited,Altium Designer,24.2.2 (26)*
G04*
G04 Layer_Color=2752767*
%FSLAX42Y42*%
%MOMM*%
G71*
G04*
G04 #@! TF.SameCoordinates,76D319BD-C469-47C5-B3DC-DB0EE438ED8F*
G04*
G04*
G04 #@! TF.FilePolarity,Positive*
G04*
G01*
G75*
%ADD31C,0.15*%
%ADD32C,0.20*%
%ADD47C,0.13*%
%ADD70C,0.17*%
D31*
X256Y2990D02*
X2415D01*
X256Y1047D02*
Y2990D01*
Y1047D02*
X2415D01*
Y2990D01*
X2466D02*
X4625D01*
X2466Y1047D02*
Y2990D01*
Y1047D02*
X4625D01*
Y2990D01*
D32*
X10622Y4376D02*
Y4666D01*
X9622D02*
X10622D01*
X9622Y4376D02*
Y4666D01*
Y4376D02*
X10622D01*
Y6586D02*
Y6876D01*
X9622D02*
X10622D01*
X9622Y6586D02*
Y6876D01*
Y6586D02*
X10622D01*
X319Y5737D02*
X744D01*
X319Y5337D02*
Y5737D01*
Y5337D02*
X744D01*
Y5737D01*
X319Y4866D02*
X744D01*
X319Y4466D02*
Y4866D01*
Y4466D02*
X744D01*
Y4866D01*
X7775Y3123D02*
Y3548D01*
Y3123D02*
X8175D01*
Y3548D01*
X7775D02*
X8175D01*
X7163Y3123D02*
Y3548D01*
Y3123D02*
X7563D01*
Y3548D01*
X7163D02*
X7563D01*
X7580Y7135D02*
Y7785D01*
Y7135D02*
X8020D01*
Y7785D01*
X7580D02*
X8020D01*
X7880Y7942D02*
Y8232D01*
X7720D02*
X7880D01*
X7720Y7942D02*
Y8232D01*
Y7942D02*
X7880D01*
X6772Y7224D02*
X6822D01*
Y7324D01*
X6772D02*
X6822D01*
X6772Y7224D02*
Y7324D01*
X6909D02*
X6959D01*
X6909Y7224D02*
Y7324D01*
Y7224D02*
X6959D01*
Y7324D01*
X8441Y7703D02*
X8491D01*
X8441Y7603D02*
Y7703D01*
Y7603D02*
X8491D01*
Y7703D01*
X7272Y7470D02*
X7327D01*
Y7575D01*
X7272D02*
X7327D01*
X7272Y7470D02*
Y7575D01*
X7267Y7284D02*
X7317D01*
X7267Y7184D02*
Y7284D01*
Y7184D02*
X7317D01*
Y7284D01*
X7125Y7701D02*
X7180D01*
X7125Y7596D02*
Y7701D01*
Y7596D02*
X7180D01*
Y7701D01*
X8294Y7699D02*
X8343D01*
Y7799D01*
X8294D02*
X8343D01*
X8294Y7699D02*
Y7799D01*
X7267Y7641D02*
X7317D01*
Y7741D01*
X7267D02*
X7317D01*
X7267Y7641D02*
Y7741D01*
X7720Y6738D02*
Y7028D01*
Y6738D02*
X7880D01*
Y7028D01*
X7720D02*
X7880D01*
X6975Y5789D02*
X7025D01*
Y5889D01*
X6975D02*
X7025D01*
X6975Y5789D02*
Y5889D01*
Y6028D02*
X7025D01*
Y6128D01*
X6975D02*
X7025D01*
X6975Y6028D02*
Y6128D01*
X8314Y5908D02*
X8364D01*
Y6008D01*
X8314D02*
X8364D01*
X8314Y5908D02*
Y6008D01*
X7865Y4029D02*
X7990D01*
X7865Y3829D02*
Y4029D01*
Y3829D02*
X7990D01*
Y4029D01*
X7245Y4048D02*
X7370D01*
X7245Y3848D02*
Y4048D01*
Y3848D02*
X7370D01*
Y4048D01*
D47*
X764Y2812D02*
X713Y2914D01*
X815D01*
X764Y2812D01*
X1018D02*
X967Y2914D01*
X1069D01*
X1018Y2812D01*
X1272D02*
X1221Y2914D01*
X1323D01*
X1272Y2812D01*
X1526D02*
X1475Y2914D01*
X1577D01*
X1526Y2812D01*
X1780D02*
X1729Y2914D01*
X1831D01*
X1780Y2812D01*
X2034D02*
X1983Y2914D01*
X2085D01*
X2034Y2812D01*
X2288D02*
X2237Y2914D01*
X2339D01*
X2288Y2812D01*
X2974D02*
X2923Y2914D01*
X3025D01*
X2974Y2812D01*
X3228D02*
X3177Y2914D01*
X3279D01*
X3228Y2812D01*
X3482D02*
X3431Y2914D01*
X3533D01*
X3482Y2812D01*
X3736D02*
X3685Y2914D01*
X3787D01*
X3736Y2812D01*
X3990D02*
X3939Y2914D01*
X4041D01*
X3990Y2812D01*
X4244D02*
X4193Y2914D01*
X4295D01*
X4244Y2812D01*
X4498D02*
X4447Y2914D01*
X4549D01*
X4498Y2812D01*
X10668Y5901D02*
Y5876D01*
X10719D01*
Y5901D01*
X10744D01*
Y5952D01*
X10719D01*
Y5978D01*
X10668D01*
Y5952D01*
X10643D01*
Y5901D01*
X10668D01*
Y5651D02*
Y5626D01*
X10719D01*
Y5651D01*
X10744D01*
Y5702D01*
X10719D01*
Y5728D01*
X10668D01*
Y5702D01*
X10643D01*
Y5651D01*
X10668D01*
Y5401D02*
Y5376D01*
X10719D01*
Y5401D01*
X10744D01*
Y5452D01*
X10719D01*
Y5478D01*
X10668D01*
Y5452D01*
X10643D01*
Y5401D01*
X10668D01*
X9122Y5951D02*
X9148D01*
X9173Y5976D01*
X9198Y5951D01*
X9224D01*
Y5976D01*
X9198Y6002D01*
X9224Y6027D01*
Y6053D01*
X9198D01*
X9173Y6027D01*
X9148Y6053D01*
X9122D01*
Y6027D01*
X9148Y6002D01*
X9122Y5976D01*
Y5951D01*
X9572D02*
X9598D01*
X9623Y5976D01*
X9648Y5951D01*
X9674D01*
Y5976D01*
X9648Y6002D01*
X9674Y6027D01*
Y6053D01*
X9648D01*
X9623Y6027D01*
X9598Y6053D01*
X9572D01*
Y6027D01*
X9598Y6002D01*
X9572Y5976D01*
Y5951D01*
Y5301D02*
X9598D01*
X9623Y5326D01*
X9648Y5301D01*
X9674D01*
Y5326D01*
X9648Y5352D01*
X9674Y5377D01*
Y5403D01*
X9648D01*
X9623Y5377D01*
X9598Y5403D01*
X9572D01*
Y5377D01*
X9598Y5352D01*
X9572Y5326D01*
Y5301D01*
X9122D02*
X9148D01*
X9173Y5326D01*
X9198Y5301D01*
X9224D01*
Y5326D01*
X9198Y5352D01*
X9224Y5377D01*
Y5403D01*
X9198D01*
X9173Y5377D01*
X9148Y5403D01*
X9122D01*
Y5377D01*
X9148Y5352D01*
X9122Y5326D01*
Y5301D01*
X9919Y5390D02*
X9944Y5441D01*
X9919Y5491D01*
X9969Y5466D01*
X10020Y5491D01*
X9995Y5441D01*
X10020Y5390D01*
X9969Y5415D01*
X9919Y5390D01*
X10084Y5392D02*
X10109Y5443D01*
X10084Y5494D01*
X10135Y5469D01*
X10185Y5494D01*
X10160Y5443D01*
X10185Y5392D01*
X10135Y5418D01*
X10084Y5392D01*
X9776Y5438D02*
X9802Y5489D01*
X9776Y5540D01*
X9827Y5514D01*
X9878Y5540D01*
X9853Y5489D01*
X9878Y5438D01*
X9827Y5464D01*
X9776Y5438D01*
X10274Y5377D02*
X10300Y5428D01*
X10274Y5479D01*
X10325Y5453D01*
X10376Y5479D01*
X10350Y5428D01*
X10376Y5377D01*
X10325Y5403D01*
X10274Y5377D01*
X10229Y4539D02*
X10279Y4590D01*
X10330Y4539D01*
X10279Y4488D01*
X10229Y4539D01*
X10668Y8111D02*
Y8086D01*
X10719D01*
Y8111D01*
X10744D01*
Y8162D01*
X10719D01*
Y8188D01*
X10668D01*
Y8162D01*
X10643D01*
Y8111D01*
X10668D01*
Y7861D02*
Y7836D01*
X10719D01*
Y7861D01*
X10744D01*
Y7912D01*
X10719D01*
Y7938D01*
X10668D01*
Y7912D01*
X10643D01*
Y7861D01*
X10668D01*
Y7611D02*
Y7586D01*
X10719D01*
Y7611D01*
X10744D01*
Y7662D01*
X10719D01*
Y7688D01*
X10668D01*
Y7662D01*
X10643D01*
Y7611D01*
X10668D01*
X9122Y8161D02*
X9148D01*
X9173Y8186D01*
X9198Y8161D01*
X9224D01*
Y8186D01*
X9198Y8212D01*
X9224Y8237D01*
Y8262D01*
X9198D01*
X9173Y8237D01*
X9148Y8262D01*
X9122D01*
Y8237D01*
X9148Y8212D01*
X9122Y8186D01*
Y8161D01*
X9572D02*
X9598D01*
X9623Y8186D01*
X9648Y8161D01*
X9674D01*
Y8186D01*
X9648Y8212D01*
X9674Y8237D01*
Y8262D01*
X9648D01*
X9623Y8237D01*
X9598Y8262D01*
X9572D01*
Y8237D01*
X9598Y8212D01*
X9572Y8186D01*
Y8161D01*
Y7511D02*
X9598D01*
X9623Y7536D01*
X9648Y7511D01*
X9674D01*
Y7536D01*
X9648Y7562D01*
X9674Y7587D01*
Y7612D01*
X9648D01*
X9623Y7587D01*
X9598Y7612D01*
X9572D01*
Y7587D01*
X9598Y7562D01*
X9572Y7536D01*
Y7511D01*
X9122D02*
X9148D01*
X9173Y7536D01*
X9198Y7511D01*
X9224D01*
Y7536D01*
X9198Y7562D01*
X9224Y7587D01*
Y7612D01*
X9198D01*
X9173Y7587D01*
X9148Y7612D01*
X9122D01*
Y7587D01*
X9148Y7562D01*
X9122Y7536D01*
Y7511D01*
X9919Y7600D02*
X9944Y7650D01*
X9919Y7701D01*
X9969Y7676D01*
X10020Y7701D01*
X9995Y7650D01*
X10020Y7600D01*
X9969Y7625D01*
X9919Y7600D01*
X10084Y7602D02*
X10109Y7653D01*
X10084Y7704D01*
X10135Y7678D01*
X10185Y7704D01*
X10160Y7653D01*
X10185Y7602D01*
X10135Y7628D01*
X10084Y7602D01*
X9776Y7648D02*
X9802Y7699D01*
X9776Y7750D01*
X9827Y7724D01*
X9878Y7750D01*
X9853Y7699D01*
X9878Y7648D01*
X9827Y7673D01*
X9776Y7648D01*
X10274Y7587D02*
X10300Y7638D01*
X10274Y7689D01*
X10325Y7663D01*
X10376Y7689D01*
X10350Y7638D01*
X10376Y7587D01*
X10325Y7612D01*
X10274Y7587D01*
X10229Y6749D02*
X10279Y6800D01*
X10330Y6749D01*
X10279Y6698D01*
X10229Y6749D01*
X8814Y7889D02*
X8763Y7991D01*
X8865D01*
X8814Y7889D01*
Y7635D02*
X8763Y7737D01*
X8865D01*
X8814Y7635D01*
Y7381D02*
X8763Y7483D01*
X8865D01*
X8814Y7381D01*
Y7127D02*
X8763Y7229D01*
X8865D01*
X8814Y7127D01*
Y6873D02*
X8763Y6975D01*
X8865D01*
X8814Y6873D01*
Y6619D02*
X8763Y6721D01*
X8865D01*
X8814Y6619D01*
Y6365D02*
X8763Y6467D01*
X8865D01*
X8814Y6365D01*
Y6111D02*
X8763Y6213D01*
X8865D01*
X8814Y6111D01*
Y5857D02*
X8763Y5959D01*
X8865D01*
X8814Y5857D01*
Y5603D02*
X8763Y5705D01*
X8865D01*
X8814Y5603D01*
Y5349D02*
X8763Y5451D01*
X8865D01*
X8814Y5349D01*
Y5095D02*
X8763Y5197D01*
X8865D01*
X8814Y5095D01*
Y4841D02*
X8763Y4943D01*
X8865D01*
X8814Y4841D01*
Y4587D02*
X8763Y4689D01*
X8865D01*
X8814Y4587D01*
Y4333D02*
X8763Y4435D01*
X8865D01*
X8814Y4333D01*
X6528D02*
X6477Y4435D01*
X6579D01*
X6528Y4333D01*
Y4587D02*
X6477Y4689D01*
X6579D01*
X6528Y4587D01*
Y4841D02*
X6477Y4943D01*
X6579D01*
X6528Y4841D01*
Y5095D02*
X6477Y5197D01*
X6579D01*
X6528Y5095D01*
Y5349D02*
X6477Y5451D01*
X6579D01*
X6528Y5349D01*
Y5603D02*
X6477Y5705D01*
X6579D01*
X6528Y5603D01*
Y5857D02*
X6477Y5959D01*
X6579D01*
X6528Y5857D01*
Y6111D02*
X6477Y6213D01*
X6579D01*
X6528Y6111D01*
Y6365D02*
X6477Y6467D01*
X6579D01*
X6528Y6365D01*
Y6619D02*
X6477Y6721D01*
X6579D01*
X6528Y6619D01*
Y6873D02*
X6477Y6975D01*
X6579D01*
X6528Y6873D01*
Y7127D02*
X6477Y7229D01*
X6579D01*
X6528Y7127D01*
Y7381D02*
X6477Y7483D01*
X6579D01*
X6528Y7381D01*
Y7635D02*
X6477Y7737D01*
X6579D01*
X6528Y7635D01*
Y7889D02*
X6477Y7991D01*
X6579D01*
X6528Y7889D01*
X566Y8214D02*
Y8316D01*
X668D01*
Y8214D01*
X566D01*
X8636Y8258D02*
Y8359D01*
X8738D01*
Y8258D01*
X8636D01*
X8707Y3221D02*
Y3322D01*
X8809D01*
Y3221D01*
X8707D01*
X6203Y7508D02*
X6152Y7610D01*
X6253D01*
X6203Y7508D01*
Y7254D02*
X6152Y7356D01*
X6253D01*
X6203Y7254D01*
Y7000D02*
X6152Y7102D01*
X6253D01*
X6203Y7000D01*
Y6746D02*
X6152Y6848D01*
X6253D01*
X6203Y6746D01*
Y6492D02*
X6152Y6594D01*
X6253D01*
X6203Y6492D01*
Y6238D02*
X6152Y6340D01*
X6253D01*
X6203Y6238D01*
Y5984D02*
X6152Y6086D01*
X6253D01*
X6203Y5984D01*
Y5730D02*
X6152Y5832D01*
X6253D01*
X6203Y5730D01*
X5535Y4572D02*
X5560Y4597D01*
X5585D01*
X5560Y4623D01*
X5585Y4648D01*
X5560D01*
X5535Y4674D01*
X5509Y4648D01*
X5484D01*
X5509Y4623D01*
X5484Y4597D01*
X5509D01*
X5535Y4572D01*
X5789D02*
X5814Y4597D01*
X5839D01*
X5814Y4623D01*
X5839Y4648D01*
X5814D01*
X5789Y4674D01*
X5763Y4648D01*
X5738D01*
X5763Y4623D01*
X5738Y4597D01*
X5763D01*
X5789Y4572D01*
X5281D02*
X5306Y4597D01*
X5331D01*
X5306Y4623D01*
X5331Y4648D01*
X5306D01*
X5281Y4674D01*
X5255Y4648D01*
X5230D01*
X5255Y4623D01*
X5230Y4597D01*
X5255D01*
X5281Y4572D01*
X4773D02*
X4798Y4597D01*
X4823D01*
X4798Y4623D01*
X4823Y4648D01*
X4798D01*
X4773Y4674D01*
X4747Y4648D01*
X4722D01*
X4747Y4623D01*
X4722Y4597D01*
X4747D01*
X4773Y4572D01*
X4519D02*
X4544Y4597D01*
X4569D01*
X4544Y4623D01*
X4569Y4648D01*
X4544D01*
X4519Y4674D01*
X4493Y4648D01*
X4468D01*
X4493Y4623D01*
X4468Y4597D01*
X4493D01*
X4519Y4572D01*
X6830Y5271D02*
X6855Y5321D01*
X6830Y5372D01*
X6881Y5347D01*
X6932Y5372D01*
X6906Y5321D01*
X6932Y5271D01*
X6881Y5296D01*
X6830Y5271D01*
X8189Y7104D02*
X8240Y7155D01*
X8291Y7104D01*
X8240Y7054D01*
X8189Y7104D01*
X7089Y7487D02*
X7115Y7537D01*
X7089Y7588D01*
X7140Y7563D01*
X7191Y7588D01*
X7165Y7537D01*
X7191Y7487D01*
X7140Y7512D01*
X7089Y7487D01*
X7611Y7635D02*
X7636Y7686D01*
X7611Y7737D01*
X7661Y7711D01*
X7712Y7737D01*
X7687Y7686D01*
X7712Y7635D01*
X7661Y7660D01*
X7611Y7635D01*
X3830Y7833D02*
X3856Y7884D01*
X3830Y7935D01*
X3881Y7910D01*
X3932Y7935D01*
X3907Y7884D01*
X3932Y7833D01*
X3881Y7859D01*
X3830Y7833D01*
X8057Y3653D02*
X8082Y3703D01*
X8057Y3754D01*
X8108Y3729D01*
X8158Y3754D01*
X8133Y3703D01*
X8158Y3653D01*
X8108Y3678D01*
X8057Y3653D01*
X8275Y6124D02*
X8301Y6175D01*
X8275Y6226D01*
X8326Y6200D01*
X8377Y6226D01*
X8352Y6175D01*
X8377Y6124D01*
X8326Y6149D01*
X8275Y6124D01*
X8283Y5588D02*
X8308Y5639D01*
X8283Y5690D01*
X8334Y5664D01*
X8385Y5690D01*
X8359Y5639D01*
X8385Y5588D01*
X8334Y5613D01*
X8283Y5588D01*
X8644Y6183D02*
X8669Y6234D01*
X8644Y6285D01*
X8695Y6259D01*
X8745Y6285D01*
X8720Y6234D01*
X8745Y6183D01*
X8695Y6209D01*
X8644Y6183D01*
X8636Y6363D02*
X8661Y6414D01*
X8636Y6464D01*
X8687Y6439D01*
X8738Y6464D01*
X8712Y6414D01*
X8738Y6363D01*
X8687Y6388D01*
X8636Y6363D01*
X8633Y5603D02*
X8659Y5654D01*
X8633Y5705D01*
X8684Y5679D01*
X8735Y5705D01*
X8710Y5654D01*
X8735Y5603D01*
X8684Y5629D01*
X8633Y5603D01*
X8636Y5862D02*
X8662Y5913D01*
X8636Y5964D01*
X8687Y5939D01*
X8738Y5964D01*
X8712Y5913D01*
X8738Y5862D01*
X8687Y5888D01*
X8636Y5862D01*
X6627Y5799D02*
X6652Y5850D01*
X6627Y5900D01*
X6678Y5875D01*
X6728Y5900D01*
X6703Y5850D01*
X6728Y5799D01*
X6678Y5824D01*
X6627Y5799D01*
X6805Y7356D02*
X6831Y7407D01*
X6805Y7457D01*
X6856Y7432D01*
X6907Y7457D01*
X6881Y7407D01*
X6907Y7356D01*
X6856Y7381D01*
X6805Y7356D01*
X6729Y7364D02*
X6755Y7415D01*
X6729Y7466D01*
X6780Y7441D01*
X6831Y7466D01*
X6806Y7415D01*
X6831Y7364D01*
X6780Y7390D01*
X6729Y7364D01*
X8245Y6363D02*
X8270Y6414D01*
X8245Y6464D01*
X8296Y6439D01*
X8346Y6464D01*
X8321Y6414D01*
X8346Y6363D01*
X8296Y6388D01*
X8245Y6363D01*
X8240Y5712D02*
X8265Y5763D01*
X8240Y5814D01*
X8291Y5789D01*
X8341Y5814D01*
X8316Y5763D01*
X8341Y5712D01*
X8291Y5738D01*
X8240Y5712D01*
X8448Y6314D02*
X8499Y6365D01*
X8550Y6314D01*
X8499Y6264D01*
X8448Y6314D01*
X7361Y8120D02*
X7412Y8171D01*
X7463Y8120D01*
X7412Y8070D01*
X7361Y8120D01*
X7734Y7615D02*
X7785Y7666D01*
X7836Y7615D01*
X7785Y7564D01*
X7734Y7615D01*
X8428Y7818D02*
X8479Y7869D01*
X8529Y7818D01*
X8479Y7767D01*
X8428Y7818D01*
X8453Y7991D02*
X8504Y8042D01*
X8555Y7991D01*
X8504Y7940D01*
X8453Y7991D01*
X5367Y3360D02*
X5392Y3411D01*
X5367Y3462D01*
X5418Y3437D01*
X5469Y3462D01*
X5443Y3411D01*
X5469Y3360D01*
X5418Y3386D01*
X5367Y3360D01*
X3592Y3673D02*
X3617Y3724D01*
X3592Y3774D01*
X3642Y3749D01*
X3693Y3774D01*
X3668Y3724D01*
X3693Y3673D01*
X3642Y3698D01*
X3592Y3673D01*
X1519Y8077D02*
X1544Y8128D01*
X1519Y8179D01*
X1570Y8153D01*
X1621Y8179D01*
X1595Y8128D01*
X1621Y8077D01*
X1570Y8103D01*
X1519Y8077D01*
X2512Y4295D02*
X2537Y4346D01*
X2512Y4397D01*
X2563Y4371D01*
X2614Y4397D01*
X2588Y4346D01*
X2614Y4295D01*
X2563Y4321D01*
X2512Y4295D01*
X1148Y5337D02*
X1173Y5387D01*
X1148Y5438D01*
X1199Y5413D01*
X1250Y5438D01*
X1224Y5387D01*
X1250Y5337D01*
X1199Y5362D01*
X1148Y5337D01*
X1135Y4458D02*
X1161Y4508D01*
X1135Y4559D01*
X1186Y4534D01*
X1237Y4559D01*
X1212Y4508D01*
X1237Y4458D01*
X1186Y4483D01*
X1135Y4458D01*
X5273Y3655D02*
X5298Y3705D01*
X5273Y3756D01*
X5323Y3731D01*
X5374Y3756D01*
X5349Y3705D01*
X5374Y3655D01*
X5323Y3680D01*
X5273Y3655D01*
X5479Y3647D02*
X5504Y3698D01*
X5479Y3749D01*
X5530Y3724D01*
X5580Y3749D01*
X5555Y3698D01*
X5580Y3647D01*
X5530Y3673D01*
X5479Y3647D01*
X5575Y3653D02*
X5601Y3703D01*
X5575Y3754D01*
X5626Y3729D01*
X5677Y3754D01*
X5651Y3703D01*
X5677Y3653D01*
X5626Y3678D01*
X5575Y3653D01*
X5674Y3642D02*
X5700Y3693D01*
X5674Y3744D01*
X5725Y3719D01*
X5776Y3744D01*
X5751Y3693D01*
X5776Y3642D01*
X5725Y3668D01*
X5674Y3642D01*
X5773Y3645D02*
X5798Y3695D01*
X5773Y3746D01*
X5824Y3721D01*
X5875Y3746D01*
X5849Y3695D01*
X5875Y3645D01*
X5824Y3670D01*
X5773Y3645D01*
X5872Y3653D02*
X5898Y3703D01*
X5872Y3754D01*
X5923Y3729D01*
X5974Y3754D01*
X5949Y3703D01*
X5974Y3653D01*
X5923Y3678D01*
X5872Y3653D01*
X2992Y4775D02*
X3018Y4826D01*
X2992Y4877D01*
X3043Y4851D01*
X3094Y4877D01*
X3068Y4826D01*
X3094Y4775D01*
X3043Y4801D01*
X2992Y4775D01*
X6535Y5222D02*
X6561Y5273D01*
X6535Y5324D01*
X6586Y5298D01*
X6637Y5324D01*
X6611Y5273D01*
X6637Y5222D01*
X6586Y5248D01*
X6535Y5222D01*
X7429Y3660D02*
X7455Y3711D01*
X7429Y3762D01*
X7480Y3736D01*
X7531Y3762D01*
X7506Y3711D01*
X7531Y3660D01*
X7480Y3686D01*
X7429Y3660D01*
X7163Y6693D02*
X7188Y6744D01*
X7163Y6794D01*
X7214Y6769D01*
X7264Y6794D01*
X7239Y6744D01*
X7264Y6693D01*
X7214Y6718D01*
X7163Y6693D01*
X7409Y4848D02*
X7435Y4899D01*
X7409Y4950D01*
X7460Y4924D01*
X7511Y4950D01*
X7485Y4899D01*
X7511Y4848D01*
X7460Y4873D01*
X7409Y4848D01*
X7719Y6099D02*
X7744Y6149D01*
X7719Y6200D01*
X7770Y6175D01*
X7821Y6200D01*
X7795Y6149D01*
X7821Y6099D01*
X7770Y6124D01*
X7719Y6099D01*
X7828Y4834D02*
X7854Y4884D01*
X7828Y4935D01*
X7879Y4910D01*
X7930Y4935D01*
X7904Y4884D01*
X7930Y4834D01*
X7879Y4859D01*
X7828Y4834D01*
X3091Y7711D02*
X3117Y7762D01*
X3091Y7813D01*
X3142Y7788D01*
X3193Y7813D01*
X3167Y7762D01*
X3193Y7711D01*
X3142Y7737D01*
X3091Y7711D01*
D70*
X582Y3338D02*
G03*
X582Y3338I-51J0D01*
G01*
X836D02*
G03*
X836Y3338I-51J0D01*
G01*
X1090D02*
G03*
X1090Y3338I-51J0D01*
G01*
X1344D02*
G03*
X1344Y3338I-51J0D01*
G01*
X1598D02*
G03*
X1598Y3338I-51J0D01*
G01*
X1852D02*
G03*
X1852Y3338I-51J0D01*
G01*
X2106D02*
G03*
X2106Y3338I-51J0D01*
G01*
X2360D02*
G03*
X2360Y3338I-51J0D01*
G01*
X2614D02*
G03*
X2614Y3338I-51J0D01*
G01*
X2868D02*
G03*
X2868Y3338I-51J0D01*
G01*
X582Y7910D02*
G03*
X582Y7910I-51J0D01*
G01*
Y3592D02*
G03*
X582Y3592I-51J0D01*
G01*
Y7656D02*
G03*
X582Y7656I-51J0D01*
G01*
X836Y7910D02*
G03*
X836Y7910I-51J0D01*
G01*
Y3592D02*
G03*
X836Y3592I-51J0D01*
G01*
Y7656D02*
G03*
X836Y7656I-51J0D01*
G01*
X1090Y7910D02*
G03*
X1090Y7910I-51J0D01*
G01*
Y3592D02*
G03*
X1090Y3592I-51J0D01*
G01*
Y7656D02*
G03*
X1090Y7656I-51J0D01*
G01*
X1344Y7910D02*
G03*
X1344Y7910I-51J0D01*
G01*
Y3592D02*
G03*
X1344Y3592I-51J0D01*
G01*
Y7656D02*
G03*
X1344Y7656I-51J0D01*
G01*
X1598Y7910D02*
G03*
X1598Y7910I-51J0D01*
G01*
Y3592D02*
G03*
X1598Y3592I-51J0D01*
G01*
Y7656D02*
G03*
X1598Y7656I-51J0D01*
G01*
X1852Y7910D02*
G03*
X1852Y7910I-51J0D01*
G01*
Y3592D02*
G03*
X1852Y3592I-51J0D01*
G01*
Y7656D02*
G03*
X1852Y7656I-51J0D01*
G01*
X2106Y7910D02*
G03*
X2106Y7910I-51J0D01*
G01*
Y3592D02*
G03*
X2106Y3592I-51J0D01*
G01*
Y7656D02*
G03*
X2106Y7656I-51J0D01*
G01*
X2360Y7910D02*
G03*
X2360Y7910I-51J0D01*
G01*
Y3592D02*
G03*
X2360Y3592I-51J0D01*
G01*
Y7656D02*
G03*
X2360Y7656I-51J0D01*
G01*
X2614Y7910D02*
G03*
X2614Y7910I-51J0D01*
G01*
Y3592D02*
G03*
X2614Y3592I-51J0D01*
G01*
Y7656D02*
G03*
X2614Y7656I-51J0D01*
G01*
X2868Y7910D02*
G03*
X2868Y7910I-51J0D01*
G01*
Y3592D02*
G03*
X2868Y3592I-51J0D01*
G01*
Y7656D02*
G03*
X2868Y7656I-51J0D01*
G01*
M02*
