G04*
G04 #@! TF.GenerationSoftware,Altium Limited,Altium Designer,24.2.2 (26)*
G04*
G04 Layer_Color=16711935*
%FSLAX42Y42*%
%MOMM*%
G71*
G04*
G04 #@! TF.SameCoordinates,ABDA7C27-4DF7-4F6F-95E8-AD7B6B15C795*
G04*
G04*
G04 #@! TF.FilePolarity,Negative*
G04*
G01*
G75*
%ADD31C,0.15*%
%ADD32C,0.20*%
%ADD41C,1.32*%
%ADD55C,1.73*%
%ADD56C,1.70*%
%ADD57R,1.70X1.70*%
%ADD58C,0.71*%
%ADD59C,0.97*%
%ADD60C,3.63*%
%ADD61R,1.72X1.72*%
%ADD62C,1.72*%
%ADD63R,1.00X1.00*%
D31*
X256Y2990D02*
X2415D01*
X256Y1047D02*
Y2990D01*
Y1047D02*
X2415D01*
Y2990D01*
X2466D02*
X4625D01*
X2466Y1047D02*
Y2990D01*
Y1047D02*
X4625D01*
Y2990D01*
D32*
X10622Y4376D02*
Y4666D01*
X9622D02*
X10622D01*
X9622Y4376D02*
Y4666D01*
Y4376D02*
X10622D01*
Y6586D02*
Y6876D01*
X9622D02*
X10622D01*
X9622Y6586D02*
Y6876D01*
Y6586D02*
X10622D01*
X319Y5737D02*
X744D01*
X319Y5337D02*
Y5737D01*
Y5337D02*
X744D01*
Y5737D01*
X319Y4866D02*
X744D01*
X319Y4466D02*
Y4866D01*
Y4466D02*
X744D01*
Y4866D01*
X7775Y3123D02*
Y3548D01*
Y3123D02*
X8175D01*
Y3548D01*
X7775D02*
X8175D01*
X7163Y3123D02*
Y3548D01*
Y3123D02*
X7563D01*
Y3548D01*
X7163D02*
X7563D01*
X7580Y7135D02*
Y7785D01*
Y7135D02*
X8020D01*
Y7785D01*
X7580D02*
X8020D01*
X7880Y7942D02*
Y8232D01*
X7720D02*
X7880D01*
X7720Y7942D02*
Y8232D01*
Y7942D02*
X7880D01*
X6772Y7224D02*
X6822D01*
Y7324D01*
X6772D02*
X6822D01*
X6772Y7224D02*
Y7324D01*
X6909D02*
X6959D01*
X6909Y7224D02*
Y7324D01*
Y7224D02*
X6959D01*
Y7324D01*
X8441Y7703D02*
X8491D01*
X8441Y7603D02*
Y7703D01*
Y7603D02*
X8491D01*
Y7703D01*
X7272Y7470D02*
X7327D01*
Y7575D01*
X7272D02*
X7327D01*
X7272Y7470D02*
Y7575D01*
X7267Y7284D02*
X7317D01*
X7267Y7184D02*
Y7284D01*
Y7184D02*
X7317D01*
Y7284D01*
X7125Y7701D02*
X7180D01*
X7125Y7596D02*
Y7701D01*
Y7596D02*
X7180D01*
Y7701D01*
X8294Y7699D02*
X8343D01*
Y7799D01*
X8294D02*
X8343D01*
X8294Y7699D02*
Y7799D01*
X7267Y7641D02*
X7317D01*
Y7741D01*
X7267D02*
X7317D01*
X7267Y7641D02*
Y7741D01*
X7720Y6738D02*
Y7028D01*
Y6738D02*
X7880D01*
Y7028D01*
X7720D02*
X7880D01*
X6975Y5789D02*
X7025D01*
Y5889D01*
X6975D02*
X7025D01*
X6975Y5789D02*
Y5889D01*
Y6028D02*
X7025D01*
Y6128D01*
X6975D02*
X7025D01*
X6975Y6028D02*
Y6128D01*
X8314Y5908D02*
X8364D01*
Y6008D01*
X8314D02*
X8364D01*
X8314Y5908D02*
Y6008D01*
X7865Y4029D02*
X7990D01*
X7865Y3829D02*
Y4029D01*
Y3829D02*
X7990D01*
Y4029D01*
X7245Y4048D02*
X7370D01*
X7245Y3848D02*
Y4048D01*
Y3848D02*
X7370D01*
Y4048D01*
D41*
X5535Y4623D02*
D03*
X5789D02*
D03*
X5281D02*
D03*
X4773D02*
D03*
X4519D02*
D03*
D55*
X764Y2863D02*
D03*
X1018D02*
D03*
X1272D02*
D03*
X1526D02*
D03*
X1780D02*
D03*
X2034D02*
D03*
X2288D02*
D03*
X2974D02*
D03*
X3228D02*
D03*
X3482D02*
D03*
X3736D02*
D03*
X3990D02*
D03*
X4244D02*
D03*
X4498D02*
D03*
X8814Y7940D02*
D03*
Y7686D02*
D03*
Y7432D02*
D03*
Y7178D02*
D03*
Y6924D02*
D03*
Y6670D02*
D03*
Y6416D02*
D03*
Y6162D02*
D03*
Y5908D02*
D03*
Y5654D02*
D03*
Y5400D02*
D03*
Y5146D02*
D03*
Y4892D02*
D03*
Y4638D02*
D03*
Y4384D02*
D03*
X6528D02*
D03*
Y4638D02*
D03*
Y4892D02*
D03*
Y5146D02*
D03*
Y5400D02*
D03*
Y5654D02*
D03*
Y5908D02*
D03*
Y6162D02*
D03*
Y6416D02*
D03*
Y6670D02*
D03*
Y6924D02*
D03*
Y7178D02*
D03*
Y7432D02*
D03*
Y7686D02*
D03*
Y7940D02*
D03*
X6203Y7559D02*
D03*
Y7305D02*
D03*
Y7051D02*
D03*
Y6797D02*
D03*
Y6543D02*
D03*
Y6289D02*
D03*
Y6035D02*
D03*
Y5781D02*
D03*
D56*
X10693Y5927D02*
D03*
Y5677D02*
D03*
X9623Y6002D02*
D03*
Y5352D02*
D03*
X9173D02*
D03*
X10693Y8137D02*
D03*
Y7887D02*
D03*
X9623Y8212D02*
D03*
Y7562D02*
D03*
X9173D02*
D03*
D57*
X10693Y5427D02*
D03*
X9173Y6002D02*
D03*
X10693Y7637D02*
D03*
X9173Y8212D02*
D03*
D58*
X9969Y5441D02*
D03*
X10135Y5443D02*
D03*
X9827Y5489D02*
D03*
X10325Y5428D02*
D03*
X9969Y7650D02*
D03*
X10135Y7653D02*
D03*
X9827Y7699D02*
D03*
X10325Y7638D02*
D03*
X7140Y7537D02*
D03*
X7661Y7686D02*
D03*
X3881Y7884D02*
D03*
X8108Y3703D02*
D03*
X8326Y6175D02*
D03*
X8334Y5639D02*
D03*
X8695Y6234D02*
D03*
X8687Y6414D02*
D03*
X8684Y5654D02*
D03*
X8687Y5913D02*
D03*
X6678Y5850D02*
D03*
X6856Y7407D02*
D03*
X6780Y7415D02*
D03*
X8296Y6414D02*
D03*
X8291Y5763D02*
D03*
X5418Y3411D02*
D03*
X3642Y3724D02*
D03*
X1570Y8128D02*
D03*
X2563Y4346D02*
D03*
X1199Y5387D02*
D03*
X1186Y4508D02*
D03*
X5323Y3705D02*
D03*
X5530Y3698D02*
D03*
X5626Y3703D02*
D03*
X5725Y3693D02*
D03*
X5824Y3695D02*
D03*
X5923Y3703D02*
D03*
X3043Y4826D02*
D03*
X6586Y5273D02*
D03*
X7480Y3711D02*
D03*
X7214Y6744D02*
D03*
X7460Y4899D02*
D03*
X7770Y6149D02*
D03*
X7879Y4884D02*
D03*
X3142Y7762D02*
D03*
D59*
X10279Y4539D02*
D03*
Y6749D02*
D03*
X8240Y7104D02*
D03*
X8499Y6314D02*
D03*
X7412Y8120D02*
D03*
X7785Y7615D02*
D03*
X8479Y7818D02*
D03*
X8504Y7991D02*
D03*
D60*
X617Y8265D02*
D03*
X8687Y8308D02*
D03*
X8758Y3272D02*
D03*
D61*
X531Y3338D02*
D03*
D62*
X785D02*
D03*
X1039D02*
D03*
X1293D02*
D03*
X1547D02*
D03*
X1801D02*
D03*
X2055D02*
D03*
X2309D02*
D03*
X2563D02*
D03*
X2817D02*
D03*
X531Y7910D02*
D03*
Y3592D02*
D03*
Y7656D02*
D03*
X785Y7910D02*
D03*
Y3592D02*
D03*
Y7656D02*
D03*
X1039Y7910D02*
D03*
Y3592D02*
D03*
Y7656D02*
D03*
X1293Y7910D02*
D03*
Y3592D02*
D03*
Y7656D02*
D03*
X1547Y7910D02*
D03*
Y3592D02*
D03*
Y7656D02*
D03*
X1801Y7910D02*
D03*
Y3592D02*
D03*
Y7656D02*
D03*
X2055Y7910D02*
D03*
Y3592D02*
D03*
Y7656D02*
D03*
X2309Y7910D02*
D03*
Y3592D02*
D03*
Y7656D02*
D03*
X2563Y7910D02*
D03*
Y3592D02*
D03*
Y7656D02*
D03*
X2817Y7910D02*
D03*
Y3592D02*
D03*
Y7656D02*
D03*
D63*
X9906Y5752D02*
D03*
Y5602D02*
D03*
X10325Y5752D02*
D03*
Y5602D02*
D03*
X10185Y5752D02*
D03*
Y5602D02*
D03*
X10046Y5752D02*
D03*
Y5602D02*
D03*
X9906Y7962D02*
D03*
Y7812D02*
D03*
X10325Y7962D02*
D03*
Y7812D02*
D03*
X10185Y7962D02*
D03*
Y7812D02*
D03*
X10046Y7962D02*
D03*
Y7812D02*
D03*
M02*
