G04*
G04 #@! TF.GenerationSoftware,Altium Limited,Altium Designer,24.2.2 (26)*
G04*
G04 Layer_Color=32896*
%FSLAX42Y42*%
%MOMM*%
G71*
G04*
G04 #@! TF.SameCoordinates,76D319BD-C469-47C5-B3DC-DB0EE438ED8F*
G04*
G04*
G04 #@! TF.FilePolarity,Positive*
G04*
G01*
G75*
%ADD31C,0.15*%
%ADD32C,0.20*%
D31*
X256Y2990D02*
X2415D01*
X256Y1047D02*
Y2990D01*
Y1047D02*
X2415D01*
Y2990D01*
X2466D02*
X4625D01*
X2466Y1047D02*
Y2990D01*
Y1047D02*
X4625D01*
Y2990D01*
X6401Y8575D02*
X8941D01*
X6401Y3495D02*
Y8575D01*
Y3495D02*
X8941D01*
Y8575D01*
X4171D02*
X6330D01*
X4171Y5019D02*
Y8575D01*
Y5019D02*
X6330D01*
Y8575D01*
X256Y2990D02*
X2415D01*
X256Y1047D02*
Y2990D01*
Y1047D02*
X2415D01*
Y2990D01*
X2466D02*
X4625D01*
X2466Y1047D02*
Y2990D01*
Y1047D02*
X4625D01*
Y2990D01*
D32*
X289Y5787D02*
X864D01*
X289Y5287D02*
Y5787D01*
Y5287D02*
X864D01*
Y5787D01*
X289Y4916D02*
X864D01*
X289Y4416D02*
Y4916D01*
Y4416D02*
X864D01*
Y4916D01*
X7725Y3093D02*
Y3668D01*
Y3093D02*
X8225D01*
Y3668D01*
X7725D02*
X8225D01*
X7113Y3093D02*
Y3668D01*
Y3093D02*
X7613D01*
Y3668D01*
X7113D02*
X7613D01*
X7365Y7085D02*
Y7835D01*
Y7085D02*
X8236D01*
Y7835D01*
X7365D02*
X8236D01*
X8011Y7917D02*
Y8257D01*
X7590D02*
X8011D01*
X7590Y7917D02*
Y8257D01*
Y7917D02*
X8011D01*
X6753Y7186D02*
X6841D01*
Y7363D01*
X6753D02*
X6841D01*
X6753Y7186D02*
Y7363D01*
X6891D02*
X6978D01*
X6891Y7186D02*
Y7363D01*
Y7186D02*
X6978D01*
Y7363D01*
X8412Y7756D02*
X8519D01*
X8412Y7549D02*
Y7756D01*
Y7549D02*
X8519D01*
Y7756D01*
X7262Y7453D02*
X7337D01*
Y7593D01*
X7262D02*
X7337D01*
X7262Y7453D02*
Y7593D01*
X7239Y7338D02*
X7346D01*
X7239Y7130D02*
Y7338D01*
Y7130D02*
X7346D01*
Y7338D01*
X7115Y7718D02*
X7190D01*
X7115Y7578D02*
Y7718D01*
Y7578D02*
X7190D01*
Y7718D01*
X8265Y7645D02*
X8372D01*
Y7852D01*
X8265D02*
X8372D01*
X8265Y7645D02*
Y7852D01*
X7239Y7587D02*
X7346D01*
Y7794D01*
X7239D02*
X7346D01*
X7239Y7587D02*
Y7794D01*
X7590Y6713D02*
Y7053D01*
Y6713D02*
X8011D01*
Y7053D01*
X7590D02*
X8011D01*
X6947Y5736D02*
X7054D01*
Y5943D01*
X6947D02*
X7054D01*
X6947Y5736D02*
Y5943D01*
Y5974D02*
X7054D01*
Y6181D01*
X6947D02*
X7054D01*
X6947Y5974D02*
Y6181D01*
X8285Y5855D02*
X8392D01*
Y6062D01*
X8285D02*
X8392D01*
X8285Y5855D02*
Y6062D01*
X7804Y4140D02*
X8050D01*
X7804Y3719D02*
Y4140D01*
Y3719D02*
X8050D01*
Y4140D01*
X7184Y4159D02*
X7431D01*
X7184Y3738D02*
Y4159D01*
Y3738D02*
X7431D01*
Y4159D01*
X10622Y4376D02*
Y4666D01*
X9622D02*
X10622D01*
X9622Y4376D02*
Y4666D01*
Y4376D02*
X10622D01*
Y6586D02*
Y6876D01*
X9622D02*
X10622D01*
X9622Y6586D02*
Y6876D01*
Y6586D02*
X10622D01*
X319Y5737D02*
X744D01*
X319Y5337D02*
Y5737D01*
Y5337D02*
X744D01*
Y5737D01*
X319Y4866D02*
X744D01*
X319Y4466D02*
Y4866D01*
Y4466D02*
X744D01*
Y4866D01*
X7775Y3123D02*
Y3548D01*
Y3123D02*
X8175D01*
Y3548D01*
X7775D02*
X8175D01*
X7163Y3123D02*
Y3548D01*
Y3123D02*
X7563D01*
Y3548D01*
X7163D02*
X7563D01*
X7580Y7135D02*
Y7785D01*
Y7135D02*
X8020D01*
Y7785D01*
X7580D02*
X8020D01*
X7880Y7942D02*
Y8232D01*
X7720D02*
X7880D01*
X7720Y7942D02*
Y8232D01*
Y7942D02*
X7880D01*
X6772Y7224D02*
X6822D01*
Y7324D01*
X6772D02*
X6822D01*
X6772Y7224D02*
Y7324D01*
X6909D02*
X6959D01*
X6909Y7224D02*
Y7324D01*
Y7224D02*
X6959D01*
Y7324D01*
X8441Y7703D02*
X8491D01*
X8441Y7603D02*
Y7703D01*
Y7603D02*
X8491D01*
Y7703D01*
X7272Y7470D02*
X7327D01*
Y7575D01*
X7272D02*
X7327D01*
X7272Y7470D02*
Y7575D01*
X7267Y7284D02*
X7317D01*
X7267Y7184D02*
Y7284D01*
Y7184D02*
X7317D01*
Y7284D01*
X7125Y7701D02*
X7180D01*
X7125Y7596D02*
Y7701D01*
Y7596D02*
X7180D01*
Y7701D01*
X8294Y7699D02*
X8343D01*
Y7799D01*
X8294D02*
X8343D01*
X8294Y7699D02*
Y7799D01*
X7267Y7641D02*
X7317D01*
Y7741D01*
X7267D02*
X7317D01*
X7267Y7641D02*
Y7741D01*
X7720Y6738D02*
Y7028D01*
Y6738D02*
X7880D01*
Y7028D01*
X7720D02*
X7880D01*
X6975Y5789D02*
X7025D01*
Y5889D01*
X6975D02*
X7025D01*
X6975Y5789D02*
Y5889D01*
Y6028D02*
X7025D01*
Y6128D01*
X6975D02*
X7025D01*
X6975Y6028D02*
Y6128D01*
X8314Y5908D02*
X8364D01*
Y6008D01*
X8314D02*
X8364D01*
X8314Y5908D02*
Y6008D01*
X7865Y4029D02*
X7990D01*
X7865Y3829D02*
Y4029D01*
Y3829D02*
X7990D01*
Y4029D01*
X7245Y4048D02*
X7370D01*
X7245Y3848D02*
Y4048D01*
Y3848D02*
X7370D01*
Y4048D01*
M02*
