%TF.GenerationSoftware,Altium Limited,Altium Designer,24.2.2 (26)*%
G04 Layer_Color=16711935*
%FSLAX45Y45*%
%MOMM*%
%TF.SameCoordinates,E03CB206-BB87-4E68-BEA4-A169BFC7E2EA*%
%TF.FilePolarity,Negative*%
%TF.FileFunction,Soldermask,Bot*%
%TF.Part,CustomerPanel*%
G01*
G75*
%TA.AperFunction,ComponentPad*%
%ADD40C,1.32080*%
%ADD57C,1.72720*%
%ADD58C,1.70320*%
%ADD59R,1.70320X1.70320*%
%TA.AperFunction,ViaPad*%
%ADD60C,0.71120*%
%ADD61C,0.96520*%
%ADD62C,3.63220*%
%TA.AperFunction,ComponentPad*%
%ADD63R,1.72320X1.72320*%
%ADD64C,1.72320*%
%TA.AperFunction,SMDPad,CuDef*%
%ADD65R,1.00320X1.00320*%
D40*
X5532120Y4620260D02*
D03*
X5786120D02*
D03*
X5278120D02*
D03*
X4770120D02*
D03*
X4516120D02*
D03*
D57*
X761594Y2910987D02*
D03*
X1015594D02*
D03*
X1269594D02*
D03*
X1523594D02*
D03*
X1777594D02*
D03*
X2031594D02*
D03*
X2285594D02*
D03*
X2971394D02*
D03*
X3225394D02*
D03*
X3479394D02*
D03*
X3733394D02*
D03*
X3987394D02*
D03*
X4241394D02*
D03*
X4495394D02*
D03*
X6200140Y7556500D02*
D03*
Y7302500D02*
D03*
Y7048500D02*
D03*
Y6794500D02*
D03*
Y6540500D02*
D03*
Y6286500D02*
D03*
Y6032500D02*
D03*
Y5778500D02*
D03*
X6525260Y7937500D02*
D03*
Y7683500D02*
D03*
Y7429500D02*
D03*
Y7175500D02*
D03*
Y6921500D02*
D03*
Y6667500D02*
D03*
Y6413500D02*
D03*
Y6159500D02*
D03*
Y5905500D02*
D03*
Y5651500D02*
D03*
Y5397500D02*
D03*
Y5143500D02*
D03*
Y4889500D02*
D03*
Y4635500D02*
D03*
Y4381500D02*
D03*
X8811260D02*
D03*
Y4635500D02*
D03*
Y4889500D02*
D03*
Y5143500D02*
D03*
Y5397500D02*
D03*
Y5651500D02*
D03*
Y5905500D02*
D03*
Y6159500D02*
D03*
Y6413500D02*
D03*
Y6667500D02*
D03*
Y6921500D02*
D03*
Y7175500D02*
D03*
Y7429500D02*
D03*
Y7683500D02*
D03*
Y7937500D02*
D03*
D58*
X10763060Y4544060D02*
D03*
X10513060D02*
D03*
X10838060Y5614460D02*
D03*
X10188060D02*
D03*
Y6064460D02*
D03*
X10763060Y6893560D02*
D03*
X10513060D02*
D03*
X10838060Y7963960D02*
D03*
X10188060D02*
D03*
Y8413960D02*
D03*
D59*
X10263060Y4544060D02*
D03*
X10838060Y6064460D02*
D03*
X10263060Y6893560D02*
D03*
X10838060Y8413960D02*
D03*
D60*
X10322560Y4912360D02*
D03*
Y5052060D02*
D03*
Y5191760D02*
D03*
Y5331460D02*
D03*
X3639820Y3721100D02*
D03*
X3881120Y7889240D02*
D03*
X1567180Y8125460D02*
D03*
X2560320Y4343400D02*
D03*
X1196340Y5384800D02*
D03*
X1183640Y4505960D02*
D03*
X5320792Y3702812D02*
D03*
X5527040Y3695700D02*
D03*
X5623560Y3700780D02*
D03*
X5722620Y3690620D02*
D03*
X5821329Y3692809D02*
D03*
X5920740Y3700780D02*
D03*
X3040380Y4823460D02*
D03*
X6583456Y5270500D02*
D03*
X6692900Y5852160D02*
D03*
X7477760Y3708400D02*
D03*
X8689340Y5651500D02*
D03*
X8704580Y5905500D02*
D03*
X6797040Y7410450D02*
D03*
X6893331Y7403775D02*
D03*
X7211060Y6741160D02*
D03*
X8714740Y6413500D02*
D03*
X7457440Y4896348D02*
D03*
X7767320Y6146800D02*
D03*
X7876540Y4881880D02*
D03*
X3139440Y7759700D02*
D03*
X7640320Y7683500D02*
D03*
X7150100Y7543800D02*
D03*
X10322560Y7261860D02*
D03*
Y7401560D02*
D03*
Y7541260D02*
D03*
Y7680960D02*
D03*
D61*
X9357360Y4963160D02*
D03*
Y7312660D02*
D03*
D62*
X614680Y8262620D02*
D03*
X8684260Y8305800D02*
D03*
X8755380Y3268980D02*
D03*
D63*
X528320Y3335020D02*
D03*
D64*
X782320D02*
D03*
X1036320D02*
D03*
X1290320D02*
D03*
X1544320D02*
D03*
X1798320D02*
D03*
X2052320D02*
D03*
X2306320D02*
D03*
X2560320D02*
D03*
X2814320D02*
D03*
X528320Y7907020D02*
D03*
Y3589020D02*
D03*
Y7653020D02*
D03*
X782320Y7907020D02*
D03*
Y3589020D02*
D03*
Y7653020D02*
D03*
X1036320Y7907020D02*
D03*
Y3589020D02*
D03*
Y7653020D02*
D03*
X1290320Y7907020D02*
D03*
Y3589020D02*
D03*
Y7653020D02*
D03*
X1544320Y7907020D02*
D03*
Y3589020D02*
D03*
Y7653020D02*
D03*
X1798320Y7907020D02*
D03*
Y3589020D02*
D03*
Y7653020D02*
D03*
X2052320Y7907020D02*
D03*
Y3589020D02*
D03*
Y7653020D02*
D03*
X2306320Y7907020D02*
D03*
Y3589020D02*
D03*
Y7653020D02*
D03*
X2560320Y7907020D02*
D03*
Y3589020D02*
D03*
Y7653020D02*
D03*
X2814320Y7907020D02*
D03*
Y3589020D02*
D03*
Y7653020D02*
D03*
D65*
X10588060Y5331460D02*
D03*
X10438060D02*
D03*
X10588060Y4912360D02*
D03*
X10438060D02*
D03*
X10588060Y5052060D02*
D03*
X10438060D02*
D03*
X10588060Y5191760D02*
D03*
X10438060D02*
D03*
X10588060Y7680960D02*
D03*
X10438060D02*
D03*
X10588060Y7261860D02*
D03*
X10438060D02*
D03*
X10588060Y7401560D02*
D03*
X10438060D02*
D03*
X10588060Y7541260D02*
D03*
X10438060D02*
D03*
%TF.MD5,9f1a5bced3139d5ab5e31ba35cdfd076*%
M02*
