%TF.GenerationSoftware,Altium Limited,Altium Designer,24.2.2 (26)*%
G04 Layer_Physical_Order=2*
G04 Layer_Color=16711680*
%FSLAX45Y45*%
%MOMM*%
%TF.SameCoordinates,E03CB206-BB87-4E68-BEA4-A169BFC7E2EA*%
%TF.FilePolarity,Positive*%
%TF.FileFunction,Copper,L2,Bot,Signal*%
%TF.Part,CustomerPanel*%
G01*
G75*
%TA.AperFunction,Conductor*%
%ADD12C,0.25400*%
%ADD17C,0.50800*%
%TA.AperFunction,ComponentPad*%
%ADD32C,1.52400*%
%ADD33C,1.50000*%
%ADD34R,1.50000X1.50000*%
%TA.AperFunction,ViaPad*%
%ADD35C,0.50800*%
%ADD36C,0.76200*%
%ADD37C,3.42900*%
%TA.AperFunction,ComponentPad*%
%ADD38R,1.52000X1.52000*%
%ADD39C,1.52000*%
%ADD40C,1.32080*%
%TA.AperFunction,SMDPad,CuDef*%
%ADD41R,0.80000X0.80000*%
G36*
X8976360Y3063240D02*
X8795173D01*
X8793922Y3075940D01*
X8812799Y3079695D01*
X8848623Y3094534D01*
X8880865Y3116077D01*
X8908283Y3143495D01*
X8929826Y3175737D01*
X8944665Y3211561D01*
X8952230Y3249592D01*
Y3256280D01*
X8558530D01*
Y3249592D01*
X8566095Y3211561D01*
X8580934Y3175737D01*
X8602477Y3143495D01*
X8629895Y3116077D01*
X8662137Y3094534D01*
X8697961Y3079695D01*
X8716838Y3075940D01*
X8715587Y3063240D01*
X279400D01*
Y8506460D01*
X8621116D01*
X8623642Y8493760D01*
X8591017Y8480246D01*
X8558775Y8458703D01*
X8531357Y8431285D01*
X8509814Y8399043D01*
X8494975Y8363219D01*
X8487410Y8325188D01*
Y8318500D01*
X8881110D01*
Y8325188D01*
X8873545Y8363219D01*
X8858706Y8399043D01*
X8837163Y8431285D01*
X8809745Y8458703D01*
X8777503Y8480246D01*
X8744878Y8493760D01*
X8747404Y8506460D01*
X8976360D01*
Y3063240D01*
D02*
G37*
%LPC*%
G36*
X634068Y8459470D02*
X627380D01*
Y8275320D01*
X811530D01*
Y8282008D01*
X803965Y8320039D01*
X789126Y8355863D01*
X767583Y8388105D01*
X740165Y8415523D01*
X707923Y8437066D01*
X672099Y8451905D01*
X634068Y8459470D01*
D02*
G37*
G36*
X601980D02*
X595292D01*
X557261Y8451905D01*
X521437Y8437066D01*
X489195Y8415523D01*
X461777Y8388105D01*
X440234Y8355863D01*
X425395Y8320039D01*
X417830Y8282008D01*
Y8275320D01*
X601980D01*
Y8459470D01*
D02*
G37*
G36*
X8881110Y8293100D02*
X8696960D01*
Y8108950D01*
X8703648D01*
X8741679Y8116515D01*
X8777503Y8131354D01*
X8809745Y8152897D01*
X8837163Y8180315D01*
X8858706Y8212557D01*
X8873545Y8248381D01*
X8881110Y8286412D01*
Y8293100D01*
D02*
G37*
G36*
X8671560D02*
X8487410D01*
Y8286412D01*
X8494975Y8248381D01*
X8509814Y8212557D01*
X8531357Y8180315D01*
X8558775Y8152897D01*
X8591017Y8131354D01*
X8626841Y8116515D01*
X8664872Y8108950D01*
X8671560D01*
Y8293100D01*
D02*
G37*
G36*
X811530Y8249920D02*
X627380D01*
Y8065770D01*
X634068D01*
X672099Y8073335D01*
X707923Y8088174D01*
X740165Y8109717D01*
X767583Y8137135D01*
X789126Y8169377D01*
X803965Y8205201D01*
X811530Y8243232D01*
Y8249920D01*
D02*
G37*
G36*
X601980D02*
X417830D01*
Y8243232D01*
X425395Y8205201D01*
X440234Y8169377D01*
X461777Y8137135D01*
X489195Y8109717D01*
X521437Y8088174D01*
X557261Y8073335D01*
X595292Y8065770D01*
X601980D01*
Y8249920D01*
D02*
G37*
G36*
X2319669Y8008420D02*
X2319020D01*
Y7919720D01*
X2407720D01*
Y7920369D01*
X2400810Y7946159D01*
X2387460Y7969281D01*
X2368581Y7988160D01*
X2345459Y8001510D01*
X2319669Y8008420D01*
D02*
G37*
G36*
X2065669D02*
X2065020D01*
Y7919720D01*
X2153720D01*
Y7920369D01*
X2146810Y7946159D01*
X2133460Y7969281D01*
X2114581Y7988160D01*
X2091459Y8001510D01*
X2065669Y8008420D01*
D02*
G37*
G36*
X1811669D02*
X1811020D01*
Y7919720D01*
X1899720D01*
Y7920369D01*
X1892810Y7946159D01*
X1879460Y7969281D01*
X1860581Y7988160D01*
X1837459Y8001510D01*
X1811669Y8008420D01*
D02*
G37*
G36*
X1303669D02*
X1303020D01*
Y7919720D01*
X1391720D01*
Y7920369D01*
X1384810Y7946159D01*
X1371460Y7969281D01*
X1352581Y7988160D01*
X1329459Y8001510D01*
X1303669Y8008420D01*
D02*
G37*
G36*
X1049669D02*
X1049020D01*
Y7919720D01*
X1137720D01*
Y7920369D01*
X1130810Y7946159D01*
X1117460Y7969281D01*
X1098581Y7988160D01*
X1075459Y8001510D01*
X1049669Y8008420D01*
D02*
G37*
G36*
X541669D02*
X541020D01*
Y7919720D01*
X629720D01*
Y7920369D01*
X622810Y7946159D01*
X609460Y7969281D01*
X590581Y7988160D01*
X567459Y8001510D01*
X541669Y8008420D01*
D02*
G37*
G36*
X1277620D02*
X1276971D01*
X1251181Y8001510D01*
X1228059Y7988160D01*
X1209180Y7969281D01*
X1195830Y7946159D01*
X1188920Y7920369D01*
Y7919720D01*
X1277620D01*
Y8008420D01*
D02*
G37*
G36*
X1023620D02*
X1022971D01*
X997181Y8001510D01*
X974059Y7988160D01*
X955180Y7969281D01*
X941830Y7946159D01*
X934920Y7920369D01*
Y7919720D01*
X1023620D01*
Y8008420D01*
D02*
G37*
G36*
X515620D02*
X514971D01*
X489181Y8001510D01*
X466059Y7988160D01*
X447180Y7969281D01*
X433830Y7946159D01*
X426920Y7920369D01*
Y7919720D01*
X515620D01*
Y8008420D01*
D02*
G37*
G36*
X2293620D02*
X2292971D01*
X2267181Y8001510D01*
X2244059Y7988160D01*
X2225180Y7969281D01*
X2211830Y7946159D01*
X2204920Y7920369D01*
Y7919720D01*
X2293620D01*
Y8008420D01*
D02*
G37*
G36*
X2039620D02*
X2038971D01*
X2013181Y8001510D01*
X1990059Y7988160D01*
X1971180Y7969281D01*
X1957830Y7946159D01*
X1950920Y7920369D01*
Y7919720D01*
X2039620D01*
Y8008420D01*
D02*
G37*
G36*
X1785620D02*
X1784971D01*
X1759181Y8001510D01*
X1736059Y7988160D01*
X1717180Y7969281D01*
X1703830Y7946159D01*
X1696920Y7920369D01*
Y7919720D01*
X1785620D01*
Y8008420D01*
D02*
G37*
G36*
X8824636Y8039100D02*
X8797884D01*
X8772044Y8032176D01*
X8748876Y8018800D01*
X8729960Y7999884D01*
X8716584Y7976716D01*
X8709660Y7950876D01*
Y7924124D01*
X8716584Y7898284D01*
X8729960Y7875116D01*
X8748876Y7856200D01*
X8772044Y7842824D01*
X8797884Y7835900D01*
X8824636D01*
X8850476Y7842824D01*
X8873644Y7856200D01*
X8892560Y7875116D01*
X8905936Y7898284D01*
X8912860Y7924124D01*
Y7950876D01*
X8905936Y7976716D01*
X8892560Y7999884D01*
X8873644Y8018800D01*
X8850476Y8032176D01*
X8824636Y8039100D01*
D02*
G37*
G36*
X6538636D02*
X6511884D01*
X6486044Y8032176D01*
X6462876Y8018800D01*
X6443960Y7999884D01*
X6430584Y7976716D01*
X6423660Y7950876D01*
Y7924124D01*
X6430584Y7898284D01*
X6443960Y7875116D01*
X6462876Y7856200D01*
X6486044Y7842824D01*
X6511884Y7835900D01*
X6538636D01*
X6564476Y7842824D01*
X6587644Y7856200D01*
X6606560Y7875116D01*
X6619936Y7898284D01*
X6626860Y7924124D01*
Y7950876D01*
X6619936Y7976716D01*
X6606560Y7999884D01*
X6587644Y8018800D01*
X6564476Y8032176D01*
X6538636Y8039100D01*
D02*
G37*
G36*
X2827669Y8008420D02*
X2800971D01*
X2775181Y8001510D01*
X2752059Y7988160D01*
X2733180Y7969281D01*
X2719830Y7946159D01*
X2712920Y7920369D01*
Y7893671D01*
X2719830Y7867881D01*
X2733180Y7844759D01*
X2752059Y7825880D01*
X2775181Y7812530D01*
X2800971Y7805620D01*
X2827669D01*
X2853459Y7812530D01*
X2876581Y7825880D01*
X2895460Y7844759D01*
X2908810Y7867881D01*
X2915720Y7893671D01*
Y7920369D01*
X2908810Y7946159D01*
X2895460Y7969281D01*
X2876581Y7988160D01*
X2853459Y8001510D01*
X2827669Y8008420D01*
D02*
G37*
G36*
X2573669D02*
X2546971D01*
X2521181Y8001510D01*
X2498059Y7988160D01*
X2479180Y7969281D01*
X2465830Y7946159D01*
X2458920Y7920369D01*
Y7893671D01*
X2465830Y7867881D01*
X2479180Y7844759D01*
X2498059Y7825880D01*
X2521181Y7812530D01*
X2546971Y7805620D01*
X2573669D01*
X2599459Y7812530D01*
X2622581Y7825880D01*
X2641460Y7844759D01*
X2654810Y7867881D01*
X2661720Y7893671D01*
Y7920369D01*
X2654810Y7946159D01*
X2641460Y7969281D01*
X2622581Y7988160D01*
X2599459Y8001510D01*
X2573669Y8008420D01*
D02*
G37*
G36*
X2407720Y7894320D02*
X2319020D01*
Y7805620D01*
X2319669D01*
X2345459Y7812530D01*
X2368581Y7825880D01*
X2387460Y7844759D01*
X2400810Y7867881D01*
X2407720Y7893671D01*
Y7894320D01*
D02*
G37*
G36*
X2293620D02*
X2204920D01*
Y7893671D01*
X2211830Y7867881D01*
X2225180Y7844759D01*
X2244059Y7825880D01*
X2267181Y7812530D01*
X2292971Y7805620D01*
X2293620D01*
Y7894320D01*
D02*
G37*
G36*
X2153720D02*
X2065020D01*
Y7805620D01*
X2065669D01*
X2091459Y7812530D01*
X2114581Y7825880D01*
X2133460Y7844759D01*
X2146810Y7867881D01*
X2153720Y7893671D01*
Y7894320D01*
D02*
G37*
G36*
X2039620D02*
X1950920D01*
Y7893671D01*
X1957830Y7867881D01*
X1971180Y7844759D01*
X1990059Y7825880D01*
X2013181Y7812530D01*
X2038971Y7805620D01*
X2039620D01*
Y7894320D01*
D02*
G37*
G36*
X1899720D02*
X1811020D01*
Y7805620D01*
X1811669D01*
X1837459Y7812530D01*
X1860581Y7825880D01*
X1879460Y7844759D01*
X1892810Y7867881D01*
X1899720Y7893671D01*
Y7894320D01*
D02*
G37*
G36*
X1785620D02*
X1696920D01*
Y7893671D01*
X1703830Y7867881D01*
X1717180Y7844759D01*
X1736059Y7825880D01*
X1759181Y7812530D01*
X1784971Y7805620D01*
X1785620D01*
Y7894320D01*
D02*
G37*
G36*
X1577285Y8176260D02*
X1557075D01*
X1538404Y8168526D01*
X1524114Y8154236D01*
X1516380Y8135565D01*
Y8115355D01*
X1523474Y8098229D01*
Y8006411D01*
X1505181Y8001510D01*
X1482059Y7988160D01*
X1463180Y7969281D01*
X1449830Y7946159D01*
X1442920Y7920369D01*
Y7893671D01*
X1449830Y7867881D01*
X1463180Y7844759D01*
X1482059Y7825880D01*
X1505181Y7812530D01*
X1530971Y7805620D01*
X1557669D01*
X1583459Y7812530D01*
X1606581Y7825880D01*
X1625460Y7844759D01*
X1638810Y7867881D01*
X1645720Y7893671D01*
Y7920369D01*
X1638810Y7946159D01*
X1625460Y7969281D01*
X1606581Y7988160D01*
X1601167Y7991286D01*
Y8087605D01*
X1610246Y8096684D01*
X1617980Y8115355D01*
Y8135565D01*
X1610246Y8154236D01*
X1595956Y8168526D01*
X1577285Y8176260D01*
D02*
G37*
G36*
X1391720Y7894320D02*
X1303020D01*
Y7805620D01*
X1303669D01*
X1329459Y7812530D01*
X1352581Y7825880D01*
X1371460Y7844759D01*
X1384810Y7867881D01*
X1391720Y7893671D01*
Y7894320D01*
D02*
G37*
G36*
X1277620D02*
X1188920D01*
Y7893671D01*
X1195830Y7867881D01*
X1209180Y7844759D01*
X1228059Y7825880D01*
X1251181Y7812530D01*
X1276971Y7805620D01*
X1277620D01*
Y7894320D01*
D02*
G37*
G36*
X1137720D02*
X1049020D01*
Y7805620D01*
X1049669D01*
X1075459Y7812530D01*
X1098581Y7825880D01*
X1117460Y7844759D01*
X1130810Y7867881D01*
X1137720Y7893671D01*
Y7894320D01*
D02*
G37*
G36*
X1023620D02*
X934920D01*
Y7893671D01*
X941830Y7867881D01*
X955180Y7844759D01*
X974059Y7825880D01*
X997181Y7812530D01*
X1022971Y7805620D01*
X1023620D01*
Y7894320D01*
D02*
G37*
G36*
X795669Y8008420D02*
X768971D01*
X743181Y8001510D01*
X720059Y7988160D01*
X701180Y7969281D01*
X687830Y7946159D01*
X680920Y7920369D01*
Y7893671D01*
X687830Y7867881D01*
X701180Y7844759D01*
X720059Y7825880D01*
X743181Y7812530D01*
X768971Y7805620D01*
X795669D01*
X821459Y7812530D01*
X844581Y7825880D01*
X863460Y7844759D01*
X876810Y7867881D01*
X883720Y7893671D01*
Y7920369D01*
X876810Y7946159D01*
X863460Y7969281D01*
X844581Y7988160D01*
X821459Y8001510D01*
X795669Y8008420D01*
D02*
G37*
G36*
X629720Y7894320D02*
X541020D01*
Y7805620D01*
X541669D01*
X567459Y7812530D01*
X590581Y7825880D01*
X609460Y7844759D01*
X622810Y7867881D01*
X629720Y7893671D01*
Y7894320D01*
D02*
G37*
G36*
X515620D02*
X426920D01*
Y7893671D01*
X433830Y7867881D01*
X447180Y7844759D01*
X466059Y7825880D01*
X489181Y7812530D01*
X514971Y7805620D01*
X515620D01*
Y7894320D01*
D02*
G37*
G36*
X2827669Y7754420D02*
X2827020D01*
Y7665720D01*
X2915720D01*
Y7666369D01*
X2908810Y7692159D01*
X2895460Y7715281D01*
X2876581Y7734160D01*
X2853459Y7747510D01*
X2827669Y7754420D01*
D02*
G37*
G36*
X2573669D02*
X2573020D01*
Y7665720D01*
X2661720D01*
Y7666369D01*
X2654810Y7692159D01*
X2641460Y7715281D01*
X2622581Y7734160D01*
X2599459Y7747510D01*
X2573669Y7754420D01*
D02*
G37*
G36*
X2319669D02*
X2319020D01*
Y7665720D01*
X2407720D01*
Y7666369D01*
X2400810Y7692159D01*
X2387460Y7715281D01*
X2368581Y7734160D01*
X2345459Y7747510D01*
X2319669Y7754420D01*
D02*
G37*
G36*
X2065669D02*
X2065020D01*
Y7665720D01*
X2153720D01*
Y7666369D01*
X2146810Y7692159D01*
X2133460Y7715281D01*
X2114581Y7734160D01*
X2091459Y7747510D01*
X2065669Y7754420D01*
D02*
G37*
G36*
X1811669D02*
X1811020D01*
Y7665720D01*
X1899720D01*
Y7666369D01*
X1892810Y7692159D01*
X1879460Y7715281D01*
X1860581Y7734160D01*
X1837459Y7747510D01*
X1811669Y7754420D01*
D02*
G37*
G36*
X1557669D02*
X1557020D01*
Y7665720D01*
X1645720D01*
Y7666369D01*
X1638810Y7692159D01*
X1625460Y7715281D01*
X1606581Y7734160D01*
X1583459Y7747510D01*
X1557669Y7754420D01*
D02*
G37*
G36*
X1303669D02*
X1303020D01*
Y7665720D01*
X1391720D01*
Y7666369D01*
X1384810Y7692159D01*
X1371460Y7715281D01*
X1352581Y7734160D01*
X1329459Y7747510D01*
X1303669Y7754420D01*
D02*
G37*
G36*
X1049669D02*
X1049020D01*
Y7665720D01*
X1137720D01*
Y7666369D01*
X1130810Y7692159D01*
X1117460Y7715281D01*
X1098581Y7734160D01*
X1075459Y7747510D01*
X1049669Y7754420D01*
D02*
G37*
G36*
X795669D02*
X795020D01*
Y7665720D01*
X883720D01*
Y7666369D01*
X876810Y7692159D01*
X863460Y7715281D01*
X844581Y7734160D01*
X821459Y7747510D01*
X795669Y7754420D01*
D02*
G37*
G36*
X541669D02*
X541020D01*
Y7665720D01*
X629720D01*
Y7666369D01*
X622810Y7692159D01*
X609460Y7715281D01*
X590581Y7734160D01*
X567459Y7747510D01*
X541669Y7754420D01*
D02*
G37*
G36*
X2801620D02*
X2800971D01*
X2775181Y7747510D01*
X2752059Y7734160D01*
X2733180Y7715281D01*
X2719830Y7692159D01*
X2712920Y7666369D01*
Y7665720D01*
X2801620D01*
Y7754420D01*
D02*
G37*
G36*
X2547620D02*
X2546971D01*
X2521181Y7747510D01*
X2498059Y7734160D01*
X2479180Y7715281D01*
X2465830Y7692159D01*
X2458920Y7666369D01*
Y7665720D01*
X2547620D01*
Y7754420D01*
D02*
G37*
G36*
X2293620D02*
X2292971D01*
X2267181Y7747510D01*
X2244059Y7734160D01*
X2225180Y7715281D01*
X2211830Y7692159D01*
X2204920Y7666369D01*
Y7665720D01*
X2293620D01*
Y7754420D01*
D02*
G37*
G36*
X2039620D02*
X2038971D01*
X2013181Y7747510D01*
X1990059Y7734160D01*
X1971180Y7715281D01*
X1957830Y7692159D01*
X1950920Y7666369D01*
Y7665720D01*
X2039620D01*
Y7754420D01*
D02*
G37*
G36*
X1785620D02*
X1784971D01*
X1759181Y7747510D01*
X1736059Y7734160D01*
X1717180Y7715281D01*
X1703830Y7692159D01*
X1696920Y7666369D01*
Y7665720D01*
X1785620D01*
Y7754420D01*
D02*
G37*
G36*
X1531620D02*
X1530971D01*
X1505181Y7747510D01*
X1482059Y7734160D01*
X1463180Y7715281D01*
X1449830Y7692159D01*
X1442920Y7666369D01*
Y7665720D01*
X1531620D01*
Y7754420D01*
D02*
G37*
G36*
X1277620D02*
X1276971D01*
X1251181Y7747510D01*
X1228059Y7734160D01*
X1209180Y7715281D01*
X1195830Y7692159D01*
X1188920Y7666369D01*
Y7665720D01*
X1277620D01*
Y7754420D01*
D02*
G37*
G36*
X1023620D02*
X1022971D01*
X997181Y7747510D01*
X974059Y7734160D01*
X955180Y7715281D01*
X941830Y7692159D01*
X934920Y7666369D01*
Y7665720D01*
X1023620D01*
Y7754420D01*
D02*
G37*
G36*
X769620D02*
X768971D01*
X743181Y7747510D01*
X720059Y7734160D01*
X701180Y7715281D01*
X687830Y7692159D01*
X680920Y7666369D01*
Y7665720D01*
X769620D01*
Y7754420D01*
D02*
G37*
G36*
X515620D02*
X514971D01*
X489181Y7747510D01*
X466059Y7734160D01*
X447180Y7715281D01*
X433830Y7692159D01*
X426920Y7666369D01*
Y7665720D01*
X515620D01*
Y7754420D01*
D02*
G37*
G36*
X7152640Y7785847D02*
X7137774Y7782889D01*
X7125171Y7774469D01*
X7123901Y7773199D01*
X7115481Y7760596D01*
X7112523Y7745730D01*
X7115481Y7730864D01*
X7123901Y7718261D01*
X7131556Y7713147D01*
X7188671Y7656031D01*
X7201274Y7647611D01*
X7216140Y7644653D01*
X7607324D01*
X7611544Y7640434D01*
X7630215Y7632700D01*
X7650425D01*
X7669096Y7640434D01*
X7683386Y7654724D01*
X7691120Y7673395D01*
Y7693605D01*
X7683386Y7712276D01*
X7669096Y7726566D01*
X7650425Y7734300D01*
X7630215D01*
X7611544Y7726566D01*
X7607324Y7722347D01*
X7232231D01*
X7180109Y7774469D01*
X7167506Y7782889D01*
X7152640Y7785847D01*
D02*
G37*
G36*
X8824636Y7785100D02*
X8797884D01*
X8772044Y7778176D01*
X8748876Y7764800D01*
X8729960Y7745884D01*
X8716584Y7722716D01*
X8709660Y7696876D01*
Y7670124D01*
X8716584Y7644284D01*
X8729960Y7621116D01*
X8748876Y7602200D01*
X8772044Y7588824D01*
X8797884Y7581900D01*
X8824636D01*
X8850476Y7588824D01*
X8873644Y7602200D01*
X8892560Y7621116D01*
X8905936Y7644284D01*
X8912860Y7670124D01*
Y7696876D01*
X8905936Y7722716D01*
X8892560Y7745884D01*
X8873644Y7764800D01*
X8850476Y7778176D01*
X8824636Y7785100D01*
D02*
G37*
G36*
X3149545Y7810500D02*
X3129335D01*
X3110664Y7802766D01*
X3096374Y7788476D01*
X3088640Y7769805D01*
Y7749595D01*
X3096374Y7730924D01*
X3110664Y7716634D01*
X3129335Y7708900D01*
X3135303D01*
X3189441Y7654761D01*
X3202044Y7646341D01*
X3216910Y7643383D01*
X6125379D01*
X6130639Y7630683D01*
X6118840Y7618884D01*
X6105464Y7595716D01*
X6098540Y7569876D01*
Y7543124D01*
X6105464Y7517284D01*
X6118840Y7494116D01*
X6137756Y7475200D01*
X6160924Y7461824D01*
X6186764Y7454900D01*
X6213516D01*
X6239356Y7461824D01*
X6262524Y7475200D01*
X6281440Y7494116D01*
X6294816Y7517284D01*
X6301740Y7543124D01*
Y7569876D01*
X6294816Y7595716D01*
X6281440Y7618884D01*
X6269641Y7630683D01*
X6274901Y7643383D01*
X6431104D01*
X6443960Y7621116D01*
X6462876Y7602200D01*
X6486044Y7588824D01*
X6511884Y7581900D01*
X6538636D01*
X6564476Y7588824D01*
X6587644Y7602200D01*
X6606560Y7621116D01*
X6619936Y7644284D01*
X6626860Y7670124D01*
Y7696876D01*
X6619936Y7722716D01*
X6606560Y7745884D01*
X6587644Y7764800D01*
X6564476Y7778176D01*
X6538636Y7785100D01*
X6511884D01*
X6486044Y7778176D01*
X6462876Y7764800D01*
X6443960Y7745884D01*
X6430584Y7722716D01*
X6430144Y7721077D01*
X3233001D01*
X3190240Y7763837D01*
Y7769805D01*
X3182506Y7788476D01*
X3168216Y7802766D01*
X3149545Y7810500D01*
D02*
G37*
G36*
X2915720Y7640320D02*
X2827020D01*
Y7551620D01*
X2827669D01*
X2853459Y7558530D01*
X2876581Y7571880D01*
X2895460Y7590759D01*
X2908810Y7613881D01*
X2915720Y7639671D01*
Y7640320D01*
D02*
G37*
G36*
X2801620D02*
X2712920D01*
Y7639671D01*
X2719830Y7613881D01*
X2733180Y7590759D01*
X2752059Y7571880D01*
X2775181Y7558530D01*
X2800971Y7551620D01*
X2801620D01*
Y7640320D01*
D02*
G37*
G36*
X2661720D02*
X2573020D01*
Y7551620D01*
X2573669D01*
X2599459Y7558530D01*
X2622581Y7571880D01*
X2641460Y7590759D01*
X2654810Y7613881D01*
X2661720Y7639671D01*
Y7640320D01*
D02*
G37*
G36*
X2547620D02*
X2458920D01*
Y7639671D01*
X2465830Y7613881D01*
X2479180Y7590759D01*
X2498059Y7571880D01*
X2521181Y7558530D01*
X2546971Y7551620D01*
X2547620D01*
Y7640320D01*
D02*
G37*
G36*
X2407720D02*
X2319020D01*
Y7551620D01*
X2319669D01*
X2345459Y7558530D01*
X2368581Y7571880D01*
X2387460Y7590759D01*
X2400810Y7613881D01*
X2407720Y7639671D01*
Y7640320D01*
D02*
G37*
G36*
X2293620D02*
X2204920D01*
Y7639671D01*
X2211830Y7613881D01*
X2225180Y7590759D01*
X2244059Y7571880D01*
X2267181Y7558530D01*
X2292971Y7551620D01*
X2293620D01*
Y7640320D01*
D02*
G37*
G36*
X2153720D02*
X2065020D01*
Y7551620D01*
X2065669D01*
X2091459Y7558530D01*
X2114581Y7571880D01*
X2133460Y7590759D01*
X2146810Y7613881D01*
X2153720Y7639671D01*
Y7640320D01*
D02*
G37*
G36*
X2039620D02*
X1950920D01*
Y7639671D01*
X1957830Y7613881D01*
X1971180Y7590759D01*
X1990059Y7571880D01*
X2013181Y7558530D01*
X2038971Y7551620D01*
X2039620D01*
Y7640320D01*
D02*
G37*
G36*
X1899720D02*
X1811020D01*
Y7551620D01*
X1811669D01*
X1837459Y7558530D01*
X1860581Y7571880D01*
X1879460Y7590759D01*
X1892810Y7613881D01*
X1899720Y7639671D01*
Y7640320D01*
D02*
G37*
G36*
X1785620D02*
X1696920D01*
Y7639671D01*
X1703830Y7613881D01*
X1717180Y7590759D01*
X1736059Y7571880D01*
X1759181Y7558530D01*
X1784971Y7551620D01*
X1785620D01*
Y7640320D01*
D02*
G37*
G36*
X1645720D02*
X1557020D01*
Y7551620D01*
X1557669D01*
X1583459Y7558530D01*
X1606581Y7571880D01*
X1625460Y7590759D01*
X1638810Y7613881D01*
X1645720Y7639671D01*
Y7640320D01*
D02*
G37*
G36*
X1531620D02*
X1442920D01*
Y7639671D01*
X1449830Y7613881D01*
X1463180Y7590759D01*
X1482059Y7571880D01*
X1505181Y7558530D01*
X1530971Y7551620D01*
X1531620D01*
Y7640320D01*
D02*
G37*
G36*
X1391720D02*
X1303020D01*
Y7551620D01*
X1303669D01*
X1329459Y7558530D01*
X1352581Y7571880D01*
X1371460Y7590759D01*
X1384810Y7613881D01*
X1391720Y7639671D01*
Y7640320D01*
D02*
G37*
G36*
X1277620D02*
X1188920D01*
Y7639671D01*
X1195830Y7613881D01*
X1209180Y7590759D01*
X1228059Y7571880D01*
X1251181Y7558530D01*
X1276971Y7551620D01*
X1277620D01*
Y7640320D01*
D02*
G37*
G36*
X1137720D02*
X1049020D01*
Y7551620D01*
X1049669D01*
X1075459Y7558530D01*
X1098581Y7571880D01*
X1117460Y7590759D01*
X1130810Y7613881D01*
X1137720Y7639671D01*
Y7640320D01*
D02*
G37*
G36*
X1023620D02*
X934920D01*
Y7639671D01*
X941830Y7613881D01*
X955180Y7590759D01*
X974059Y7571880D01*
X997181Y7558530D01*
X1022971Y7551620D01*
X1023620D01*
Y7640320D01*
D02*
G37*
G36*
X883720D02*
X795020D01*
Y7551620D01*
X795669D01*
X821459Y7558530D01*
X844581Y7571880D01*
X863460Y7590759D01*
X876810Y7613881D01*
X883720Y7639671D01*
Y7640320D01*
D02*
G37*
G36*
X769620D02*
X680920D01*
Y7639671D01*
X687830Y7613881D01*
X701180Y7590759D01*
X720059Y7571880D01*
X743181Y7558530D01*
X768971Y7551620D01*
X769620D01*
Y7640320D01*
D02*
G37*
G36*
X629720D02*
X541020D01*
Y7551620D01*
X541669D01*
X567459Y7558530D01*
X590581Y7571880D01*
X609460Y7590759D01*
X622810Y7613881D01*
X629720Y7639671D01*
Y7640320D01*
D02*
G37*
G36*
X515620D02*
X426920D01*
Y7639671D01*
X433830Y7613881D01*
X447180Y7590759D01*
X466059Y7571880D01*
X489181Y7558530D01*
X514971Y7551620D01*
X515620D01*
Y7640320D01*
D02*
G37*
G36*
X7160205Y7594600D02*
X7139995D01*
X7121324Y7586866D01*
X7107034Y7572576D01*
X7099300Y7553905D01*
Y7533695D01*
X7107034Y7515024D01*
X7121324Y7500734D01*
X7139995Y7493000D01*
X7160205D01*
X7178876Y7500734D01*
X7183096Y7504953D01*
X7626726D01*
X7641592Y7507911D01*
X7654194Y7516331D01*
X7664355Y7526491D01*
X7672775Y7539094D01*
X7675732Y7553960D01*
X7672775Y7568826D01*
X7664355Y7581429D01*
X7651752Y7589849D01*
X7636886Y7592807D01*
X7622020Y7589849D01*
X7611240Y7582647D01*
X7183096D01*
X7178876Y7586866D01*
X7160205Y7594600D01*
D02*
G37*
G36*
X8824636Y7531100D02*
X8797884D01*
X8772044Y7524176D01*
X8748876Y7510800D01*
X8729960Y7491884D01*
X8716584Y7468716D01*
X8709660Y7442876D01*
Y7416124D01*
X8716584Y7390284D01*
X8729960Y7367116D01*
X8748876Y7348200D01*
X8772044Y7334824D01*
X8797884Y7327900D01*
X8824636D01*
X8850476Y7334824D01*
X8873644Y7348200D01*
X8892560Y7367116D01*
X8905936Y7390284D01*
X8912860Y7416124D01*
Y7442876D01*
X8905936Y7468716D01*
X8892560Y7491884D01*
X8873644Y7510800D01*
X8850476Y7524176D01*
X8824636Y7531100D01*
D02*
G37*
G36*
X6538636D02*
X6511884D01*
X6486044Y7524176D01*
X6462876Y7510800D01*
X6443960Y7491884D01*
X6430584Y7468716D01*
X6423660Y7442876D01*
Y7416124D01*
X6430584Y7390284D01*
X6443960Y7367116D01*
X6462876Y7348200D01*
X6486044Y7334824D01*
X6511884Y7327900D01*
X6538636D01*
X6564476Y7334824D01*
X6587644Y7348200D01*
X6606560Y7367116D01*
X6619936Y7390284D01*
X6626860Y7416124D01*
Y7442876D01*
X6619936Y7468716D01*
X6606560Y7491884D01*
X6587644Y7510800D01*
X6564476Y7524176D01*
X6538636Y7531100D01*
D02*
G37*
G36*
X6213516Y7404100D02*
X6212840D01*
Y7315200D01*
X6301740D01*
Y7315876D01*
X6294816Y7341716D01*
X6281440Y7364884D01*
X6262524Y7383800D01*
X6239356Y7397176D01*
X6213516Y7404100D01*
D02*
G37*
G36*
X6187440D02*
X6186764D01*
X6160924Y7397176D01*
X6137756Y7383800D01*
X6118840Y7364884D01*
X6105464Y7341716D01*
X6098540Y7315876D01*
Y7315200D01*
X6187440D01*
Y7404100D01*
D02*
G37*
G36*
X6301740Y7289800D02*
X6212840D01*
Y7200900D01*
X6213516D01*
X6239356Y7207824D01*
X6262524Y7221200D01*
X6281440Y7240116D01*
X6294816Y7263284D01*
X6301740Y7289124D01*
Y7289800D01*
D02*
G37*
G36*
X6187440D02*
X6098540D01*
Y7289124D01*
X6105464Y7263284D01*
X6118840Y7240116D01*
X6137756Y7221200D01*
X6160924Y7207824D01*
X6186764Y7200900D01*
X6187440D01*
Y7289800D01*
D02*
G37*
G36*
X8824636Y7277100D02*
X8797884D01*
X8772044Y7270176D01*
X8748876Y7256800D01*
X8729960Y7237884D01*
X8716584Y7214716D01*
X8709660Y7188876D01*
Y7162124D01*
X8716584Y7136284D01*
X8729960Y7113116D01*
X8748876Y7094200D01*
X8772044Y7080824D01*
X8797884Y7073900D01*
X8824636D01*
X8850476Y7080824D01*
X8873644Y7094200D01*
X8892560Y7113116D01*
X8905936Y7136284D01*
X8912860Y7162124D01*
Y7188876D01*
X8905936Y7214716D01*
X8892560Y7237884D01*
X8873644Y7256800D01*
X8850476Y7270176D01*
X8824636Y7277100D01*
D02*
G37*
G36*
X6538636D02*
X6511884D01*
X6486044Y7270176D01*
X6462876Y7256800D01*
X6443960Y7237884D01*
X6430584Y7214716D01*
X6423660Y7188876D01*
Y7162124D01*
X6430584Y7136284D01*
X6443960Y7113116D01*
X6462876Y7094200D01*
X6486044Y7080824D01*
X6511884Y7073900D01*
X6538636D01*
X6564476Y7080824D01*
X6587644Y7094200D01*
X6606560Y7113116D01*
X6619936Y7136284D01*
X6626860Y7162124D01*
Y7188876D01*
X6619936Y7214716D01*
X6606560Y7237884D01*
X6587644Y7256800D01*
X6564476Y7270176D01*
X6538636Y7277100D01*
D02*
G37*
G36*
X7631562Y7332324D02*
X7616696Y7329367D01*
X7604094Y7320946D01*
X7595673Y7308344D01*
X7592716Y7293478D01*
X7595673Y7278612D01*
X7604094Y7266009D01*
X7864423Y7005680D01*
X7877026Y6997259D01*
X7891892Y6994302D01*
X7912212D01*
X7927078Y6997259D01*
X7939680Y7005680D01*
X7948101Y7018282D01*
X7951058Y7033148D01*
X7948101Y7048014D01*
X7939680Y7060617D01*
X7927078Y7069038D01*
X7912212Y7071995D01*
X7907982D01*
X7659031Y7320946D01*
X7646428Y7329367D01*
X7631562Y7332324D01*
D02*
G37*
G36*
X6213516Y7150100D02*
X6186764D01*
X6160924Y7143176D01*
X6137756Y7129800D01*
X6118840Y7110884D01*
X6105464Y7087716D01*
X6098540Y7061876D01*
Y7035124D01*
X6105464Y7009284D01*
X6118840Y6986116D01*
X6137756Y6967200D01*
X6160924Y6953824D01*
X6186764Y6946900D01*
X6213516D01*
X6239356Y6953824D01*
X6262524Y6967200D01*
X6281440Y6986116D01*
X6294816Y7009284D01*
X6301740Y7035124D01*
Y7061876D01*
X6294816Y7087716D01*
X6281440Y7110884D01*
X6262524Y7129800D01*
X6239356Y7143176D01*
X6213516Y7150100D01*
D02*
G37*
G36*
X8824636Y7023100D02*
X8797884D01*
X8772044Y7016176D01*
X8748876Y7002800D01*
X8729960Y6983884D01*
X8716584Y6960716D01*
X8709660Y6934876D01*
Y6908124D01*
X8716584Y6882284D01*
X8729960Y6859116D01*
X8748876Y6840200D01*
X8772044Y6826824D01*
X8797884Y6819900D01*
X8824636D01*
X8850476Y6826824D01*
X8873644Y6840200D01*
X8892560Y6859116D01*
X8905936Y6882284D01*
X8912860Y6908124D01*
Y6934876D01*
X8905936Y6960716D01*
X8892560Y6983884D01*
X8873644Y7002800D01*
X8850476Y7016176D01*
X8824636Y7023100D01*
D02*
G37*
G36*
X6538636D02*
X6511884D01*
X6486044Y7016176D01*
X6462876Y7002800D01*
X6443960Y6983884D01*
X6430584Y6960716D01*
X6423660Y6934876D01*
Y6908124D01*
X6430584Y6882284D01*
X6443960Y6859116D01*
X6462876Y6840200D01*
X6486044Y6826824D01*
X6511884Y6819900D01*
X6538636D01*
X6564476Y6826824D01*
X6587644Y6840200D01*
X6606560Y6859116D01*
X6619936Y6882284D01*
X6626860Y6908124D01*
Y6934876D01*
X6619936Y6960716D01*
X6606560Y6983884D01*
X6587644Y7002800D01*
X6564476Y7016176D01*
X6538636Y7023100D01*
D02*
G37*
G36*
X8824636Y6769100D02*
X8797884D01*
X8772044Y6762176D01*
X8748876Y6748800D01*
X8729960Y6729884D01*
X8716584Y6706716D01*
X8709660Y6680876D01*
Y6654124D01*
X8716584Y6628284D01*
X8729960Y6605116D01*
X8748876Y6586200D01*
X8772044Y6572824D01*
X8797884Y6565900D01*
X8824636D01*
X8850476Y6572824D01*
X8873644Y6586200D01*
X8892560Y6605116D01*
X8905936Y6628284D01*
X8912860Y6654124D01*
Y6680876D01*
X8905936Y6706716D01*
X8892560Y6729884D01*
X8873644Y6748800D01*
X8850476Y6762176D01*
X8824636Y6769100D01*
D02*
G37*
G36*
X6213516Y6642100D02*
X6212840D01*
Y6553200D01*
X6301740D01*
Y6553876D01*
X6294816Y6579716D01*
X6281440Y6602884D01*
X6262524Y6621800D01*
X6239356Y6635176D01*
X6213516Y6642100D01*
D02*
G37*
G36*
X6187440D02*
X6186764D01*
X6160924Y6635176D01*
X6137756Y6621800D01*
X6118840Y6602884D01*
X6105464Y6579716D01*
X6098540Y6553876D01*
Y6553200D01*
X6187440D01*
Y6642100D01*
D02*
G37*
G36*
X6301740Y6527800D02*
X6212840D01*
Y6438900D01*
X6213516D01*
X6239356Y6445824D01*
X6262524Y6459200D01*
X6281440Y6478116D01*
X6294816Y6501284D01*
X6301740Y6527124D01*
Y6527800D01*
D02*
G37*
G36*
X6187440D02*
X6098540D01*
Y6527124D01*
X6105464Y6501284D01*
X6118840Y6478116D01*
X6137756Y6459200D01*
X6160924Y6445824D01*
X6186764Y6438900D01*
X6187440D01*
Y6527800D01*
D02*
G37*
G36*
X8824636Y6515100D02*
X8797884D01*
X8772044Y6508176D01*
X8748876Y6494800D01*
X8729960Y6475884D01*
X8723272Y6464300D01*
X8704635D01*
X8685964Y6456566D01*
X8681744Y6452347D01*
X8282940D01*
X8268074Y6449389D01*
X8255471Y6440969D01*
X8253043Y6438540D01*
X8244622Y6425938D01*
X8241665Y6411072D01*
X8244622Y6396206D01*
X8253043Y6383603D01*
X8265646Y6375182D01*
X8280512Y6372225D01*
X8292719Y6374653D01*
X8681744D01*
X8685964Y6370434D01*
X8704635Y6362700D01*
X8723272D01*
X8729960Y6351116D01*
X8748876Y6332200D01*
X8772044Y6318824D01*
X8797884Y6311900D01*
X8824636D01*
X8850476Y6318824D01*
X8873644Y6332200D01*
X8892560Y6351116D01*
X8905936Y6374284D01*
X8912860Y6400124D01*
Y6426876D01*
X8905936Y6452716D01*
X8892560Y6475884D01*
X8873644Y6494800D01*
X8850476Y6508176D01*
X8824636Y6515100D01*
D02*
G37*
G36*
X6213516Y6896100D02*
X6186764D01*
X6160924Y6889176D01*
X6137756Y6875800D01*
X6118840Y6856884D01*
X6105464Y6833716D01*
X6098540Y6807876D01*
Y6781124D01*
X6105464Y6755284D01*
X6105655Y6754952D01*
X5862791Y6512089D01*
X5854371Y6499486D01*
X5851413Y6484620D01*
Y4700782D01*
X5838713Y4695481D01*
X5821415Y4705468D01*
X5798158Y4711700D01*
X5774082D01*
X5750825Y4705468D01*
X5729975Y4693430D01*
X5712950Y4676405D01*
X5700912Y4655555D01*
X5694680Y4632298D01*
Y4608222D01*
X5700912Y4584965D01*
X5712950Y4564115D01*
X5729975Y4547090D01*
X5750825Y4535052D01*
X5774082Y4528820D01*
X5798158D01*
X5821415Y4535052D01*
X5838713Y4545039D01*
X5851413Y4539738D01*
Y4288371D01*
X5316655Y3753612D01*
X5310687D01*
X5292016Y3745878D01*
X5277726Y3731588D01*
X5269992Y3712917D01*
Y3692707D01*
X5277726Y3674036D01*
X5292016Y3659746D01*
X5310687Y3652012D01*
X5330897D01*
X5349568Y3659746D01*
X5363858Y3674036D01*
X5371592Y3692707D01*
Y3698675D01*
X5476460Y3803543D01*
X5488193Y3798683D01*
Y3728696D01*
X5483974Y3724476D01*
X5476240Y3705805D01*
Y3685595D01*
X5483974Y3666924D01*
X5498264Y3652634D01*
X5516935Y3644900D01*
X5537145D01*
X5555816Y3652634D01*
X5569543Y3666361D01*
X5570741Y3666978D01*
X5584357Y3668141D01*
X5594784Y3657714D01*
X5613455Y3649980D01*
X5633665D01*
X5652336Y3657714D01*
X5663071Y3668449D01*
X5675891Y3667325D01*
X5677652Y3666436D01*
X5679554Y3661844D01*
X5693844Y3647554D01*
X5712515Y3639820D01*
X5732725D01*
X5751396Y3647554D01*
X5765686Y3661844D01*
X5766078Y3662790D01*
X5779731Y3662565D01*
X5792554Y3649743D01*
X5811225Y3642009D01*
X5817893D01*
X5850091Y3609811D01*
X5862694Y3601391D01*
X5877560Y3598433D01*
X5949584D01*
X5964450Y3601391D01*
X5977053Y3609811D01*
X6376920Y4009679D01*
X6385341Y4022281D01*
X6388298Y4037147D01*
Y4444467D01*
X6385341Y4459332D01*
X6380500Y4466577D01*
Y4499303D01*
X6438429Y4557231D01*
X6439812Y4559303D01*
X6456163Y4560913D01*
X6462876Y4554200D01*
X6486044Y4540824D01*
X6511884Y4533900D01*
X6512560D01*
Y4635500D01*
X6525260D01*
Y4648200D01*
X6626860D01*
Y4648876D01*
X6619936Y4674716D01*
X6606560Y4697884D01*
X6587644Y4716800D01*
X6585125Y4718254D01*
X6584636Y4733202D01*
X6587374Y4735031D01*
X6667029Y4814686D01*
X6675449Y4827289D01*
X6678407Y4842154D01*
Y4920755D01*
X6796569Y5038917D01*
X6804989Y5051520D01*
X6807947Y5066386D01*
Y5883722D01*
X6804989Y5898588D01*
X6796569Y5911191D01*
X6751931Y5955829D01*
X6739328Y5964249D01*
X6724462Y5967207D01*
X6606951D01*
X6606560Y5967884D01*
X6587644Y5986800D01*
X6564476Y6000176D01*
X6538636Y6007100D01*
X6535992D01*
X6532165Y6019800D01*
X6539204Y6030334D01*
X6542161Y6045200D01*
Y6058845D01*
X6564476Y6064824D01*
X6587644Y6078200D01*
X6606560Y6097116D01*
X6619936Y6120284D01*
X6626860Y6146124D01*
Y6172876D01*
X6619936Y6198716D01*
X6606560Y6221884D01*
X6587644Y6240800D01*
X6564476Y6254176D01*
X6538636Y6261100D01*
X6511884D01*
X6486044Y6254176D01*
X6462876Y6240800D01*
X6461540Y6239464D01*
X6449807Y6244324D01*
Y6283109D01*
X6485712Y6319015D01*
X6486044Y6318824D01*
X6511884Y6311900D01*
X6538636D01*
X6564476Y6318824D01*
X6587644Y6332200D01*
X6606560Y6351116D01*
X6619936Y6374284D01*
X6626860Y6400124D01*
Y6426876D01*
X6619936Y6452716D01*
X6606560Y6475884D01*
X6587644Y6494800D01*
X6571198Y6504295D01*
X6568433Y6519490D01*
X6574674Y6525731D01*
X6583095Y6538334D01*
X6586052Y6553200D01*
Y6585281D01*
X6587644Y6586200D01*
X6606560Y6605116D01*
X6619936Y6628284D01*
X6626860Y6654124D01*
Y6680876D01*
X6619936Y6706716D01*
X6606560Y6729884D01*
X6587644Y6748800D01*
X6564476Y6762176D01*
X6538636Y6769100D01*
X6511884D01*
X6486044Y6762176D01*
X6462876Y6748800D01*
X6443960Y6729884D01*
X6430584Y6706716D01*
X6423660Y6680876D01*
Y6654124D01*
X6430584Y6628284D01*
X6443960Y6605116D01*
X6462876Y6586200D01*
X6475237Y6579063D01*
X6473027Y6565674D01*
X6463048Y6563689D01*
X6450446Y6555269D01*
X6332691Y6437514D01*
X6324271Y6424911D01*
X6321313Y6410046D01*
Y6061819D01*
X6312877Y6053382D01*
X6298712Y6057178D01*
X6294816Y6071716D01*
X6281440Y6094884D01*
X6262524Y6113800D01*
X6239356Y6127176D01*
X6213516Y6134100D01*
X6212840D01*
Y6032500D01*
Y5930900D01*
X6213516D01*
X6239356Y5937824D01*
X6257813Y5948480D01*
X6270513Y5942338D01*
Y5868662D01*
X6257813Y5862520D01*
X6239356Y5873176D01*
X6213516Y5880100D01*
X6186764D01*
X6160924Y5873176D01*
X6137756Y5859800D01*
X6118840Y5840884D01*
X6105464Y5817716D01*
X6098540Y5791876D01*
Y5765124D01*
X6105464Y5739284D01*
X6118840Y5716116D01*
X6137756Y5697200D01*
X6160924Y5683824D01*
X6186764Y5676900D01*
X6213516D01*
X6239356Y5683824D01*
X6257813Y5694480D01*
X6270513Y5688338D01*
Y5574860D01*
X6231091Y5535438D01*
X6230028Y5533846D01*
X6169583Y5473401D01*
X6161162Y5460799D01*
X6158205Y5445933D01*
Y4674252D01*
X6110984Y4627027D01*
X6106465Y4620263D01*
X6102564Y4614425D01*
X6102564Y4614424D01*
X6102564Y4614423D01*
X6101479Y4608971D01*
X6099607Y4599559D01*
Y4464723D01*
X5940840Y4305956D01*
X5929107Y4310816D01*
Y6468529D01*
X6160592Y6700015D01*
X6160924Y6699824D01*
X6186764Y6692900D01*
X6213516D01*
X6239356Y6699824D01*
X6262524Y6713200D01*
X6281440Y6732116D01*
X6294816Y6755284D01*
X6301740Y6781124D01*
Y6807876D01*
X6294816Y6833716D01*
X6281440Y6856884D01*
X6262524Y6875800D01*
X6239356Y6889176D01*
X6213516Y6896100D01*
D02*
G37*
G36*
X8824636Y6261100D02*
X8797884D01*
X8772044Y6254176D01*
X8748876Y6240800D01*
X8729960Y6221884D01*
X8721347Y6206967D01*
X8720716Y6206819D01*
X8705850Y6209777D01*
X8281705D01*
X8275320Y6211047D01*
X8271886D01*
X8257020Y6208089D01*
X8244417Y6199669D01*
X8235996Y6187066D01*
X8233039Y6172200D01*
X8235996Y6157334D01*
X8244417Y6144731D01*
X8257020Y6136311D01*
X8261012Y6135517D01*
X8261724Y6135041D01*
X8276590Y6132083D01*
X8705850D01*
X8713039Y6133514D01*
X8716584Y6120284D01*
X8729960Y6097116D01*
X8748876Y6078200D01*
X8772044Y6064824D01*
X8797884Y6057900D01*
X8824636D01*
X8850476Y6064824D01*
X8873644Y6078200D01*
X8892560Y6097116D01*
X8905936Y6120284D01*
X8912860Y6146124D01*
Y6172876D01*
X8905936Y6198716D01*
X8892560Y6221884D01*
X8873644Y6240800D01*
X8850476Y6254176D01*
X8824636Y6261100D01*
D02*
G37*
G36*
X6213516Y6388100D02*
X6186764D01*
X6160924Y6381176D01*
X6137756Y6367800D01*
X6118840Y6348884D01*
X6105464Y6325716D01*
X6098540Y6299876D01*
Y6273124D01*
X6105464Y6247284D01*
X6118840Y6224116D01*
X6137756Y6205200D01*
X6160924Y6191824D01*
X6186764Y6184900D01*
X6213516D01*
X6239356Y6191824D01*
X6262524Y6205200D01*
X6281440Y6224116D01*
X6294816Y6247284D01*
X6301740Y6273124D01*
Y6299876D01*
X6294816Y6325716D01*
X6281440Y6348884D01*
X6262524Y6367800D01*
X6239356Y6381176D01*
X6213516Y6388100D01*
D02*
G37*
G36*
X6187440Y6134100D02*
X6186764D01*
X6160924Y6127176D01*
X6137756Y6113800D01*
X6118840Y6094884D01*
X6105464Y6071716D01*
X6098540Y6045876D01*
Y6045200D01*
X6187440D01*
Y6134100D01*
D02*
G37*
G36*
X8824636Y6007100D02*
X8797884D01*
X8772044Y6000176D01*
X8748876Y5986800D01*
X8729960Y5967884D01*
X8721615Y5953430D01*
X8714685Y5956300D01*
X8694475D01*
X8675804Y5948566D01*
X8661514Y5934276D01*
X8653780Y5915605D01*
Y5909637D01*
X8541169Y5797027D01*
X8280019D01*
X8267812Y5799455D01*
X8252946Y5796498D01*
X8240343Y5788077D01*
X8231922Y5775474D01*
X8228965Y5760608D01*
X8231922Y5745742D01*
X8240343Y5733140D01*
X8242771Y5730711D01*
X8255374Y5722291D01*
X8270240Y5719333D01*
X8557260D01*
X8572126Y5722291D01*
X8584729Y5730711D01*
X8708717Y5854700D01*
X8714685D01*
X8721615Y5857570D01*
X8729960Y5843116D01*
X8748876Y5824200D01*
X8772044Y5810824D01*
X8797884Y5803900D01*
X8824636D01*
X8850476Y5810824D01*
X8873644Y5824200D01*
X8892560Y5843116D01*
X8905936Y5866284D01*
X8912860Y5892124D01*
Y5918876D01*
X8905936Y5944716D01*
X8892560Y5967884D01*
X8873644Y5986800D01*
X8850476Y6000176D01*
X8824636Y6007100D01*
D02*
G37*
G36*
X6187440Y6019800D02*
X6098540D01*
Y6019124D01*
X6105464Y5993284D01*
X6118840Y5970116D01*
X6137756Y5951200D01*
X6160924Y5937824D01*
X6186764Y5930900D01*
X6187440D01*
Y6019800D01*
D02*
G37*
G36*
X8824636Y5753100D02*
X8797884D01*
X8772044Y5746176D01*
X8748876Y5732800D01*
X8729960Y5713884D01*
X8718863Y5694665D01*
X8718116Y5694566D01*
X8699445Y5702300D01*
X8679235D01*
X8660564Y5694566D01*
X8656344Y5690347D01*
X8265160D01*
X8250294Y5687389D01*
X8237691Y5678969D01*
X8235263Y5676540D01*
X8226842Y5663938D01*
X8223885Y5649072D01*
X8226842Y5634206D01*
X8235263Y5621603D01*
X8247866Y5613182D01*
X8262732Y5610225D01*
X8274939Y5612653D01*
X8656344D01*
X8660564Y5608434D01*
X8679235Y5600700D01*
X8699445D01*
X8718116Y5608434D01*
X8718863Y5608335D01*
X8729960Y5589116D01*
X8748876Y5570200D01*
X8772044Y5556824D01*
X8797884Y5549900D01*
X8824636D01*
X8850476Y5556824D01*
X8873644Y5570200D01*
X8892560Y5589116D01*
X8905936Y5612284D01*
X8912860Y5638124D01*
Y5664876D01*
X8905936Y5690716D01*
X8892560Y5713884D01*
X8873644Y5732800D01*
X8850476Y5746176D01*
X8824636Y5753100D01*
D02*
G37*
G36*
X1209040Y5434525D02*
Y5397500D01*
X1246065D01*
X1239406Y5413576D01*
X1225116Y5427866D01*
X1209040Y5434525D01*
D02*
G37*
G36*
X1183640D02*
X1167564Y5427866D01*
X1153274Y5413576D01*
X1146615Y5397500D01*
X1183640D01*
Y5434525D01*
D02*
G37*
G36*
X1246065Y5372100D02*
X1209040D01*
Y5335075D01*
X1225116Y5341734D01*
X1239406Y5356024D01*
X1246065Y5372100D01*
D02*
G37*
G36*
X1183640D02*
X1146615D01*
X1153274Y5356024D01*
X1167564Y5341734D01*
X1183640Y5335075D01*
Y5372100D01*
D02*
G37*
G36*
X8824636Y5499100D02*
X8797884D01*
X8772044Y5492176D01*
X8748876Y5478800D01*
X8729960Y5459884D01*
X8716584Y5436716D01*
X8709660Y5410876D01*
Y5384124D01*
X8716584Y5358284D01*
X8729960Y5335116D01*
X8748876Y5316200D01*
X8772044Y5302824D01*
X8797884Y5295900D01*
X8824636D01*
X8850476Y5302824D01*
X8873644Y5316200D01*
X8892560Y5335116D01*
X8905936Y5358284D01*
X8912860Y5384124D01*
Y5410876D01*
X8905936Y5436716D01*
X8892560Y5459884D01*
X8873644Y5478800D01*
X8850476Y5492176D01*
X8824636Y5499100D01*
D02*
G37*
G36*
Y5245100D02*
X8797884D01*
X8772044Y5238176D01*
X8748876Y5224800D01*
X8729960Y5205884D01*
X8716584Y5182716D01*
X8709660Y5156876D01*
Y5130124D01*
X8716584Y5104284D01*
X8729960Y5081116D01*
X8748876Y5062200D01*
X8772044Y5048824D01*
X8797884Y5041900D01*
X8824636D01*
X8850476Y5048824D01*
X8873644Y5062200D01*
X8892560Y5081116D01*
X8905936Y5104284D01*
X8912860Y5130124D01*
Y5156876D01*
X8905936Y5182716D01*
X8892560Y5205884D01*
X8873644Y5224800D01*
X8850476Y5238176D01*
X8824636Y5245100D01*
D02*
G37*
G36*
X6807145Y7461250D02*
X6786935D01*
X6768264Y7453516D01*
X6753974Y7439226D01*
X6746240Y7420555D01*
Y7400345D01*
X6753974Y7381674D01*
X6758193Y7377454D01*
Y7051010D01*
X6761151Y7036144D01*
X6769571Y7023541D01*
X7327153Y6465959D01*
Y5523321D01*
X7330111Y5508456D01*
X7338531Y5495853D01*
X7351134Y5487432D01*
X7366000Y5484475D01*
X7380866Y5487432D01*
X7392945Y5495503D01*
X7395992Y5494892D01*
X7405645Y5491216D01*
Y4896348D01*
X7406640Y4891345D01*
Y4886243D01*
X7408592Y4881530D01*
X7409587Y4876527D01*
X7412422Y4872285D01*
X7414374Y4867572D01*
X7417981Y4863965D01*
X7420815Y4859723D01*
X7425057Y4856889D01*
X7428664Y4853282D01*
X7433377Y4851329D01*
X7437619Y4848495D01*
X7442622Y4847500D01*
X7447335Y4845548D01*
X7452437D01*
X7457440Y4844553D01*
X7462443Y4845548D01*
X7467545D01*
X7472258Y4847500D01*
X7477261Y4848495D01*
X7481503Y4851329D01*
X7486216Y4853282D01*
X7489823Y4856889D01*
X7494065Y4859723D01*
X7496899Y4863965D01*
X7500506Y4867572D01*
X7502458Y4872285D01*
X7505293Y4876527D01*
X7506288Y4881530D01*
X7508240Y4886243D01*
Y4891345D01*
X7509235Y4896348D01*
Y5763260D01*
X7505293Y5783081D01*
X7494065Y5799885D01*
X7477261Y5811113D01*
X7457440Y5815055D01*
X7437619Y5811113D01*
X7420815Y5799885D01*
X7417547Y5794993D01*
X7404847Y5798845D01*
Y6482050D01*
X7401889Y6496915D01*
X7393469Y6509518D01*
X7224360Y6678627D01*
X7227828Y6693120D01*
X7239836Y6698094D01*
X7254126Y6712384D01*
X7261860Y6731055D01*
Y6751265D01*
X7254126Y6769936D01*
X7249907Y6774156D01*
Y7073900D01*
X7246949Y7088766D01*
X7238529Y7101369D01*
X6944131Y7395766D01*
Y7413880D01*
X6936398Y7432551D01*
X6922107Y7446841D01*
X6903436Y7454575D01*
X6883227D01*
X6864555Y7446841D01*
X6854757Y7437043D01*
X6840218Y7438956D01*
X6840106Y7439226D01*
X6825816Y7453516D01*
X6807145Y7461250D01*
D02*
G37*
G36*
X7767320Y6198595D02*
X7762317Y6197600D01*
X7757215D01*
X7752502Y6195648D01*
X7747499Y6194653D01*
X7743257Y6191818D01*
X7738544Y6189866D01*
X7734937Y6186259D01*
X7730695Y6183425D01*
X7727861Y6179183D01*
X7724254Y6175576D01*
X7722302Y6170863D01*
X7719467Y6166621D01*
X7718472Y6161618D01*
X7716520Y6156905D01*
Y6151803D01*
X7715525Y6146800D01*
X7716520Y6141797D01*
Y6136695D01*
X7718472Y6131982D01*
X7719467Y6126979D01*
X7722302Y6122737D01*
X7724254Y6118024D01*
X7727861Y6114417D01*
X7730695Y6110175D01*
X7824745Y6016126D01*
Y4881880D01*
X7825740Y4876877D01*
Y4871775D01*
X7827692Y4867062D01*
X7828687Y4862059D01*
X7831522Y4857817D01*
X7833474Y4853104D01*
X7837081Y4849497D01*
X7839915Y4845255D01*
X7844157Y4842421D01*
X7847764Y4838814D01*
X7852477Y4836862D01*
X7856719Y4834027D01*
X7861722Y4833032D01*
X7866435Y4831080D01*
X7871537D01*
X7876540Y4830085D01*
X7881543Y4831080D01*
X7886645D01*
X7891358Y4833032D01*
X7896361Y4834027D01*
X7900603Y4836862D01*
X7905316Y4838814D01*
X7908923Y4842421D01*
X7913165Y4845255D01*
X7915999Y4849497D01*
X7919606Y4853104D01*
X7921558Y4857817D01*
X7924393Y4862059D01*
X7925388Y4867062D01*
X7927340Y4871775D01*
Y4876877D01*
X7928335Y4881880D01*
Y6037580D01*
X7924393Y6057401D01*
X7913165Y6074205D01*
X7803945Y6183425D01*
X7799703Y6186259D01*
X7796096Y6189866D01*
X7791383Y6191818D01*
X7787141Y6194653D01*
X7782138Y6195648D01*
X7777425Y6197600D01*
X7772323D01*
X7767320Y6198595D01*
D02*
G37*
G36*
X8824636Y4991100D02*
X8797884D01*
X8772044Y4984176D01*
X8748876Y4970800D01*
X8729960Y4951884D01*
X8716584Y4928716D01*
X8709660Y4902876D01*
Y4876124D01*
X8716584Y4850284D01*
X8729960Y4827116D01*
X8748876Y4808200D01*
X8772044Y4794824D01*
X8797884Y4787900D01*
X8824636D01*
X8850476Y4794824D01*
X8873644Y4808200D01*
X8892560Y4827116D01*
X8905936Y4850284D01*
X8912860Y4876124D01*
Y4902876D01*
X8905936Y4928716D01*
X8892560Y4951884D01*
X8873644Y4970800D01*
X8850476Y4984176D01*
X8824636Y4991100D01*
D02*
G37*
G36*
Y4737100D02*
X8823960D01*
Y4648200D01*
X8912860D01*
Y4648876D01*
X8905936Y4674716D01*
X8892560Y4697884D01*
X8873644Y4716800D01*
X8850476Y4730176D01*
X8824636Y4737100D01*
D02*
G37*
G36*
X8798560D02*
X8797884D01*
X8772044Y4730176D01*
X8748876Y4716800D01*
X8729960Y4697884D01*
X8716584Y4674716D01*
X8709660Y4648876D01*
Y4648200D01*
X8798560D01*
Y4737100D01*
D02*
G37*
G36*
X8912860Y4622800D02*
X8823960D01*
Y4533900D01*
X8824636D01*
X8850476Y4540824D01*
X8873644Y4554200D01*
X8892560Y4573116D01*
X8905936Y4596284D01*
X8912860Y4622124D01*
Y4622800D01*
D02*
G37*
G36*
X8798560D02*
X8709660D01*
Y4622124D01*
X8716584Y4596284D01*
X8729960Y4573116D01*
X8748876Y4554200D01*
X8772044Y4540824D01*
X8797884Y4533900D01*
X8798560D01*
Y4622800D01*
D02*
G37*
G36*
X6626860D02*
X6537960D01*
Y4533900D01*
X6538636D01*
X6564476Y4540824D01*
X6587644Y4554200D01*
X6606560Y4573116D01*
X6619936Y4596284D01*
X6626860Y4622124D01*
Y4622800D01*
D02*
G37*
G36*
X5544158Y4711700D02*
X5520082D01*
X5496825Y4705468D01*
X5475975Y4693430D01*
X5458950Y4676405D01*
X5446912Y4655555D01*
X5440680Y4632298D01*
Y4608222D01*
X5446912Y4584965D01*
X5458950Y4564115D01*
X5475975Y4547090D01*
X5496825Y4535052D01*
X5520082Y4528820D01*
X5544158D01*
X5567415Y4535052D01*
X5588265Y4547090D01*
X5605290Y4564115D01*
X5617328Y4584965D01*
X5623560Y4608222D01*
Y4632298D01*
X5617328Y4655555D01*
X5605290Y4676405D01*
X5588265Y4693430D01*
X5567415Y4705468D01*
X5544158Y4711700D01*
D02*
G37*
G36*
X5290158D02*
X5266082D01*
X5242825Y4705468D01*
X5221975Y4693430D01*
X5204950Y4676405D01*
X5192912Y4655555D01*
X5186680Y4632298D01*
Y4608222D01*
X5192912Y4584965D01*
X5204950Y4564115D01*
X5221975Y4547090D01*
X5242825Y4535052D01*
X5266082Y4528820D01*
X5290158D01*
X5313415Y4535052D01*
X5334265Y4547090D01*
X5351290Y4564115D01*
X5363328Y4584965D01*
X5369560Y4608222D01*
Y4632298D01*
X5363328Y4655555D01*
X5351290Y4676405D01*
X5334265Y4693430D01*
X5313415Y4705468D01*
X5290158Y4711700D01*
D02*
G37*
G36*
X4782158D02*
X4758082D01*
X4734825Y4705468D01*
X4713975Y4693430D01*
X4696950Y4676405D01*
X4684912Y4655555D01*
X4678680Y4632298D01*
Y4608222D01*
X4684912Y4584965D01*
X4696950Y4564115D01*
X4713975Y4547090D01*
X4734825Y4535052D01*
X4758082Y4528820D01*
X4782158D01*
X4805415Y4535052D01*
X4826265Y4547090D01*
X4843290Y4564115D01*
X4855328Y4584965D01*
X4861560Y4608222D01*
Y4632298D01*
X4855328Y4655555D01*
X4843290Y4676405D01*
X4826265Y4693430D01*
X4805415Y4705468D01*
X4782158Y4711700D01*
D02*
G37*
G36*
X4528158D02*
X4504082D01*
X4480825Y4705468D01*
X4459975Y4693430D01*
X4442950Y4676405D01*
X4430912Y4655555D01*
X4424680Y4632298D01*
Y4608222D01*
X4430912Y4584965D01*
X4442950Y4564115D01*
X4459975Y4547090D01*
X4480825Y4535052D01*
X4504082Y4528820D01*
X4528158D01*
X4551415Y4535052D01*
X4572265Y4547090D01*
X4589290Y4564115D01*
X4601328Y4584965D01*
X4607560Y4608222D01*
Y4632298D01*
X4601328Y4655555D01*
X4589290Y4676405D01*
X4572265Y4693430D01*
X4551415Y4705468D01*
X4528158Y4711700D01*
D02*
G37*
G36*
X1196340Y4555685D02*
Y4518660D01*
X1233365D01*
X1226706Y4534736D01*
X1212416Y4549026D01*
X1196340Y4555685D01*
D02*
G37*
G36*
X1170940D02*
X1154864Y4549026D01*
X1140574Y4534736D01*
X1133915Y4518660D01*
X1170940D01*
Y4555685D01*
D02*
G37*
G36*
X1233365Y4493260D02*
X1196340D01*
Y4456235D01*
X1212416Y4462894D01*
X1226706Y4477184D01*
X1233365Y4493260D01*
D02*
G37*
G36*
X1170940D02*
X1133915D01*
X1140574Y4477184D01*
X1154864Y4462894D01*
X1170940Y4456235D01*
Y4493260D01*
D02*
G37*
G36*
X3050485Y4874260D02*
X3030275D01*
X3011604Y4866526D01*
X2997314Y4852236D01*
X2989580Y4833565D01*
Y4827597D01*
X2556183Y4394200D01*
X2550215D01*
X2531544Y4386466D01*
X2517254Y4372176D01*
X2509520Y4353505D01*
Y4333295D01*
X2517254Y4314624D01*
X2531544Y4300334D01*
X2550215Y4292600D01*
X2570425D01*
X2589096Y4300334D01*
X2603386Y4314624D01*
X2611120Y4333295D01*
Y4339263D01*
X3044517Y4772660D01*
X3050485D01*
X3069156Y4780394D01*
X3083446Y4794684D01*
X3091180Y4813355D01*
Y4833565D01*
X3083446Y4852236D01*
X3069156Y4866526D01*
X3050485Y4874260D01*
D02*
G37*
G36*
X8824636Y4483100D02*
X8797884D01*
X8772044Y4476176D01*
X8748876Y4462800D01*
X8729960Y4443884D01*
X8716584Y4420716D01*
X8709660Y4394876D01*
Y4368124D01*
X8716584Y4342284D01*
X8729960Y4319116D01*
X8748876Y4300200D01*
X8772044Y4286824D01*
X8797884Y4279900D01*
X8824636D01*
X8850476Y4286824D01*
X8873644Y4300200D01*
X8892560Y4319116D01*
X8905936Y4342284D01*
X8912860Y4368124D01*
Y4394876D01*
X8905936Y4420716D01*
X8892560Y4443884D01*
X8873644Y4462800D01*
X8850476Y4476176D01*
X8824636Y4483100D01*
D02*
G37*
G36*
X6538636D02*
X6511884D01*
X6486044Y4476176D01*
X6462876Y4462800D01*
X6443960Y4443884D01*
X6430584Y4420716D01*
X6423660Y4394876D01*
Y4368124D01*
X6430584Y4342284D01*
X6443960Y4319116D01*
X6462876Y4300200D01*
X6486044Y4286824D01*
X6511884Y4279900D01*
X6538636D01*
X6564476Y4286824D01*
X6587644Y4300200D01*
X6606560Y4319116D01*
X6619936Y4342284D01*
X6626860Y4368124D01*
Y4394876D01*
X6619936Y4420716D01*
X6606560Y4443884D01*
X6587644Y4462800D01*
X6564476Y4476176D01*
X6538636Y4483100D01*
D02*
G37*
G36*
X7490460Y3758125D02*
Y3721100D01*
X7527485D01*
X7520826Y3737176D01*
X7506536Y3751466D01*
X7490460Y3758125D01*
D02*
G37*
G36*
X7465060D02*
X7448984Y3751466D01*
X7434694Y3737176D01*
X7428035Y3721100D01*
X7465060D01*
Y3758125D01*
D02*
G37*
G36*
X7527485Y3695700D02*
X7490460D01*
Y3658675D01*
X7506536Y3665334D01*
X7520826Y3679624D01*
X7527485Y3695700D01*
D02*
G37*
G36*
X7465060D02*
X7428035D01*
X7434694Y3679624D01*
X7448984Y3665334D01*
X7465060Y3658675D01*
Y3695700D01*
D02*
G37*
G36*
X2827669Y3690420D02*
X2827020D01*
Y3601720D01*
X2915720D01*
Y3602369D01*
X2908810Y3628159D01*
X2895460Y3651281D01*
X2876581Y3670160D01*
X2853459Y3683510D01*
X2827669Y3690420D01*
D02*
G37*
G36*
X2065669D02*
X2065020D01*
Y3601720D01*
X2153720D01*
Y3602369D01*
X2146810Y3628159D01*
X2133460Y3651281D01*
X2114581Y3670160D01*
X2091459Y3683510D01*
X2065669Y3690420D01*
D02*
G37*
G36*
X1811669D02*
X1811020D01*
Y3601720D01*
X1899720D01*
Y3602369D01*
X1892810Y3628159D01*
X1879460Y3651281D01*
X1860581Y3670160D01*
X1837459Y3683510D01*
X1811669Y3690420D01*
D02*
G37*
G36*
X1557669D02*
X1557020D01*
Y3601720D01*
X1645720D01*
Y3602369D01*
X1638810Y3628159D01*
X1625460Y3651281D01*
X1606581Y3670160D01*
X1583459Y3683510D01*
X1557669Y3690420D01*
D02*
G37*
G36*
X1303669D02*
X1303020D01*
Y3601720D01*
X1391720D01*
Y3602369D01*
X1384810Y3628159D01*
X1371460Y3651281D01*
X1352581Y3670160D01*
X1329459Y3683510D01*
X1303669Y3690420D01*
D02*
G37*
G36*
X1049669D02*
X1049020D01*
Y3601720D01*
X1137720D01*
Y3602369D01*
X1130810Y3628159D01*
X1117460Y3651281D01*
X1098581Y3670160D01*
X1075459Y3683510D01*
X1049669Y3690420D01*
D02*
G37*
G36*
X795669D02*
X795020D01*
Y3601720D01*
X883720D01*
Y3602369D01*
X876810Y3628159D01*
X863460Y3651281D01*
X844581Y3670160D01*
X821459Y3683510D01*
X795669Y3690420D01*
D02*
G37*
G36*
X2801620D02*
X2800971D01*
X2775181Y3683510D01*
X2752059Y3670160D01*
X2733180Y3651281D01*
X2719830Y3628159D01*
X2712920Y3602369D01*
Y3601720D01*
X2801620D01*
Y3690420D01*
D02*
G37*
G36*
X2039620D02*
X2038971D01*
X2013181Y3683510D01*
X1990059Y3670160D01*
X1971180Y3651281D01*
X1957830Y3628159D01*
X1950920Y3602369D01*
Y3601720D01*
X2039620D01*
Y3690420D01*
D02*
G37*
G36*
X1785620D02*
X1784971D01*
X1759181Y3683510D01*
X1736059Y3670160D01*
X1717180Y3651281D01*
X1703830Y3628159D01*
X1696920Y3602369D01*
Y3601720D01*
X1785620D01*
Y3690420D01*
D02*
G37*
G36*
X1531620D02*
X1530971D01*
X1505181Y3683510D01*
X1482059Y3670160D01*
X1463180Y3651281D01*
X1449830Y3628159D01*
X1442920Y3602369D01*
Y3601720D01*
X1531620D01*
Y3690420D01*
D02*
G37*
G36*
X1277620D02*
X1276971D01*
X1251181Y3683510D01*
X1228059Y3670160D01*
X1209180Y3651281D01*
X1195830Y3628159D01*
X1188920Y3602369D01*
Y3601720D01*
X1277620D01*
Y3690420D01*
D02*
G37*
G36*
X1023620D02*
X1022971D01*
X997181Y3683510D01*
X974059Y3670160D01*
X955180Y3651281D01*
X941830Y3628159D01*
X934920Y3602369D01*
Y3601720D01*
X1023620D01*
Y3690420D01*
D02*
G37*
G36*
X769620D02*
X768971D01*
X743181Y3683510D01*
X720059Y3670160D01*
X701180Y3651281D01*
X687830Y3628159D01*
X680920Y3602369D01*
Y3601720D01*
X769620D01*
Y3690420D01*
D02*
G37*
G36*
X2915720Y3576320D02*
X2827020D01*
Y3487620D01*
X2827669D01*
X2853459Y3494530D01*
X2876581Y3507880D01*
X2895460Y3526759D01*
X2908810Y3549881D01*
X2915720Y3575671D01*
Y3576320D01*
D02*
G37*
G36*
X2801620D02*
X2712920D01*
Y3575671D01*
X2719830Y3549881D01*
X2733180Y3526759D01*
X2752059Y3507880D01*
X2775181Y3494530D01*
X2800971Y3487620D01*
X2801620D01*
Y3576320D01*
D02*
G37*
G36*
X2573669Y3690420D02*
X2546971D01*
X2521181Y3683510D01*
X2498059Y3670160D01*
X2479180Y3651281D01*
X2465830Y3628159D01*
X2458920Y3602369D01*
Y3575671D01*
X2465830Y3549881D01*
X2479180Y3526759D01*
X2498059Y3507880D01*
X2521181Y3494530D01*
X2546971Y3487620D01*
X2573669D01*
X2599459Y3494530D01*
X2622581Y3507880D01*
X2641460Y3526759D01*
X2654810Y3549881D01*
X2661720Y3575671D01*
Y3602369D01*
X2654810Y3628159D01*
X2641460Y3651281D01*
X2622581Y3670160D01*
X2599459Y3683510D01*
X2573669Y3690420D01*
D02*
G37*
G36*
X2319669D02*
X2292971D01*
X2267181Y3683510D01*
X2244059Y3670160D01*
X2225180Y3651281D01*
X2211830Y3628159D01*
X2204920Y3602369D01*
Y3575671D01*
X2211830Y3549881D01*
X2225180Y3526759D01*
X2244059Y3507880D01*
X2267181Y3494530D01*
X2292971Y3487620D01*
X2319669D01*
X2345459Y3494530D01*
X2368581Y3507880D01*
X2387460Y3526759D01*
X2400810Y3549881D01*
X2407720Y3575671D01*
Y3602369D01*
X2400810Y3628159D01*
X2387460Y3651281D01*
X2368581Y3670160D01*
X2345459Y3683510D01*
X2319669Y3690420D01*
D02*
G37*
G36*
X2153720Y3576320D02*
X2065020D01*
Y3487620D01*
X2065669D01*
X2091459Y3494530D01*
X2114581Y3507880D01*
X2133460Y3526759D01*
X2146810Y3549881D01*
X2153720Y3575671D01*
Y3576320D01*
D02*
G37*
G36*
X2039620D02*
X1950920D01*
Y3575671D01*
X1957830Y3549881D01*
X1971180Y3526759D01*
X1990059Y3507880D01*
X2013181Y3494530D01*
X2038971Y3487620D01*
X2039620D01*
Y3576320D01*
D02*
G37*
G36*
X1899720D02*
X1811020D01*
Y3487620D01*
X1811669D01*
X1837459Y3494530D01*
X1860581Y3507880D01*
X1879460Y3526759D01*
X1892810Y3549881D01*
X1899720Y3575671D01*
Y3576320D01*
D02*
G37*
G36*
X1785620D02*
X1696920D01*
Y3575671D01*
X1703830Y3549881D01*
X1717180Y3526759D01*
X1736059Y3507880D01*
X1759181Y3494530D01*
X1784971Y3487620D01*
X1785620D01*
Y3576320D01*
D02*
G37*
G36*
X1645720D02*
X1557020D01*
Y3487620D01*
X1557669D01*
X1583459Y3494530D01*
X1606581Y3507880D01*
X1625460Y3526759D01*
X1638810Y3549881D01*
X1645720Y3575671D01*
Y3576320D01*
D02*
G37*
G36*
X1531620D02*
X1442920D01*
Y3575671D01*
X1449830Y3549881D01*
X1463180Y3526759D01*
X1482059Y3507880D01*
X1505181Y3494530D01*
X1530971Y3487620D01*
X1531620D01*
Y3576320D01*
D02*
G37*
G36*
X1391720D02*
X1303020D01*
Y3487620D01*
X1303669D01*
X1329459Y3494530D01*
X1352581Y3507880D01*
X1371460Y3526759D01*
X1384810Y3549881D01*
X1391720Y3575671D01*
Y3576320D01*
D02*
G37*
G36*
X1277620D02*
X1188920D01*
Y3575671D01*
X1195830Y3549881D01*
X1209180Y3526759D01*
X1228059Y3507880D01*
X1251181Y3494530D01*
X1276971Y3487620D01*
X1277620D01*
Y3576320D01*
D02*
G37*
G36*
X1137720D02*
X1049020D01*
Y3487620D01*
X1049669D01*
X1075459Y3494530D01*
X1098581Y3507880D01*
X1117460Y3526759D01*
X1130810Y3549881D01*
X1137720Y3575671D01*
Y3576320D01*
D02*
G37*
G36*
X1023620D02*
X934920D01*
Y3575671D01*
X941830Y3549881D01*
X955180Y3526759D01*
X974059Y3507880D01*
X997181Y3494530D01*
X1022971Y3487620D01*
X1023620D01*
Y3576320D01*
D02*
G37*
G36*
X883720D02*
X795020D01*
Y3487620D01*
X795669D01*
X821459Y3494530D01*
X844581Y3507880D01*
X863460Y3526759D01*
X876810Y3549881D01*
X883720Y3575671D01*
Y3576320D01*
D02*
G37*
G36*
X769620D02*
X680920D01*
Y3575671D01*
X687830Y3549881D01*
X701180Y3526759D01*
X720059Y3507880D01*
X743181Y3494530D01*
X768971Y3487620D01*
X769620D01*
Y3576320D01*
D02*
G37*
G36*
X541669Y3690420D02*
X514971D01*
X489181Y3683510D01*
X466059Y3670160D01*
X447180Y3651281D01*
X433830Y3628159D01*
X426920Y3602369D01*
Y3575671D01*
X433830Y3549881D01*
X447180Y3526759D01*
X466059Y3507880D01*
X489181Y3494530D01*
X514971Y3487620D01*
X541669D01*
X567459Y3494530D01*
X590581Y3507880D01*
X609460Y3526759D01*
X622810Y3549881D01*
X629720Y3575671D01*
Y3602369D01*
X622810Y3628159D01*
X609460Y3651281D01*
X590581Y3670160D01*
X567459Y3683510D01*
X541669Y3690420D01*
D02*
G37*
G36*
X2319669Y3436420D02*
X2319020D01*
Y3347720D01*
X2407720D01*
Y3348369D01*
X2400810Y3374159D01*
X2387460Y3397281D01*
X2368581Y3416160D01*
X2345459Y3429510D01*
X2319669Y3436420D01*
D02*
G37*
G36*
X2065669D02*
X2065020D01*
Y3347720D01*
X2153720D01*
Y3348369D01*
X2146810Y3374159D01*
X2133460Y3397281D01*
X2114581Y3416160D01*
X2091459Y3429510D01*
X2065669Y3436420D01*
D02*
G37*
G36*
X1811669D02*
X1811020D01*
Y3347720D01*
X1899720D01*
Y3348369D01*
X1892810Y3374159D01*
X1879460Y3397281D01*
X1860581Y3416160D01*
X1837459Y3429510D01*
X1811669Y3436420D01*
D02*
G37*
G36*
X1557669D02*
X1557020D01*
Y3347720D01*
X1645720D01*
Y3348369D01*
X1638810Y3374159D01*
X1625460Y3397281D01*
X1606581Y3416160D01*
X1583459Y3429510D01*
X1557669Y3436420D01*
D02*
G37*
G36*
X1303669D02*
X1303020D01*
Y3347720D01*
X1391720D01*
Y3348369D01*
X1384810Y3374159D01*
X1371460Y3397281D01*
X1352581Y3416160D01*
X1329459Y3429510D01*
X1303669Y3436420D01*
D02*
G37*
G36*
X1049669D02*
X1049020D01*
Y3347720D01*
X1137720D01*
Y3348369D01*
X1130810Y3374159D01*
X1117460Y3397281D01*
X1098581Y3416160D01*
X1075459Y3429510D01*
X1049669Y3436420D01*
D02*
G37*
G36*
X795669D02*
X795020D01*
Y3347720D01*
X883720D01*
Y3348369D01*
X876810Y3374159D01*
X863460Y3397281D01*
X844581Y3416160D01*
X821459Y3429510D01*
X795669Y3436420D01*
D02*
G37*
G36*
X2293620D02*
X2292971D01*
X2267181Y3429510D01*
X2244059Y3416160D01*
X2225180Y3397281D01*
X2211830Y3374159D01*
X2204920Y3348369D01*
Y3347720D01*
X2293620D01*
Y3436420D01*
D02*
G37*
G36*
X2039620D02*
X2038971D01*
X2013181Y3429510D01*
X1990059Y3416160D01*
X1971180Y3397281D01*
X1957830Y3374159D01*
X1950920Y3348369D01*
Y3347720D01*
X2039620D01*
Y3436420D01*
D02*
G37*
G36*
X1785620D02*
X1784971D01*
X1759181Y3429510D01*
X1736059Y3416160D01*
X1717180Y3397281D01*
X1703830Y3374159D01*
X1696920Y3348369D01*
Y3347720D01*
X1785620D01*
Y3436420D01*
D02*
G37*
G36*
X1531620D02*
X1530971D01*
X1505181Y3429510D01*
X1482059Y3416160D01*
X1463180Y3397281D01*
X1449830Y3374159D01*
X1442920Y3348369D01*
Y3347720D01*
X1531620D01*
Y3436420D01*
D02*
G37*
G36*
X1277620D02*
X1276971D01*
X1251181Y3429510D01*
X1228059Y3416160D01*
X1209180Y3397281D01*
X1195830Y3374159D01*
X1188920Y3348369D01*
Y3347720D01*
X1277620D01*
Y3436420D01*
D02*
G37*
G36*
X1023620D02*
X1022971D01*
X997181Y3429510D01*
X974059Y3416160D01*
X955180Y3397281D01*
X941830Y3374159D01*
X934920Y3348369D01*
Y3347720D01*
X1023620D01*
Y3436420D01*
D02*
G37*
G36*
X769620D02*
X768971D01*
X743181Y3429510D01*
X720059Y3416160D01*
X701180Y3397281D01*
X687830Y3374159D01*
X680920Y3348369D01*
Y3347720D01*
X769620D01*
Y3436420D01*
D02*
G37*
G36*
X8774768Y3465830D02*
X8768080D01*
Y3281680D01*
X8952230D01*
Y3288368D01*
X8944665Y3326399D01*
X8929826Y3362223D01*
X8908283Y3394465D01*
X8880865Y3421883D01*
X8848623Y3443426D01*
X8812799Y3458265D01*
X8774768Y3465830D01*
D02*
G37*
G36*
X8742680D02*
X8735992D01*
X8697961Y3458265D01*
X8662137Y3443426D01*
X8629895Y3421883D01*
X8602477Y3394465D01*
X8580934Y3362223D01*
X8566095Y3326399D01*
X8558530Y3288368D01*
Y3281680D01*
X8742680D01*
Y3465830D01*
D02*
G37*
G36*
X2827669Y3436420D02*
X2800971D01*
X2775181Y3429510D01*
X2752059Y3416160D01*
X2733180Y3397281D01*
X2719830Y3374159D01*
X2712920Y3348369D01*
Y3321671D01*
X2719830Y3295881D01*
X2733180Y3272759D01*
X2752059Y3253880D01*
X2775181Y3240530D01*
X2800971Y3233620D01*
X2827669D01*
X2853459Y3240530D01*
X2876581Y3253880D01*
X2895460Y3272759D01*
X2908810Y3295881D01*
X2915720Y3321671D01*
Y3348369D01*
X2908810Y3374159D01*
X2895460Y3397281D01*
X2876581Y3416160D01*
X2853459Y3429510D01*
X2827669Y3436420D01*
D02*
G37*
G36*
X2573669D02*
X2546971D01*
X2521181Y3429510D01*
X2498059Y3416160D01*
X2479180Y3397281D01*
X2465830Y3374159D01*
X2458920Y3348369D01*
Y3321671D01*
X2465830Y3295881D01*
X2479180Y3272759D01*
X2498059Y3253880D01*
X2521181Y3240530D01*
X2546971Y3233620D01*
X2573669D01*
X2599459Y3240530D01*
X2622581Y3253880D01*
X2641460Y3272759D01*
X2654810Y3295881D01*
X2661720Y3321671D01*
Y3348369D01*
X2654810Y3374159D01*
X2641460Y3397281D01*
X2622581Y3416160D01*
X2599459Y3429510D01*
X2573669Y3436420D01*
D02*
G37*
G36*
X2407720Y3322320D02*
X2319020D01*
Y3233620D01*
X2319669D01*
X2345459Y3240530D01*
X2368581Y3253880D01*
X2387460Y3272759D01*
X2400810Y3295881D01*
X2407720Y3321671D01*
Y3322320D01*
D02*
G37*
G36*
X2293620D02*
X2204920D01*
Y3321671D01*
X2211830Y3295881D01*
X2225180Y3272759D01*
X2244059Y3253880D01*
X2267181Y3240530D01*
X2292971Y3233620D01*
X2293620D01*
Y3322320D01*
D02*
G37*
G36*
X2153720D02*
X2065020D01*
Y3233620D01*
X2065669D01*
X2091459Y3240530D01*
X2114581Y3253880D01*
X2133460Y3272759D01*
X2146810Y3295881D01*
X2153720Y3321671D01*
Y3322320D01*
D02*
G37*
G36*
X2039620D02*
X1950920D01*
Y3321671D01*
X1957830Y3295881D01*
X1971180Y3272759D01*
X1990059Y3253880D01*
X2013181Y3240530D01*
X2038971Y3233620D01*
X2039620D01*
Y3322320D01*
D02*
G37*
G36*
X1899720D02*
X1811020D01*
Y3233620D01*
X1811669D01*
X1837459Y3240530D01*
X1860581Y3253880D01*
X1879460Y3272759D01*
X1892810Y3295881D01*
X1899720Y3321671D01*
Y3322320D01*
D02*
G37*
G36*
X1785620D02*
X1696920D01*
Y3321671D01*
X1703830Y3295881D01*
X1717180Y3272759D01*
X1736059Y3253880D01*
X1759181Y3240530D01*
X1784971Y3233620D01*
X1785620D01*
Y3322320D01*
D02*
G37*
G36*
X1645720D02*
X1557020D01*
Y3233620D01*
X1557669D01*
X1583459Y3240530D01*
X1606581Y3253880D01*
X1625460Y3272759D01*
X1638810Y3295881D01*
X1645720Y3321671D01*
Y3322320D01*
D02*
G37*
G36*
X1531620D02*
X1442920D01*
Y3321671D01*
X1449830Y3295881D01*
X1463180Y3272759D01*
X1482059Y3253880D01*
X1505181Y3240530D01*
X1530971Y3233620D01*
X1531620D01*
Y3322320D01*
D02*
G37*
G36*
X1391720D02*
X1303020D01*
Y3233620D01*
X1303669D01*
X1329459Y3240530D01*
X1352581Y3253880D01*
X1371460Y3272759D01*
X1384810Y3295881D01*
X1391720Y3321671D01*
Y3322320D01*
D02*
G37*
G36*
X1277620D02*
X1188920D01*
Y3321671D01*
X1195830Y3295881D01*
X1209180Y3272759D01*
X1228059Y3253880D01*
X1251181Y3240530D01*
X1276971Y3233620D01*
X1277620D01*
Y3322320D01*
D02*
G37*
G36*
X1137720D02*
X1049020D01*
Y3233620D01*
X1049669D01*
X1075459Y3240530D01*
X1098581Y3253880D01*
X1117460Y3272759D01*
X1130810Y3295881D01*
X1137720Y3321671D01*
Y3322320D01*
D02*
G37*
G36*
X1023620D02*
X934920D01*
Y3321671D01*
X941830Y3295881D01*
X955180Y3272759D01*
X974059Y3253880D01*
X997181Y3240530D01*
X1022971Y3233620D01*
X1023620D01*
Y3322320D01*
D02*
G37*
G36*
X883720D02*
X795020D01*
Y3233620D01*
X795669D01*
X821459Y3240530D01*
X844581Y3253880D01*
X863460Y3272759D01*
X876810Y3295881D01*
X883720Y3321671D01*
Y3322320D01*
D02*
G37*
G36*
X769620D02*
X680920D01*
Y3321671D01*
X687830Y3295881D01*
X701180Y3272759D01*
X720059Y3253880D01*
X743181Y3240530D01*
X768971Y3233620D01*
X769620D01*
Y3322320D01*
D02*
G37*
G36*
X629720Y3436420D02*
X426920D01*
Y3233620D01*
X629720D01*
Y3436420D01*
D02*
G37*
%LPD*%
G36*
X6150407Y4389055D02*
Y4282564D01*
X5619423Y3751580D01*
X5613455D01*
X5594784Y3743846D01*
X5581057Y3730119D01*
X5579859Y3729502D01*
X5578587Y3729393D01*
X5565887Y3741055D01*
Y3821128D01*
X6138674Y4393915D01*
X6150407Y4389055D01*
D02*
G37*
G36*
X6864555Y7360709D02*
X6872679Y7357344D01*
X7172213Y7057809D01*
Y6774156D01*
X7167994Y6769936D01*
X7163020Y6757928D01*
X7148527Y6754460D01*
X6835887Y7067100D01*
Y7367706D01*
X6838619Y7370052D01*
X6850265Y7374999D01*
X6864555Y7360709D01*
D02*
G37*
D12*
X1015594Y2910987D02*
X1130041Y2796540D01*
X1409146D01*
X1523594Y2910987D01*
X761594D02*
X1076701Y2595880D01*
X1970486D01*
X2285594Y2910987D01*
X10322560Y4912360D02*
X10438060D01*
X10322560Y5331460D02*
X10438060D01*
X10322560Y5191760D02*
X10438060D01*
X10322560Y5052060D02*
X10438060D01*
X3225394Y2910987D02*
X3339841Y2796540D01*
X3618946D01*
X3733394Y2910987D01*
X2971394D02*
X3286501Y2595880D01*
X4180286D01*
X4495394Y2910987D01*
X1544320Y7907020D02*
X1562320Y7925020D01*
Y8120600D01*
X1567180Y8125460D01*
X2560320Y4343400D02*
X3040380Y4823460D01*
X7631562Y7293478D02*
X7891892Y7033148D01*
X7912212D01*
X8262732Y5649072D02*
X8265160Y5651500D01*
X8689340D01*
X8267812Y5760608D02*
X8270240Y5758180D01*
X8557260D01*
X8704580Y5905500D01*
X7366000Y5523321D02*
Y6482050D01*
X6795770Y7409180D02*
X6797040Y7410450D01*
Y7051010D02*
Y7410450D01*
Y7051010D02*
X7366000Y6482050D01*
X6893331Y7391629D02*
Y7403775D01*
Y7391629D02*
X7211060Y7073900D01*
Y6741160D02*
Y7073900D01*
X8280512Y6411072D02*
X8282940Y6413500D01*
X8714740D01*
X8271886Y6172200D02*
X8275320D01*
X8276590Y6170930D01*
X8705850D01*
X3139440Y7759700D02*
X3216910Y7682230D01*
X6523990D01*
X6525260Y7683500D01*
X5820979Y3692459D02*
X5821680Y3693160D01*
X5877560Y3637280D01*
X5949584D01*
X6349451Y4037147D01*
Y4444467D01*
X6341654Y4452264D02*
X6349451Y4444467D01*
X6341654Y4452264D02*
Y4515394D01*
X6410960Y4584700D01*
Y4682846D01*
X6490614Y4762500D01*
X6559906D01*
X6639560Y4842154D01*
Y4936846D01*
X6769100Y5066386D01*
Y5883722D01*
X6724462Y5928360D02*
X6769100Y5883722D01*
X6548120Y5928360D02*
X6724462D01*
X6525260Y5905500D02*
X6548120Y5928360D01*
X5720080Y3693160D02*
X5720182Y3693058D01*
X5720080Y3693160D02*
X6240054Y4213134D01*
Y4557476D01*
X6309360Y4626783D01*
Y4848763D01*
X6360160Y4899563D01*
Y5465887D01*
X6410960Y5516687D01*
Y5698846D01*
X6416040Y5703926D01*
Y5853074D01*
X6410960Y5858154D02*
X6416040Y5853074D01*
X6410960Y5858154D02*
Y5952846D01*
X6503314Y6045200D01*
Y6137554D01*
X6525260Y6159500D01*
X5620649Y3697869D02*
X6189254Y4266474D01*
Y4578518D01*
X6258560Y4647824D01*
Y4885954D01*
X6309360Y4936754D01*
Y5486928D01*
X6360160Y5537728D01*
Y5719887D01*
X6365240Y5724967D01*
Y5832033D01*
X6360160Y5837113D02*
X6365240Y5832033D01*
X6360160Y5837113D02*
Y5973887D01*
X6410960Y6024687D01*
Y6299200D01*
X6525260Y6413500D01*
X5523662Y3692322D02*
X5527040Y3695700D01*
Y3837219D01*
X6138454Y4448632D01*
Y4599559D01*
X6197051Y4658162D01*
Y5445933D01*
X6258560Y5507441D01*
Y5507970D01*
X6309360Y5558770D01*
Y5740928D01*
X6314440Y5746008D01*
Y5810992D01*
X6309360Y5816072D02*
X6314440Y5810992D01*
X6309360Y5816072D02*
Y5994928D01*
X6360160Y6045728D01*
Y6410046D01*
X6477914Y6527800D01*
X6521806D01*
X6547206Y6553200D01*
Y6645554D01*
X6525260Y6667500D02*
X6547206Y6645554D01*
X5918200Y3700780D02*
X5920278Y3698702D01*
X5918200Y3700780D02*
X5923280D01*
X6290854Y4068354D01*
Y4536435D01*
X6360160Y4605741D01*
Y4703887D01*
X6410960Y4754687D01*
Y5444846D01*
X6503314Y5537200D01*
Y5629554D01*
X6525260Y5651500D01*
X7151370Y7745730D02*
X7152640Y7747000D01*
X7216140Y7683500D01*
X7640320D01*
X7150100Y7543800D02*
X7626726D01*
X7636886Y7553960D01*
X5320792Y3702812D02*
X5890260Y4272280D01*
Y6484620D01*
X6200140Y6794500D01*
X10322560Y7261860D02*
X10438060D01*
X10322560Y7680960D02*
X10438060D01*
X10322560Y7541260D02*
X10438060D01*
X10322560Y7401560D02*
X10438060D01*
D17*
X10767060Y4733360D02*
Y4544060D01*
X9357360Y4963160D02*
X9559849Y4760671D01*
X10546449D01*
X10763060Y4544060D01*
X10423460Y5829060D02*
X10602660D01*
X10188060Y6064460D02*
X10423460Y5829060D01*
X10838060Y6064460D02*
X10602660Y5829060D01*
X10588060Y4912360D02*
X10767060Y4733360D01*
X10588060Y5052060D02*
Y4912360D01*
Y5191760D02*
Y5052060D01*
Y5331460D02*
Y5191760D01*
X10602660Y5829060D02*
Y5346060D01*
X10588060Y5331460D01*
X6583456Y5270500D02*
X6703060Y5390104D01*
Y5725145D01*
X6692900Y5735305D02*
X6703060Y5725145D01*
X6692900Y5735305D02*
Y5852160D01*
X7457440Y4896348D02*
Y5763260D01*
X7767320Y6146800D02*
X7876540Y6037580D01*
Y4881880D02*
Y6037580D01*
X10767060Y7082860D02*
Y6893560D01*
X9357360Y7312660D02*
X9559849Y7110171D01*
X10546449D01*
X10763060Y6893560D01*
X10423460Y8178560D02*
X10602660D01*
X10188060Y8413960D02*
X10423460Y8178560D01*
X10838060Y8413960D02*
X10602660Y8178560D01*
X10588060Y7261860D02*
X10767060Y7082860D01*
X10588060Y7401560D02*
Y7261860D01*
Y7541260D02*
Y7401560D01*
Y7680960D02*
Y7541260D01*
X10602660Y8178560D02*
Y7695560D01*
X10588060Y7680960D01*
D32*
X761594Y2910987D02*
D03*
X1015594D02*
D03*
X1269594D02*
D03*
X1523594D02*
D03*
X1777594D02*
D03*
X2031594D02*
D03*
X2285594D02*
D03*
X2971394D02*
D03*
X3225394D02*
D03*
X3479394D02*
D03*
X3733394D02*
D03*
X3987394D02*
D03*
X4241394D02*
D03*
X4495394D02*
D03*
X6200140Y7556500D02*
D03*
Y7302500D02*
D03*
Y7048500D02*
D03*
Y6794500D02*
D03*
Y6540500D02*
D03*
Y6286500D02*
D03*
Y6032500D02*
D03*
Y5778500D02*
D03*
X6525260Y7937500D02*
D03*
Y7683500D02*
D03*
Y7429500D02*
D03*
Y7175500D02*
D03*
Y6921500D02*
D03*
Y6667500D02*
D03*
Y6413500D02*
D03*
Y6159500D02*
D03*
Y5905500D02*
D03*
Y5651500D02*
D03*
Y5397500D02*
D03*
Y5143500D02*
D03*
Y4889500D02*
D03*
Y4635500D02*
D03*
Y4381500D02*
D03*
X8811260D02*
D03*
Y4635500D02*
D03*
Y4889500D02*
D03*
Y5143500D02*
D03*
Y5397500D02*
D03*
Y5651500D02*
D03*
Y5905500D02*
D03*
Y6159500D02*
D03*
Y6413500D02*
D03*
Y6667500D02*
D03*
Y6921500D02*
D03*
Y7175500D02*
D03*
Y7429500D02*
D03*
Y7683500D02*
D03*
Y7937500D02*
D03*
D33*
X10763060Y4544060D02*
D03*
X10513060D02*
D03*
X10838060Y5614460D02*
D03*
X10188060D02*
D03*
Y6064460D02*
D03*
X10763060Y6893560D02*
D03*
X10513060D02*
D03*
X10838060Y7963960D02*
D03*
X10188060D02*
D03*
Y8413960D02*
D03*
D34*
X10263060Y4544060D02*
D03*
X10838060Y6064460D02*
D03*
X10263060Y6893560D02*
D03*
X10838060Y8413960D02*
D03*
D35*
X10322560Y4912360D02*
D03*
Y5052060D02*
D03*
Y5191760D02*
D03*
Y5331460D02*
D03*
X3639820Y3721100D02*
D03*
X3881120Y7889240D02*
D03*
X1567180Y8125460D02*
D03*
X2560320Y4343400D02*
D03*
X1196340Y5384800D02*
D03*
X1183640Y4505960D02*
D03*
X5320792Y3702812D02*
D03*
X5527040Y3695700D02*
D03*
X5623560Y3700780D02*
D03*
X5722620Y3690620D02*
D03*
X5821329Y3692809D02*
D03*
X5920740Y3700780D02*
D03*
X3040380Y4823460D02*
D03*
X6583456Y5270500D02*
D03*
X6692900Y5852160D02*
D03*
X7477760Y3708400D02*
D03*
X8689340Y5651500D02*
D03*
X8704580Y5905500D02*
D03*
X6797040Y7410450D02*
D03*
X6893331Y7403775D02*
D03*
X7211060Y6741160D02*
D03*
X8714740Y6413500D02*
D03*
X7457440Y4896348D02*
D03*
X7767320Y6146800D02*
D03*
X7876540Y4881880D02*
D03*
X3139440Y7759700D02*
D03*
X7640320Y7683500D02*
D03*
X7150100Y7543800D02*
D03*
X10322560Y7261860D02*
D03*
Y7401560D02*
D03*
Y7541260D02*
D03*
Y7680960D02*
D03*
D36*
X9357360Y4963160D02*
D03*
Y7312660D02*
D03*
D37*
X614680Y8262620D02*
D03*
X8684260Y8305800D02*
D03*
X8755380Y3268980D02*
D03*
D38*
X528320Y3335020D02*
D03*
D39*
X782320D02*
D03*
X1036320D02*
D03*
X1290320D02*
D03*
X1544320D02*
D03*
X1798320D02*
D03*
X2052320D02*
D03*
X2306320D02*
D03*
X2560320D02*
D03*
X2814320D02*
D03*
X528320Y7907020D02*
D03*
Y3589020D02*
D03*
Y7653020D02*
D03*
X782320Y7907020D02*
D03*
Y3589020D02*
D03*
Y7653020D02*
D03*
X1036320Y7907020D02*
D03*
Y3589020D02*
D03*
Y7653020D02*
D03*
X1290320Y7907020D02*
D03*
Y3589020D02*
D03*
Y7653020D02*
D03*
X1544320Y7907020D02*
D03*
Y3589020D02*
D03*
Y7653020D02*
D03*
X1798320Y7907020D02*
D03*
Y3589020D02*
D03*
Y7653020D02*
D03*
X2052320Y7907020D02*
D03*
Y3589020D02*
D03*
Y7653020D02*
D03*
X2306320Y7907020D02*
D03*
Y3589020D02*
D03*
Y7653020D02*
D03*
X2560320Y7907020D02*
D03*
Y3589020D02*
D03*
Y7653020D02*
D03*
X2814320Y7907020D02*
D03*
Y3589020D02*
D03*
Y7653020D02*
D03*
D40*
X5532120Y4620260D02*
D03*
X5786120D02*
D03*
X5278120D02*
D03*
X4770120D02*
D03*
X4516120D02*
D03*
D41*
X10588060Y5331460D02*
D03*
X10438060D02*
D03*
X10588060Y4912360D02*
D03*
X10438060D02*
D03*
X10588060Y5052060D02*
D03*
X10438060D02*
D03*
X10588060Y5191760D02*
D03*
X10438060D02*
D03*
X10588060Y7680960D02*
D03*
X10438060D02*
D03*
X10588060Y7261860D02*
D03*
X10438060D02*
D03*
X10588060Y7401560D02*
D03*
X10438060D02*
D03*
X10588060Y7541260D02*
D03*
X10438060D02*
D03*
%TF.MD5,cda0eefc346ee0da159092d0c4622db5*%
M02*
