G04*
G04 #@! TF.GenerationSoftware,Altium Limited,Altium Designer,24.2.2 (26)*
G04*
G04 Layer_Color=8388736*
%FSLAX42Y42*%
%MOMM*%
G71*
G04*
G04 #@! TF.SameCoordinates,ABDA7C27-4DF7-4F6F-95E8-AD7B6B15C795*
G04*
G04*
G04 #@! TF.FilePolarity,Negative*
G04*
G01*
G75*
%ADD10R,1.20X1.80*%
%ADD11R,0.60X1.55*%
%ADD16R,1.80X1.20*%
%ADD17R,1.55X0.60*%
%ADD19R,0.50X0.61*%
G04:AMPARAMS|DCode=20|XSize=1.96mm|YSize=0.42mm|CornerRadius=0.21mm|HoleSize=0mm|Usage=FLASHONLY|Rotation=0.000|XOffset=0mm|YOffset=0mm|HoleType=Round|Shape=RoundedRectangle|*
%AMROUNDEDRECTD20*
21,1,1.96,0.00,0,0,0.0*
21,1,1.53,0.42,0,0,0.0*
1,1,0.42,0.77,0.00*
1,1,0.42,-0.77,0.00*
1,1,0.42,-0.77,0.00*
1,1,0.42,0.77,0.00*
%
%ADD20ROUNDEDRECTD20*%
%ADD21R,1.96X0.42*%
G04:AMPARAMS|DCode=22|XSize=1.46mm|YSize=0.57mm|CornerRadius=0.28mm|HoleSize=0mm|Usage=FLASHONLY|Rotation=180.000|XOffset=0mm|YOffset=0mm|HoleType=Round|Shape=RoundedRectangle|*
%AMROUNDEDRECTD22*
21,1,1.46,0.00,0,0,180.0*
21,1,0.89,0.57,0,0,180.0*
1,1,0.57,-0.44,0.00*
1,1,0.57,0.44,0.00*
1,1,0.57,0.44,0.00*
1,1,0.57,-0.44,0.00*
%
%ADD22ROUNDEDRECTD22*%
%ADD23R,1.46X0.57*%
%ADD25R,0.57X0.62*%
%ADD26R,0.67X0.72*%
%ADD27R,0.50X0.40*%
%ADD29R,2.31X0.56*%
%ADD30R,1.46X1.26*%
%ADD31C,0.15*%
%ADD32C,0.20*%
%ADD41C,1.32*%
%ADD48R,1.40X2.00*%
%ADD49R,0.80X1.75*%
%ADD50R,1.10X0.90*%
%ADD51R,0.75X0.80*%
%ADD52R,0.90X1.10*%
%ADD53R,0.80X0.75*%
%ADD54R,2.00X1.60*%
%ADD55C,1.73*%
%ADD56C,1.70*%
%ADD57R,1.70X1.70*%
%ADD58C,0.71*%
%ADD59C,0.97*%
%ADD60C,3.63*%
%ADD61R,1.72X1.72*%
%ADD62C,1.72*%
D10*
X9642Y4596D02*
D03*
X10602D02*
D03*
X9642Y6806D02*
D03*
X10602D02*
D03*
X8155Y3193D02*
D03*
X7795D02*
D03*
X7543Y3193D02*
D03*
X7183D02*
D03*
D11*
X10472Y4344D02*
D03*
X10372D02*
D03*
X10272D02*
D03*
X10172D02*
D03*
X10072D02*
D03*
X9972D02*
D03*
X9872D02*
D03*
X9772D02*
D03*
X10472Y6554D02*
D03*
X10372D02*
D03*
X10272D02*
D03*
X10172D02*
D03*
X10072D02*
D03*
X9972D02*
D03*
X9872D02*
D03*
X9772D02*
D03*
X8025Y3580D02*
D03*
X7925D02*
D03*
X7413Y3580D02*
D03*
X7313D02*
D03*
D16*
X389Y5357D02*
D03*
Y5717D02*
D03*
Y4486D02*
D03*
Y4846D02*
D03*
D17*
X776Y5487D02*
D03*
Y5587D02*
D03*
Y4616D02*
D03*
Y4716D02*
D03*
D19*
X8077Y6866D02*
D03*
Y6977D02*
D03*
Y8104D02*
D03*
Y7993D02*
D03*
X7523Y8104D02*
D03*
Y7993D02*
D03*
Y6866D02*
D03*
Y6977D02*
D03*
D20*
X8088Y7752D02*
D03*
Y7687D02*
D03*
Y7622D02*
D03*
Y7557D02*
D03*
Y7492D02*
D03*
Y7427D02*
D03*
Y7362D02*
D03*
Y7297D02*
D03*
Y7232D02*
D03*
Y7167D02*
D03*
X7513D02*
D03*
Y7232D02*
D03*
Y7297D02*
D03*
Y7362D02*
D03*
Y7427D02*
D03*
Y7492D02*
D03*
Y7557D02*
D03*
Y7622D02*
D03*
Y7687D02*
D03*
D21*
Y7752D02*
D03*
D22*
X7688Y7992D02*
D03*
Y8182D02*
D03*
X7913D02*
D03*
Y8087D02*
D03*
Y6978D02*
D03*
Y6788D02*
D03*
X7688D02*
D03*
Y6883D02*
D03*
D23*
X7913Y7992D02*
D03*
X7688Y6978D02*
D03*
D25*
X6797Y7317D02*
D03*
Y7231D02*
D03*
X6934D02*
D03*
Y7317D02*
D03*
D26*
X8466Y7605D02*
D03*
Y7701D02*
D03*
X7292Y7186D02*
D03*
Y7282D02*
D03*
X8318Y7797D02*
D03*
Y7701D02*
D03*
X7292Y7739D02*
D03*
Y7643D02*
D03*
X7000Y5887D02*
D03*
Y5792D02*
D03*
Y6126D02*
D03*
Y6030D02*
D03*
X8339Y6006D02*
D03*
Y5911D02*
D03*
D27*
X7300Y7563D02*
D03*
Y7483D02*
D03*
X7153Y7608D02*
D03*
Y7688D02*
D03*
D29*
X8123Y5514D02*
D03*
X7219D02*
D03*
Y5641D02*
D03*
Y5768D02*
D03*
Y5895D02*
D03*
Y6022D02*
D03*
Y6149D02*
D03*
Y6276D02*
D03*
Y6403D02*
D03*
X8123D02*
D03*
Y6276D02*
D03*
Y6149D02*
D03*
Y6022D02*
D03*
Y5895D02*
D03*
Y5768D02*
D03*
Y5641D02*
D03*
D30*
X7927Y3832D02*
D03*
Y4027D02*
D03*
X7308Y3851D02*
D03*
Y4046D02*
D03*
D31*
X256Y2990D02*
X2415D01*
X256Y1047D02*
Y2990D01*
Y1047D02*
X2415D01*
Y2990D01*
X2466D02*
X4625D01*
X2466Y1047D02*
Y2990D01*
Y1047D02*
X4625D01*
Y2990D01*
D32*
X10622Y4376D02*
Y4666D01*
X9622D02*
X10622D01*
X9622Y4376D02*
Y4666D01*
Y4376D02*
X10622D01*
Y6586D02*
Y6876D01*
X9622D02*
X10622D01*
X9622Y6586D02*
Y6876D01*
Y6586D02*
X10622D01*
X319Y5737D02*
X744D01*
X319Y5337D02*
Y5737D01*
Y5337D02*
X744D01*
Y5737D01*
X319Y4866D02*
X744D01*
X319Y4466D02*
Y4866D01*
Y4466D02*
X744D01*
Y4866D01*
X7775Y3123D02*
Y3548D01*
Y3123D02*
X8175D01*
Y3548D01*
X7775D02*
X8175D01*
X7163Y3123D02*
Y3548D01*
Y3123D02*
X7563D01*
Y3548D01*
X7163D02*
X7563D01*
X7580Y7135D02*
Y7785D01*
Y7135D02*
X8020D01*
Y7785D01*
X7580D02*
X8020D01*
X7880Y7942D02*
Y8232D01*
X7720D02*
X7880D01*
X7720Y7942D02*
Y8232D01*
Y7942D02*
X7880D01*
X6772Y7224D02*
X6822D01*
Y7324D01*
X6772D02*
X6822D01*
X6772Y7224D02*
Y7324D01*
X6909D02*
X6959D01*
X6909Y7224D02*
Y7324D01*
Y7224D02*
X6959D01*
Y7324D01*
X8441Y7703D02*
X8491D01*
X8441Y7603D02*
Y7703D01*
Y7603D02*
X8491D01*
Y7703D01*
X7272Y7470D02*
X7327D01*
Y7575D01*
X7272D02*
X7327D01*
X7272Y7470D02*
Y7575D01*
X7267Y7284D02*
X7317D01*
X7267Y7184D02*
Y7284D01*
Y7184D02*
X7317D01*
Y7284D01*
X7125Y7701D02*
X7180D01*
X7125Y7596D02*
Y7701D01*
Y7596D02*
X7180D01*
Y7701D01*
X8294Y7699D02*
X8343D01*
Y7799D01*
X8294D02*
X8343D01*
X8294Y7699D02*
Y7799D01*
X7267Y7641D02*
X7317D01*
Y7741D01*
X7267D02*
X7317D01*
X7267Y7641D02*
Y7741D01*
X7720Y6738D02*
Y7028D01*
Y6738D02*
X7880D01*
Y7028D01*
X7720D02*
X7880D01*
X6975Y5789D02*
X7025D01*
Y5889D01*
X6975D02*
X7025D01*
X6975Y5789D02*
Y5889D01*
Y6028D02*
X7025D01*
Y6128D01*
X6975D02*
X7025D01*
X6975Y6028D02*
Y6128D01*
X8314Y5908D02*
X8364D01*
Y6008D01*
X8314D02*
X8364D01*
X8314Y5908D02*
Y6008D01*
X7865Y4029D02*
X7990D01*
X7865Y3829D02*
Y4029D01*
Y3829D02*
X7990D01*
Y4029D01*
X7245Y4048D02*
X7370D01*
X7245Y3848D02*
Y4048D01*
Y3848D02*
X7370D01*
Y4048D01*
D41*
X5535Y4623D02*
D03*
X5789D02*
D03*
X5281D02*
D03*
X4773D02*
D03*
X4519D02*
D03*
D48*
X1063Y1305D02*
D03*
X1523D02*
D03*
X3273D02*
D03*
X3733D02*
D03*
X6053Y3174D02*
D03*
X5093D02*
D03*
X3987Y8400D02*
D03*
X3527D02*
D03*
X3522Y3187D02*
D03*
X3982D02*
D03*
D49*
X1393Y1693D02*
D03*
X1293D02*
D03*
X1193D02*
D03*
X3603D02*
D03*
X3503D02*
D03*
X3403D02*
D03*
X5923Y3561D02*
D03*
X5823D02*
D03*
X5223D02*
D03*
X5323D02*
D03*
X5423D02*
D03*
X5523D02*
D03*
X5623D02*
D03*
X5723D02*
D03*
X3657Y8013D02*
D03*
X3757D02*
D03*
X3857D02*
D03*
X3852Y3575D02*
D03*
X3752D02*
D03*
X3652D02*
D03*
D50*
X9969Y4786D02*
D03*
Y4916D02*
D03*
X9830Y4786D02*
D03*
Y4916D02*
D03*
X10096Y4786D02*
D03*
Y4916D02*
D03*
X10236Y4785D02*
D03*
Y4915D02*
D03*
X9969Y6996D02*
D03*
Y7126D02*
D03*
X9830Y6996D02*
D03*
Y7126D02*
D03*
X10096Y6996D02*
D03*
Y7126D02*
D03*
X10236Y6995D02*
D03*
Y7125D02*
D03*
D51*
X9423Y4893D02*
D03*
Y4978D02*
D03*
Y7103D02*
D03*
Y7188D02*
D03*
X5875Y7086D02*
D03*
Y7001D02*
D03*
X8181Y8079D02*
D03*
Y7994D02*
D03*
X7419Y6892D02*
D03*
Y6977D02*
D03*
X5875Y6888D02*
D03*
Y6803D02*
D03*
D52*
X1059Y5489D02*
D03*
X1189D02*
D03*
X1059Y4608D02*
D03*
X1189D02*
D03*
X8549Y7455D02*
D03*
X8419D02*
D03*
X8549Y7328D02*
D03*
X8419D02*
D03*
X8549Y7201D02*
D03*
X8419D02*
D03*
D53*
X6885Y7498D02*
D03*
X6800D02*
D03*
X7022Y7406D02*
D03*
X6937D02*
D03*
D54*
X7104Y7251D02*
D03*
Y6991D02*
D03*
X8509Y5875D02*
D03*
Y6135D02*
D03*
X6820Y6063D02*
D03*
Y6323D02*
D03*
Y5595D02*
D03*
Y5855D02*
D03*
D55*
X764Y2863D02*
D03*
X1018D02*
D03*
X1272D02*
D03*
X1526D02*
D03*
X1780D02*
D03*
X2034D02*
D03*
X2288D02*
D03*
X2974D02*
D03*
X3228D02*
D03*
X3482D02*
D03*
X3736D02*
D03*
X3990D02*
D03*
X4244D02*
D03*
X4498D02*
D03*
X8814Y7940D02*
D03*
Y7686D02*
D03*
Y7432D02*
D03*
Y7178D02*
D03*
Y6924D02*
D03*
Y6670D02*
D03*
Y6416D02*
D03*
Y6162D02*
D03*
Y5908D02*
D03*
Y5654D02*
D03*
Y5400D02*
D03*
Y5146D02*
D03*
Y4892D02*
D03*
Y4638D02*
D03*
Y4384D02*
D03*
X6528D02*
D03*
Y4638D02*
D03*
Y4892D02*
D03*
Y5146D02*
D03*
Y5400D02*
D03*
Y5654D02*
D03*
Y5908D02*
D03*
Y6162D02*
D03*
Y6416D02*
D03*
Y6670D02*
D03*
Y6924D02*
D03*
Y7178D02*
D03*
Y7432D02*
D03*
Y7686D02*
D03*
Y7940D02*
D03*
X6203Y7559D02*
D03*
Y7305D02*
D03*
Y7051D02*
D03*
Y6797D02*
D03*
Y6543D02*
D03*
Y6289D02*
D03*
Y6035D02*
D03*
Y5781D02*
D03*
D56*
X10693Y5927D02*
D03*
Y5677D02*
D03*
X9623Y6002D02*
D03*
Y5352D02*
D03*
X9173D02*
D03*
X10693Y8137D02*
D03*
Y7887D02*
D03*
X9623Y8212D02*
D03*
Y7562D02*
D03*
X9173D02*
D03*
D57*
X10693Y5427D02*
D03*
X9173Y6002D02*
D03*
X10693Y7637D02*
D03*
X9173Y8212D02*
D03*
D58*
X9969Y5441D02*
D03*
X10135Y5443D02*
D03*
X9827Y5489D02*
D03*
X10325Y5428D02*
D03*
X9969Y7650D02*
D03*
X10135Y7653D02*
D03*
X9827Y7699D02*
D03*
X10325Y7638D02*
D03*
X7140Y7537D02*
D03*
X7661Y7686D02*
D03*
X3881Y7884D02*
D03*
X8108Y3703D02*
D03*
X8326Y6175D02*
D03*
X8334Y5639D02*
D03*
X8695Y6234D02*
D03*
X8687Y6414D02*
D03*
X8684Y5654D02*
D03*
X8687Y5913D02*
D03*
X6678Y5850D02*
D03*
X6856Y7407D02*
D03*
X6780Y7415D02*
D03*
X8296Y6414D02*
D03*
X8291Y5763D02*
D03*
X5418Y3411D02*
D03*
X3642Y3724D02*
D03*
X1570Y8128D02*
D03*
X2563Y4346D02*
D03*
X1199Y5387D02*
D03*
X1186Y4508D02*
D03*
X5323Y3705D02*
D03*
X5530Y3698D02*
D03*
X5626Y3703D02*
D03*
X5725Y3693D02*
D03*
X5824Y3695D02*
D03*
X5923Y3703D02*
D03*
X3043Y4826D02*
D03*
X6586Y5273D02*
D03*
X7480Y3711D02*
D03*
X7214Y6744D02*
D03*
X7460Y4899D02*
D03*
X7770Y6149D02*
D03*
X7879Y4884D02*
D03*
X3142Y7762D02*
D03*
D59*
X10279Y4539D02*
D03*
Y6749D02*
D03*
X8240Y7104D02*
D03*
X8499Y6314D02*
D03*
X7412Y8120D02*
D03*
X7785Y7615D02*
D03*
X8479Y7818D02*
D03*
X8504Y7991D02*
D03*
D60*
X617Y8265D02*
D03*
X8687Y8308D02*
D03*
X8758Y3272D02*
D03*
D61*
X531Y3338D02*
D03*
D62*
X785D02*
D03*
X1039D02*
D03*
X1293D02*
D03*
X1547D02*
D03*
X1801D02*
D03*
X2055D02*
D03*
X2309D02*
D03*
X2563D02*
D03*
X2817D02*
D03*
X531Y7910D02*
D03*
Y3592D02*
D03*
Y7656D02*
D03*
X785Y7910D02*
D03*
Y3592D02*
D03*
Y7656D02*
D03*
X1039Y7910D02*
D03*
Y3592D02*
D03*
Y7656D02*
D03*
X1293Y7910D02*
D03*
Y3592D02*
D03*
Y7656D02*
D03*
X1547Y7910D02*
D03*
Y3592D02*
D03*
Y7656D02*
D03*
X1801Y7910D02*
D03*
Y3592D02*
D03*
Y7656D02*
D03*
X2055Y7910D02*
D03*
Y3592D02*
D03*
Y7656D02*
D03*
X2309Y7910D02*
D03*
Y3592D02*
D03*
Y7656D02*
D03*
X2563Y7910D02*
D03*
Y3592D02*
D03*
Y7656D02*
D03*
X2817Y7910D02*
D03*
Y3592D02*
D03*
Y7656D02*
D03*
M02*
