G04*
G04 #@! TF.GenerationSoftware,Altium Limited,Altium Designer,24.2.2 (26)*
G04*
G04 Layer_Color=32896*
%FSLAX42Y42*%
%MOMM*%
G71*
G04*
G04 #@! TF.SameCoordinates,ABDA7C27-4DF7-4F6F-95E8-AD7B6B15C795*
G04*
G04*
G04 #@! TF.FilePolarity,Positive*
G04*
G01*
G75*
%ADD12C,0.25*%
%ADD31C,0.15*%
%ADD32C,0.20*%
%ADD44C,0.25*%
%ADD64C,0.40*%
G36*
X10341Y8187D02*
X10337D01*
Y8203D01*
X10309D01*
Y8207D01*
X10341D01*
Y8187D01*
D02*
G37*
G36*
X9922Y8187D02*
X9918D01*
Y8203D01*
X9890D01*
Y8207D01*
X9922D01*
Y8187D01*
D02*
G37*
G36*
X10202Y8187D02*
X10198D01*
Y8203D01*
X10169D01*
Y8207D01*
X10202D01*
Y8187D01*
D02*
G37*
G36*
X10062Y8184D02*
X10058D01*
Y8200D01*
X10030D01*
Y8204D01*
X10062D01*
Y8184D01*
D02*
G37*
G36*
X10341Y8158D02*
X10337D01*
Y8178D01*
X10326D01*
Y8160D01*
X10322D01*
Y8178D01*
X10313D01*
Y8158D01*
X10309D01*
Y8182D01*
X10341D01*
Y8158D01*
D02*
G37*
G36*
X9922Y8158D02*
X9918D01*
Y8177D01*
X9907D01*
Y8160D01*
X9903D01*
Y8177D01*
X9893D01*
Y8158D01*
X9890D01*
Y8182D01*
X9922D01*
Y8158D01*
D02*
G37*
G36*
X10202Y8158D02*
X10198D01*
Y8177D01*
X10187D01*
Y8159D01*
X10183D01*
Y8177D01*
X10173D01*
Y8158D01*
X10169D01*
Y8182D01*
X10202D01*
Y8158D01*
D02*
G37*
G36*
X10062Y8155D02*
X10058D01*
Y8174D01*
X10047D01*
Y8157D01*
X10043D01*
Y8174D01*
X10033D01*
Y8155D01*
X10030D01*
Y8179D01*
X10062D01*
Y8155D01*
D02*
G37*
G36*
X10341Y8140D02*
X10341Y8139D01*
X10341Y8138D01*
X10341Y8137D01*
X10341Y8136D01*
X10341Y8136D01*
X10341Y8136D01*
X10341Y8136D01*
X10341Y8135D01*
X10341Y8135D01*
Y8135D01*
X10341Y8135D01*
Y8135D01*
X10340Y8134D01*
X10340Y8133D01*
X10340Y8133D01*
X10340Y8132D01*
X10339Y8132D01*
X10339Y8131D01*
X10339Y8131D01*
X10339Y8131D01*
Y8131D01*
X10338Y8130D01*
X10338Y8130D01*
X10338Y8129D01*
X10337Y8129D01*
X10337Y8129D01*
X10336Y8128D01*
X10336Y8128D01*
X10336Y8128D01*
X10336Y8128D01*
X10336D01*
X10335Y8128D01*
X10334Y8127D01*
X10334Y8127D01*
X10333Y8127D01*
X10332Y8126D01*
X10332Y8126D01*
X10332Y8126D01*
X10332Y8126D01*
X10331Y8126D01*
X10331Y8126D01*
X10331D01*
X10330Y8126D01*
X10329Y8125D01*
X10328Y8125D01*
X10327Y8125D01*
X10326Y8125D01*
X10326Y8125D01*
X10326D01*
X10325Y8125D01*
X10325D01*
X10325D01*
X10325D01*
X10325D01*
X10323Y8125D01*
X10322Y8125D01*
X10322Y8125D01*
X10321Y8125D01*
X10320Y8125D01*
X10320Y8126D01*
X10319Y8126D01*
X10319Y8126D01*
X10318Y8126D01*
X10318Y8126D01*
X10318Y8126D01*
X10317Y8126D01*
X10317Y8126D01*
X10317Y8126D01*
X10317D01*
X10316Y8127D01*
X10315Y8127D01*
X10314Y8128D01*
X10314Y8128D01*
X10313Y8128D01*
X10313Y8129D01*
X10313Y8129D01*
X10312Y8129D01*
X10312Y8130D01*
X10312Y8130D01*
X10312Y8130D01*
X10312Y8130D01*
X10312Y8130D01*
X10311Y8130D01*
X10311Y8131D01*
X10310Y8132D01*
X10310Y8133D01*
X10310Y8133D01*
X10309Y8134D01*
X10309Y8134D01*
X10309Y8134D01*
X10309Y8135D01*
X10309Y8135D01*
X10309Y8135D01*
Y8135D01*
X10309Y8135D01*
X10309Y8136D01*
X10309Y8137D01*
X10309Y8138D01*
X10309Y8139D01*
X10309Y8139D01*
Y8139D01*
X10309Y8140D01*
Y8152D01*
X10341D01*
Y8140D01*
D02*
G37*
G36*
X9922Y8140D02*
X9922Y8139D01*
X9922Y8138D01*
X9922Y8137D01*
X9922Y8136D01*
X9922Y8136D01*
X9922Y8136D01*
X9922Y8136D01*
X9922Y8135D01*
X9921Y8135D01*
Y8135D01*
X9921Y8135D01*
Y8135D01*
X9921Y8134D01*
X9921Y8133D01*
X9921Y8133D01*
X9920Y8132D01*
X9920Y8132D01*
X9920Y8131D01*
X9920Y8131D01*
X9920Y8131D01*
Y8131D01*
X9919Y8130D01*
X9919Y8130D01*
X9918Y8129D01*
X9918Y8129D01*
X9918Y8129D01*
X9917Y8128D01*
X9917Y8128D01*
X9917Y8128D01*
X9917Y8128D01*
X9917D01*
X9916Y8128D01*
X9915Y8127D01*
X9915Y8127D01*
X9914Y8126D01*
X9913Y8126D01*
X9913Y8126D01*
X9913Y8126D01*
X9912Y8126D01*
X9912Y8126D01*
X9912Y8126D01*
X9912D01*
X9911Y8126D01*
X9910Y8125D01*
X9909Y8125D01*
X9908Y8125D01*
X9907Y8125D01*
X9907Y8125D01*
X9907D01*
X9906Y8125D01*
X9906D01*
X9906D01*
X9906D01*
X9906D01*
X9904Y8125D01*
X9903Y8125D01*
X9903Y8125D01*
X9902Y8125D01*
X9901Y8125D01*
X9901Y8126D01*
X9900Y8126D01*
X9900Y8126D01*
X9899Y8126D01*
X9899Y8126D01*
X9899Y8126D01*
X9898Y8126D01*
X9898Y8126D01*
X9898Y8126D01*
X9898D01*
X9897Y8127D01*
X9896Y8127D01*
X9895Y8128D01*
X9895Y8128D01*
X9894Y8128D01*
X9894Y8129D01*
X9894Y8129D01*
X9893Y8129D01*
X9893Y8129D01*
X9893Y8130D01*
X9893Y8130D01*
X9893Y8130D01*
X9892Y8130D01*
X9892Y8130D01*
X9892Y8131D01*
X9891Y8132D01*
X9891Y8132D01*
X9891Y8133D01*
X9890Y8134D01*
X9890Y8134D01*
X9890Y8134D01*
X9890Y8135D01*
X9890Y8135D01*
X9890Y8135D01*
Y8135D01*
X9890Y8135D01*
X9890Y8136D01*
X9890Y8137D01*
X9890Y8138D01*
X9890Y8138D01*
X9890Y8139D01*
Y8139D01*
X9890Y8140D01*
Y8152D01*
X9922D01*
Y8140D01*
D02*
G37*
G36*
X10202Y8140D02*
X10202Y8139D01*
X10202Y8138D01*
X10201Y8137D01*
X10201Y8136D01*
X10201Y8136D01*
X10201Y8136D01*
X10201Y8135D01*
X10201Y8135D01*
X10201Y8135D01*
Y8135D01*
X10201Y8135D01*
Y8135D01*
X10201Y8134D01*
X10201Y8133D01*
X10200Y8133D01*
X10200Y8132D01*
X10200Y8132D01*
X10200Y8131D01*
X10200Y8131D01*
X10199Y8131D01*
Y8131D01*
X10199Y8130D01*
X10199Y8130D01*
X10198Y8129D01*
X10198Y8129D01*
X10197Y8128D01*
X10197Y8128D01*
X10197Y8128D01*
X10197Y8128D01*
X10197Y8128D01*
X10197D01*
X10196Y8127D01*
X10195Y8127D01*
X10194Y8127D01*
X10193Y8126D01*
X10193Y8126D01*
X10193Y8126D01*
X10192Y8126D01*
X10192Y8126D01*
X10192Y8126D01*
X10192Y8126D01*
X10192D01*
X10191Y8125D01*
X10190Y8125D01*
X10189Y8125D01*
X10188Y8125D01*
X10187Y8125D01*
X10187Y8125D01*
X10186D01*
X10186Y8125D01*
X10186D01*
X10185D01*
X10185D01*
X10185D01*
X10184Y8125D01*
X10183Y8125D01*
X10182Y8125D01*
X10182Y8125D01*
X10181Y8125D01*
X10180Y8125D01*
X10180Y8126D01*
X10179Y8126D01*
X10179Y8126D01*
X10179Y8126D01*
X10178Y8126D01*
X10178Y8126D01*
X10178Y8126D01*
X10178Y8126D01*
X10178D01*
X10176Y8127D01*
X10175Y8127D01*
X10175Y8128D01*
X10174Y8128D01*
X10174Y8128D01*
X10174Y8129D01*
X10173Y8129D01*
X10173Y8129D01*
X10173Y8129D01*
X10172Y8130D01*
X10172Y8130D01*
X10172Y8130D01*
X10172Y8130D01*
X10172Y8130D01*
X10171Y8131D01*
X10171Y8132D01*
X10171Y8132D01*
X10170Y8133D01*
X10170Y8134D01*
X10170Y8134D01*
X10170Y8134D01*
X10170Y8134D01*
X10170Y8135D01*
X10170Y8135D01*
Y8135D01*
X10170Y8135D01*
X10170Y8136D01*
X10169Y8136D01*
X10169Y8137D01*
X10169Y8138D01*
X10169Y8139D01*
Y8139D01*
X10169Y8140D01*
Y8152D01*
X10202D01*
Y8140D01*
D02*
G37*
G36*
X10062Y8137D02*
X10062Y8136D01*
X10062Y8135D01*
X10062Y8134D01*
X10062Y8133D01*
X10062Y8133D01*
X10062Y8133D01*
X10062Y8132D01*
X10061Y8132D01*
X10061Y8132D01*
Y8132D01*
X10061Y8132D01*
Y8132D01*
X10061Y8131D01*
X10061Y8130D01*
X10061Y8130D01*
X10060Y8129D01*
X10060Y8129D01*
X10060Y8128D01*
X10060Y8128D01*
X10060Y8128D01*
Y8128D01*
X10059Y8127D01*
X10059Y8127D01*
X10058Y8126D01*
X10058Y8126D01*
X10057Y8125D01*
X10057Y8125D01*
X10057Y8125D01*
X10057Y8125D01*
X10057Y8125D01*
X10057D01*
X10056Y8125D01*
X10055Y8124D01*
X10055Y8124D01*
X10054Y8123D01*
X10053Y8123D01*
X10053Y8123D01*
X10053Y8123D01*
X10052Y8123D01*
X10052Y8123D01*
X10052Y8123D01*
X10052D01*
X10051Y8123D01*
X10050Y8122D01*
X10049Y8122D01*
X10048Y8122D01*
X10047Y8122D01*
X10047Y8122D01*
X10047D01*
X10046Y8122D01*
X10046D01*
X10046D01*
X10046D01*
X10046D01*
X10044Y8122D01*
X10043Y8122D01*
X10043Y8122D01*
X10042Y8122D01*
X10041Y8122D01*
X10041Y8122D01*
X10040Y8123D01*
X10040Y8123D01*
X10039Y8123D01*
X10039Y8123D01*
X10039Y8123D01*
X10038Y8123D01*
X10038Y8123D01*
X10038Y8123D01*
X10038D01*
X10037Y8124D01*
X10036Y8124D01*
X10035Y8125D01*
X10035Y8125D01*
X10034Y8125D01*
X10034Y8126D01*
X10034Y8126D01*
X10033Y8126D01*
X10033Y8126D01*
X10033Y8127D01*
X10033Y8127D01*
X10032Y8127D01*
X10032Y8127D01*
X10032Y8127D01*
X10032Y8128D01*
X10031Y8129D01*
X10031Y8129D01*
X10031Y8130D01*
X10030Y8131D01*
X10030Y8131D01*
X10030Y8131D01*
X10030Y8131D01*
X10030Y8132D01*
X10030Y8132D01*
Y8132D01*
X10030Y8132D01*
X10030Y8133D01*
X10030Y8134D01*
X10030Y8134D01*
X10030Y8135D01*
X10030Y8136D01*
Y8136D01*
X10030Y8137D01*
Y8149D01*
X10062D01*
Y8137D01*
D02*
G37*
G36*
X10202Y8100D02*
X10198D01*
Y8116D01*
X10197Y8115D01*
X10197Y8115D01*
X10196Y8115D01*
X10196Y8114D01*
X10196Y8114D01*
X10196Y8114D01*
X10196Y8114D01*
X10195Y8114D01*
X10195Y8113D01*
X10195Y8113D01*
X10195Y8113D01*
X10194Y8112D01*
X10193Y8111D01*
X10193Y8111D01*
X10192Y8110D01*
X10192Y8110D01*
X10192Y8110D01*
X10192Y8109D01*
X10192Y8109D01*
X10192Y8109D01*
X10191Y8109D01*
X10190Y8108D01*
X10190Y8107D01*
X10189Y8107D01*
X10189Y8106D01*
X10188Y8106D01*
X10188Y8105D01*
X10187Y8105D01*
X10187Y8104D01*
X10187Y8104D01*
X10187Y8104D01*
X10186Y8104D01*
X10186Y8103D01*
X10186Y8103D01*
X10186Y8103D01*
X10186Y8103D01*
X10185Y8103D01*
X10184Y8102D01*
X10184Y8102D01*
X10183Y8101D01*
X10183Y8101D01*
X10182Y8101D01*
X10182Y8101D01*
X10182Y8101D01*
X10182Y8101D01*
X10182D01*
X10181Y8100D01*
X10181Y8100D01*
X10180Y8100D01*
X10179Y8100D01*
X10179Y8100D01*
X10178Y8100D01*
X10178D01*
X10178D01*
X10178D01*
X10178D01*
X10177Y8100D01*
X10177Y8100D01*
X10176Y8100D01*
X10176Y8100D01*
X10175Y8100D01*
X10174Y8101D01*
X10174Y8101D01*
X10174Y8101D01*
X10173Y8101D01*
X10173Y8102D01*
X10172Y8102D01*
X10172Y8102D01*
X10172Y8102D01*
X10172Y8102D01*
X10172Y8102D01*
X10172Y8102D01*
X10171Y8103D01*
X10171Y8104D01*
X10171Y8104D01*
X10170Y8105D01*
X10170Y8105D01*
X10170Y8106D01*
X10170Y8107D01*
X10169Y8107D01*
X10169Y8108D01*
X10169Y8108D01*
X10169Y8109D01*
X10169Y8109D01*
X10169Y8109D01*
Y8110D01*
X10169Y8111D01*
X10169Y8112D01*
X10169Y8112D01*
X10170Y8113D01*
X10170Y8114D01*
X10170Y8114D01*
X10170Y8115D01*
X10170Y8115D01*
X10171Y8116D01*
X10171Y8116D01*
X10171Y8116D01*
X10171Y8117D01*
X10171Y8117D01*
X10171Y8117D01*
X10172Y8117D01*
X10172Y8117D01*
X10172Y8118D01*
X10173Y8118D01*
X10173Y8119D01*
X10174Y8119D01*
X10174Y8119D01*
X10175Y8119D01*
X10175Y8120D01*
X10176Y8120D01*
X10176Y8120D01*
X10177Y8120D01*
X10177Y8120D01*
X10178Y8120D01*
X10178Y8120D01*
X10178Y8120D01*
X10178Y8120D01*
X10179D01*
X10179Y8116D01*
X10178Y8116D01*
X10178Y8116D01*
X10177Y8116D01*
X10176Y8116D01*
X10176Y8116D01*
X10175Y8115D01*
X10175Y8115D01*
X10175Y8115D01*
X10175Y8115D01*
X10175Y8115D01*
X10174Y8115D01*
X10174Y8115D01*
X10174Y8115D01*
X10174Y8115D01*
X10174Y8114D01*
X10174Y8114D01*
X10173Y8114D01*
X10173Y8113D01*
X10173Y8112D01*
X10173Y8112D01*
X10173Y8111D01*
X10173Y8111D01*
Y8110D01*
X10172Y8110D01*
Y8109D01*
X10173Y8109D01*
X10173Y8108D01*
X10173Y8107D01*
X10173Y8107D01*
X10174Y8106D01*
X10174Y8106D01*
X10174Y8106D01*
X10174Y8106D01*
X10174Y8106D01*
X10174Y8106D01*
X10174Y8106D01*
X10174Y8105D01*
X10175Y8105D01*
X10175Y8105D01*
X10175Y8105D01*
X10176Y8104D01*
X10177Y8104D01*
X10177Y8104D01*
X10177Y8104D01*
X10178D01*
X10178Y8104D01*
X10178D01*
X10178D01*
X10178D01*
X10178Y8104D01*
X10179Y8104D01*
X10180Y8104D01*
X10181Y8104D01*
X10181Y8105D01*
X10182Y8105D01*
X10182Y8105D01*
X10182Y8105D01*
X10183Y8106D01*
X10183Y8106D01*
X10183Y8106D01*
X10183Y8106D01*
X10183Y8106D01*
X10184Y8107D01*
X10184Y8107D01*
X10185Y8108D01*
X10186Y8109D01*
X10187Y8110D01*
X10188Y8111D01*
X10188Y8111D01*
X10189Y8112D01*
X10189Y8112D01*
X10189Y8112D01*
X10190Y8113D01*
X10190Y8113D01*
X10190Y8113D01*
X10190Y8113D01*
X10191Y8114D01*
X10191Y8115D01*
X10192Y8115D01*
X10192Y8116D01*
X10192Y8116D01*
X10193Y8116D01*
X10193Y8117D01*
X10193Y8117D01*
X10194Y8117D01*
X10194Y8118D01*
X10194Y8118D01*
X10194Y8118D01*
X10194Y8118D01*
X10195Y8118D01*
X10195Y8118D01*
X10195Y8119D01*
X10196Y8119D01*
X10197Y8120D01*
X10198Y8120D01*
X10198Y8120D01*
X10198Y8120D01*
X10199Y8121D01*
X10199Y8121D01*
X10199Y8121D01*
X10199Y8121D01*
X10199D01*
X10199Y8121D01*
X10200Y8121D01*
X10200Y8121D01*
X10201Y8121D01*
X10201Y8121D01*
X10201D01*
X10202D01*
X10202D01*
Y8100D01*
D02*
G37*
G36*
X10333Y8121D02*
X10334Y8120D01*
X10335Y8120D01*
X10335Y8120D01*
X10336Y8120D01*
X10336Y8120D01*
X10337Y8119D01*
X10337Y8119D01*
X10338Y8119D01*
X10338Y8118D01*
X10338Y8118D01*
X10339Y8118D01*
X10339Y8118D01*
X10339Y8118D01*
X10339Y8118D01*
X10339Y8118D01*
X10340Y8117D01*
X10340Y8116D01*
X10340Y8116D01*
X10341Y8115D01*
X10341Y8115D01*
X10341Y8114D01*
X10341Y8114D01*
X10341Y8113D01*
X10341Y8112D01*
X10341Y8112D01*
X10342Y8112D01*
X10342Y8111D01*
Y8111D01*
X10342Y8111D01*
Y8110D01*
X10342Y8110D01*
X10341Y8109D01*
X10341Y8108D01*
X10341Y8107D01*
X10341Y8107D01*
X10341Y8106D01*
X10340Y8105D01*
X10340Y8105D01*
X10340Y8104D01*
X10340Y8104D01*
X10339Y8104D01*
X10339Y8103D01*
X10339Y8103D01*
X10339Y8103D01*
X10339Y8103D01*
X10339Y8103D01*
X10338Y8102D01*
X10338Y8102D01*
X10337Y8101D01*
X10336Y8101D01*
X10336Y8101D01*
X10335Y8100D01*
X10335Y8100D01*
X10334Y8100D01*
X10333Y8100D01*
X10333Y8100D01*
X10333Y8100D01*
X10332Y8100D01*
X10332D01*
X10332Y8100D01*
X10332D01*
X10332D01*
X10331D01*
X10330Y8100D01*
X10329Y8100D01*
X10329Y8100D01*
X10328Y8100D01*
X10328Y8100D01*
X10327Y8101D01*
X10327Y8101D01*
X10327Y8101D01*
X10327Y8101D01*
X10327Y8101D01*
X10326Y8101D01*
X10326Y8101D01*
X10326Y8101D01*
X10326Y8102D01*
X10325Y8103D01*
X10325Y8103D01*
X10324Y8104D01*
X10324Y8105D01*
X10324Y8105D01*
X10324Y8105D01*
X10324Y8105D01*
X10324Y8105D01*
X10324Y8106D01*
Y8106D01*
X10323Y8105D01*
X10323Y8104D01*
X10322Y8104D01*
X10322Y8103D01*
X10321Y8103D01*
X10321Y8103D01*
X10321Y8102D01*
X10321Y8102D01*
X10321D01*
X10320Y8102D01*
X10319Y8102D01*
X10319Y8101D01*
X10318Y8101D01*
X10318Y8101D01*
X10317Y8101D01*
X10317D01*
X10317D01*
X10317D01*
X10317D01*
X10316Y8101D01*
X10315Y8101D01*
X10315Y8102D01*
X10314Y8102D01*
X10314Y8102D01*
X10313Y8102D01*
X10313Y8102D01*
X10313Y8102D01*
X10313Y8102D01*
X10313Y8102D01*
X10313D01*
X10312Y8103D01*
X10312Y8103D01*
X10311Y8104D01*
X10311Y8105D01*
X10310Y8105D01*
X10310Y8105D01*
X10310Y8106D01*
X10310Y8106D01*
X10310Y8106D01*
Y8106D01*
X10309Y8107D01*
X10309Y8107D01*
X10309Y8108D01*
X10309Y8109D01*
X10309Y8110D01*
X10309Y8110D01*
X10309Y8110D01*
Y8111D01*
X10309Y8111D01*
X10309Y8112D01*
X10309Y8113D01*
X10309Y8113D01*
X10309Y8114D01*
X10309Y8114D01*
X10310Y8115D01*
X10310Y8115D01*
X10310Y8116D01*
X10310Y8116D01*
X10310Y8116D01*
X10310Y8117D01*
X10311Y8117D01*
X10311Y8117D01*
X10311Y8117D01*
X10311Y8117D01*
X10311Y8118D01*
X10312Y8118D01*
X10312Y8118D01*
X10313Y8119D01*
X10313Y8119D01*
X10314Y8119D01*
X10315Y8120D01*
X10315Y8120D01*
X10316Y8120D01*
X10316Y8120D01*
X10316Y8120D01*
X10317Y8120D01*
X10317Y8120D01*
X10317Y8120D01*
X10317D01*
X10318Y8116D01*
X10317Y8116D01*
X10316Y8116D01*
X10315Y8116D01*
X10314Y8115D01*
X10314Y8115D01*
X10314Y8115D01*
X10313Y8114D01*
X10313Y8114D01*
X10313Y8114D01*
X10312Y8113D01*
X10312Y8112D01*
X10312Y8112D01*
X10312Y8111D01*
X10312Y8111D01*
Y8111D01*
X10312Y8111D01*
Y8111D01*
X10312Y8110D01*
X10312Y8109D01*
X10312Y8108D01*
X10313Y8108D01*
X10313Y8107D01*
X10313Y8107D01*
X10313Y8107D01*
X10313Y8107D01*
X10314Y8106D01*
X10314Y8106D01*
X10314Y8106D01*
X10315Y8106D01*
X10316Y8105D01*
X10316Y8105D01*
X10317Y8105D01*
X10317Y8105D01*
X10317D01*
X10317D01*
X10317D01*
X10317Y8105D01*
X10318Y8105D01*
X10318Y8105D01*
X10319Y8106D01*
X10319Y8106D01*
X10320Y8106D01*
X10320Y8107D01*
X10321Y8107D01*
X10321Y8107D01*
X10321Y8107D01*
X10321Y8107D01*
Y8107D01*
X10321Y8108D01*
X10322Y8109D01*
X10322Y8110D01*
X10322Y8110D01*
X10322Y8111D01*
X10322Y8111D01*
Y8111D01*
X10322Y8112D01*
Y8112D01*
X10322Y8112D01*
X10322Y8112D01*
Y8112D01*
X10326Y8113D01*
X10326Y8112D01*
X10325Y8112D01*
X10325Y8111D01*
X10325Y8111D01*
Y8111D01*
X10325Y8110D01*
Y8110D01*
X10325Y8110D01*
X10325Y8109D01*
X10326Y8108D01*
X10326Y8107D01*
X10326Y8107D01*
X10327Y8106D01*
X10327Y8106D01*
X10327Y8106D01*
X10327Y8106D01*
X10327Y8106D01*
X10327Y8106D01*
X10327Y8106D01*
X10327Y8105D01*
X10328Y8105D01*
X10328Y8105D01*
X10329Y8105D01*
X10329Y8104D01*
X10330Y8104D01*
X10331Y8104D01*
X10331Y8104D01*
X10331Y8104D01*
X10331Y8104D01*
X10331D01*
X10332D01*
X10332D01*
X10332Y8104D01*
X10333Y8104D01*
X10334Y8104D01*
X10334Y8104D01*
X10335Y8105D01*
X10335Y8105D01*
X10336Y8105D01*
X10336Y8105D01*
X10336Y8105D01*
X10336Y8106D01*
X10336Y8106D01*
X10336Y8106D01*
X10336Y8106D01*
X10337Y8106D01*
X10337Y8106D01*
X10337Y8107D01*
X10338Y8107D01*
X10338Y8108D01*
X10338Y8109D01*
X10338Y8109D01*
X10338Y8110D01*
X10338Y8110D01*
X10338Y8110D01*
Y8110D01*
X10338Y8111D01*
X10338Y8112D01*
X10338Y8113D01*
X10338Y8113D01*
X10337Y8114D01*
X10337Y8114D01*
X10337Y8114D01*
X10337Y8114D01*
X10337Y8114D01*
Y8114D01*
X10337Y8115D01*
X10336Y8115D01*
X10335Y8116D01*
X10335Y8116D01*
X10334Y8116D01*
X10333Y8116D01*
X10333Y8117D01*
X10333Y8117D01*
X10332Y8117D01*
X10332Y8117D01*
X10332Y8117D01*
X10332D01*
X10332Y8121D01*
X10333Y8121D01*
D02*
G37*
G36*
X10041Y8114D02*
X10041Y8113D01*
X10040Y8112D01*
X10040Y8112D01*
X10040Y8111D01*
X10040Y8111D01*
X10040Y8111D01*
X10040Y8111D01*
X10039Y8111D01*
X10039Y8110D01*
Y8110D01*
X10039Y8110D01*
X10038Y8109D01*
X10038Y8108D01*
X10037Y8108D01*
X10037Y8107D01*
X10037Y8107D01*
X10037Y8107D01*
X10037Y8107D01*
X10062D01*
Y8103D01*
X10029D01*
Y8105D01*
X10030Y8106D01*
X10031Y8106D01*
X10032Y8107D01*
X10032Y8107D01*
X10033Y8108D01*
X10033Y8108D01*
X10033Y8108D01*
X10034Y8109D01*
X10034Y8109D01*
X10034Y8109D01*
X10034Y8109D01*
X10035Y8110D01*
X10035Y8111D01*
X10036Y8112D01*
X10037Y8113D01*
X10037Y8113D01*
X10037Y8113D01*
X10037Y8114D01*
X10037Y8114D01*
X10037Y8114D01*
X10038Y8114D01*
X10038Y8115D01*
X10038Y8115D01*
X10041D01*
X10041Y8114D01*
D02*
G37*
G36*
X9908Y8121D02*
X9909Y8121D01*
X9911Y8120D01*
X9912Y8120D01*
X9913Y8120D01*
X9914Y8120D01*
X9915Y8119D01*
X9916Y8119D01*
X9917Y8119D01*
X9917Y8119D01*
X9918Y8118D01*
X9918Y8118D01*
X9919Y8118D01*
X9919Y8118D01*
X9919Y8118D01*
X9919Y8117D01*
X9920Y8117D01*
X9920Y8116D01*
X9921Y8116D01*
X9921Y8115D01*
X9921Y8115D01*
X9922Y8114D01*
X9922Y8113D01*
X9922Y8113D01*
X9922Y8112D01*
X9922Y8112D01*
X9922Y8111D01*
X9922Y8111D01*
X9922Y8111D01*
X9922Y8110D01*
Y8110D01*
X9922Y8109D01*
X9922Y8109D01*
X9922Y8108D01*
X9922Y8108D01*
X9922Y8107D01*
X9922Y8107D01*
X9922Y8106D01*
X9922Y8106D01*
X9921Y8106D01*
X9921Y8105D01*
X9921Y8105D01*
X9921Y8105D01*
X9921Y8105D01*
X9921Y8104D01*
X9921Y8104D01*
X9921Y8104D01*
X9920Y8104D01*
X9920Y8103D01*
X9919Y8103D01*
X9918Y8102D01*
X9917Y8102D01*
X9917Y8101D01*
X9916Y8101D01*
X9916Y8101D01*
X9916Y8101D01*
X9916Y8101D01*
X9915Y8101D01*
X9915Y8101D01*
X9915D01*
X9915Y8101D01*
X9914Y8100D01*
X9912Y8100D01*
X9911Y8100D01*
X9910Y8100D01*
X9909Y8100D01*
X9909Y8100D01*
X9908Y8100D01*
X9907Y8100D01*
X9907Y8100D01*
X9907D01*
X9906D01*
X9906D01*
X9906D01*
X9905D01*
X9904Y8100D01*
X9904Y8100D01*
X9903Y8100D01*
X9902Y8100D01*
X9901Y8100D01*
X9901Y8100D01*
X9900Y8100D01*
X9900Y8100D01*
X9900Y8100D01*
X9899Y8100D01*
X9899Y8100D01*
X9899Y8100D01*
X9899Y8100D01*
X9898Y8100D01*
X9898D01*
X9897Y8101D01*
X9896Y8101D01*
X9896Y8101D01*
X9895Y8102D01*
X9895Y8102D01*
X9894Y8102D01*
X9894Y8102D01*
X9894Y8102D01*
X9894Y8102D01*
X9894Y8102D01*
X9894Y8102D01*
X9894D01*
X9893Y8103D01*
X9892Y8103D01*
X9892Y8104D01*
X9891Y8104D01*
X9891Y8105D01*
X9891Y8105D01*
X9891Y8105D01*
X9891Y8106D01*
X9891Y8106D01*
Y8106D01*
X9890Y8106D01*
X9890Y8107D01*
X9890Y8108D01*
X9890Y8109D01*
X9890Y8109D01*
X9890Y8109D01*
X9890Y8110D01*
Y8110D01*
X9890Y8111D01*
X9890Y8111D01*
X9890Y8112D01*
X9890Y8113D01*
X9890Y8113D01*
X9890Y8114D01*
X9890Y8114D01*
X9890Y8114D01*
X9891Y8115D01*
X9891Y8115D01*
X9891Y8115D01*
X9891Y8116D01*
X9891Y8116D01*
X9891Y8116D01*
X9891Y8116D01*
X9891Y8116D01*
X9892Y8116D01*
X9892Y8117D01*
X9893Y8118D01*
X9894Y8118D01*
X9895Y8119D01*
X9895Y8119D01*
X9896Y8119D01*
X9896Y8119D01*
X9896Y8119D01*
X9896Y8119D01*
X9897Y8119D01*
X9897Y8120D01*
X9897D01*
X9897Y8120D01*
X9898Y8120D01*
X9900Y8120D01*
X9901Y8120D01*
X9902Y8120D01*
X9903Y8121D01*
X9903Y8121D01*
X9904Y8121D01*
X9905Y8121D01*
X9905D01*
X9905Y8121D01*
X9906D01*
X9906D01*
X9906D01*
X9908Y8121D01*
D02*
G37*
G36*
X10341Y5977D02*
X10337D01*
Y5993D01*
X10309D01*
Y5997D01*
X10341D01*
Y5977D01*
D02*
G37*
G36*
X9922Y5977D02*
X9918D01*
Y5993D01*
X9890D01*
Y5997D01*
X9922D01*
Y5977D01*
D02*
G37*
G36*
X10202Y5977D02*
X10198D01*
Y5993D01*
X10169D01*
Y5997D01*
X10202D01*
Y5977D01*
D02*
G37*
G36*
X10062Y5974D02*
X10058D01*
Y5990D01*
X10030D01*
Y5994D01*
X10062D01*
Y5974D01*
D02*
G37*
G36*
X10341Y5948D02*
X10337D01*
Y5968D01*
X10326D01*
Y5950D01*
X10322D01*
Y5968D01*
X10313D01*
Y5949D01*
X10309D01*
Y5972D01*
X10341D01*
Y5948D01*
D02*
G37*
G36*
X9922Y5948D02*
X9918D01*
Y5968D01*
X9907D01*
Y5950D01*
X9903D01*
Y5968D01*
X9893D01*
Y5949D01*
X9890D01*
Y5972D01*
X9922D01*
Y5948D01*
D02*
G37*
G36*
X10202Y5948D02*
X10198D01*
Y5968D01*
X10187D01*
Y5950D01*
X10183D01*
Y5968D01*
X10173D01*
Y5948D01*
X10169D01*
Y5972D01*
X10202D01*
Y5948D01*
D02*
G37*
G36*
X10062Y5945D02*
X10058D01*
Y5965D01*
X10047D01*
Y5947D01*
X10043D01*
Y5965D01*
X10033D01*
Y5945D01*
X10030D01*
Y5969D01*
X10062D01*
Y5945D01*
D02*
G37*
G36*
X10341Y5930D02*
X10341Y5929D01*
X10341Y5928D01*
X10341Y5927D01*
X10341Y5927D01*
X10341Y5926D01*
X10341Y5926D01*
X10341Y5926D01*
X10341Y5926D01*
X10341Y5925D01*
Y5925D01*
X10341Y5925D01*
Y5925D01*
X10340Y5924D01*
X10340Y5924D01*
X10340Y5923D01*
X10340Y5922D01*
X10339Y5922D01*
X10339Y5922D01*
X10339Y5921D01*
X10339Y5921D01*
Y5921D01*
X10338Y5921D01*
X10338Y5920D01*
X10338Y5920D01*
X10337Y5919D01*
X10337Y5919D01*
X10336Y5919D01*
X10336Y5918D01*
X10336Y5918D01*
X10336Y5918D01*
X10336D01*
X10335Y5918D01*
X10334Y5917D01*
X10334Y5917D01*
X10333Y5917D01*
X10332Y5916D01*
X10332Y5916D01*
X10332Y5916D01*
X10332Y5916D01*
X10331Y5916D01*
X10331Y5916D01*
X10331D01*
X10330Y5916D01*
X10329Y5916D01*
X10328Y5915D01*
X10327Y5915D01*
X10326Y5915D01*
X10326Y5915D01*
X10326D01*
X10325Y5915D01*
X10325D01*
X10325D01*
X10325D01*
X10325D01*
X10323Y5915D01*
X10322Y5915D01*
X10322Y5915D01*
X10321Y5916D01*
X10320Y5916D01*
X10320Y5916D01*
X10319Y5916D01*
X10319Y5916D01*
X10318Y5916D01*
X10318Y5916D01*
X10318Y5916D01*
X10317Y5916D01*
X10317Y5916D01*
X10317Y5917D01*
X10317D01*
X10316Y5917D01*
X10315Y5918D01*
X10314Y5918D01*
X10314Y5918D01*
X10313Y5919D01*
X10313Y5919D01*
X10313Y5919D01*
X10312Y5919D01*
X10312Y5920D01*
X10312Y5920D01*
X10312Y5920D01*
X10312Y5920D01*
X10312Y5920D01*
X10311Y5920D01*
X10311Y5921D01*
X10310Y5922D01*
X10310Y5923D01*
X10310Y5923D01*
X10309Y5924D01*
X10309Y5924D01*
X10309Y5925D01*
X10309Y5925D01*
X10309Y5925D01*
X10309Y5925D01*
Y5925D01*
X10309Y5925D01*
X10309Y5926D01*
X10309Y5927D01*
X10309Y5928D01*
X10309Y5929D01*
X10309Y5929D01*
Y5930D01*
X10309Y5930D01*
Y5942D01*
X10341D01*
Y5930D01*
D02*
G37*
G36*
X9922Y5930D02*
X9922Y5929D01*
X9922Y5928D01*
X9922Y5927D01*
X9922Y5927D01*
X9922Y5926D01*
X9922Y5926D01*
X9922Y5926D01*
X9922Y5925D01*
X9921Y5925D01*
Y5925D01*
X9921Y5925D01*
Y5925D01*
X9921Y5924D01*
X9921Y5924D01*
X9921Y5923D01*
X9920Y5922D01*
X9920Y5922D01*
X9920Y5922D01*
X9920Y5921D01*
X9920Y5921D01*
Y5921D01*
X9919Y5921D01*
X9919Y5920D01*
X9918Y5920D01*
X9918Y5919D01*
X9918Y5919D01*
X9917Y5919D01*
X9917Y5918D01*
X9917Y5918D01*
X9917Y5918D01*
X9917D01*
X9916Y5918D01*
X9915Y5917D01*
X9915Y5917D01*
X9914Y5917D01*
X9913Y5916D01*
X9913Y5916D01*
X9913Y5916D01*
X9912Y5916D01*
X9912Y5916D01*
X9912Y5916D01*
X9912D01*
X9911Y5916D01*
X9910Y5916D01*
X9909Y5915D01*
X9908Y5915D01*
X9907Y5915D01*
X9907Y5915D01*
X9907D01*
X9906Y5915D01*
X9906D01*
X9906D01*
X9906D01*
X9906D01*
X9904Y5915D01*
X9903Y5915D01*
X9903Y5915D01*
X9902Y5916D01*
X9901Y5916D01*
X9901Y5916D01*
X9900Y5916D01*
X9900Y5916D01*
X9899Y5916D01*
X9899Y5916D01*
X9899Y5916D01*
X9898Y5916D01*
X9898Y5916D01*
X9898Y5916D01*
X9898D01*
X9897Y5917D01*
X9896Y5918D01*
X9895Y5918D01*
X9895Y5918D01*
X9894Y5919D01*
X9894Y5919D01*
X9894Y5919D01*
X9893Y5919D01*
X9893Y5920D01*
X9893Y5920D01*
X9893Y5920D01*
X9893Y5920D01*
X9892Y5920D01*
X9892Y5920D01*
X9892Y5921D01*
X9891Y5922D01*
X9891Y5923D01*
X9891Y5923D01*
X9890Y5924D01*
X9890Y5924D01*
X9890Y5925D01*
X9890Y5925D01*
X9890Y5925D01*
X9890Y5925D01*
Y5925D01*
X9890Y5925D01*
X9890Y5926D01*
X9890Y5927D01*
X9890Y5928D01*
X9890Y5929D01*
X9890Y5929D01*
Y5930D01*
X9890Y5930D01*
Y5942D01*
X9922D01*
Y5930D01*
D02*
G37*
G36*
X10202Y5930D02*
X10202Y5929D01*
X10202Y5928D01*
X10201Y5927D01*
X10201Y5926D01*
X10201Y5926D01*
X10201Y5926D01*
X10201Y5926D01*
X10201Y5925D01*
X10201Y5925D01*
Y5925D01*
X10201Y5925D01*
Y5925D01*
X10201Y5924D01*
X10201Y5923D01*
X10200Y5923D01*
X10200Y5922D01*
X10200Y5922D01*
X10200Y5921D01*
X10200Y5921D01*
X10199Y5921D01*
Y5921D01*
X10199Y5921D01*
X10199Y5920D01*
X10198Y5919D01*
X10198Y5919D01*
X10197Y5919D01*
X10197Y5918D01*
X10197Y5918D01*
X10197Y5918D01*
X10197Y5918D01*
X10197D01*
X10196Y5918D01*
X10195Y5917D01*
X10194Y5917D01*
X10193Y5917D01*
X10193Y5916D01*
X10193Y5916D01*
X10192Y5916D01*
X10192Y5916D01*
X10192Y5916D01*
X10192Y5916D01*
X10192D01*
X10191Y5916D01*
X10190Y5915D01*
X10189Y5915D01*
X10188Y5915D01*
X10187Y5915D01*
X10187Y5915D01*
X10186D01*
X10186Y5915D01*
X10186D01*
X10185D01*
X10185D01*
X10185D01*
X10184Y5915D01*
X10183Y5915D01*
X10182Y5915D01*
X10182Y5915D01*
X10181Y5916D01*
X10180Y5916D01*
X10180Y5916D01*
X10179Y5916D01*
X10179Y5916D01*
X10179Y5916D01*
X10178Y5916D01*
X10178Y5916D01*
X10178Y5916D01*
X10178Y5916D01*
X10178D01*
X10176Y5917D01*
X10175Y5918D01*
X10175Y5918D01*
X10174Y5918D01*
X10174Y5918D01*
X10174Y5919D01*
X10173Y5919D01*
X10173Y5919D01*
X10173Y5920D01*
X10172Y5920D01*
X10172Y5920D01*
X10172Y5920D01*
X10172Y5920D01*
X10172Y5920D01*
X10171Y5921D01*
X10171Y5922D01*
X10171Y5923D01*
X10170Y5923D01*
X10170Y5924D01*
X10170Y5924D01*
X10170Y5924D01*
X10170Y5925D01*
X10170Y5925D01*
X10170Y5925D01*
Y5925D01*
X10170Y5925D01*
X10170Y5926D01*
X10169Y5927D01*
X10169Y5928D01*
X10169Y5929D01*
X10169Y5929D01*
Y5929D01*
X10169Y5930D01*
Y5942D01*
X10202D01*
Y5930D01*
D02*
G37*
G36*
X10062Y5927D02*
X10062Y5926D01*
X10062Y5925D01*
X10062Y5924D01*
X10062Y5924D01*
X10062Y5923D01*
X10062Y5923D01*
X10062Y5923D01*
X10061Y5922D01*
X10061Y5922D01*
Y5922D01*
X10061Y5922D01*
Y5922D01*
X10061Y5921D01*
X10061Y5920D01*
X10061Y5920D01*
X10060Y5919D01*
X10060Y5919D01*
X10060Y5918D01*
X10060Y5918D01*
X10060Y5918D01*
Y5918D01*
X10059Y5918D01*
X10059Y5917D01*
X10058Y5917D01*
X10058Y5916D01*
X10057Y5916D01*
X10057Y5915D01*
X10057Y5915D01*
X10057Y5915D01*
X10057Y5915D01*
X10057D01*
X10056Y5915D01*
X10055Y5914D01*
X10055Y5914D01*
X10054Y5914D01*
X10053Y5913D01*
X10053Y5913D01*
X10053Y5913D01*
X10052Y5913D01*
X10052Y5913D01*
X10052Y5913D01*
X10052D01*
X10051Y5913D01*
X10050Y5913D01*
X10049Y5912D01*
X10048Y5912D01*
X10047Y5912D01*
X10047Y5912D01*
X10047D01*
X10046Y5912D01*
X10046D01*
X10046D01*
X10046D01*
X10046D01*
X10044Y5912D01*
X10043Y5912D01*
X10043Y5912D01*
X10042Y5912D01*
X10041Y5913D01*
X10041Y5913D01*
X10040Y5913D01*
X10040Y5913D01*
X10039Y5913D01*
X10039Y5913D01*
X10039Y5913D01*
X10038Y5913D01*
X10038Y5913D01*
X10038Y5913D01*
X10038D01*
X10037Y5914D01*
X10036Y5915D01*
X10035Y5915D01*
X10035Y5915D01*
X10034Y5915D01*
X10034Y5916D01*
X10034Y5916D01*
X10033Y5916D01*
X10033Y5917D01*
X10033Y5917D01*
X10033Y5917D01*
X10032Y5917D01*
X10032Y5917D01*
X10032Y5917D01*
X10032Y5918D01*
X10031Y5919D01*
X10031Y5920D01*
X10031Y5920D01*
X10030Y5921D01*
X10030Y5921D01*
X10030Y5922D01*
X10030Y5922D01*
X10030Y5922D01*
X10030Y5922D01*
Y5922D01*
X10030Y5922D01*
X10030Y5923D01*
X10030Y5924D01*
X10030Y5925D01*
X10030Y5926D01*
X10030Y5926D01*
Y5926D01*
X10030Y5927D01*
Y5939D01*
X10062D01*
Y5927D01*
D02*
G37*
G36*
X10202Y5890D02*
X10198D01*
Y5906D01*
X10197Y5905D01*
X10197Y5905D01*
X10196Y5905D01*
X10196Y5904D01*
X10196Y5904D01*
X10196Y5904D01*
X10196Y5904D01*
X10195Y5904D01*
X10195Y5904D01*
X10195Y5903D01*
X10195Y5903D01*
X10194Y5902D01*
X10193Y5901D01*
X10193Y5901D01*
X10192Y5900D01*
X10192Y5900D01*
X10192Y5900D01*
X10192Y5900D01*
X10192Y5900D01*
X10192Y5900D01*
X10191Y5899D01*
X10190Y5898D01*
X10190Y5897D01*
X10189Y5897D01*
X10189Y5896D01*
X10188Y5896D01*
X10188Y5895D01*
X10187Y5895D01*
X10187Y5895D01*
X10187Y5894D01*
X10187Y5894D01*
X10186Y5894D01*
X10186Y5894D01*
X10186Y5893D01*
X10186Y5893D01*
X10186Y5893D01*
X10185Y5893D01*
X10184Y5892D01*
X10184Y5892D01*
X10183Y5891D01*
X10183Y5891D01*
X10182Y5891D01*
X10182Y5891D01*
X10182Y5891D01*
X10182Y5891D01*
X10182D01*
X10181Y5890D01*
X10181Y5890D01*
X10180Y5890D01*
X10179Y5890D01*
X10179Y5890D01*
X10178Y5890D01*
X10178D01*
X10178D01*
X10178D01*
X10178D01*
X10177Y5890D01*
X10177Y5890D01*
X10176Y5890D01*
X10176Y5890D01*
X10175Y5891D01*
X10174Y5891D01*
X10174Y5891D01*
X10174Y5891D01*
X10173Y5892D01*
X10173Y5892D01*
X10172Y5892D01*
X10172Y5892D01*
X10172Y5892D01*
X10172Y5893D01*
X10172Y5893D01*
X10172Y5893D01*
X10171Y5893D01*
X10171Y5894D01*
X10171Y5894D01*
X10170Y5895D01*
X10170Y5896D01*
X10170Y5896D01*
X10170Y5897D01*
X10169Y5897D01*
X10169Y5898D01*
X10169Y5898D01*
X10169Y5899D01*
X10169Y5899D01*
X10169Y5900D01*
Y5900D01*
X10169Y5901D01*
X10169Y5902D01*
X10169Y5902D01*
X10170Y5903D01*
X10170Y5904D01*
X10170Y5904D01*
X10170Y5905D01*
X10170Y5905D01*
X10171Y5906D01*
X10171Y5906D01*
X10171Y5907D01*
X10171Y5907D01*
X10171Y5907D01*
X10171Y5907D01*
X10172Y5907D01*
X10172Y5907D01*
X10172Y5908D01*
X10173Y5908D01*
X10173Y5909D01*
X10174Y5909D01*
X10174Y5909D01*
X10175Y5910D01*
X10175Y5910D01*
X10176Y5910D01*
X10176Y5910D01*
X10177Y5910D01*
X10177Y5910D01*
X10178Y5910D01*
X10178Y5911D01*
X10178Y5911D01*
X10178Y5911D01*
X10179D01*
X10179Y5907D01*
X10178Y5906D01*
X10178Y5906D01*
X10177Y5906D01*
X10176Y5906D01*
X10176Y5906D01*
X10175Y5906D01*
X10175Y5906D01*
X10175Y5905D01*
X10175Y5905D01*
X10175Y5905D01*
X10174Y5905D01*
X10174Y5905D01*
X10174Y5905D01*
X10174Y5905D01*
X10174Y5904D01*
X10174Y5904D01*
X10173Y5904D01*
X10173Y5903D01*
X10173Y5903D01*
X10173Y5902D01*
X10173Y5901D01*
X10173Y5901D01*
Y5901D01*
X10172Y5900D01*
Y5900D01*
X10173Y5899D01*
X10173Y5898D01*
X10173Y5898D01*
X10173Y5897D01*
X10174Y5896D01*
X10174Y5896D01*
X10174Y5896D01*
X10174Y5896D01*
X10174Y5896D01*
X10174Y5896D01*
X10174Y5896D01*
X10174Y5895D01*
X10175Y5895D01*
X10175Y5895D01*
X10175Y5895D01*
X10176Y5894D01*
X10177Y5894D01*
X10177Y5894D01*
X10177Y5894D01*
X10178D01*
X10178Y5894D01*
X10178D01*
X10178D01*
X10178D01*
X10178Y5894D01*
X10179Y5894D01*
X10180Y5894D01*
X10181Y5895D01*
X10181Y5895D01*
X10182Y5895D01*
X10182Y5895D01*
X10182Y5896D01*
X10183Y5896D01*
X10183Y5896D01*
X10183Y5896D01*
X10183Y5896D01*
X10183Y5896D01*
X10184Y5897D01*
X10184Y5897D01*
X10185Y5898D01*
X10186Y5899D01*
X10187Y5900D01*
X10188Y5901D01*
X10188Y5901D01*
X10189Y5902D01*
X10189Y5902D01*
X10189Y5903D01*
X10190Y5903D01*
X10190Y5903D01*
X10190Y5903D01*
X10190Y5904D01*
X10191Y5904D01*
X10191Y5905D01*
X10192Y5905D01*
X10192Y5906D01*
X10192Y5906D01*
X10193Y5907D01*
X10193Y5907D01*
X10193Y5907D01*
X10194Y5908D01*
X10194Y5908D01*
X10194Y5908D01*
X10194Y5908D01*
X10194Y5908D01*
X10195Y5908D01*
X10195Y5908D01*
X10195Y5909D01*
X10196Y5909D01*
X10197Y5910D01*
X10198Y5910D01*
X10198Y5911D01*
X10198Y5911D01*
X10199Y5911D01*
X10199Y5911D01*
X10199Y5911D01*
X10199Y5911D01*
X10199D01*
X10199Y5911D01*
X10200Y5911D01*
X10200Y5911D01*
X10201Y5911D01*
X10201Y5911D01*
X10201D01*
X10202D01*
X10202D01*
Y5890D01*
D02*
G37*
G36*
X10333Y5911D02*
X10334Y5911D01*
X10335Y5910D01*
X10335Y5910D01*
X10336Y5910D01*
X10336Y5910D01*
X10337Y5909D01*
X10337Y5909D01*
X10338Y5909D01*
X10338Y5909D01*
X10338Y5908D01*
X10339Y5908D01*
X10339Y5908D01*
X10339Y5908D01*
X10339Y5908D01*
X10339Y5908D01*
X10340Y5907D01*
X10340Y5907D01*
X10340Y5906D01*
X10341Y5905D01*
X10341Y5905D01*
X10341Y5904D01*
X10341Y5904D01*
X10341Y5903D01*
X10341Y5903D01*
X10341Y5902D01*
X10342Y5902D01*
X10342Y5901D01*
Y5901D01*
X10342Y5901D01*
Y5901D01*
X10342Y5900D01*
X10341Y5899D01*
X10341Y5898D01*
X10341Y5897D01*
X10341Y5897D01*
X10341Y5896D01*
X10340Y5896D01*
X10340Y5895D01*
X10340Y5895D01*
X10340Y5894D01*
X10339Y5894D01*
X10339Y5893D01*
X10339Y5893D01*
X10339Y5893D01*
X10339Y5893D01*
X10339Y5893D01*
X10338Y5892D01*
X10338Y5892D01*
X10337Y5891D01*
X10336Y5891D01*
X10336Y5891D01*
X10335Y5891D01*
X10335Y5890D01*
X10334Y5890D01*
X10333Y5890D01*
X10333Y5890D01*
X10333Y5890D01*
X10332Y5890D01*
X10332D01*
X10332Y5890D01*
X10332D01*
X10332D01*
X10331D01*
X10330Y5890D01*
X10329Y5890D01*
X10329Y5890D01*
X10328Y5890D01*
X10328Y5891D01*
X10327Y5891D01*
X10327Y5891D01*
X10327Y5891D01*
X10327Y5891D01*
X10327Y5891D01*
X10326Y5891D01*
X10326Y5891D01*
X10326Y5891D01*
X10326Y5892D01*
X10325Y5893D01*
X10325Y5893D01*
X10324Y5894D01*
X10324Y5895D01*
X10324Y5895D01*
X10324Y5895D01*
X10324Y5896D01*
X10324Y5896D01*
X10324Y5896D01*
Y5896D01*
X10323Y5895D01*
X10323Y5894D01*
X10322Y5894D01*
X10322Y5893D01*
X10321Y5893D01*
X10321Y5893D01*
X10321Y5893D01*
X10321Y5892D01*
X10321D01*
X10320Y5892D01*
X10319Y5892D01*
X10319Y5892D01*
X10318Y5891D01*
X10318Y5891D01*
X10317Y5891D01*
X10317D01*
X10317D01*
X10317D01*
X10317D01*
X10316Y5891D01*
X10315Y5892D01*
X10315Y5892D01*
X10314Y5892D01*
X10314Y5892D01*
X10313Y5892D01*
X10313Y5892D01*
X10313Y5892D01*
X10313Y5892D01*
X10313Y5893D01*
X10313D01*
X10312Y5893D01*
X10312Y5894D01*
X10311Y5894D01*
X10311Y5895D01*
X10310Y5895D01*
X10310Y5896D01*
X10310Y5896D01*
X10310Y5896D01*
X10310Y5896D01*
Y5896D01*
X10309Y5897D01*
X10309Y5898D01*
X10309Y5898D01*
X10309Y5899D01*
X10309Y5900D01*
X10309Y5900D01*
X10309Y5900D01*
Y5901D01*
X10309Y5902D01*
X10309Y5902D01*
X10309Y5903D01*
X10309Y5903D01*
X10309Y5904D01*
X10309Y5905D01*
X10310Y5905D01*
X10310Y5905D01*
X10310Y5906D01*
X10310Y5906D01*
X10310Y5907D01*
X10310Y5907D01*
X10311Y5907D01*
X10311Y5907D01*
X10311Y5907D01*
X10311Y5907D01*
X10311Y5908D01*
X10312Y5908D01*
X10312Y5909D01*
X10313Y5909D01*
X10313Y5909D01*
X10314Y5909D01*
X10315Y5910D01*
X10315Y5910D01*
X10316Y5910D01*
X10316Y5910D01*
X10316Y5910D01*
X10317Y5910D01*
X10317Y5911D01*
X10317Y5911D01*
X10317D01*
X10318Y5907D01*
X10317Y5906D01*
X10316Y5906D01*
X10315Y5906D01*
X10314Y5905D01*
X10314Y5905D01*
X10314Y5905D01*
X10313Y5905D01*
X10313Y5905D01*
X10313Y5904D01*
X10312Y5903D01*
X10312Y5903D01*
X10312Y5902D01*
X10312Y5902D01*
X10312Y5901D01*
Y5901D01*
X10312Y5901D01*
Y5901D01*
X10312Y5900D01*
X10312Y5899D01*
X10312Y5898D01*
X10313Y5898D01*
X10313Y5898D01*
X10313Y5897D01*
X10313Y5897D01*
X10313Y5897D01*
X10314Y5897D01*
X10314Y5896D01*
X10314Y5896D01*
X10315Y5896D01*
X10316Y5896D01*
X10316Y5895D01*
X10317Y5895D01*
X10317Y5895D01*
X10317D01*
X10317D01*
X10317D01*
X10317Y5895D01*
X10318Y5896D01*
X10318Y5896D01*
X10319Y5896D01*
X10319Y5896D01*
X10320Y5896D01*
X10320Y5897D01*
X10321Y5897D01*
X10321Y5897D01*
X10321Y5897D01*
X10321Y5897D01*
Y5897D01*
X10321Y5898D01*
X10322Y5899D01*
X10322Y5900D01*
X10322Y5901D01*
X10322Y5901D01*
X10322Y5901D01*
Y5902D01*
X10322Y5902D01*
Y5902D01*
X10322Y5902D01*
X10322Y5903D01*
Y5903D01*
X10326Y5903D01*
X10326Y5903D01*
X10325Y5902D01*
X10325Y5902D01*
X10325Y5901D01*
Y5901D01*
X10325Y5901D01*
Y5900D01*
X10325Y5900D01*
X10325Y5899D01*
X10326Y5898D01*
X10326Y5898D01*
X10326Y5897D01*
X10327Y5896D01*
X10327Y5896D01*
X10327Y5896D01*
X10327Y5896D01*
X10327Y5896D01*
X10327Y5896D01*
X10327Y5896D01*
X10327Y5895D01*
X10328Y5895D01*
X10328Y5895D01*
X10329Y5895D01*
X10329Y5894D01*
X10330Y5894D01*
X10331Y5894D01*
X10331Y5894D01*
X10331Y5894D01*
X10331Y5894D01*
X10331D01*
X10332D01*
X10332D01*
X10332Y5894D01*
X10333Y5894D01*
X10334Y5894D01*
X10334Y5895D01*
X10335Y5895D01*
X10335Y5895D01*
X10336Y5895D01*
X10336Y5895D01*
X10336Y5896D01*
X10336Y5896D01*
X10336Y5896D01*
X10336Y5896D01*
X10336Y5896D01*
X10337Y5896D01*
X10337Y5897D01*
X10337Y5897D01*
X10338Y5897D01*
X10338Y5898D01*
X10338Y5899D01*
X10338Y5900D01*
X10338Y5900D01*
X10338Y5900D01*
X10338Y5900D01*
Y5901D01*
X10338Y5902D01*
X10338Y5902D01*
X10338Y5903D01*
X10338Y5904D01*
X10337Y5904D01*
X10337Y5904D01*
X10337Y5905D01*
X10337Y5905D01*
X10337Y5905D01*
Y5905D01*
X10337Y5905D01*
X10336Y5905D01*
X10335Y5906D01*
X10335Y5906D01*
X10334Y5906D01*
X10333Y5907D01*
X10333Y5907D01*
X10333Y5907D01*
X10332Y5907D01*
X10332Y5907D01*
X10332Y5907D01*
X10332D01*
X10332Y5911D01*
X10333Y5911D01*
D02*
G37*
G36*
X10041Y5904D02*
X10041Y5903D01*
X10040Y5903D01*
X10040Y5902D01*
X10040Y5901D01*
X10040Y5901D01*
X10040Y5901D01*
X10040Y5901D01*
X10039Y5901D01*
X10039Y5901D01*
Y5901D01*
X10039Y5900D01*
X10038Y5899D01*
X10038Y5898D01*
X10037Y5898D01*
X10037Y5897D01*
X10037Y5897D01*
X10037Y5897D01*
X10037Y5897D01*
X10062D01*
Y5893D01*
X10029D01*
Y5895D01*
X10030Y5896D01*
X10031Y5896D01*
X10032Y5897D01*
X10032Y5898D01*
X10033Y5898D01*
X10033Y5898D01*
X10033Y5899D01*
X10034Y5899D01*
X10034Y5899D01*
X10034Y5899D01*
X10034Y5899D01*
X10035Y5900D01*
X10035Y5901D01*
X10036Y5902D01*
X10037Y5903D01*
X10037Y5903D01*
X10037Y5904D01*
X10037Y5904D01*
X10037Y5904D01*
X10037Y5904D01*
X10038Y5905D01*
X10038Y5905D01*
X10038Y5905D01*
X10041D01*
X10041Y5904D01*
D02*
G37*
G36*
X9908Y5911D02*
X9909Y5911D01*
X9911Y5911D01*
X9912Y5910D01*
X9913Y5910D01*
X9914Y5910D01*
X9915Y5910D01*
X9916Y5909D01*
X9917Y5909D01*
X9917Y5909D01*
X9918Y5908D01*
X9918Y5908D01*
X9919Y5908D01*
X9919Y5908D01*
X9919Y5908D01*
X9919Y5908D01*
X9920Y5907D01*
X9920Y5907D01*
X9921Y5906D01*
X9921Y5905D01*
X9921Y5905D01*
X9922Y5904D01*
X9922Y5904D01*
X9922Y5903D01*
X9922Y5902D01*
X9922Y5902D01*
X9922Y5902D01*
X9922Y5901D01*
X9922Y5901D01*
X9922Y5901D01*
Y5900D01*
X9922Y5900D01*
X9922Y5899D01*
X9922Y5899D01*
X9922Y5898D01*
X9922Y5897D01*
X9922Y5897D01*
X9922Y5897D01*
X9922Y5896D01*
X9921Y5896D01*
X9921Y5895D01*
X9921Y5895D01*
X9921Y5895D01*
X9921Y5895D01*
X9921Y5895D01*
X9921Y5895D01*
X9921Y5895D01*
X9920Y5894D01*
X9920Y5894D01*
X9919Y5893D01*
X9918Y5892D01*
X9917Y5892D01*
X9917Y5892D01*
X9916Y5891D01*
X9916Y5891D01*
X9916Y5891D01*
X9916Y5891D01*
X9915Y5891D01*
X9915Y5891D01*
X9915D01*
X9915Y5891D01*
X9914Y5891D01*
X9912Y5890D01*
X9911Y5890D01*
X9910Y5890D01*
X9909Y5890D01*
X9909Y5890D01*
X9908Y5890D01*
X9907Y5890D01*
X9907Y5890D01*
X9907D01*
X9906D01*
X9906D01*
X9906D01*
X9905D01*
X9904Y5890D01*
X9904Y5890D01*
X9903Y5890D01*
X9902Y5890D01*
X9901Y5890D01*
X9901Y5890D01*
X9900Y5890D01*
X9900Y5890D01*
X9900Y5890D01*
X9899Y5890D01*
X9899Y5890D01*
X9899Y5890D01*
X9899Y5891D01*
X9898Y5891D01*
X9898D01*
X9897Y5891D01*
X9896Y5891D01*
X9896Y5891D01*
X9895Y5892D01*
X9895Y5892D01*
X9894Y5892D01*
X9894Y5892D01*
X9894Y5892D01*
X9894Y5892D01*
X9894Y5892D01*
X9894Y5893D01*
X9894D01*
X9893Y5893D01*
X9892Y5894D01*
X9892Y5894D01*
X9891Y5895D01*
X9891Y5895D01*
X9891Y5895D01*
X9891Y5896D01*
X9891Y5896D01*
X9891Y5896D01*
Y5896D01*
X9890Y5897D01*
X9890Y5897D01*
X9890Y5898D01*
X9890Y5899D01*
X9890Y5899D01*
X9890Y5900D01*
X9890Y5900D01*
Y5900D01*
X9890Y5901D01*
X9890Y5902D01*
X9890Y5902D01*
X9890Y5903D01*
X9890Y5903D01*
X9890Y5904D01*
X9890Y5904D01*
X9890Y5905D01*
X9891Y5905D01*
X9891Y5905D01*
X9891Y5906D01*
X9891Y5906D01*
X9891Y5906D01*
X9891Y5906D01*
X9891Y5906D01*
X9891Y5906D01*
X9892Y5907D01*
X9892Y5907D01*
X9893Y5908D01*
X9894Y5908D01*
X9895Y5909D01*
X9895Y5909D01*
X9896Y5909D01*
X9896Y5909D01*
X9896Y5910D01*
X9896Y5910D01*
X9897Y5910D01*
X9897Y5910D01*
X9897D01*
X9897Y5910D01*
X9898Y5910D01*
X9900Y5910D01*
X9901Y5911D01*
X9902Y5911D01*
X9903Y5911D01*
X9903Y5911D01*
X9904Y5911D01*
X9905Y5911D01*
X9905D01*
X9905Y5911D01*
X9906D01*
X9906D01*
X9906D01*
X9908Y5911D01*
D02*
G37*
%LPC*%
G36*
X10337Y8148D02*
X10313D01*
Y8140D01*
X10313Y8139D01*
X10313Y8139D01*
X10313Y8138D01*
X10313Y8138D01*
X10313Y8137D01*
X10313Y8137D01*
X10313Y8137D01*
X10313Y8136D01*
X10313Y8136D01*
X10313Y8136D01*
X10313Y8136D01*
X10313Y8135D01*
X10313Y8135D01*
X10313Y8135D01*
Y8135D01*
X10313Y8135D01*
X10314Y8134D01*
X10314Y8134D01*
X10315Y8133D01*
X10315Y8132D01*
X10316Y8132D01*
X10316Y8132D01*
X10316Y8131D01*
X10317Y8131D01*
X10317Y8131D01*
X10317Y8131D01*
X10317Y8131D01*
X10317Y8131D01*
X10318Y8131D01*
X10319Y8130D01*
X10321Y8130D01*
X10322Y8130D01*
X10322Y8130D01*
X10323Y8130D01*
X10323Y8129D01*
X10324D01*
X10324Y8129D01*
X10324D01*
X10325D01*
X10325D01*
X10326Y8129D01*
X10327Y8130D01*
X10328Y8130D01*
X10328Y8130D01*
X10329Y8130D01*
X10329Y8130D01*
X10330Y8130D01*
X10330Y8130D01*
X10330Y8130D01*
X10330Y8130D01*
X10331Y8130D01*
X10331Y8130D01*
X10331Y8130D01*
X10331D01*
X10332Y8131D01*
X10333Y8131D01*
X10333Y8131D01*
X10334Y8132D01*
X10334Y8132D01*
X10335Y8132D01*
X10335Y8133D01*
X10335Y8133D01*
X10335Y8133D01*
X10335Y8133D01*
X10336Y8134D01*
X10336Y8134D01*
X10336Y8135D01*
X10336Y8135D01*
X10337Y8135D01*
X10337Y8135D01*
X10337Y8136D01*
X10337Y8136D01*
Y8136D01*
X10337Y8136D01*
X10337Y8137D01*
X10337Y8138D01*
X10337Y8139D01*
X10337Y8139D01*
Y8140D01*
X10337Y8140D01*
Y8148D01*
D02*
G37*
G36*
X9918Y8147D02*
X9893D01*
Y8140D01*
X9893Y8139D01*
X9894Y8139D01*
X9894Y8138D01*
X9894Y8138D01*
X9894Y8137D01*
X9894Y8137D01*
X9894Y8136D01*
X9894Y8136D01*
X9894Y8136D01*
X9894Y8136D01*
X9894Y8135D01*
X9894Y8135D01*
X9894Y8135D01*
X9894Y8135D01*
Y8135D01*
X9894Y8135D01*
X9895Y8134D01*
X9895Y8134D01*
X9896Y8133D01*
X9896Y8132D01*
X9897Y8132D01*
X9897Y8132D01*
X9897Y8131D01*
X9898Y8131D01*
X9898Y8131D01*
X9898Y8131D01*
X9898Y8131D01*
X9898Y8131D01*
X9899Y8131D01*
X9900Y8130D01*
X9901Y8130D01*
X9903Y8130D01*
X9903Y8130D01*
X9904Y8129D01*
X9904Y8129D01*
X9905D01*
X9905Y8129D01*
X9905D01*
X9905D01*
X9906D01*
X9907Y8129D01*
X9908Y8130D01*
X9909Y8130D01*
X9909Y8130D01*
X9910Y8130D01*
X9910Y8130D01*
X9910Y8130D01*
X9911Y8130D01*
X9911Y8130D01*
X9911Y8130D01*
X9912Y8130D01*
X9912Y8130D01*
X9912Y8130D01*
X9912D01*
X9913Y8131D01*
X9914Y8131D01*
X9914Y8131D01*
X9915Y8132D01*
X9915Y8132D01*
X9916Y8132D01*
X9916Y8133D01*
X9916Y8133D01*
X9916Y8133D01*
X9916Y8133D01*
X9917Y8134D01*
X9917Y8134D01*
X9917Y8134D01*
X9917Y8135D01*
X9917Y8135D01*
X9918Y8135D01*
X9918Y8135D01*
X9918Y8136D01*
Y8136D01*
X9918Y8136D01*
X9918Y8137D01*
X9918Y8138D01*
X9918Y8139D01*
X9918Y8139D01*
Y8140D01*
X9918Y8140D01*
Y8147D01*
D02*
G37*
G36*
X10198Y8147D02*
X10173D01*
Y8140D01*
X10173Y8139D01*
X10173Y8139D01*
X10173Y8138D01*
X10173Y8138D01*
X10173Y8137D01*
X10173Y8137D01*
X10173Y8136D01*
X10173Y8136D01*
X10174Y8136D01*
X10174Y8136D01*
X10174Y8135D01*
X10174Y8135D01*
X10174Y8135D01*
X10174Y8135D01*
Y8135D01*
X10174Y8135D01*
X10174Y8134D01*
X10175Y8133D01*
X10175Y8133D01*
X10176Y8132D01*
X10177Y8132D01*
X10177Y8131D01*
X10177Y8131D01*
X10177Y8131D01*
X10177Y8131D01*
X10177Y8131D01*
X10177Y8131D01*
X10178Y8131D01*
X10179Y8130D01*
X10180Y8130D01*
X10181Y8130D01*
X10182Y8130D01*
X10183Y8129D01*
X10183Y8129D01*
X10184Y8129D01*
X10184D01*
X10185Y8129D01*
X10185D01*
X10185D01*
X10185D01*
X10187Y8129D01*
X10188Y8129D01*
X10188Y8130D01*
X10189Y8130D01*
X10189Y8130D01*
X10190Y8130D01*
X10190Y8130D01*
X10190Y8130D01*
X10191Y8130D01*
X10191Y8130D01*
X10191Y8130D01*
X10191Y8130D01*
X10191Y8130D01*
X10191D01*
X10192Y8131D01*
X10193Y8131D01*
X10194Y8131D01*
X10194Y8132D01*
X10195Y8132D01*
X10195Y8132D01*
X10195Y8132D01*
X10196Y8132D01*
X10196Y8133D01*
X10196Y8133D01*
X10196Y8133D01*
X10197Y8134D01*
X10197Y8134D01*
X10197Y8135D01*
X10197Y8135D01*
X10197Y8135D01*
X10197Y8135D01*
X10197Y8135D01*
Y8135D01*
X10197Y8136D01*
X10198Y8137D01*
X10198Y8138D01*
X10198Y8139D01*
X10198Y8139D01*
Y8140D01*
X10198Y8140D01*
Y8147D01*
D02*
G37*
G36*
X10058Y8144D02*
X10033D01*
Y8137D01*
X10033Y8136D01*
X10033Y8136D01*
X10034Y8135D01*
X10034Y8135D01*
X10034Y8134D01*
X10034Y8134D01*
X10034Y8133D01*
X10034Y8133D01*
X10034Y8133D01*
X10034Y8133D01*
X10034Y8132D01*
X10034Y8132D01*
X10034Y8132D01*
X10034Y8132D01*
Y8132D01*
X10034Y8132D01*
X10034Y8131D01*
X10035Y8130D01*
X10036Y8130D01*
X10036Y8129D01*
X10037Y8129D01*
X10037Y8128D01*
X10037Y8128D01*
X10037Y8128D01*
X10038Y8128D01*
X10038Y8128D01*
X10038Y8128D01*
X10038Y8128D01*
X10039Y8127D01*
X10040Y8127D01*
X10041Y8127D01*
X10043Y8127D01*
X10043Y8126D01*
X10044Y8126D01*
X10044Y8126D01*
X10045D01*
X10045Y8126D01*
X10045D01*
X10045D01*
X10046D01*
X10047Y8126D01*
X10048Y8126D01*
X10049Y8127D01*
X10049Y8127D01*
X10050Y8127D01*
X10050Y8127D01*
X10050Y8127D01*
X10051Y8127D01*
X10051Y8127D01*
X10051Y8127D01*
X10052Y8127D01*
X10052Y8127D01*
X10052Y8127D01*
X10052D01*
X10053Y8128D01*
X10053Y8128D01*
X10054Y8128D01*
X10055Y8129D01*
X10055Y8129D01*
X10056Y8129D01*
X10056Y8129D01*
X10056Y8130D01*
X10056Y8130D01*
X10056Y8130D01*
X10057Y8130D01*
X10057Y8131D01*
X10057Y8131D01*
X10057Y8132D01*
X10057Y8132D01*
X10057Y8132D01*
X10058Y8132D01*
X10058Y8132D01*
Y8132D01*
X10058Y8133D01*
X10058Y8134D01*
X10058Y8135D01*
X10058Y8136D01*
X10058Y8136D01*
Y8137D01*
X10058Y8137D01*
Y8144D01*
D02*
G37*
G36*
X9907Y8117D02*
X9907D01*
X9906D01*
X9906D01*
X9906D01*
X9906D01*
X9906D01*
X9905Y8117D01*
X9903Y8117D01*
X9902Y8116D01*
X9901Y8116D01*
X9900Y8116D01*
X9899Y8116D01*
X9898Y8116D01*
X9898Y8116D01*
X9897Y8115D01*
X9896Y8115D01*
X9896Y8115D01*
X9896Y8115D01*
X9895Y8115D01*
X9895Y8115D01*
X9895Y8115D01*
X9895Y8115D01*
X9895Y8114D01*
X9894Y8114D01*
X9894Y8114D01*
X9894Y8113D01*
X9894Y8113D01*
X9893Y8112D01*
X9893Y8112D01*
X9893Y8111D01*
X9893Y8111D01*
X9893Y8111D01*
X9893Y8110D01*
Y8110D01*
X9893Y8110D01*
X9893Y8109D01*
X9893Y8109D01*
X9893Y8108D01*
X9894Y8107D01*
X9894Y8107D01*
X9894Y8107D01*
X9895Y8106D01*
X9895Y8106D01*
X9895Y8106D01*
X9895Y8106D01*
X9895Y8106D01*
X9895Y8106D01*
X9895Y8106D01*
X9896Y8105D01*
X9897Y8105D01*
X9897Y8105D01*
X9898Y8104D01*
X9899Y8104D01*
X9900Y8104D01*
X9902Y8104D01*
X9903Y8104D01*
X9903Y8104D01*
X9904Y8104D01*
X9905Y8104D01*
X9905Y8104D01*
X9905D01*
X9906D01*
X9906D01*
X9906D01*
X9906D01*
X9906D01*
X9907Y8104D01*
X9909Y8104D01*
X9910Y8104D01*
X9911Y8104D01*
X9912Y8104D01*
X9913Y8104D01*
X9914Y8104D01*
X9914Y8105D01*
X9915Y8105D01*
X9915Y8105D01*
X9916Y8105D01*
X9916Y8105D01*
X9916Y8105D01*
X9916Y8106D01*
X9917Y8106D01*
X9917Y8106D01*
X9917Y8106D01*
X9917Y8106D01*
X9918Y8107D01*
X9918Y8107D01*
X9918Y8107D01*
X9919Y8108D01*
X9919Y8108D01*
X9919Y8109D01*
X9919Y8109D01*
X9919Y8109D01*
X9919Y8110D01*
Y8110D01*
X9919Y8110D01*
Y8110D01*
X9919Y8111D01*
X9919Y8111D01*
X9919Y8112D01*
X9919Y8112D01*
X9918Y8113D01*
X9918Y8113D01*
X9917Y8114D01*
X9917Y8114D01*
X9917Y8114D01*
X9917Y8115D01*
X9917Y8115D01*
X9917Y8115D01*
X9917Y8115D01*
X9916Y8115D01*
X9915Y8115D01*
X9915Y8116D01*
X9914Y8116D01*
X9913Y8116D01*
X9912Y8116D01*
X9910Y8116D01*
X9909Y8116D01*
X9909Y8117D01*
X9908Y8117D01*
X9907Y8117D01*
X9907Y8117D01*
D02*
G37*
G36*
X10337Y5938D02*
X10313D01*
Y5930D01*
X10313Y5930D01*
X10313Y5929D01*
X10313Y5928D01*
X10313Y5928D01*
X10313Y5928D01*
X10313Y5927D01*
X10313Y5927D01*
X10313Y5926D01*
X10313Y5926D01*
X10313Y5926D01*
X10313Y5926D01*
X10313Y5926D01*
X10313Y5925D01*
X10313Y5925D01*
Y5925D01*
X10313Y5925D01*
X10314Y5925D01*
X10314Y5924D01*
X10315Y5923D01*
X10315Y5922D01*
X10316Y5922D01*
X10316Y5922D01*
X10316Y5922D01*
X10317Y5922D01*
X10317Y5921D01*
X10317Y5921D01*
X10317Y5921D01*
X10317Y5921D01*
X10318Y5921D01*
X10319Y5920D01*
X10321Y5920D01*
X10322Y5920D01*
X10322Y5920D01*
X10323Y5920D01*
X10323Y5920D01*
X10324D01*
X10324Y5920D01*
X10324D01*
X10325D01*
X10325D01*
X10326Y5920D01*
X10327Y5920D01*
X10328Y5920D01*
X10328Y5920D01*
X10329Y5920D01*
X10329Y5920D01*
X10330Y5920D01*
X10330Y5920D01*
X10330Y5920D01*
X10330Y5920D01*
X10331Y5920D01*
X10331Y5921D01*
X10331Y5921D01*
X10331D01*
X10332Y5921D01*
X10333Y5921D01*
X10333Y5922D01*
X10334Y5922D01*
X10334Y5922D01*
X10335Y5923D01*
X10335Y5923D01*
X10335Y5923D01*
X10335Y5923D01*
X10335Y5923D01*
X10336Y5924D01*
X10336Y5924D01*
X10336Y5925D01*
X10336Y5925D01*
X10337Y5925D01*
X10337Y5926D01*
X10337Y5926D01*
X10337Y5926D01*
Y5926D01*
X10337Y5927D01*
X10337Y5927D01*
X10337Y5928D01*
X10337Y5929D01*
X10337Y5930D01*
Y5930D01*
X10337Y5930D01*
Y5938D01*
D02*
G37*
G36*
X9918Y5938D02*
X9893D01*
Y5930D01*
X9893Y5930D01*
X9894Y5929D01*
X9894Y5928D01*
X9894Y5928D01*
X9894Y5927D01*
X9894Y5927D01*
X9894Y5927D01*
X9894Y5926D01*
X9894Y5926D01*
X9894Y5926D01*
X9894Y5926D01*
X9894Y5926D01*
X9894Y5925D01*
X9894Y5925D01*
Y5925D01*
X9894Y5925D01*
X9895Y5924D01*
X9895Y5924D01*
X9896Y5923D01*
X9896Y5922D01*
X9897Y5922D01*
X9897Y5922D01*
X9897Y5922D01*
X9898Y5921D01*
X9898Y5921D01*
X9898Y5921D01*
X9898Y5921D01*
X9898Y5921D01*
X9899Y5921D01*
X9900Y5920D01*
X9901Y5920D01*
X9903Y5920D01*
X9903Y5920D01*
X9904Y5920D01*
X9904Y5920D01*
X9905D01*
X9905Y5920D01*
X9905D01*
X9905D01*
X9906D01*
X9907Y5920D01*
X9908Y5920D01*
X9909Y5920D01*
X9909Y5920D01*
X9910Y5920D01*
X9910Y5920D01*
X9910Y5920D01*
X9911Y5920D01*
X9911Y5920D01*
X9911Y5920D01*
X9912Y5920D01*
X9912Y5920D01*
X9912Y5920D01*
X9912D01*
X9913Y5921D01*
X9914Y5921D01*
X9914Y5922D01*
X9915Y5922D01*
X9915Y5922D01*
X9916Y5923D01*
X9916Y5923D01*
X9916Y5923D01*
X9916Y5923D01*
X9916Y5923D01*
X9917Y5924D01*
X9917Y5924D01*
X9917Y5925D01*
X9917Y5925D01*
X9917Y5925D01*
X9918Y5926D01*
X9918Y5926D01*
X9918Y5926D01*
Y5926D01*
X9918Y5926D01*
X9918Y5927D01*
X9918Y5928D01*
X9918Y5929D01*
X9918Y5930D01*
Y5930D01*
X9918Y5930D01*
Y5938D01*
D02*
G37*
G36*
X10198Y5938D02*
X10173D01*
Y5930D01*
X10173Y5929D01*
X10173Y5929D01*
X10173Y5928D01*
X10173Y5928D01*
X10173Y5927D01*
X10173Y5927D01*
X10173Y5927D01*
X10173Y5926D01*
X10174Y5926D01*
X10174Y5926D01*
X10174Y5926D01*
X10174Y5925D01*
X10174Y5925D01*
X10174Y5925D01*
Y5925D01*
X10174Y5925D01*
X10174Y5924D01*
X10175Y5924D01*
X10175Y5923D01*
X10176Y5922D01*
X10177Y5922D01*
X10177Y5922D01*
X10177Y5922D01*
X10177Y5921D01*
X10177Y5921D01*
X10177Y5921D01*
X10177Y5921D01*
X10178Y5921D01*
X10179Y5921D01*
X10180Y5920D01*
X10181Y5920D01*
X10182Y5920D01*
X10183Y5920D01*
X10183Y5920D01*
X10184Y5920D01*
X10184D01*
X10185Y5920D01*
X10185D01*
X10185D01*
X10185D01*
X10187Y5920D01*
X10188Y5920D01*
X10188Y5920D01*
X10189Y5920D01*
X10189Y5920D01*
X10190Y5920D01*
X10190Y5920D01*
X10190Y5920D01*
X10191Y5920D01*
X10191Y5920D01*
X10191Y5920D01*
X10191Y5920D01*
X10191Y5920D01*
X10191D01*
X10192Y5921D01*
X10193Y5921D01*
X10194Y5922D01*
X10194Y5922D01*
X10195Y5922D01*
X10195Y5922D01*
X10195Y5923D01*
X10196Y5923D01*
X10196Y5923D01*
X10196Y5923D01*
X10196Y5924D01*
X10197Y5924D01*
X10197Y5925D01*
X10197Y5925D01*
X10197Y5925D01*
X10197Y5925D01*
X10197Y5926D01*
X10197Y5926D01*
Y5926D01*
X10197Y5926D01*
X10198Y5927D01*
X10198Y5928D01*
X10198Y5929D01*
X10198Y5930D01*
Y5930D01*
X10198Y5930D01*
Y5938D01*
D02*
G37*
G36*
X10058Y5935D02*
X10033D01*
Y5927D01*
X10033Y5926D01*
X10033Y5926D01*
X10034Y5925D01*
X10034Y5925D01*
X10034Y5924D01*
X10034Y5924D01*
X10034Y5924D01*
X10034Y5923D01*
X10034Y5923D01*
X10034Y5923D01*
X10034Y5923D01*
X10034Y5922D01*
X10034Y5922D01*
X10034Y5922D01*
Y5922D01*
X10034Y5922D01*
X10034Y5921D01*
X10035Y5921D01*
X10036Y5920D01*
X10036Y5919D01*
X10037Y5919D01*
X10037Y5919D01*
X10037Y5919D01*
X10037Y5918D01*
X10038Y5918D01*
X10038Y5918D01*
X10038Y5918D01*
X10038Y5918D01*
X10039Y5918D01*
X10040Y5917D01*
X10041Y5917D01*
X10043Y5917D01*
X10043Y5917D01*
X10044Y5917D01*
X10044Y5917D01*
X10045D01*
X10045Y5917D01*
X10045D01*
X10045D01*
X10046D01*
X10047Y5917D01*
X10048Y5917D01*
X10049Y5917D01*
X10049Y5917D01*
X10050Y5917D01*
X10050Y5917D01*
X10050Y5917D01*
X10051Y5917D01*
X10051Y5917D01*
X10051Y5917D01*
X10052Y5917D01*
X10052Y5917D01*
X10052Y5917D01*
X10052D01*
X10053Y5918D01*
X10053Y5918D01*
X10054Y5919D01*
X10055Y5919D01*
X10055Y5919D01*
X10056Y5920D01*
X10056Y5920D01*
X10056Y5920D01*
X10056Y5920D01*
X10056Y5920D01*
X10057Y5921D01*
X10057Y5921D01*
X10057Y5922D01*
X10057Y5922D01*
X10057Y5922D01*
X10057Y5922D01*
X10058Y5923D01*
X10058Y5923D01*
Y5923D01*
X10058Y5923D01*
X10058Y5924D01*
X10058Y5925D01*
X10058Y5926D01*
X10058Y5927D01*
Y5927D01*
X10058Y5927D01*
Y5935D01*
D02*
G37*
G36*
X9907Y5907D02*
X9907D01*
X9906D01*
X9906D01*
X9906D01*
X9906D01*
X9906D01*
X9905Y5907D01*
X9903Y5907D01*
X9902Y5907D01*
X9901Y5906D01*
X9900Y5906D01*
X9899Y5906D01*
X9898Y5906D01*
X9898Y5906D01*
X9897Y5906D01*
X9896Y5905D01*
X9896Y5905D01*
X9896Y5905D01*
X9895Y5905D01*
X9895Y5905D01*
X9895Y5905D01*
X9895Y5905D01*
X9895Y5904D01*
X9894Y5904D01*
X9894Y5904D01*
X9894Y5903D01*
X9894Y5903D01*
X9893Y5903D01*
X9893Y5902D01*
X9893Y5901D01*
X9893Y5901D01*
X9893Y5901D01*
X9893Y5901D01*
Y5900D01*
X9893Y5900D01*
X9893Y5899D01*
X9893Y5899D01*
X9893Y5899D01*
X9894Y5898D01*
X9894Y5897D01*
X9894Y5897D01*
X9895Y5897D01*
X9895Y5896D01*
X9895Y5896D01*
X9895Y5896D01*
X9895Y5896D01*
X9895Y5896D01*
X9895Y5896D01*
X9896Y5895D01*
X9897Y5895D01*
X9897Y5895D01*
X9898Y5895D01*
X9899Y5895D01*
X9900Y5894D01*
X9902Y5894D01*
X9903Y5894D01*
X9903Y5894D01*
X9904Y5894D01*
X9905Y5894D01*
X9905Y5894D01*
X9905D01*
X9906D01*
X9906D01*
X9906D01*
X9906D01*
X9906D01*
X9907Y5894D01*
X9909Y5894D01*
X9910Y5894D01*
X9911Y5894D01*
X9912Y5894D01*
X9913Y5894D01*
X9914Y5895D01*
X9914Y5895D01*
X9915Y5895D01*
X9915Y5895D01*
X9916Y5895D01*
X9916Y5895D01*
X9916Y5896D01*
X9916Y5896D01*
X9917Y5896D01*
X9917Y5896D01*
X9917Y5896D01*
X9917Y5897D01*
X9918Y5897D01*
X9918Y5897D01*
X9918Y5898D01*
X9919Y5898D01*
X9919Y5898D01*
X9919Y5899D01*
X9919Y5899D01*
X9919Y5900D01*
X9919Y5900D01*
Y5900D01*
X9919Y5900D01*
Y5900D01*
X9919Y5901D01*
X9919Y5901D01*
X9919Y5902D01*
X9919Y5902D01*
X9918Y5903D01*
X9918Y5904D01*
X9917Y5904D01*
X9917Y5904D01*
X9917Y5905D01*
X9917Y5905D01*
X9917Y5905D01*
X9917Y5905D01*
X9917Y5905D01*
X9916Y5905D01*
X9915Y5906D01*
X9915Y5906D01*
X9914Y5906D01*
X9913Y5906D01*
X9912Y5906D01*
X9910Y5907D01*
X9909Y5907D01*
X9909Y5907D01*
X9908Y5907D01*
X9907Y5907D01*
X9907Y5907D01*
D02*
G37*
%LPD*%
D12*
X11125Y5499D02*
X11176D01*
X11201Y5474D01*
Y5372D01*
X11176Y5347D01*
X11125D01*
X11100Y5372D01*
Y5474D01*
X11125Y5499D01*
X11049Y5347D02*
Y5499D01*
X10947Y5347D01*
Y5499D01*
X11278Y6007D02*
X11328D01*
X11354Y5982D01*
Y5880D01*
X11328Y5855D01*
X11278D01*
X11252Y5880D01*
Y5982D01*
X11278Y6007D01*
X11100D02*
X11201D01*
Y5931D01*
X11151D01*
X11201D01*
Y5855D01*
X10948Y6007D02*
X11049D01*
Y5931D01*
X10998D01*
X11049D01*
Y5855D01*
X11125Y7709D02*
X11176D01*
X11201Y7683D01*
Y7582D01*
X11176Y7557D01*
X11125D01*
X11100Y7582D01*
Y7683D01*
X11125Y7709D01*
X11049Y7557D02*
Y7709D01*
X10947Y7557D01*
Y7709D01*
X11278Y8217D02*
X11328D01*
X11354Y8191D01*
Y8090D01*
X11328Y8064D01*
X11278D01*
X11252Y8090D01*
Y8191D01*
X11278Y8217D01*
X11100D02*
X11201D01*
Y8141D01*
X11151D01*
X11201D01*
Y8064D01*
X10948Y8217D02*
X11049D01*
Y8141D01*
X10998D01*
X11049D01*
Y8064D01*
D31*
X256Y2990D02*
X2415D01*
X256Y1047D02*
Y2990D01*
Y1047D02*
X2415D01*
Y2990D01*
X2466D02*
X4625D01*
X2466Y1047D02*
Y2990D01*
Y1047D02*
X4625D01*
Y2990D01*
D32*
X10493Y5097D02*
X10893D01*
X10493D02*
Y6257D01*
X10893D01*
Y5097D02*
Y6257D01*
X9697Y5467D02*
Y5887D01*
X9099Y5467D02*
Y5887D01*
X9285Y5377D02*
X9508D01*
X9285Y5976D02*
X9511D01*
X10493Y7307D02*
X10893D01*
X10493D02*
Y8467D01*
X10893D01*
Y7307D02*
Y8467D01*
X9697Y7677D02*
Y8097D01*
X9099Y7677D02*
Y8097D01*
X9285Y7587D02*
X9508D01*
X9285Y8186D02*
X9511D01*
X10622Y4376D02*
Y4666D01*
X9622D02*
X10622D01*
X9622Y4376D02*
Y4666D01*
Y4376D02*
X10622D01*
Y6586D02*
Y6876D01*
X9622D02*
X10622D01*
X9622Y6586D02*
Y6876D01*
Y6586D02*
X10622D01*
X319Y5737D02*
X744D01*
X319Y5337D02*
Y5737D01*
Y5337D02*
X744D01*
Y5737D01*
X319Y4866D02*
X744D01*
X319Y4466D02*
Y4866D01*
Y4466D02*
X744D01*
Y4866D01*
X7775Y3123D02*
Y3548D01*
Y3123D02*
X8175D01*
Y3548D01*
X7775D02*
X8175D01*
X7163Y3123D02*
Y3548D01*
Y3123D02*
X7563D01*
Y3548D01*
X7163D02*
X7563D01*
X7580Y7135D02*
Y7785D01*
Y7135D02*
X8020D01*
Y7785D01*
X7580D02*
X8020D01*
X7880Y7942D02*
Y8232D01*
X7720D02*
X7880D01*
X7720Y7942D02*
Y8232D01*
Y7942D02*
X7880D01*
X6772Y7224D02*
X6822D01*
Y7324D01*
X6772D02*
X6822D01*
X6772Y7224D02*
Y7324D01*
X6909D02*
X6959D01*
X6909Y7224D02*
Y7324D01*
Y7224D02*
X6959D01*
Y7324D01*
X8441Y7703D02*
X8491D01*
X8441Y7603D02*
Y7703D01*
Y7603D02*
X8491D01*
Y7703D01*
X7272Y7470D02*
X7327D01*
Y7575D01*
X7272D02*
X7327D01*
X7272Y7470D02*
Y7575D01*
X7267Y7284D02*
X7317D01*
X7267Y7184D02*
Y7284D01*
Y7184D02*
X7317D01*
Y7284D01*
X7125Y7701D02*
X7180D01*
X7125Y7596D02*
Y7701D01*
Y7596D02*
X7180D01*
Y7701D01*
X8294Y7699D02*
X8343D01*
Y7799D01*
X8294D02*
X8343D01*
X8294Y7699D02*
Y7799D01*
X7267Y7641D02*
X7317D01*
Y7741D01*
X7267D02*
X7317D01*
X7267Y7641D02*
Y7741D01*
X7720Y6738D02*
Y7028D01*
Y6738D02*
X7880D01*
Y7028D01*
X7720D02*
X7880D01*
X6975Y5789D02*
X7025D01*
Y5889D01*
X6975D02*
X7025D01*
X6975Y5789D02*
Y5889D01*
Y6028D02*
X7025D01*
Y6128D01*
X6975D02*
X7025D01*
X6975Y6028D02*
Y6128D01*
X8314Y5908D02*
X8364D01*
Y6008D01*
X8314D02*
X8364D01*
X8314Y5908D02*
Y6008D01*
X7865Y4029D02*
X7990D01*
X7865Y3829D02*
Y4029D01*
Y3829D02*
X7990D01*
Y4029D01*
X7245Y4048D02*
X7370D01*
X7245Y3848D02*
Y4048D01*
Y3848D02*
X7370D01*
Y4048D01*
D44*
X9186Y6132D02*
G03*
X9186Y6132I-12J0D01*
G01*
Y8342D02*
G03*
X9186Y8342I-12J0D01*
G01*
D64*
X9866Y5842D02*
X9946D01*
X10285D02*
X10365D01*
X10145D02*
X10225D01*
X10006D02*
X10086D01*
X9866Y8052D02*
X9946D01*
X10285D02*
X10365D01*
X10145D02*
X10225D01*
X10006D02*
X10086D01*
M02*
