%TF.GenerationSoftware,Altium Limited,Altium Designer,24.2.2 (26)*%
G04 Layer_Color=32896*
%FSLAX45Y45*%
%MOMM*%
%TF.SameCoordinates,E03CB206-BB87-4E68-BEA4-A169BFC7E2EA*%
%TF.FilePolarity,Positive*%
%TF.FileFunction,Legend,Bot*%
%TF.Part,CustomerPanel*%
G01*
G75*
%TA.AperFunction,NonConductor*%
%ADD43C,0.20000*%
%ADD44C,0.25000*%
%ADD49C,0.40000*%
%ADD50C,0.25400*%
G36*
X10833547Y7664994D02*
X10813322D01*
Y7668815D01*
X10829271D01*
Y7697347D01*
X10833547D01*
Y7664994D01*
D02*
G37*
G36*
X10808135D02*
X10783984D01*
Y7668815D01*
X10803858D01*
Y7679821D01*
X10785947D01*
Y7683642D01*
X10803858D01*
Y7693527D01*
X10784720D01*
Y7697347D01*
X10808135D01*
Y7664994D01*
D02*
G37*
G36*
X10778095D02*
X10766423D01*
X10765371Y7665029D01*
X10764390Y7665064D01*
X10763513Y7665170D01*
X10762742Y7665275D01*
X10762427Y7665310D01*
X10762146Y7665345D01*
X10761866Y7665415D01*
X10761656Y7665450D01*
X10761480Y7665485D01*
X10761375D01*
X10761305Y7665520D01*
X10761270D01*
X10760464Y7665765D01*
X10759693Y7666011D01*
X10759027Y7666291D01*
X10758466Y7666537D01*
X10758010Y7666782D01*
X10757660Y7666957D01*
X10757449Y7667097D01*
X10757414Y7667132D01*
X10757379D01*
X10756783Y7667588D01*
X10756223Y7668044D01*
X10755732Y7668535D01*
X10755311Y7669025D01*
X10754926Y7669446D01*
X10754680Y7669761D01*
X10754575Y7669902D01*
X10754505Y7670007D01*
X10754435Y7670042D01*
Y7670077D01*
X10753944Y7670813D01*
X10753524Y7671584D01*
X10753138Y7672390D01*
X10752823Y7673126D01*
X10752577Y7673792D01*
X10752472Y7674073D01*
X10752367Y7674318D01*
X10752332Y7674493D01*
X10752262Y7674634D01*
X10752227Y7674739D01*
Y7674774D01*
X10751946Y7675895D01*
X10751736Y7677017D01*
X10751561Y7678104D01*
X10751456Y7679120D01*
X10751420Y7679576D01*
X10751385Y7679997D01*
Y7680382D01*
X10751350Y7680698D01*
Y7680978D01*
Y7681153D01*
Y7681294D01*
Y7681329D01*
X10751420Y7682906D01*
X10751456Y7683642D01*
X10751561Y7684343D01*
X10751666Y7685009D01*
X10751771Y7685640D01*
X10751876Y7686236D01*
X10751981Y7686797D01*
X10752121Y7687287D01*
X10752227Y7687708D01*
X10752332Y7688094D01*
X10752437Y7688409D01*
X10752542Y7688654D01*
X10752577Y7688865D01*
X10752647Y7688970D01*
Y7689005D01*
X10753173Y7690197D01*
X10753769Y7691283D01*
X10754084Y7691774D01*
X10754400Y7692230D01*
X10754715Y7692650D01*
X10755031Y7693036D01*
X10755311Y7693386D01*
X10755592Y7693667D01*
X10755837Y7693947D01*
X10756047Y7694158D01*
X10756223Y7694333D01*
X10756363Y7694438D01*
X10756433Y7694508D01*
X10756468Y7694543D01*
X10757239Y7695139D01*
X10758045Y7695630D01*
X10758816Y7696015D01*
X10759553Y7696331D01*
X10760219Y7696576D01*
X10760499Y7696646D01*
X10760744Y7696716D01*
X10760920Y7696786D01*
X10761060Y7696822D01*
X10761165Y7696857D01*
X10761200D01*
X10761586Y7696927D01*
X10762006Y7697032D01*
X10762953Y7697137D01*
X10763899Y7697242D01*
X10764845Y7697277D01*
X10765266Y7697312D01*
X10765687D01*
X10766037Y7697347D01*
X10778095D01*
Y7664994D01*
D02*
G37*
G36*
X10737154Y7697417D02*
X10737785Y7697382D01*
X10738381Y7697277D01*
X10738942Y7697172D01*
X10739433Y7697032D01*
X10739923Y7696857D01*
X10740379Y7696681D01*
X10740765Y7696506D01*
X10741150Y7696331D01*
X10741466Y7696156D01*
X10741746Y7696015D01*
X10741956Y7695840D01*
X10742132Y7695735D01*
X10742272Y7695630D01*
X10742342Y7695595D01*
X10742377Y7695560D01*
X10742798Y7695174D01*
X10743183Y7694789D01*
X10743884Y7693912D01*
X10744515Y7693036D01*
X10745006Y7692160D01*
X10745216Y7691739D01*
X10745392Y7691388D01*
X10745532Y7691038D01*
X10745672Y7690758D01*
X10745742Y7690512D01*
X10745812Y7690302D01*
X10745882Y7690197D01*
Y7690162D01*
X10746093Y7689496D01*
X10746268Y7688760D01*
X10746548Y7687252D01*
X10746759Y7685710D01*
X10746829Y7684974D01*
X10746899Y7684238D01*
X10746934Y7683572D01*
X10746969Y7682941D01*
X10747004Y7682380D01*
Y7681889D01*
X10747039Y7681504D01*
Y7681188D01*
Y7681013D01*
Y7680943D01*
X10747004Y7679296D01*
X10746899Y7677753D01*
X10746759Y7676351D01*
X10746548Y7675054D01*
X10746303Y7673862D01*
X10746022Y7672776D01*
X10745742Y7671829D01*
X10745427Y7670953D01*
X10745146Y7670217D01*
X10744866Y7669551D01*
X10744585Y7669025D01*
X10744340Y7668570D01*
X10744130Y7668219D01*
X10743989Y7667974D01*
X10743884Y7667834D01*
X10743849Y7667798D01*
X10743323Y7667203D01*
X10742763Y7666712D01*
X10742167Y7666256D01*
X10741571Y7665871D01*
X10740975Y7665555D01*
X10740344Y7665275D01*
X10739748Y7665064D01*
X10739187Y7664889D01*
X10738626Y7664749D01*
X10738136Y7664644D01*
X10737680Y7664574D01*
X10737295Y7664539D01*
X10736979Y7664504D01*
X10736734Y7664469D01*
X10736523D01*
X10735857Y7664504D01*
X10735261Y7664539D01*
X10734666Y7664644D01*
X10734105Y7664749D01*
X10733579Y7664924D01*
X10733123Y7665064D01*
X10732668Y7665240D01*
X10732282Y7665415D01*
X10731896Y7665590D01*
X10731581Y7665765D01*
X10731301Y7665941D01*
X10731090Y7666081D01*
X10730915Y7666186D01*
X10730775Y7666291D01*
X10730705Y7666326D01*
X10730670Y7666361D01*
X10730249Y7666747D01*
X10729828Y7667132D01*
X10729127Y7668009D01*
X10728532Y7668885D01*
X10728041Y7669761D01*
X10727830Y7670182D01*
X10727655Y7670568D01*
X10727515Y7670883D01*
X10727375Y7671199D01*
X10727270Y7671409D01*
X10727235Y7671619D01*
X10727164Y7671724D01*
Y7671759D01*
X10726954Y7672425D01*
X10726779Y7673161D01*
X10726463Y7674669D01*
X10726253Y7676211D01*
X10726183Y7676947D01*
X10726113Y7677683D01*
X10726078Y7678349D01*
X10726043Y7678980D01*
X10726008Y7679506D01*
X10725973Y7679997D01*
Y7680382D01*
Y7680698D01*
Y7680873D01*
Y7680943D01*
Y7681819D01*
X10726008Y7682661D01*
X10726043Y7683432D01*
X10726078Y7684168D01*
X10726148Y7684834D01*
X10726218Y7685465D01*
X10726288Y7686026D01*
X10726323Y7686551D01*
X10726393Y7687007D01*
X10726463Y7687393D01*
X10726534Y7687743D01*
X10726604Y7688023D01*
X10726639Y7688269D01*
X10726674Y7688409D01*
X10726709Y7688514D01*
Y7688549D01*
X10726989Y7689566D01*
X10727340Y7690512D01*
X10727655Y7691318D01*
X10727971Y7692019D01*
X10728146Y7692300D01*
X10728251Y7692580D01*
X10728391Y7692826D01*
X10728496Y7693001D01*
X10728602Y7693141D01*
X10728637Y7693246D01*
X10728707Y7693316D01*
Y7693351D01*
X10729197Y7694052D01*
X10729758Y7694683D01*
X10730284Y7695209D01*
X10730810Y7695630D01*
X10731266Y7695980D01*
X10731616Y7696191D01*
X10731756Y7696296D01*
X10731861Y7696366D01*
X10731932Y7696401D01*
X10731967D01*
X10732738Y7696751D01*
X10733509Y7696997D01*
X10734280Y7697207D01*
X10734981Y7697312D01*
X10735612Y7697382D01*
X10735857Y7697417D01*
X10736103Y7697452D01*
X10736523D01*
X10737154Y7697417D01*
D02*
G37*
G36*
X10732054Y7556683D02*
X10732580Y7555912D01*
X10733176Y7555176D01*
X10733772Y7554545D01*
X10734298Y7553949D01*
X10734543Y7553739D01*
X10734718Y7553528D01*
X10734893Y7553353D01*
X10735034Y7553248D01*
X10735104Y7553178D01*
X10735139Y7553143D01*
X10736085Y7552336D01*
X10737102Y7551635D01*
X10738083Y7550969D01*
X10738995Y7550409D01*
X10739380Y7550198D01*
X10739766Y7549988D01*
X10740116Y7549778D01*
X10740397Y7549637D01*
X10740642Y7549532D01*
X10740817Y7549427D01*
X10740922Y7549392D01*
X10740957Y7549357D01*
Y7545536D01*
X10740256Y7545817D01*
X10739520Y7546132D01*
X10738819Y7546483D01*
X10738188Y7546798D01*
X10737627Y7547114D01*
X10737382Y7547219D01*
X10737172Y7547359D01*
X10736997Y7547429D01*
X10736891Y7547499D01*
X10736821Y7547569D01*
X10736786D01*
X10735945Y7548095D01*
X10735209Y7548586D01*
X10734543Y7549042D01*
X10734017Y7549462D01*
X10733561Y7549813D01*
X10733246Y7550058D01*
X10733071Y7550233D01*
X10733001Y7550303D01*
Y7525031D01*
X10729040D01*
Y7557489D01*
X10731599D01*
X10732054Y7556683D01*
D02*
G37*
G36*
X10830480Y7525031D02*
X10810255D01*
Y7528852D01*
X10826204D01*
Y7557384D01*
X10830480D01*
Y7525031D01*
D02*
G37*
G36*
X10805068D02*
X10780917D01*
Y7528852D01*
X10800791D01*
Y7539858D01*
X10782880D01*
Y7543679D01*
X10800791D01*
Y7553563D01*
X10781653D01*
Y7557384D01*
X10805068D01*
Y7525031D01*
D02*
G37*
G36*
X10775028D02*
X10763356D01*
X10762304Y7525066D01*
X10761323Y7525101D01*
X10760446Y7525206D01*
X10759675Y7525311D01*
X10759360Y7525346D01*
X10759079Y7525381D01*
X10758799Y7525452D01*
X10758589Y7525487D01*
X10758413Y7525522D01*
X10758308D01*
X10758238Y7525557D01*
X10758203D01*
X10757397Y7525802D01*
X10756626Y7526047D01*
X10755960Y7526328D01*
X10755399Y7526573D01*
X10754943Y7526819D01*
X10754593Y7526994D01*
X10754382Y7527134D01*
X10754347Y7527169D01*
X10754312D01*
X10753716Y7527625D01*
X10753156Y7528080D01*
X10752665Y7528571D01*
X10752244Y7529062D01*
X10751859Y7529483D01*
X10751613Y7529798D01*
X10751508Y7529938D01*
X10751438Y7530043D01*
X10751368Y7530078D01*
Y7530113D01*
X10750877Y7530850D01*
X10750457Y7531621D01*
X10750071Y7532427D01*
X10749755Y7533163D01*
X10749510Y7533829D01*
X10749405Y7534109D01*
X10749300Y7534355D01*
X10749265Y7534530D01*
X10749195Y7534670D01*
X10749160Y7534775D01*
Y7534810D01*
X10748879Y7535932D01*
X10748669Y7537054D01*
X10748494Y7538140D01*
X10748388Y7539157D01*
X10748353Y7539613D01*
X10748318Y7540033D01*
Y7540419D01*
X10748283Y7540734D01*
Y7541015D01*
Y7541190D01*
Y7541330D01*
Y7541365D01*
X10748353Y7542942D01*
X10748388Y7543679D01*
X10748494Y7544380D01*
X10748599Y7545046D01*
X10748704Y7545677D01*
X10748809Y7546272D01*
X10748914Y7546833D01*
X10749054Y7547324D01*
X10749160Y7547745D01*
X10749265Y7548130D01*
X10749370Y7548446D01*
X10749475Y7548691D01*
X10749510Y7548901D01*
X10749580Y7549006D01*
Y7549042D01*
X10750106Y7550233D01*
X10750702Y7551320D01*
X10751017Y7551811D01*
X10751333Y7552266D01*
X10751648Y7552687D01*
X10751964Y7553073D01*
X10752244Y7553423D01*
X10752525Y7553703D01*
X10752770Y7553984D01*
X10752980Y7554194D01*
X10753156Y7554369D01*
X10753296Y7554475D01*
X10753366Y7554545D01*
X10753401Y7554580D01*
X10754172Y7555176D01*
X10754978Y7555666D01*
X10755749Y7556052D01*
X10756485Y7556367D01*
X10757151Y7556613D01*
X10757432Y7556683D01*
X10757677Y7556753D01*
X10757852Y7556823D01*
X10757993Y7556858D01*
X10758098Y7556893D01*
X10758133D01*
X10758518Y7556963D01*
X10758939Y7557068D01*
X10759886Y7557174D01*
X10760832Y7557279D01*
X10761778Y7557314D01*
X10762199Y7557349D01*
X10762620D01*
X10762970Y7557384D01*
X10775028D01*
Y7525031D01*
D02*
G37*
G36*
X10737084Y7417754D02*
X10737891Y7417684D01*
X10738627Y7417579D01*
X10739328Y7417404D01*
X10739994Y7417228D01*
X10740590Y7417018D01*
X10741150Y7416808D01*
X10741641Y7416598D01*
X10742097Y7416352D01*
X10742482Y7416142D01*
X10742833Y7415932D01*
X10743113Y7415756D01*
X10743324Y7415581D01*
X10743464Y7415476D01*
X10743569Y7415406D01*
X10743604Y7415371D01*
X10744095Y7414915D01*
X10744515Y7414389D01*
X10744901Y7413864D01*
X10745252Y7413268D01*
X10745532Y7412707D01*
X10745812Y7412146D01*
X10746023Y7411550D01*
X10746198Y7411024D01*
X10746373Y7410499D01*
X10746478Y7410008D01*
X10746584Y7409552D01*
X10746654Y7409167D01*
X10746689Y7408851D01*
X10746724Y7408641D01*
X10746759Y7408501D01*
Y7408430D01*
X10742693Y7408010D01*
X10742658Y7408571D01*
X10742623Y7409096D01*
X10742412Y7410008D01*
X10742132Y7410849D01*
X10741992Y7411200D01*
X10741816Y7411515D01*
X10741676Y7411795D01*
X10741501Y7412041D01*
X10741361Y7412251D01*
X10741256Y7412426D01*
X10741115Y7412567D01*
X10741045Y7412672D01*
X10741010Y7412707D01*
X10740975Y7412742D01*
X10740625Y7413057D01*
X10740274Y7413338D01*
X10739889Y7413548D01*
X10739503Y7413758D01*
X10738732Y7414074D01*
X10737996Y7414284D01*
X10737365Y7414389D01*
X10737084Y7414459D01*
X10736839D01*
X10736629Y7414494D01*
X10735858D01*
X10735367Y7414424D01*
X10734491Y7414249D01*
X10733755Y7413969D01*
X10733089Y7413688D01*
X10732598Y7413373D01*
X10732387Y7413233D01*
X10732212Y7413092D01*
X10732072Y7412987D01*
X10731967Y7412917D01*
X10731932Y7412882D01*
X10731897Y7412847D01*
X10731581Y7412532D01*
X10731336Y7412216D01*
X10731091Y7411901D01*
X10730915Y7411550D01*
X10730600Y7410884D01*
X10730390Y7410253D01*
X10730284Y7409727D01*
X10730214Y7409482D01*
Y7409272D01*
X10730179Y7409131D01*
Y7408991D01*
Y7408921D01*
Y7408886D01*
X10730214Y7408465D01*
X10730249Y7408045D01*
X10730460Y7407204D01*
X10730775Y7406397D01*
X10731126Y7405661D01*
X10731476Y7405030D01*
X10731616Y7404785D01*
X10731792Y7404540D01*
X10731897Y7404364D01*
X10732002Y7404224D01*
X10732037Y7404154D01*
X10732072Y7404119D01*
X10732458Y7403628D01*
X10732913Y7403103D01*
X10733439Y7402542D01*
X10734000Y7401981D01*
X10735157Y7400824D01*
X10736348Y7399738D01*
X10736909Y7399212D01*
X10737470Y7398756D01*
X10737961Y7398335D01*
X10738381Y7397985D01*
X10738732Y7397669D01*
X10738977Y7397459D01*
X10739153Y7397284D01*
X10739223Y7397249D01*
X10739854Y7396723D01*
X10740414Y7396232D01*
X10740975Y7395777D01*
X10741466Y7395321D01*
X10741957Y7394900D01*
X10742377Y7394480D01*
X10742763Y7394129D01*
X10743113Y7393779D01*
X10743429Y7393463D01*
X10743674Y7393183D01*
X10743920Y7392937D01*
X10744095Y7392762D01*
X10744270Y7392587D01*
X10744375Y7392482D01*
X10744410Y7392412D01*
X10744445Y7392377D01*
X10745076Y7391605D01*
X10745602Y7390834D01*
X10746058Y7390098D01*
X10746408Y7389432D01*
X10746689Y7388871D01*
X10746794Y7388626D01*
X10746899Y7388451D01*
X10746969Y7388276D01*
X10747004Y7388170D01*
X10747039Y7388100D01*
Y7388065D01*
X10747214Y7387575D01*
X10747320Y7387084D01*
X10747425Y7386628D01*
X10747460Y7386207D01*
X10747495Y7385857D01*
Y7385577D01*
Y7385401D01*
Y7385331D01*
X10726078D01*
Y7389152D01*
X10742027D01*
X10741466Y7389923D01*
X10741186Y7390274D01*
X10740905Y7390589D01*
X10740660Y7390869D01*
X10740484Y7391080D01*
X10740344Y7391220D01*
X10740309Y7391255D01*
X10740099Y7391465D01*
X10739818Y7391746D01*
X10739503Y7392026D01*
X10739153Y7392342D01*
X10738416Y7393043D01*
X10737645Y7393709D01*
X10736909Y7394340D01*
X10736594Y7394620D01*
X10736278Y7394865D01*
X10736068Y7395076D01*
X10735858Y7395216D01*
X10735752Y7395321D01*
X10735717Y7395356D01*
X10734946Y7396022D01*
X10734210Y7396653D01*
X10733544Y7397214D01*
X10732948Y7397775D01*
X10732387Y7398265D01*
X10731897Y7398756D01*
X10731441Y7399177D01*
X10731020Y7399562D01*
X10730670Y7399878D01*
X10730390Y7400193D01*
X10730144Y7400439D01*
X10729934Y7400649D01*
X10729794Y7400824D01*
X10729653Y7400929D01*
X10729618Y7400999D01*
X10729583Y7401034D01*
X10728917Y7401806D01*
X10728392Y7402507D01*
X10727936Y7403173D01*
X10727550Y7403769D01*
X10727270Y7404259D01*
X10727060Y7404645D01*
X10726989Y7404785D01*
X10726954Y7404890D01*
X10726919Y7404925D01*
Y7404960D01*
X10726639Y7405661D01*
X10726464Y7406362D01*
X10726323Y7406993D01*
X10726218Y7407589D01*
X10726148Y7408080D01*
X10726113Y7408465D01*
Y7408606D01*
Y7408711D01*
Y7408746D01*
Y7408781D01*
X10726148Y7409482D01*
X10726218Y7410148D01*
X10726359Y7410779D01*
X10726534Y7411410D01*
X10726744Y7411971D01*
X10726989Y7412496D01*
X10727235Y7412987D01*
X10727480Y7413408D01*
X10727726Y7413828D01*
X10727971Y7414179D01*
X10728216Y7414494D01*
X10728427Y7414740D01*
X10728602Y7414915D01*
X10728742Y7415090D01*
X10728812Y7415160D01*
X10728847Y7415195D01*
X10729373Y7415651D01*
X10729934Y7416037D01*
X10730530Y7416387D01*
X10731161Y7416703D01*
X10731757Y7416948D01*
X10732387Y7417158D01*
X10732983Y7417334D01*
X10733579Y7417474D01*
X10734105Y7417579D01*
X10734631Y7417649D01*
X10735086Y7417719D01*
X10735472Y7417754D01*
X10735788Y7417789D01*
X10736243D01*
X10737084Y7417754D01*
D02*
G37*
G36*
X10833442Y7385331D02*
X10813217D01*
Y7389152D01*
X10829166D01*
Y7417684D01*
X10833442D01*
Y7385331D01*
D02*
G37*
G36*
X10808030D02*
X10783879D01*
Y7389152D01*
X10803753D01*
Y7400158D01*
X10785842D01*
Y7403979D01*
X10803753D01*
Y7413864D01*
X10784615D01*
Y7417684D01*
X10808030D01*
Y7385331D01*
D02*
G37*
G36*
X10777990D02*
X10766318D01*
X10765266Y7385366D01*
X10764285Y7385401D01*
X10763408Y7385506D01*
X10762637Y7385612D01*
X10762322Y7385647D01*
X10762041Y7385682D01*
X10761761Y7385752D01*
X10761551Y7385787D01*
X10761375Y7385822D01*
X10761270D01*
X10761200Y7385857D01*
X10761165D01*
X10760359Y7386102D01*
X10759588Y7386348D01*
X10758922Y7386628D01*
X10758361Y7386873D01*
X10757905Y7387119D01*
X10757555Y7387294D01*
X10757344Y7387434D01*
X10757309Y7387469D01*
X10757274D01*
X10756679Y7387925D01*
X10756118Y7388381D01*
X10755627Y7388871D01*
X10755206Y7389362D01*
X10754821Y7389783D01*
X10754575Y7390098D01*
X10754470Y7390238D01*
X10754400Y7390344D01*
X10754330Y7390379D01*
Y7390414D01*
X10753839Y7391150D01*
X10753419Y7391921D01*
X10753033Y7392727D01*
X10752718Y7393463D01*
X10752472Y7394129D01*
X10752367Y7394410D01*
X10752262Y7394655D01*
X10752227Y7394830D01*
X10752157Y7394970D01*
X10752122Y7395076D01*
Y7395111D01*
X10751841Y7396232D01*
X10751631Y7397354D01*
X10751456Y7398441D01*
X10751351Y7399457D01*
X10751316Y7399913D01*
X10751281Y7400333D01*
Y7400719D01*
X10751245Y7401034D01*
Y7401315D01*
Y7401490D01*
Y7401630D01*
Y7401665D01*
X10751316Y7403243D01*
X10751351Y7403979D01*
X10751456Y7404680D01*
X10751561Y7405346D01*
X10751666Y7405977D01*
X10751771Y7406573D01*
X10751876Y7407134D01*
X10752017Y7407624D01*
X10752122Y7408045D01*
X10752227Y7408430D01*
X10752332Y7408746D01*
X10752437Y7408991D01*
X10752472Y7409202D01*
X10752542Y7409307D01*
Y7409342D01*
X10753068Y7410534D01*
X10753664Y7411620D01*
X10753980Y7412111D01*
X10754295Y7412567D01*
X10754610Y7412987D01*
X10754926Y7413373D01*
X10755206Y7413723D01*
X10755487Y7414004D01*
X10755732Y7414284D01*
X10755942Y7414494D01*
X10756118Y7414670D01*
X10756258Y7414775D01*
X10756328Y7414845D01*
X10756363Y7414880D01*
X10757134Y7415476D01*
X10757940Y7415967D01*
X10758712Y7416352D01*
X10759448Y7416668D01*
X10760114Y7416913D01*
X10760394Y7416983D01*
X10760639Y7417053D01*
X10760815Y7417123D01*
X10760955Y7417158D01*
X10761060Y7417193D01*
X10761095D01*
X10761481Y7417264D01*
X10761901Y7417369D01*
X10762848Y7417474D01*
X10763794Y7417579D01*
X10764740Y7417614D01*
X10765161Y7417649D01*
X10765582D01*
X10765932Y7417684D01*
X10777990D01*
Y7385331D01*
D02*
G37*
G36*
X10737698Y7278334D02*
X10738364Y7278264D01*
X10738995Y7278159D01*
X10739625Y7278019D01*
X10740186Y7277844D01*
X10740712Y7277668D01*
X10741203Y7277458D01*
X10741623Y7277283D01*
X10742044Y7277073D01*
X10742395Y7276862D01*
X10742675Y7276687D01*
X10742955Y7276512D01*
X10743131Y7276372D01*
X10743306Y7276266D01*
X10743376Y7276196D01*
X10743411Y7276161D01*
X10743867Y7275741D01*
X10744287Y7275250D01*
X10744673Y7274759D01*
X10745023Y7274268D01*
X10745339Y7273743D01*
X10745584Y7273252D01*
X10746040Y7272235D01*
X10746215Y7271780D01*
X10746355Y7271359D01*
X10746461Y7270974D01*
X10746566Y7270658D01*
X10746636Y7270378D01*
X10746671Y7270167D01*
X10746706Y7270027D01*
Y7269992D01*
X10742745Y7269291D01*
X10742535Y7270308D01*
X10742254Y7271184D01*
X10741939Y7271955D01*
X10741588Y7272551D01*
X10741308Y7273042D01*
X10741028Y7273357D01*
X10740852Y7273567D01*
X10740782Y7273637D01*
X10740151Y7274128D01*
X10739520Y7274479D01*
X10738854Y7274759D01*
X10738258Y7274934D01*
X10737698Y7275040D01*
X10737487Y7275075D01*
X10737277D01*
X10737102Y7275110D01*
X10736891D01*
X10736050Y7275040D01*
X10735314Y7274899D01*
X10734648Y7274654D01*
X10734087Y7274409D01*
X10733667Y7274128D01*
X10733351Y7273883D01*
X10733141Y7273743D01*
X10733071Y7273673D01*
X10732790Y7273392D01*
X10732580Y7273112D01*
X10732194Y7272481D01*
X10731914Y7271885D01*
X10731739Y7271324D01*
X10731634Y7270798D01*
X10731599Y7270413D01*
X10731563Y7270237D01*
Y7270132D01*
Y7270062D01*
Y7270027D01*
X10731599Y7269536D01*
X10731669Y7269081D01*
X10731739Y7268625D01*
X10731879Y7268239D01*
X10732229Y7267538D01*
X10732580Y7266978D01*
X10732966Y7266522D01*
X10733316Y7266206D01*
X10733456Y7266101D01*
X10733526Y7266031D01*
X10733597Y7265961D01*
X10733632D01*
X10734403Y7265505D01*
X10735209Y7265190D01*
X10735980Y7264945D01*
X10736681Y7264804D01*
X10737277Y7264699D01*
X10737522Y7264664D01*
X10737768D01*
X10737943Y7264629D01*
X10738399D01*
X10738609Y7264664D01*
X10738784Y7264699D01*
X10738854D01*
X10739275Y7261229D01*
X10738679Y7261369D01*
X10738118Y7261474D01*
X10737663Y7261545D01*
X10737242Y7261615D01*
X10736926D01*
X10736681Y7261650D01*
X10736471D01*
X10735980Y7261615D01*
X10735489Y7261580D01*
X10734613Y7261369D01*
X10733842Y7261089D01*
X10733176Y7260773D01*
X10732650Y7260423D01*
X10732440Y7260283D01*
X10732265Y7260142D01*
X10732124Y7260037D01*
X10732019Y7259932D01*
X10731984Y7259897D01*
X10731949Y7259862D01*
X10731634Y7259512D01*
X10731353Y7259161D01*
X10731108Y7258810D01*
X10730898Y7258425D01*
X10730582Y7257689D01*
X10730337Y7256953D01*
X10730232Y7256322D01*
X10730196Y7256076D01*
X10730161Y7255831D01*
X10730126Y7255656D01*
Y7255481D01*
Y7255410D01*
Y7255375D01*
X10730161Y7254850D01*
X10730196Y7254359D01*
X10730442Y7253412D01*
X10730722Y7252606D01*
X10731073Y7251905D01*
X10731283Y7251590D01*
X10731458Y7251344D01*
X10731599Y7251099D01*
X10731739Y7250924D01*
X10731879Y7250784D01*
X10731984Y7250678D01*
X10732019Y7250608D01*
X10732054Y7250573D01*
X10732440Y7250223D01*
X10732825Y7249942D01*
X10733211Y7249697D01*
X10733597Y7249452D01*
X10734403Y7249101D01*
X10735174Y7248891D01*
X10735805Y7248751D01*
X10736120Y7248715D01*
X10736331Y7248680D01*
X10736541Y7248645D01*
X10736821D01*
X10737663Y7248715D01*
X10738469Y7248891D01*
X10739135Y7249101D01*
X10739731Y7249381D01*
X10740221Y7249662D01*
X10740572Y7249872D01*
X10740677Y7249977D01*
X10740782Y7250047D01*
X10740817Y7250118D01*
X10740852D01*
X10741133Y7250433D01*
X10741413Y7250749D01*
X10741904Y7251485D01*
X10742289Y7252291D01*
X10742605Y7253097D01*
X10742850Y7253833D01*
X10742920Y7254149D01*
X10742990Y7254429D01*
X10743061Y7254674D01*
X10743096Y7254850D01*
X10743131Y7254955D01*
Y7254990D01*
X10747092Y7254464D01*
X10746986Y7253728D01*
X10746846Y7253027D01*
X10746636Y7252361D01*
X10746426Y7251730D01*
X10746180Y7251134D01*
X10745900Y7250608D01*
X10745619Y7250083D01*
X10745339Y7249662D01*
X10745059Y7249241D01*
X10744813Y7248891D01*
X10744568Y7248575D01*
X10744357Y7248330D01*
X10744147Y7248120D01*
X10744007Y7247979D01*
X10743937Y7247909D01*
X10743902Y7247874D01*
X10743376Y7247419D01*
X10742780Y7247033D01*
X10742219Y7246718D01*
X10741623Y7246402D01*
X10741028Y7246157D01*
X10740432Y7245981D01*
X10739871Y7245806D01*
X10739310Y7245666D01*
X10738784Y7245561D01*
X10738329Y7245491D01*
X10737908Y7245421D01*
X10737522Y7245386D01*
X10737242D01*
X10736997Y7245351D01*
X10736821D01*
X10735945Y7245386D01*
X10735139Y7245491D01*
X10734368Y7245631D01*
X10733632Y7245806D01*
X10732931Y7246016D01*
X10732300Y7246262D01*
X10731704Y7246542D01*
X10731178Y7246823D01*
X10730687Y7247068D01*
X10730267Y7247348D01*
X10729881Y7247594D01*
X10729601Y7247804D01*
X10729355Y7247979D01*
X10729180Y7248120D01*
X10729075Y7248225D01*
X10729040Y7248260D01*
X10728479Y7248821D01*
X10728023Y7249417D01*
X10727603Y7250012D01*
X10727252Y7250643D01*
X10726937Y7251239D01*
X10726691Y7251835D01*
X10726481Y7252396D01*
X10726306Y7252957D01*
X10726165Y7253483D01*
X10726095Y7253938D01*
X10726025Y7254359D01*
X10725955Y7254744D01*
Y7255025D01*
X10725920Y7255270D01*
Y7255410D01*
Y7255445D01*
Y7256006D01*
X10725990Y7256567D01*
X10726165Y7257584D01*
X10726446Y7258460D01*
X10726586Y7258846D01*
X10726726Y7259196D01*
X10726867Y7259547D01*
X10727007Y7259827D01*
X10727147Y7260072D01*
X10727287Y7260248D01*
X10727392Y7260423D01*
X10727462Y7260528D01*
X10727497Y7260598D01*
X10727533Y7260633D01*
X10728163Y7261369D01*
X10728900Y7261965D01*
X10729636Y7262421D01*
X10730337Y7262806D01*
X10731003Y7263087D01*
X10731283Y7263192D01*
X10731493Y7263262D01*
X10731704Y7263332D01*
X10731844Y7263367D01*
X10731949Y7263402D01*
X10731984D01*
X10731213Y7263823D01*
X10730547Y7264244D01*
X10729951Y7264699D01*
X10729495Y7265155D01*
X10729110Y7265540D01*
X10728864Y7265856D01*
X10728689Y7266066D01*
X10728654Y7266101D01*
Y7266136D01*
X10728269Y7266802D01*
X10727988Y7267468D01*
X10727778Y7268099D01*
X10727638Y7268695D01*
X10727568Y7269186D01*
X10727497Y7269606D01*
Y7269747D01*
Y7269852D01*
Y7269922D01*
Y7269957D01*
X10727533Y7270763D01*
X10727673Y7271534D01*
X10727883Y7272235D01*
X10728093Y7272866D01*
X10728304Y7273392D01*
X10728409Y7273602D01*
X10728514Y7273778D01*
X10728584Y7273918D01*
X10728654Y7274058D01*
X10728689Y7274093D01*
Y7274128D01*
X10729180Y7274829D01*
X10729741Y7275425D01*
X10730302Y7275951D01*
X10730862Y7276407D01*
X10731353Y7276757D01*
X10731739Y7277002D01*
X10731914Y7277108D01*
X10732019Y7277178D01*
X10732089Y7277213D01*
X10732124D01*
X10732966Y7277598D01*
X10733807Y7277879D01*
X10734648Y7278089D01*
X10735384Y7278229D01*
X10736050Y7278299D01*
X10736296Y7278334D01*
X10736541Y7278369D01*
X10736997D01*
X10737698Y7278334D01*
D02*
G37*
G36*
X10833600Y7245911D02*
X10813375D01*
Y7249732D01*
X10829324D01*
Y7278264D01*
X10833600D01*
Y7245911D01*
D02*
G37*
G36*
X10808187D02*
X10784036D01*
Y7249732D01*
X10803911D01*
Y7260738D01*
X10785999D01*
Y7264559D01*
X10803911D01*
Y7274444D01*
X10784772D01*
Y7278264D01*
X10808187D01*
Y7245911D01*
D02*
G37*
G36*
X10778148D02*
X10766475D01*
X10765424Y7245946D01*
X10764442Y7245981D01*
X10763566Y7246087D01*
X10762795Y7246192D01*
X10762479Y7246227D01*
X10762199Y7246262D01*
X10761919Y7246332D01*
X10761708Y7246367D01*
X10761533Y7246402D01*
X10761428D01*
X10761358Y7246437D01*
X10761323D01*
X10760516Y7246682D01*
X10759745Y7246928D01*
X10759079Y7247208D01*
X10758518Y7247454D01*
X10758063Y7247699D01*
X10757712Y7247874D01*
X10757502Y7248014D01*
X10757467Y7248050D01*
X10757432D01*
X10756836Y7248505D01*
X10756275Y7248961D01*
X10755784Y7249452D01*
X10755364Y7249942D01*
X10754978Y7250363D01*
X10754733Y7250678D01*
X10754628Y7250819D01*
X10754558Y7250924D01*
X10754488Y7250959D01*
Y7250994D01*
X10753997Y7251730D01*
X10753576Y7252501D01*
X10753191Y7253307D01*
X10752875Y7254043D01*
X10752630Y7254709D01*
X10752525Y7254990D01*
X10752419Y7255235D01*
X10752384Y7255410D01*
X10752314Y7255551D01*
X10752279Y7255656D01*
Y7255691D01*
X10751999Y7256813D01*
X10751789Y7257934D01*
X10751613Y7259021D01*
X10751508Y7260037D01*
X10751473Y7260493D01*
X10751438Y7260914D01*
Y7261299D01*
X10751403Y7261615D01*
Y7261895D01*
Y7262070D01*
Y7262211D01*
Y7262246D01*
X10751473Y7263823D01*
X10751508Y7264559D01*
X10751613Y7265260D01*
X10751718Y7265926D01*
X10751824Y7266557D01*
X10751929Y7267153D01*
X10752034Y7267714D01*
X10752174Y7268204D01*
X10752279Y7268625D01*
X10752384Y7269011D01*
X10752490Y7269326D01*
X10752595Y7269571D01*
X10752630Y7269782D01*
X10752700Y7269887D01*
Y7269922D01*
X10753226Y7271114D01*
X10753822Y7272200D01*
X10754137Y7272691D01*
X10754452Y7273147D01*
X10754768Y7273567D01*
X10755083Y7273953D01*
X10755364Y7274303D01*
X10755644Y7274584D01*
X10755890Y7274864D01*
X10756100Y7275075D01*
X10756275Y7275250D01*
X10756415Y7275355D01*
X10756485Y7275425D01*
X10756521Y7275460D01*
X10757292Y7276056D01*
X10758098Y7276547D01*
X10758869Y7276932D01*
X10759605Y7277248D01*
X10760271Y7277493D01*
X10760552Y7277563D01*
X10760797Y7277633D01*
X10760972Y7277704D01*
X10761112Y7277739D01*
X10761217Y7277774D01*
X10761253D01*
X10761638Y7277844D01*
X10762059Y7277949D01*
X10763005Y7278054D01*
X10763952Y7278159D01*
X10764898Y7278194D01*
X10765319Y7278229D01*
X10765739D01*
X10766090Y7278264D01*
X10778148D01*
Y7245911D01*
D02*
G37*
G36*
X10833547Y5315494D02*
X10813322D01*
Y5319315D01*
X10829271D01*
Y5347847D01*
X10833547D01*
Y5315494D01*
D02*
G37*
G36*
X10808135D02*
X10783984D01*
Y5319315D01*
X10803858D01*
Y5330321D01*
X10785947D01*
Y5334142D01*
X10803858D01*
Y5344027D01*
X10784720D01*
Y5347847D01*
X10808135D01*
Y5315494D01*
D02*
G37*
G36*
X10778095D02*
X10766423D01*
X10765371Y5315529D01*
X10764390Y5315564D01*
X10763513Y5315670D01*
X10762742Y5315775D01*
X10762427Y5315810D01*
X10762146Y5315845D01*
X10761866Y5315915D01*
X10761656Y5315950D01*
X10761480Y5315985D01*
X10761375D01*
X10761305Y5316020D01*
X10761270D01*
X10760464Y5316265D01*
X10759693Y5316511D01*
X10759027Y5316791D01*
X10758466Y5317037D01*
X10758010Y5317282D01*
X10757660Y5317457D01*
X10757449Y5317597D01*
X10757414Y5317632D01*
X10757379D01*
X10756783Y5318088D01*
X10756223Y5318544D01*
X10755732Y5319035D01*
X10755311Y5319525D01*
X10754926Y5319946D01*
X10754680Y5320261D01*
X10754575Y5320402D01*
X10754505Y5320507D01*
X10754435Y5320542D01*
Y5320577D01*
X10753944Y5321313D01*
X10753524Y5322084D01*
X10753138Y5322890D01*
X10752823Y5323626D01*
X10752577Y5324292D01*
X10752472Y5324573D01*
X10752367Y5324818D01*
X10752332Y5324993D01*
X10752262Y5325134D01*
X10752227Y5325239D01*
Y5325274D01*
X10751946Y5326395D01*
X10751736Y5327517D01*
X10751561Y5328604D01*
X10751456Y5329620D01*
X10751420Y5330076D01*
X10751385Y5330497D01*
Y5330882D01*
X10751350Y5331198D01*
Y5331478D01*
Y5331653D01*
Y5331794D01*
Y5331829D01*
X10751420Y5333406D01*
X10751456Y5334142D01*
X10751561Y5334843D01*
X10751666Y5335509D01*
X10751771Y5336140D01*
X10751876Y5336736D01*
X10751981Y5337297D01*
X10752121Y5337787D01*
X10752227Y5338208D01*
X10752332Y5338594D01*
X10752437Y5338909D01*
X10752542Y5339154D01*
X10752577Y5339365D01*
X10752647Y5339470D01*
Y5339505D01*
X10753173Y5340697D01*
X10753769Y5341783D01*
X10754084Y5342274D01*
X10754400Y5342730D01*
X10754715Y5343150D01*
X10755031Y5343536D01*
X10755311Y5343886D01*
X10755592Y5344167D01*
X10755837Y5344447D01*
X10756047Y5344658D01*
X10756223Y5344833D01*
X10756363Y5344938D01*
X10756433Y5345008D01*
X10756468Y5345043D01*
X10757239Y5345639D01*
X10758045Y5346130D01*
X10758816Y5346515D01*
X10759553Y5346831D01*
X10760219Y5347076D01*
X10760499Y5347146D01*
X10760744Y5347216D01*
X10760920Y5347286D01*
X10761060Y5347322D01*
X10761165Y5347357D01*
X10761200D01*
X10761586Y5347427D01*
X10762006Y5347532D01*
X10762953Y5347637D01*
X10763899Y5347742D01*
X10764845Y5347777D01*
X10765266Y5347812D01*
X10765687D01*
X10766037Y5347847D01*
X10778095D01*
Y5315494D01*
D02*
G37*
G36*
X10737154Y5347917D02*
X10737785Y5347882D01*
X10738381Y5347777D01*
X10738942Y5347672D01*
X10739433Y5347532D01*
X10739923Y5347357D01*
X10740379Y5347181D01*
X10740765Y5347006D01*
X10741150Y5346831D01*
X10741466Y5346656D01*
X10741746Y5346515D01*
X10741956Y5346340D01*
X10742132Y5346235D01*
X10742272Y5346130D01*
X10742342Y5346095D01*
X10742377Y5346060D01*
X10742798Y5345674D01*
X10743183Y5345289D01*
X10743884Y5344412D01*
X10744515Y5343536D01*
X10745006Y5342660D01*
X10745216Y5342239D01*
X10745392Y5341888D01*
X10745532Y5341538D01*
X10745672Y5341258D01*
X10745742Y5341012D01*
X10745812Y5340802D01*
X10745882Y5340697D01*
Y5340662D01*
X10746093Y5339996D01*
X10746268Y5339260D01*
X10746548Y5337752D01*
X10746759Y5336210D01*
X10746829Y5335474D01*
X10746899Y5334738D01*
X10746934Y5334072D01*
X10746969Y5333441D01*
X10747004Y5332880D01*
Y5332389D01*
X10747039Y5332004D01*
Y5331688D01*
Y5331513D01*
Y5331443D01*
X10747004Y5329796D01*
X10746899Y5328253D01*
X10746759Y5326851D01*
X10746548Y5325554D01*
X10746303Y5324362D01*
X10746022Y5323276D01*
X10745742Y5322329D01*
X10745427Y5321453D01*
X10745146Y5320717D01*
X10744866Y5320051D01*
X10744585Y5319525D01*
X10744340Y5319070D01*
X10744130Y5318719D01*
X10743989Y5318474D01*
X10743884Y5318334D01*
X10743849Y5318298D01*
X10743323Y5317703D01*
X10742763Y5317212D01*
X10742167Y5316756D01*
X10741571Y5316371D01*
X10740975Y5316055D01*
X10740344Y5315775D01*
X10739748Y5315564D01*
X10739187Y5315389D01*
X10738626Y5315249D01*
X10738136Y5315144D01*
X10737680Y5315074D01*
X10737295Y5315039D01*
X10736979Y5315004D01*
X10736734Y5314969D01*
X10736523D01*
X10735857Y5315004D01*
X10735261Y5315039D01*
X10734666Y5315144D01*
X10734105Y5315249D01*
X10733579Y5315424D01*
X10733123Y5315564D01*
X10732668Y5315740D01*
X10732282Y5315915D01*
X10731896Y5316090D01*
X10731581Y5316265D01*
X10731301Y5316441D01*
X10731090Y5316581D01*
X10730915Y5316686D01*
X10730775Y5316791D01*
X10730705Y5316826D01*
X10730670Y5316861D01*
X10730249Y5317247D01*
X10729828Y5317632D01*
X10729127Y5318509D01*
X10728532Y5319385D01*
X10728041Y5320261D01*
X10727830Y5320682D01*
X10727655Y5321068D01*
X10727515Y5321383D01*
X10727375Y5321699D01*
X10727270Y5321909D01*
X10727235Y5322119D01*
X10727164Y5322224D01*
Y5322259D01*
X10726954Y5322925D01*
X10726779Y5323661D01*
X10726463Y5325169D01*
X10726253Y5326711D01*
X10726183Y5327447D01*
X10726113Y5328183D01*
X10726078Y5328849D01*
X10726043Y5329480D01*
X10726008Y5330006D01*
X10725973Y5330497D01*
Y5330882D01*
Y5331198D01*
Y5331373D01*
Y5331443D01*
Y5332319D01*
X10726008Y5333161D01*
X10726043Y5333932D01*
X10726078Y5334668D01*
X10726148Y5335334D01*
X10726218Y5335965D01*
X10726288Y5336526D01*
X10726323Y5337051D01*
X10726393Y5337507D01*
X10726463Y5337893D01*
X10726534Y5338243D01*
X10726604Y5338523D01*
X10726639Y5338769D01*
X10726674Y5338909D01*
X10726709Y5339014D01*
Y5339049D01*
X10726989Y5340066D01*
X10727340Y5341012D01*
X10727655Y5341818D01*
X10727971Y5342519D01*
X10728146Y5342800D01*
X10728251Y5343080D01*
X10728391Y5343326D01*
X10728496Y5343501D01*
X10728602Y5343641D01*
X10728637Y5343746D01*
X10728707Y5343816D01*
Y5343851D01*
X10729197Y5344552D01*
X10729758Y5345183D01*
X10730284Y5345709D01*
X10730810Y5346130D01*
X10731266Y5346480D01*
X10731616Y5346691D01*
X10731756Y5346796D01*
X10731861Y5346866D01*
X10731932Y5346901D01*
X10731967D01*
X10732738Y5347251D01*
X10733509Y5347497D01*
X10734280Y5347707D01*
X10734981Y5347812D01*
X10735612Y5347882D01*
X10735857Y5347917D01*
X10736103Y5347952D01*
X10736523D01*
X10737154Y5347917D01*
D02*
G37*
G36*
X10732054Y5207183D02*
X10732580Y5206412D01*
X10733176Y5205676D01*
X10733772Y5205045D01*
X10734298Y5204449D01*
X10734543Y5204239D01*
X10734718Y5204028D01*
X10734893Y5203853D01*
X10735034Y5203748D01*
X10735104Y5203678D01*
X10735139Y5203643D01*
X10736085Y5202836D01*
X10737102Y5202135D01*
X10738083Y5201469D01*
X10738995Y5200909D01*
X10739380Y5200698D01*
X10739766Y5200488D01*
X10740116Y5200278D01*
X10740397Y5200137D01*
X10740642Y5200032D01*
X10740817Y5199927D01*
X10740922Y5199892D01*
X10740957Y5199857D01*
Y5196036D01*
X10740256Y5196317D01*
X10739520Y5196632D01*
X10738819Y5196983D01*
X10738188Y5197298D01*
X10737627Y5197614D01*
X10737382Y5197719D01*
X10737172Y5197859D01*
X10736997Y5197929D01*
X10736891Y5197999D01*
X10736821Y5198069D01*
X10736786D01*
X10735945Y5198595D01*
X10735209Y5199086D01*
X10734543Y5199542D01*
X10734017Y5199962D01*
X10733561Y5200313D01*
X10733246Y5200558D01*
X10733071Y5200733D01*
X10733001Y5200803D01*
Y5175531D01*
X10729040D01*
Y5207989D01*
X10731599D01*
X10732054Y5207183D01*
D02*
G37*
G36*
X10830480Y5175531D02*
X10810255D01*
Y5179352D01*
X10826204D01*
Y5207884D01*
X10830480D01*
Y5175531D01*
D02*
G37*
G36*
X10805068D02*
X10780917D01*
Y5179352D01*
X10800791D01*
Y5190358D01*
X10782880D01*
Y5194179D01*
X10800791D01*
Y5204063D01*
X10781653D01*
Y5207884D01*
X10805068D01*
Y5175531D01*
D02*
G37*
G36*
X10775028D02*
X10763356D01*
X10762304Y5175566D01*
X10761323Y5175601D01*
X10760446Y5175706D01*
X10759675Y5175811D01*
X10759360Y5175846D01*
X10759079Y5175881D01*
X10758799Y5175952D01*
X10758589Y5175987D01*
X10758413Y5176022D01*
X10758308D01*
X10758238Y5176057D01*
X10758203D01*
X10757397Y5176302D01*
X10756626Y5176547D01*
X10755960Y5176828D01*
X10755399Y5177073D01*
X10754943Y5177319D01*
X10754593Y5177494D01*
X10754382Y5177634D01*
X10754347Y5177669D01*
X10754312D01*
X10753716Y5178125D01*
X10753156Y5178580D01*
X10752665Y5179071D01*
X10752244Y5179562D01*
X10751859Y5179983D01*
X10751613Y5180298D01*
X10751508Y5180438D01*
X10751438Y5180543D01*
X10751368Y5180578D01*
Y5180613D01*
X10750877Y5181350D01*
X10750457Y5182121D01*
X10750071Y5182927D01*
X10749755Y5183663D01*
X10749510Y5184329D01*
X10749405Y5184609D01*
X10749300Y5184855D01*
X10749265Y5185030D01*
X10749195Y5185170D01*
X10749160Y5185275D01*
Y5185310D01*
X10748879Y5186432D01*
X10748669Y5187554D01*
X10748494Y5188640D01*
X10748388Y5189657D01*
X10748353Y5190113D01*
X10748318Y5190533D01*
Y5190919D01*
X10748283Y5191234D01*
Y5191515D01*
Y5191690D01*
Y5191830D01*
Y5191865D01*
X10748353Y5193442D01*
X10748388Y5194179D01*
X10748494Y5194880D01*
X10748599Y5195546D01*
X10748704Y5196177D01*
X10748809Y5196772D01*
X10748914Y5197333D01*
X10749054Y5197824D01*
X10749160Y5198245D01*
X10749265Y5198630D01*
X10749370Y5198946D01*
X10749475Y5199191D01*
X10749510Y5199401D01*
X10749580Y5199506D01*
Y5199542D01*
X10750106Y5200733D01*
X10750702Y5201820D01*
X10751017Y5202311D01*
X10751333Y5202766D01*
X10751648Y5203187D01*
X10751964Y5203573D01*
X10752244Y5203923D01*
X10752525Y5204203D01*
X10752770Y5204484D01*
X10752980Y5204694D01*
X10753156Y5204869D01*
X10753296Y5204975D01*
X10753366Y5205045D01*
X10753401Y5205080D01*
X10754172Y5205676D01*
X10754978Y5206166D01*
X10755749Y5206552D01*
X10756485Y5206867D01*
X10757151Y5207113D01*
X10757432Y5207183D01*
X10757677Y5207253D01*
X10757852Y5207323D01*
X10757993Y5207358D01*
X10758098Y5207393D01*
X10758133D01*
X10758518Y5207463D01*
X10758939Y5207568D01*
X10759886Y5207674D01*
X10760832Y5207779D01*
X10761778Y5207814D01*
X10762199Y5207849D01*
X10762620D01*
X10762970Y5207884D01*
X10775028D01*
Y5175531D01*
D02*
G37*
G36*
X10737084Y5068254D02*
X10737891Y5068184D01*
X10738627Y5068079D01*
X10739328Y5067904D01*
X10739994Y5067728D01*
X10740590Y5067518D01*
X10741150Y5067308D01*
X10741641Y5067098D01*
X10742097Y5066852D01*
X10742482Y5066642D01*
X10742833Y5066432D01*
X10743113Y5066256D01*
X10743324Y5066081D01*
X10743464Y5065976D01*
X10743569Y5065906D01*
X10743604Y5065871D01*
X10744095Y5065415D01*
X10744515Y5064889D01*
X10744901Y5064364D01*
X10745252Y5063768D01*
X10745532Y5063207D01*
X10745812Y5062646D01*
X10746023Y5062050D01*
X10746198Y5061524D01*
X10746373Y5060999D01*
X10746478Y5060508D01*
X10746584Y5060052D01*
X10746654Y5059667D01*
X10746689Y5059351D01*
X10746724Y5059141D01*
X10746759Y5059001D01*
Y5058930D01*
X10742693Y5058510D01*
X10742658Y5059071D01*
X10742623Y5059596D01*
X10742412Y5060508D01*
X10742132Y5061349D01*
X10741992Y5061700D01*
X10741816Y5062015D01*
X10741676Y5062295D01*
X10741501Y5062541D01*
X10741361Y5062751D01*
X10741256Y5062926D01*
X10741115Y5063067D01*
X10741045Y5063172D01*
X10741010Y5063207D01*
X10740975Y5063242D01*
X10740625Y5063557D01*
X10740274Y5063838D01*
X10739889Y5064048D01*
X10739503Y5064258D01*
X10738732Y5064574D01*
X10737996Y5064784D01*
X10737365Y5064889D01*
X10737084Y5064959D01*
X10736839D01*
X10736629Y5064994D01*
X10735858D01*
X10735367Y5064924D01*
X10734491Y5064749D01*
X10733755Y5064469D01*
X10733089Y5064188D01*
X10732598Y5063873D01*
X10732387Y5063733D01*
X10732212Y5063592D01*
X10732072Y5063487D01*
X10731967Y5063417D01*
X10731932Y5063382D01*
X10731897Y5063347D01*
X10731581Y5063032D01*
X10731336Y5062716D01*
X10731091Y5062401D01*
X10730915Y5062050D01*
X10730600Y5061384D01*
X10730390Y5060753D01*
X10730284Y5060227D01*
X10730214Y5059982D01*
Y5059772D01*
X10730179Y5059631D01*
Y5059491D01*
Y5059421D01*
Y5059386D01*
X10730214Y5058965D01*
X10730249Y5058545D01*
X10730460Y5057704D01*
X10730775Y5056897D01*
X10731126Y5056161D01*
X10731476Y5055530D01*
X10731616Y5055285D01*
X10731792Y5055040D01*
X10731897Y5054864D01*
X10732002Y5054724D01*
X10732037Y5054654D01*
X10732072Y5054619D01*
X10732458Y5054128D01*
X10732913Y5053603D01*
X10733439Y5053042D01*
X10734000Y5052481D01*
X10735157Y5051324D01*
X10736348Y5050238D01*
X10736909Y5049712D01*
X10737470Y5049256D01*
X10737961Y5048835D01*
X10738381Y5048485D01*
X10738732Y5048169D01*
X10738977Y5047959D01*
X10739153Y5047784D01*
X10739223Y5047749D01*
X10739854Y5047223D01*
X10740414Y5046732D01*
X10740975Y5046277D01*
X10741466Y5045821D01*
X10741957Y5045400D01*
X10742377Y5044980D01*
X10742763Y5044629D01*
X10743113Y5044279D01*
X10743429Y5043963D01*
X10743674Y5043683D01*
X10743920Y5043437D01*
X10744095Y5043262D01*
X10744270Y5043087D01*
X10744375Y5042982D01*
X10744410Y5042912D01*
X10744445Y5042877D01*
X10745076Y5042105D01*
X10745602Y5041334D01*
X10746058Y5040598D01*
X10746408Y5039932D01*
X10746689Y5039371D01*
X10746794Y5039126D01*
X10746899Y5038951D01*
X10746969Y5038776D01*
X10747004Y5038670D01*
X10747039Y5038600D01*
Y5038565D01*
X10747214Y5038075D01*
X10747320Y5037584D01*
X10747425Y5037128D01*
X10747460Y5036707D01*
X10747495Y5036357D01*
Y5036077D01*
Y5035901D01*
Y5035831D01*
X10726078D01*
Y5039652D01*
X10742027D01*
X10741466Y5040423D01*
X10741186Y5040774D01*
X10740905Y5041089D01*
X10740660Y5041369D01*
X10740484Y5041580D01*
X10740344Y5041720D01*
X10740309Y5041755D01*
X10740099Y5041965D01*
X10739818Y5042246D01*
X10739503Y5042526D01*
X10739153Y5042842D01*
X10738416Y5043543D01*
X10737645Y5044209D01*
X10736909Y5044840D01*
X10736594Y5045120D01*
X10736278Y5045365D01*
X10736068Y5045576D01*
X10735858Y5045716D01*
X10735752Y5045821D01*
X10735717Y5045856D01*
X10734946Y5046522D01*
X10734210Y5047153D01*
X10733544Y5047714D01*
X10732948Y5048275D01*
X10732387Y5048765D01*
X10731897Y5049256D01*
X10731441Y5049677D01*
X10731020Y5050062D01*
X10730670Y5050378D01*
X10730390Y5050693D01*
X10730144Y5050939D01*
X10729934Y5051149D01*
X10729794Y5051324D01*
X10729653Y5051429D01*
X10729618Y5051499D01*
X10729583Y5051534D01*
X10728917Y5052306D01*
X10728392Y5053007D01*
X10727936Y5053673D01*
X10727550Y5054269D01*
X10727270Y5054759D01*
X10727060Y5055145D01*
X10726989Y5055285D01*
X10726954Y5055390D01*
X10726919Y5055425D01*
Y5055460D01*
X10726639Y5056161D01*
X10726464Y5056862D01*
X10726323Y5057493D01*
X10726218Y5058089D01*
X10726148Y5058580D01*
X10726113Y5058965D01*
Y5059106D01*
Y5059211D01*
Y5059246D01*
Y5059281D01*
X10726148Y5059982D01*
X10726218Y5060648D01*
X10726359Y5061279D01*
X10726534Y5061910D01*
X10726744Y5062471D01*
X10726989Y5062996D01*
X10727235Y5063487D01*
X10727480Y5063908D01*
X10727726Y5064328D01*
X10727971Y5064679D01*
X10728216Y5064994D01*
X10728427Y5065240D01*
X10728602Y5065415D01*
X10728742Y5065590D01*
X10728812Y5065660D01*
X10728847Y5065695D01*
X10729373Y5066151D01*
X10729934Y5066537D01*
X10730530Y5066887D01*
X10731161Y5067203D01*
X10731757Y5067448D01*
X10732387Y5067658D01*
X10732983Y5067834D01*
X10733579Y5067974D01*
X10734105Y5068079D01*
X10734631Y5068149D01*
X10735086Y5068219D01*
X10735472Y5068254D01*
X10735788Y5068289D01*
X10736243D01*
X10737084Y5068254D01*
D02*
G37*
G36*
X10833442Y5035831D02*
X10813217D01*
Y5039652D01*
X10829166D01*
Y5068184D01*
X10833442D01*
Y5035831D01*
D02*
G37*
G36*
X10808030D02*
X10783879D01*
Y5039652D01*
X10803753D01*
Y5050658D01*
X10785842D01*
Y5054479D01*
X10803753D01*
Y5064364D01*
X10784615D01*
Y5068184D01*
X10808030D01*
Y5035831D01*
D02*
G37*
G36*
X10777990D02*
X10766318D01*
X10765266Y5035866D01*
X10764285Y5035901D01*
X10763408Y5036006D01*
X10762637Y5036112D01*
X10762322Y5036147D01*
X10762041Y5036182D01*
X10761761Y5036252D01*
X10761551Y5036287D01*
X10761375Y5036322D01*
X10761270D01*
X10761200Y5036357D01*
X10761165D01*
X10760359Y5036602D01*
X10759588Y5036848D01*
X10758922Y5037128D01*
X10758361Y5037373D01*
X10757905Y5037619D01*
X10757555Y5037794D01*
X10757344Y5037934D01*
X10757309Y5037969D01*
X10757274D01*
X10756679Y5038425D01*
X10756118Y5038881D01*
X10755627Y5039371D01*
X10755206Y5039862D01*
X10754821Y5040283D01*
X10754575Y5040598D01*
X10754470Y5040738D01*
X10754400Y5040844D01*
X10754330Y5040879D01*
Y5040914D01*
X10753839Y5041650D01*
X10753419Y5042421D01*
X10753033Y5043227D01*
X10752718Y5043963D01*
X10752472Y5044629D01*
X10752367Y5044910D01*
X10752262Y5045155D01*
X10752227Y5045330D01*
X10752157Y5045470D01*
X10752122Y5045576D01*
Y5045611D01*
X10751841Y5046732D01*
X10751631Y5047854D01*
X10751456Y5048941D01*
X10751351Y5049957D01*
X10751316Y5050413D01*
X10751281Y5050833D01*
Y5051219D01*
X10751245Y5051534D01*
Y5051815D01*
Y5051990D01*
Y5052130D01*
Y5052165D01*
X10751316Y5053743D01*
X10751351Y5054479D01*
X10751456Y5055180D01*
X10751561Y5055846D01*
X10751666Y5056477D01*
X10751771Y5057073D01*
X10751876Y5057634D01*
X10752017Y5058124D01*
X10752122Y5058545D01*
X10752227Y5058930D01*
X10752332Y5059246D01*
X10752437Y5059491D01*
X10752472Y5059702D01*
X10752542Y5059807D01*
Y5059842D01*
X10753068Y5061034D01*
X10753664Y5062120D01*
X10753980Y5062611D01*
X10754295Y5063067D01*
X10754610Y5063487D01*
X10754926Y5063873D01*
X10755206Y5064223D01*
X10755487Y5064504D01*
X10755732Y5064784D01*
X10755942Y5064994D01*
X10756118Y5065170D01*
X10756258Y5065275D01*
X10756328Y5065345D01*
X10756363Y5065380D01*
X10757134Y5065976D01*
X10757940Y5066467D01*
X10758712Y5066852D01*
X10759448Y5067168D01*
X10760114Y5067413D01*
X10760394Y5067483D01*
X10760639Y5067553D01*
X10760815Y5067623D01*
X10760955Y5067658D01*
X10761060Y5067693D01*
X10761095D01*
X10761481Y5067764D01*
X10761901Y5067869D01*
X10762848Y5067974D01*
X10763794Y5068079D01*
X10764740Y5068114D01*
X10765161Y5068149D01*
X10765582D01*
X10765932Y5068184D01*
X10777990D01*
Y5035831D01*
D02*
G37*
G36*
X10737698Y4928834D02*
X10738364Y4928764D01*
X10738995Y4928659D01*
X10739625Y4928519D01*
X10740186Y4928344D01*
X10740712Y4928168D01*
X10741203Y4927958D01*
X10741623Y4927783D01*
X10742044Y4927573D01*
X10742395Y4927362D01*
X10742675Y4927187D01*
X10742955Y4927012D01*
X10743131Y4926872D01*
X10743306Y4926766D01*
X10743376Y4926696D01*
X10743411Y4926661D01*
X10743867Y4926241D01*
X10744287Y4925750D01*
X10744673Y4925259D01*
X10745023Y4924768D01*
X10745339Y4924243D01*
X10745584Y4923752D01*
X10746040Y4922735D01*
X10746215Y4922280D01*
X10746355Y4921859D01*
X10746461Y4921474D01*
X10746566Y4921158D01*
X10746636Y4920878D01*
X10746671Y4920667D01*
X10746706Y4920527D01*
Y4920492D01*
X10742745Y4919791D01*
X10742535Y4920808D01*
X10742254Y4921684D01*
X10741939Y4922455D01*
X10741588Y4923051D01*
X10741308Y4923542D01*
X10741028Y4923857D01*
X10740852Y4924067D01*
X10740782Y4924137D01*
X10740151Y4924628D01*
X10739520Y4924979D01*
X10738854Y4925259D01*
X10738258Y4925434D01*
X10737698Y4925540D01*
X10737487Y4925575D01*
X10737277D01*
X10737102Y4925610D01*
X10736891D01*
X10736050Y4925540D01*
X10735314Y4925399D01*
X10734648Y4925154D01*
X10734087Y4924909D01*
X10733667Y4924628D01*
X10733351Y4924383D01*
X10733141Y4924243D01*
X10733071Y4924173D01*
X10732790Y4923892D01*
X10732580Y4923612D01*
X10732194Y4922981D01*
X10731914Y4922385D01*
X10731739Y4921824D01*
X10731634Y4921298D01*
X10731599Y4920913D01*
X10731563Y4920737D01*
Y4920632D01*
Y4920562D01*
Y4920527D01*
X10731599Y4920036D01*
X10731669Y4919581D01*
X10731739Y4919125D01*
X10731879Y4918739D01*
X10732229Y4918038D01*
X10732580Y4917478D01*
X10732966Y4917022D01*
X10733316Y4916706D01*
X10733456Y4916601D01*
X10733526Y4916531D01*
X10733597Y4916461D01*
X10733632D01*
X10734403Y4916005D01*
X10735209Y4915690D01*
X10735980Y4915445D01*
X10736681Y4915304D01*
X10737277Y4915199D01*
X10737522Y4915164D01*
X10737768D01*
X10737943Y4915129D01*
X10738399D01*
X10738609Y4915164D01*
X10738784Y4915199D01*
X10738854D01*
X10739275Y4911729D01*
X10738679Y4911869D01*
X10738118Y4911974D01*
X10737663Y4912045D01*
X10737242Y4912115D01*
X10736926D01*
X10736681Y4912150D01*
X10736471D01*
X10735980Y4912115D01*
X10735489Y4912080D01*
X10734613Y4911869D01*
X10733842Y4911589D01*
X10733176Y4911273D01*
X10732650Y4910923D01*
X10732440Y4910783D01*
X10732265Y4910642D01*
X10732124Y4910537D01*
X10732019Y4910432D01*
X10731984Y4910397D01*
X10731949Y4910362D01*
X10731634Y4910012D01*
X10731353Y4909661D01*
X10731108Y4909310D01*
X10730898Y4908925D01*
X10730582Y4908189D01*
X10730337Y4907453D01*
X10730232Y4906822D01*
X10730196Y4906576D01*
X10730161Y4906331D01*
X10730126Y4906156D01*
Y4905981D01*
Y4905910D01*
Y4905875D01*
X10730161Y4905350D01*
X10730196Y4904859D01*
X10730442Y4903912D01*
X10730722Y4903106D01*
X10731073Y4902405D01*
X10731283Y4902090D01*
X10731458Y4901844D01*
X10731599Y4901599D01*
X10731739Y4901424D01*
X10731879Y4901284D01*
X10731984Y4901178D01*
X10732019Y4901108D01*
X10732054Y4901073D01*
X10732440Y4900723D01*
X10732825Y4900442D01*
X10733211Y4900197D01*
X10733597Y4899952D01*
X10734403Y4899601D01*
X10735174Y4899391D01*
X10735805Y4899251D01*
X10736120Y4899215D01*
X10736331Y4899180D01*
X10736541Y4899145D01*
X10736821D01*
X10737663Y4899215D01*
X10738469Y4899391D01*
X10739135Y4899601D01*
X10739731Y4899881D01*
X10740221Y4900162D01*
X10740572Y4900372D01*
X10740677Y4900477D01*
X10740782Y4900547D01*
X10740817Y4900618D01*
X10740852D01*
X10741133Y4900933D01*
X10741413Y4901249D01*
X10741904Y4901985D01*
X10742289Y4902791D01*
X10742605Y4903597D01*
X10742850Y4904333D01*
X10742920Y4904649D01*
X10742990Y4904929D01*
X10743061Y4905174D01*
X10743096Y4905350D01*
X10743131Y4905455D01*
Y4905490D01*
X10747092Y4904964D01*
X10746986Y4904228D01*
X10746846Y4903527D01*
X10746636Y4902861D01*
X10746426Y4902230D01*
X10746180Y4901634D01*
X10745900Y4901108D01*
X10745619Y4900583D01*
X10745339Y4900162D01*
X10745059Y4899741D01*
X10744813Y4899391D01*
X10744568Y4899075D01*
X10744357Y4898830D01*
X10744147Y4898620D01*
X10744007Y4898479D01*
X10743937Y4898409D01*
X10743902Y4898374D01*
X10743376Y4897919D01*
X10742780Y4897533D01*
X10742219Y4897218D01*
X10741623Y4896902D01*
X10741028Y4896657D01*
X10740432Y4896481D01*
X10739871Y4896306D01*
X10739310Y4896166D01*
X10738784Y4896061D01*
X10738329Y4895991D01*
X10737908Y4895921D01*
X10737522Y4895886D01*
X10737242D01*
X10736997Y4895851D01*
X10736821D01*
X10735945Y4895886D01*
X10735139Y4895991D01*
X10734368Y4896131D01*
X10733632Y4896306D01*
X10732931Y4896516D01*
X10732300Y4896762D01*
X10731704Y4897042D01*
X10731178Y4897323D01*
X10730687Y4897568D01*
X10730267Y4897848D01*
X10729881Y4898094D01*
X10729601Y4898304D01*
X10729355Y4898479D01*
X10729180Y4898620D01*
X10729075Y4898725D01*
X10729040Y4898760D01*
X10728479Y4899321D01*
X10728023Y4899917D01*
X10727603Y4900512D01*
X10727252Y4901143D01*
X10726937Y4901739D01*
X10726691Y4902335D01*
X10726481Y4902896D01*
X10726306Y4903457D01*
X10726165Y4903983D01*
X10726095Y4904438D01*
X10726025Y4904859D01*
X10725955Y4905244D01*
Y4905525D01*
X10725920Y4905770D01*
Y4905910D01*
Y4905945D01*
Y4906506D01*
X10725990Y4907067D01*
X10726165Y4908084D01*
X10726446Y4908960D01*
X10726586Y4909346D01*
X10726726Y4909696D01*
X10726867Y4910047D01*
X10727007Y4910327D01*
X10727147Y4910572D01*
X10727287Y4910748D01*
X10727392Y4910923D01*
X10727462Y4911028D01*
X10727497Y4911098D01*
X10727533Y4911133D01*
X10728163Y4911869D01*
X10728900Y4912465D01*
X10729636Y4912921D01*
X10730337Y4913306D01*
X10731003Y4913587D01*
X10731283Y4913692D01*
X10731493Y4913762D01*
X10731704Y4913832D01*
X10731844Y4913867D01*
X10731949Y4913902D01*
X10731984D01*
X10731213Y4914323D01*
X10730547Y4914744D01*
X10729951Y4915199D01*
X10729495Y4915655D01*
X10729110Y4916040D01*
X10728864Y4916356D01*
X10728689Y4916566D01*
X10728654Y4916601D01*
Y4916636D01*
X10728269Y4917302D01*
X10727988Y4917968D01*
X10727778Y4918599D01*
X10727638Y4919195D01*
X10727568Y4919686D01*
X10727497Y4920106D01*
Y4920247D01*
Y4920352D01*
Y4920422D01*
Y4920457D01*
X10727533Y4921263D01*
X10727673Y4922034D01*
X10727883Y4922735D01*
X10728093Y4923366D01*
X10728304Y4923892D01*
X10728409Y4924102D01*
X10728514Y4924278D01*
X10728584Y4924418D01*
X10728654Y4924558D01*
X10728689Y4924593D01*
Y4924628D01*
X10729180Y4925329D01*
X10729741Y4925925D01*
X10730302Y4926451D01*
X10730862Y4926907D01*
X10731353Y4927257D01*
X10731739Y4927502D01*
X10731914Y4927608D01*
X10732019Y4927678D01*
X10732089Y4927713D01*
X10732124D01*
X10732966Y4928098D01*
X10733807Y4928379D01*
X10734648Y4928589D01*
X10735384Y4928729D01*
X10736050Y4928799D01*
X10736296Y4928834D01*
X10736541Y4928869D01*
X10736997D01*
X10737698Y4928834D01*
D02*
G37*
G36*
X10833600Y4896411D02*
X10813375D01*
Y4900232D01*
X10829324D01*
Y4928764D01*
X10833600D01*
Y4896411D01*
D02*
G37*
G36*
X10808187D02*
X10784036D01*
Y4900232D01*
X10803911D01*
Y4911238D01*
X10785999D01*
Y4915059D01*
X10803911D01*
Y4924944D01*
X10784772D01*
Y4928764D01*
X10808187D01*
Y4896411D01*
D02*
G37*
G36*
X10778148D02*
X10766475D01*
X10765424Y4896446D01*
X10764442Y4896481D01*
X10763566Y4896587D01*
X10762795Y4896692D01*
X10762479Y4896727D01*
X10762199Y4896762D01*
X10761919Y4896832D01*
X10761708Y4896867D01*
X10761533Y4896902D01*
X10761428D01*
X10761358Y4896937D01*
X10761323D01*
X10760516Y4897182D01*
X10759745Y4897428D01*
X10759079Y4897708D01*
X10758518Y4897954D01*
X10758063Y4898199D01*
X10757712Y4898374D01*
X10757502Y4898514D01*
X10757467Y4898550D01*
X10757432D01*
X10756836Y4899005D01*
X10756275Y4899461D01*
X10755784Y4899952D01*
X10755364Y4900442D01*
X10754978Y4900863D01*
X10754733Y4901178D01*
X10754628Y4901319D01*
X10754558Y4901424D01*
X10754488Y4901459D01*
Y4901494D01*
X10753997Y4902230D01*
X10753576Y4903001D01*
X10753191Y4903807D01*
X10752875Y4904543D01*
X10752630Y4905209D01*
X10752525Y4905490D01*
X10752419Y4905735D01*
X10752384Y4905910D01*
X10752314Y4906051D01*
X10752279Y4906156D01*
Y4906191D01*
X10751999Y4907313D01*
X10751789Y4908434D01*
X10751613Y4909521D01*
X10751508Y4910537D01*
X10751473Y4910993D01*
X10751438Y4911414D01*
Y4911799D01*
X10751403Y4912115D01*
Y4912395D01*
Y4912570D01*
Y4912711D01*
Y4912746D01*
X10751473Y4914323D01*
X10751508Y4915059D01*
X10751613Y4915760D01*
X10751718Y4916426D01*
X10751824Y4917057D01*
X10751929Y4917653D01*
X10752034Y4918214D01*
X10752174Y4918704D01*
X10752279Y4919125D01*
X10752384Y4919511D01*
X10752490Y4919826D01*
X10752595Y4920071D01*
X10752630Y4920282D01*
X10752700Y4920387D01*
Y4920422D01*
X10753226Y4921614D01*
X10753822Y4922700D01*
X10754137Y4923191D01*
X10754452Y4923647D01*
X10754768Y4924067D01*
X10755083Y4924453D01*
X10755364Y4924803D01*
X10755644Y4925084D01*
X10755890Y4925364D01*
X10756100Y4925575D01*
X10756275Y4925750D01*
X10756415Y4925855D01*
X10756485Y4925925D01*
X10756521Y4925960D01*
X10757292Y4926556D01*
X10758098Y4927047D01*
X10758869Y4927432D01*
X10759605Y4927748D01*
X10760271Y4927993D01*
X10760552Y4928063D01*
X10760797Y4928133D01*
X10760972Y4928204D01*
X10761112Y4928239D01*
X10761217Y4928274D01*
X10761253D01*
X10761638Y4928344D01*
X10762059Y4928449D01*
X10763005Y4928554D01*
X10763952Y4928659D01*
X10764898Y4928694D01*
X10765319Y4928729D01*
X10765739D01*
X10766090Y4928764D01*
X10778148D01*
Y4896411D01*
D02*
G37*
%LPC*%
G36*
X10773819Y7693527D02*
X10766353D01*
X10765722Y7693492D01*
X10765126Y7693457D01*
X10764565Y7693421D01*
X10764074Y7693386D01*
X10763619Y7693316D01*
X10763198Y7693246D01*
X10762847Y7693211D01*
X10762532Y7693141D01*
X10762252Y7693071D01*
X10762041Y7693001D01*
X10761831Y7692966D01*
X10761691Y7692931D01*
X10761586Y7692896D01*
X10761550Y7692861D01*
X10761515D01*
X10761060Y7692650D01*
X10760639Y7692440D01*
X10759868Y7691879D01*
X10759167Y7691283D01*
X10758571Y7690652D01*
X10758115Y7690092D01*
X10757905Y7689846D01*
X10757765Y7689636D01*
X10757625Y7689426D01*
X10757520Y7689285D01*
X10757484Y7689215D01*
X10757449Y7689180D01*
X10757169Y7688654D01*
X10756889Y7688059D01*
X10756468Y7686832D01*
X10756188Y7685535D01*
X10755977Y7684273D01*
X10755907Y7683677D01*
X10755837Y7683151D01*
X10755802Y7682661D01*
Y7682240D01*
X10755767Y7681889D01*
Y7681609D01*
Y7681469D01*
Y7681399D01*
X10755802Y7680067D01*
X10755907Y7678875D01*
X10755977Y7678314D01*
X10756047Y7677823D01*
X10756117Y7677333D01*
X10756188Y7676912D01*
X10756293Y7676526D01*
X10756363Y7676176D01*
X10756433Y7675860D01*
X10756503Y7675615D01*
X10756573Y7675405D01*
X10756608Y7675265D01*
X10756643Y7675194D01*
Y7675159D01*
X10756994Y7674248D01*
X10757379Y7673442D01*
X10757765Y7672741D01*
X10758115Y7672145D01*
X10758466Y7671689D01*
X10758746Y7671339D01*
X10758922Y7671128D01*
X10758957Y7671093D01*
X10758992Y7671058D01*
X10759412Y7670673D01*
X10759903Y7670322D01*
X10760394Y7670042D01*
X10760849Y7669796D01*
X10761270Y7669621D01*
X10761586Y7669481D01*
X10761726Y7669446D01*
X10761831Y7669411D01*
X10761866Y7669376D01*
X10761901D01*
X10762637Y7669201D01*
X10763443Y7669060D01*
X10764285Y7668955D01*
X10765091Y7668885D01*
X10765792Y7668850D01*
X10766107D01*
X10766388Y7668815D01*
X10773819D01*
Y7693527D01*
D02*
G37*
G36*
X10736804Y7694158D02*
X10736558D01*
X10736033Y7694123D01*
X10735577Y7694052D01*
X10735086Y7693912D01*
X10734666Y7693737D01*
X10733859Y7693316D01*
X10733193Y7692861D01*
X10732913Y7692615D01*
X10732668Y7692370D01*
X10732457Y7692125D01*
X10732247Y7691949D01*
X10732107Y7691774D01*
X10732002Y7691634D01*
X10731967Y7691564D01*
X10731932Y7691529D01*
X10731581Y7690968D01*
X10731301Y7690337D01*
X10731055Y7689566D01*
X10730845Y7688760D01*
X10730670Y7687918D01*
X10730494Y7687042D01*
X10730284Y7685254D01*
X10730179Y7684413D01*
X10730144Y7683607D01*
X10730109Y7682871D01*
X10730074Y7682240D01*
X10730039Y7681679D01*
Y7681469D01*
Y7681294D01*
Y7681153D01*
Y7681048D01*
Y7680978D01*
Y7680943D01*
X10730074Y7679506D01*
X10730109Y7678209D01*
X10730214Y7677017D01*
X10730319Y7675931D01*
X10730459Y7674949D01*
X10730635Y7674108D01*
X10730810Y7673337D01*
X10730985Y7672671D01*
X10731160Y7672110D01*
X10731336Y7671619D01*
X10731476Y7671199D01*
X10731651Y7670883D01*
X10731756Y7670638D01*
X10731861Y7670497D01*
X10731896Y7670392D01*
X10731932Y7670357D01*
X10732282Y7669902D01*
X10732668Y7669481D01*
X10733053Y7669130D01*
X10733439Y7668850D01*
X10733824Y7668570D01*
X10734210Y7668359D01*
X10734560Y7668184D01*
X10734911Y7668044D01*
X10735542Y7667869D01*
X10735822Y7667798D01*
X10736068Y7667763D01*
X10736243D01*
X10736418Y7667728D01*
X10736523D01*
X10737014Y7667763D01*
X10737505Y7667834D01*
X10737960Y7667974D01*
X10738381Y7668149D01*
X10739187Y7668535D01*
X10739853Y7669025D01*
X10740379Y7669516D01*
X10740589Y7669726D01*
X10740765Y7669902D01*
X10740940Y7670077D01*
X10741045Y7670217D01*
X10741080Y7670287D01*
X10741115Y7670322D01*
X10741431Y7670883D01*
X10741711Y7671549D01*
X10741991Y7672285D01*
X10742202Y7673091D01*
X10742377Y7673968D01*
X10742517Y7674844D01*
X10742728Y7676632D01*
X10742833Y7677473D01*
X10742868Y7678279D01*
X10742903Y7679015D01*
X10742938Y7679646D01*
X10742973Y7680172D01*
Y7680417D01*
Y7680592D01*
Y7680733D01*
Y7680838D01*
Y7680908D01*
Y7680943D01*
X10742938Y7682380D01*
X10742868Y7683677D01*
X10742798Y7684904D01*
X10742657Y7685990D01*
X10742517Y7686972D01*
X10742342Y7687883D01*
X10742132Y7688654D01*
X10741956Y7689355D01*
X10741781Y7689986D01*
X10741571Y7690477D01*
X10741396Y7690898D01*
X10741255Y7691248D01*
X10741115Y7691529D01*
X10741010Y7691704D01*
X10740975Y7691809D01*
X10740940Y7691844D01*
X10740624Y7692265D01*
X10740274Y7692615D01*
X10739923Y7692931D01*
X10739573Y7693176D01*
X10739187Y7693421D01*
X10738837Y7693597D01*
X10738136Y7693877D01*
X10737505Y7694052D01*
X10737224Y7694087D01*
X10737014Y7694123D01*
X10736804Y7694158D01*
D02*
G37*
G36*
X10770752Y7553563D02*
X10763286D01*
X10762655Y7553528D01*
X10762059Y7553493D01*
X10761498Y7553458D01*
X10761007Y7553423D01*
X10760552Y7553353D01*
X10760131Y7553283D01*
X10759780Y7553248D01*
X10759465Y7553178D01*
X10759184Y7553108D01*
X10758974Y7553037D01*
X10758764Y7553002D01*
X10758624Y7552967D01*
X10758518Y7552932D01*
X10758483Y7552897D01*
X10758448D01*
X10757993Y7552687D01*
X10757572Y7552477D01*
X10756801Y7551916D01*
X10756100Y7551320D01*
X10755504Y7550689D01*
X10755048Y7550128D01*
X10754838Y7549883D01*
X10754698Y7549672D01*
X10754558Y7549462D01*
X10754452Y7549322D01*
X10754417Y7549252D01*
X10754382Y7549217D01*
X10754102Y7548691D01*
X10753822Y7548095D01*
X10753401Y7546868D01*
X10753120Y7545571D01*
X10752910Y7544310D01*
X10752840Y7543714D01*
X10752770Y7543188D01*
X10752735Y7542697D01*
Y7542277D01*
X10752700Y7541926D01*
Y7541646D01*
Y7541505D01*
Y7541435D01*
X10752735Y7540103D01*
X10752840Y7538912D01*
X10752910Y7538351D01*
X10752980Y7537860D01*
X10753050Y7537369D01*
X10753120Y7536949D01*
X10753226Y7536563D01*
X10753296Y7536213D01*
X10753366Y7535897D01*
X10753436Y7535652D01*
X10753506Y7535441D01*
X10753541Y7535301D01*
X10753576Y7535231D01*
Y7535196D01*
X10753927Y7534285D01*
X10754312Y7533478D01*
X10754698Y7532777D01*
X10755048Y7532182D01*
X10755399Y7531726D01*
X10755679Y7531375D01*
X10755855Y7531165D01*
X10755890Y7531130D01*
X10755925Y7531095D01*
X10756345Y7530709D01*
X10756836Y7530359D01*
X10757327Y7530078D01*
X10757782Y7529833D01*
X10758203Y7529658D01*
X10758518Y7529518D01*
X10758659Y7529483D01*
X10758764Y7529447D01*
X10758799Y7529412D01*
X10758834D01*
X10759570Y7529237D01*
X10760376Y7529097D01*
X10761217Y7528992D01*
X10762024Y7528922D01*
X10762725Y7528887D01*
X10763040D01*
X10763321Y7528852D01*
X10770752D01*
Y7553563D01*
D02*
G37*
G36*
X10773714Y7413864D02*
X10766248D01*
X10765617Y7413828D01*
X10765021Y7413793D01*
X10764460Y7413758D01*
X10763969Y7413723D01*
X10763514Y7413653D01*
X10763093Y7413583D01*
X10762743Y7413548D01*
X10762427Y7413478D01*
X10762147Y7413408D01*
X10761936Y7413338D01*
X10761726Y7413303D01*
X10761586Y7413268D01*
X10761481Y7413233D01*
X10761446Y7413198D01*
X10761411D01*
X10760955Y7412987D01*
X10760534Y7412777D01*
X10759763Y7412216D01*
X10759062Y7411620D01*
X10758466Y7410989D01*
X10758010Y7410428D01*
X10757800Y7410183D01*
X10757660Y7409973D01*
X10757520Y7409762D01*
X10757415Y7409622D01*
X10757380Y7409552D01*
X10757344Y7409517D01*
X10757064Y7408991D01*
X10756784Y7408395D01*
X10756363Y7407169D01*
X10756083Y7405872D01*
X10755872Y7404610D01*
X10755802Y7404014D01*
X10755732Y7403488D01*
X10755697Y7402997D01*
Y7402577D01*
X10755662Y7402226D01*
Y7401946D01*
Y7401806D01*
Y7401736D01*
X10755697Y7400404D01*
X10755802Y7399212D01*
X10755872Y7398651D01*
X10755942Y7398160D01*
X10756013Y7397669D01*
X10756083Y7397249D01*
X10756188Y7396863D01*
X10756258Y7396513D01*
X10756328Y7396197D01*
X10756398Y7395952D01*
X10756468Y7395742D01*
X10756503Y7395601D01*
X10756538Y7395531D01*
Y7395496D01*
X10756889Y7394585D01*
X10757274Y7393779D01*
X10757660Y7393078D01*
X10758010Y7392482D01*
X10758361Y7392026D01*
X10758641Y7391676D01*
X10758817Y7391465D01*
X10758852Y7391430D01*
X10758887Y7391395D01*
X10759307Y7391010D01*
X10759798Y7390659D01*
X10760289Y7390379D01*
X10760745Y7390133D01*
X10761165Y7389958D01*
X10761481Y7389818D01*
X10761621Y7389783D01*
X10761726Y7389748D01*
X10761761Y7389713D01*
X10761796D01*
X10762532Y7389537D01*
X10763338Y7389397D01*
X10764180Y7389292D01*
X10764986Y7389222D01*
X10765687Y7389187D01*
X10766002D01*
X10766283Y7389152D01*
X10773714D01*
Y7413864D01*
D02*
G37*
G36*
X10773871Y7274444D02*
X10766405D01*
X10765774Y7274409D01*
X10765178Y7274374D01*
X10764618Y7274339D01*
X10764127Y7274303D01*
X10763671Y7274233D01*
X10763251Y7274163D01*
X10762900Y7274128D01*
X10762585Y7274058D01*
X10762304Y7273988D01*
X10762094Y7273918D01*
X10761883Y7273883D01*
X10761743Y7273848D01*
X10761638Y7273813D01*
X10761603Y7273778D01*
X10761568D01*
X10761112Y7273567D01*
X10760692Y7273357D01*
X10759921Y7272796D01*
X10759220Y7272200D01*
X10758624Y7271569D01*
X10758168Y7271009D01*
X10757958Y7270763D01*
X10757817Y7270553D01*
X10757677Y7270343D01*
X10757572Y7270202D01*
X10757537Y7270132D01*
X10757502Y7270097D01*
X10757222Y7269571D01*
X10756941Y7268976D01*
X10756521Y7267749D01*
X10756240Y7266452D01*
X10756030Y7265190D01*
X10755960Y7264594D01*
X10755890Y7264068D01*
X10755855Y7263578D01*
Y7263157D01*
X10755819Y7262806D01*
Y7262526D01*
Y7262386D01*
Y7262316D01*
X10755855Y7260984D01*
X10755960Y7259792D01*
X10756030Y7259231D01*
X10756100Y7258740D01*
X10756170Y7258250D01*
X10756240Y7257829D01*
X10756345Y7257443D01*
X10756415Y7257093D01*
X10756485Y7256777D01*
X10756556Y7256532D01*
X10756626Y7256322D01*
X10756661Y7256182D01*
X10756696Y7256111D01*
Y7256076D01*
X10757046Y7255165D01*
X10757432Y7254359D01*
X10757817Y7253658D01*
X10758168Y7253062D01*
X10758518Y7252606D01*
X10758799Y7252256D01*
X10758974Y7252045D01*
X10759009Y7252010D01*
X10759044Y7251975D01*
X10759465Y7251590D01*
X10759956Y7251239D01*
X10760446Y7250959D01*
X10760902Y7250713D01*
X10761323Y7250538D01*
X10761638Y7250398D01*
X10761778Y7250363D01*
X10761883Y7250328D01*
X10761919Y7250293D01*
X10761954D01*
X10762690Y7250118D01*
X10763496Y7249977D01*
X10764337Y7249872D01*
X10765143Y7249802D01*
X10765844Y7249767D01*
X10766160D01*
X10766440Y7249732D01*
X10773871D01*
Y7274444D01*
D02*
G37*
G36*
X10773819Y5344027D02*
X10766353D01*
X10765722Y5343992D01*
X10765126Y5343957D01*
X10764565Y5343921D01*
X10764074Y5343886D01*
X10763619Y5343816D01*
X10763198Y5343746D01*
X10762847Y5343711D01*
X10762532Y5343641D01*
X10762252Y5343571D01*
X10762041Y5343501D01*
X10761831Y5343466D01*
X10761691Y5343431D01*
X10761586Y5343396D01*
X10761550Y5343361D01*
X10761515D01*
X10761060Y5343150D01*
X10760639Y5342940D01*
X10759868Y5342379D01*
X10759167Y5341783D01*
X10758571Y5341152D01*
X10758115Y5340592D01*
X10757905Y5340346D01*
X10757765Y5340136D01*
X10757625Y5339926D01*
X10757520Y5339785D01*
X10757484Y5339715D01*
X10757449Y5339680D01*
X10757169Y5339154D01*
X10756889Y5338559D01*
X10756468Y5337332D01*
X10756188Y5336035D01*
X10755977Y5334773D01*
X10755907Y5334177D01*
X10755837Y5333651D01*
X10755802Y5333161D01*
Y5332740D01*
X10755767Y5332389D01*
Y5332109D01*
Y5331969D01*
Y5331899D01*
X10755802Y5330567D01*
X10755907Y5329375D01*
X10755977Y5328814D01*
X10756047Y5328323D01*
X10756117Y5327833D01*
X10756188Y5327412D01*
X10756293Y5327026D01*
X10756363Y5326676D01*
X10756433Y5326360D01*
X10756503Y5326115D01*
X10756573Y5325905D01*
X10756608Y5325765D01*
X10756643Y5325694D01*
Y5325659D01*
X10756994Y5324748D01*
X10757379Y5323942D01*
X10757765Y5323241D01*
X10758115Y5322645D01*
X10758466Y5322189D01*
X10758746Y5321839D01*
X10758922Y5321628D01*
X10758957Y5321593D01*
X10758992Y5321558D01*
X10759412Y5321173D01*
X10759903Y5320822D01*
X10760394Y5320542D01*
X10760849Y5320296D01*
X10761270Y5320121D01*
X10761586Y5319981D01*
X10761726Y5319946D01*
X10761831Y5319911D01*
X10761866Y5319876D01*
X10761901D01*
X10762637Y5319701D01*
X10763443Y5319560D01*
X10764285Y5319455D01*
X10765091Y5319385D01*
X10765792Y5319350D01*
X10766107D01*
X10766388Y5319315D01*
X10773819D01*
Y5344027D01*
D02*
G37*
G36*
X10736804Y5344658D02*
X10736558D01*
X10736033Y5344623D01*
X10735577Y5344552D01*
X10735086Y5344412D01*
X10734666Y5344237D01*
X10733859Y5343816D01*
X10733193Y5343361D01*
X10732913Y5343115D01*
X10732668Y5342870D01*
X10732457Y5342625D01*
X10732247Y5342449D01*
X10732107Y5342274D01*
X10732002Y5342134D01*
X10731967Y5342064D01*
X10731932Y5342029D01*
X10731581Y5341468D01*
X10731301Y5340837D01*
X10731055Y5340066D01*
X10730845Y5339260D01*
X10730670Y5338418D01*
X10730494Y5337542D01*
X10730284Y5335754D01*
X10730179Y5334913D01*
X10730144Y5334107D01*
X10730109Y5333371D01*
X10730074Y5332740D01*
X10730039Y5332179D01*
Y5331969D01*
Y5331794D01*
Y5331653D01*
Y5331548D01*
Y5331478D01*
Y5331443D01*
X10730074Y5330006D01*
X10730109Y5328709D01*
X10730214Y5327517D01*
X10730319Y5326431D01*
X10730459Y5325449D01*
X10730635Y5324608D01*
X10730810Y5323837D01*
X10730985Y5323171D01*
X10731160Y5322610D01*
X10731336Y5322119D01*
X10731476Y5321699D01*
X10731651Y5321383D01*
X10731756Y5321138D01*
X10731861Y5320997D01*
X10731896Y5320892D01*
X10731932Y5320857D01*
X10732282Y5320402D01*
X10732668Y5319981D01*
X10733053Y5319630D01*
X10733439Y5319350D01*
X10733824Y5319070D01*
X10734210Y5318859D01*
X10734560Y5318684D01*
X10734911Y5318544D01*
X10735542Y5318369D01*
X10735822Y5318298D01*
X10736068Y5318263D01*
X10736243D01*
X10736418Y5318228D01*
X10736523D01*
X10737014Y5318263D01*
X10737505Y5318334D01*
X10737960Y5318474D01*
X10738381Y5318649D01*
X10739187Y5319035D01*
X10739853Y5319525D01*
X10740379Y5320016D01*
X10740589Y5320226D01*
X10740765Y5320402D01*
X10740940Y5320577D01*
X10741045Y5320717D01*
X10741080Y5320787D01*
X10741115Y5320822D01*
X10741431Y5321383D01*
X10741711Y5322049D01*
X10741991Y5322785D01*
X10742202Y5323591D01*
X10742377Y5324468D01*
X10742517Y5325344D01*
X10742728Y5327132D01*
X10742833Y5327973D01*
X10742868Y5328779D01*
X10742903Y5329515D01*
X10742938Y5330146D01*
X10742973Y5330672D01*
Y5330917D01*
Y5331092D01*
Y5331233D01*
Y5331338D01*
Y5331408D01*
Y5331443D01*
X10742938Y5332880D01*
X10742868Y5334177D01*
X10742798Y5335404D01*
X10742657Y5336490D01*
X10742517Y5337472D01*
X10742342Y5338383D01*
X10742132Y5339154D01*
X10741956Y5339855D01*
X10741781Y5340486D01*
X10741571Y5340977D01*
X10741396Y5341398D01*
X10741255Y5341748D01*
X10741115Y5342029D01*
X10741010Y5342204D01*
X10740975Y5342309D01*
X10740940Y5342344D01*
X10740624Y5342765D01*
X10740274Y5343115D01*
X10739923Y5343431D01*
X10739573Y5343676D01*
X10739187Y5343921D01*
X10738837Y5344097D01*
X10738136Y5344377D01*
X10737505Y5344552D01*
X10737224Y5344587D01*
X10737014Y5344623D01*
X10736804Y5344658D01*
D02*
G37*
G36*
X10770752Y5204063D02*
X10763286D01*
X10762655Y5204028D01*
X10762059Y5203993D01*
X10761498Y5203958D01*
X10761007Y5203923D01*
X10760552Y5203853D01*
X10760131Y5203783D01*
X10759780Y5203748D01*
X10759465Y5203678D01*
X10759184Y5203608D01*
X10758974Y5203537D01*
X10758764Y5203502D01*
X10758624Y5203467D01*
X10758518Y5203432D01*
X10758483Y5203397D01*
X10758448D01*
X10757993Y5203187D01*
X10757572Y5202977D01*
X10756801Y5202416D01*
X10756100Y5201820D01*
X10755504Y5201189D01*
X10755048Y5200628D01*
X10754838Y5200383D01*
X10754698Y5200172D01*
X10754558Y5199962D01*
X10754452Y5199822D01*
X10754417Y5199752D01*
X10754382Y5199717D01*
X10754102Y5199191D01*
X10753822Y5198595D01*
X10753401Y5197368D01*
X10753120Y5196071D01*
X10752910Y5194810D01*
X10752840Y5194214D01*
X10752770Y5193688D01*
X10752735Y5193197D01*
Y5192777D01*
X10752700Y5192426D01*
Y5192146D01*
Y5192005D01*
Y5191935D01*
X10752735Y5190603D01*
X10752840Y5189412D01*
X10752910Y5188851D01*
X10752980Y5188360D01*
X10753050Y5187869D01*
X10753120Y5187449D01*
X10753226Y5187063D01*
X10753296Y5186713D01*
X10753366Y5186397D01*
X10753436Y5186152D01*
X10753506Y5185941D01*
X10753541Y5185801D01*
X10753576Y5185731D01*
Y5185696D01*
X10753927Y5184785D01*
X10754312Y5183978D01*
X10754698Y5183277D01*
X10755048Y5182682D01*
X10755399Y5182226D01*
X10755679Y5181875D01*
X10755855Y5181665D01*
X10755890Y5181630D01*
X10755925Y5181595D01*
X10756345Y5181209D01*
X10756836Y5180859D01*
X10757327Y5180578D01*
X10757782Y5180333D01*
X10758203Y5180158D01*
X10758518Y5180018D01*
X10758659Y5179983D01*
X10758764Y5179947D01*
X10758799Y5179912D01*
X10758834D01*
X10759570Y5179737D01*
X10760376Y5179597D01*
X10761217Y5179492D01*
X10762024Y5179422D01*
X10762725Y5179387D01*
X10763040D01*
X10763321Y5179352D01*
X10770752D01*
Y5204063D01*
D02*
G37*
G36*
X10773714Y5064364D02*
X10766248D01*
X10765617Y5064328D01*
X10765021Y5064293D01*
X10764460Y5064258D01*
X10763969Y5064223D01*
X10763514Y5064153D01*
X10763093Y5064083D01*
X10762743Y5064048D01*
X10762427Y5063978D01*
X10762147Y5063908D01*
X10761936Y5063838D01*
X10761726Y5063803D01*
X10761586Y5063768D01*
X10761481Y5063733D01*
X10761446Y5063698D01*
X10761411D01*
X10760955Y5063487D01*
X10760534Y5063277D01*
X10759763Y5062716D01*
X10759062Y5062120D01*
X10758466Y5061489D01*
X10758010Y5060928D01*
X10757800Y5060683D01*
X10757660Y5060473D01*
X10757520Y5060262D01*
X10757415Y5060122D01*
X10757380Y5060052D01*
X10757344Y5060017D01*
X10757064Y5059491D01*
X10756784Y5058895D01*
X10756363Y5057669D01*
X10756083Y5056372D01*
X10755872Y5055110D01*
X10755802Y5054514D01*
X10755732Y5053988D01*
X10755697Y5053497D01*
Y5053077D01*
X10755662Y5052726D01*
Y5052446D01*
Y5052306D01*
Y5052236D01*
X10755697Y5050904D01*
X10755802Y5049712D01*
X10755872Y5049151D01*
X10755942Y5048660D01*
X10756013Y5048169D01*
X10756083Y5047749D01*
X10756188Y5047363D01*
X10756258Y5047013D01*
X10756328Y5046697D01*
X10756398Y5046452D01*
X10756468Y5046242D01*
X10756503Y5046101D01*
X10756538Y5046031D01*
Y5045996D01*
X10756889Y5045085D01*
X10757274Y5044279D01*
X10757660Y5043578D01*
X10758010Y5042982D01*
X10758361Y5042526D01*
X10758641Y5042176D01*
X10758817Y5041965D01*
X10758852Y5041930D01*
X10758887Y5041895D01*
X10759307Y5041510D01*
X10759798Y5041159D01*
X10760289Y5040879D01*
X10760745Y5040633D01*
X10761165Y5040458D01*
X10761481Y5040318D01*
X10761621Y5040283D01*
X10761726Y5040248D01*
X10761761Y5040213D01*
X10761796D01*
X10762532Y5040037D01*
X10763338Y5039897D01*
X10764180Y5039792D01*
X10764986Y5039722D01*
X10765687Y5039687D01*
X10766002D01*
X10766283Y5039652D01*
X10773714D01*
Y5064364D01*
D02*
G37*
G36*
X10773871Y4924944D02*
X10766405D01*
X10765774Y4924909D01*
X10765178Y4924874D01*
X10764618Y4924839D01*
X10764127Y4924803D01*
X10763671Y4924733D01*
X10763251Y4924663D01*
X10762900Y4924628D01*
X10762585Y4924558D01*
X10762304Y4924488D01*
X10762094Y4924418D01*
X10761883Y4924383D01*
X10761743Y4924348D01*
X10761638Y4924313D01*
X10761603Y4924278D01*
X10761568D01*
X10761112Y4924067D01*
X10760692Y4923857D01*
X10759921Y4923296D01*
X10759220Y4922700D01*
X10758624Y4922069D01*
X10758168Y4921509D01*
X10757958Y4921263D01*
X10757817Y4921053D01*
X10757677Y4920843D01*
X10757572Y4920702D01*
X10757537Y4920632D01*
X10757502Y4920597D01*
X10757222Y4920071D01*
X10756941Y4919476D01*
X10756521Y4918249D01*
X10756240Y4916952D01*
X10756030Y4915690D01*
X10755960Y4915094D01*
X10755890Y4914568D01*
X10755855Y4914078D01*
Y4913657D01*
X10755819Y4913306D01*
Y4913026D01*
Y4912886D01*
Y4912816D01*
X10755855Y4911484D01*
X10755960Y4910292D01*
X10756030Y4909731D01*
X10756100Y4909240D01*
X10756170Y4908750D01*
X10756240Y4908329D01*
X10756345Y4907943D01*
X10756415Y4907593D01*
X10756485Y4907277D01*
X10756556Y4907032D01*
X10756626Y4906822D01*
X10756661Y4906682D01*
X10756696Y4906611D01*
Y4906576D01*
X10757046Y4905665D01*
X10757432Y4904859D01*
X10757817Y4904158D01*
X10758168Y4903562D01*
X10758518Y4903106D01*
X10758799Y4902756D01*
X10758974Y4902545D01*
X10759009Y4902510D01*
X10759044Y4902475D01*
X10759465Y4902090D01*
X10759956Y4901739D01*
X10760446Y4901459D01*
X10760902Y4901213D01*
X10761323Y4901038D01*
X10761638Y4900898D01*
X10761778Y4900863D01*
X10761883Y4900828D01*
X10761919Y4900793D01*
X10761954D01*
X10762690Y4900618D01*
X10763496Y4900477D01*
X10764337Y4900372D01*
X10765143Y4900302D01*
X10765844Y4900267D01*
X10766160D01*
X10766440Y4900232D01*
X10773871D01*
Y4924944D01*
D02*
G37*
%LPD*%
D43*
X9933060Y4744060D02*
Y4344060D01*
Y4744060D02*
X11093060D01*
Y4344060D01*
X9933060D02*
X11093060D01*
X10303060Y5539960D02*
X10723460D01*
X10303060Y6138960D02*
X10723460D01*
X10213560Y5952360D02*
Y5729460D01*
X10812560Y5952360D02*
Y5726560D01*
X9933060Y7093560D02*
Y6693560D01*
Y7093560D02*
X11093060D01*
Y6693560D01*
X9933060D02*
X11093060D01*
X10303060Y7889460D02*
X10723460D01*
X10303060Y8488460D02*
X10723460D01*
X10213560Y8301860D02*
Y8078960D01*
X10812560Y8301860D02*
Y8076060D01*
D44*
X10968060Y6051960D02*
G03*
X10968060Y6051960I0J12500D01*
G01*
Y8401460D02*
G03*
X10968060Y8401460I0J12500D01*
G01*
D49*
X10678060Y5371460D02*
Y5291460D01*
Y4952360D02*
Y4872360D01*
Y5092060D02*
Y5012060D01*
Y5231760D02*
Y5151760D01*
Y7720960D02*
Y7640960D01*
Y7301860D02*
Y7221860D01*
Y7441560D02*
Y7361560D01*
Y7581260D02*
Y7501260D01*
D50*
X10335211Y4112235D02*
Y4061452D01*
X10309819Y4036060D01*
X10208252D01*
X10182860Y4061452D01*
Y4112235D01*
X10208252Y4137627D01*
X10309819D01*
X10335211Y4112235D01*
X10182860Y4188411D02*
X10335211D01*
X10182860Y4289978D01*
X10335211D01*
X10843211Y3959835D02*
Y3909052D01*
X10817819Y3883660D01*
X10716252D01*
X10690860Y3909052D01*
Y3959835D01*
X10716252Y3985227D01*
X10817819D01*
X10843211Y3959835D01*
Y4137578D02*
Y4036011D01*
X10767035D01*
Y4086794D01*
Y4036011D01*
X10690860D01*
X10843211Y4289929D02*
Y4188361D01*
X10767035D01*
Y4239145D01*
Y4188361D01*
X10690860D01*
X10335211Y6461735D02*
Y6410952D01*
X10309819Y6385560D01*
X10208252D01*
X10182860Y6410952D01*
Y6461735D01*
X10208252Y6487127D01*
X10309819D01*
X10335211Y6461735D01*
X10182860Y6537911D02*
X10335211D01*
X10182860Y6639478D01*
X10335211D01*
X10843211Y6309335D02*
Y6258552D01*
X10817819Y6233160D01*
X10716252D01*
X10690860Y6258552D01*
Y6309335D01*
X10716252Y6334727D01*
X10817819D01*
X10843211Y6309335D01*
Y6487078D02*
Y6385511D01*
X10767035D01*
Y6436294D01*
Y6385511D01*
X10690860D01*
X10843211Y6639429D02*
Y6537861D01*
X10767035D01*
Y6588645D01*
Y6537861D01*
X10690860D01*
%TF.MD5,12d844fbca01a3b288b1458be5b4354c*%
M02*
