G04*
G04 #@! TF.GenerationSoftware,Altium Limited,Altium Designer,24.2.2 (26)*
G04*
G04 Layer_Color=128*
%FSLAX42Y42*%
%MOMM*%
G71*
G04*
G04 #@! TF.SameCoordinates,76D319BD-C469-47C5-B3DC-DB0EE438ED8F*
G04*
G04*
G04 #@! TF.FilePolarity,Positive*
G04*
G01*
G75*
%ADD31C,0.15*%
%ADD32C,0.20*%
%ADD47C,0.13*%
D31*
X256Y2990D02*
X2415D01*
X256Y1047D02*
Y2990D01*
Y1047D02*
X2415D01*
Y2990D01*
X2466D02*
X4625D01*
X2466Y1047D02*
Y2990D01*
Y1047D02*
X4625D01*
Y2990D01*
D32*
X10622Y4376D02*
Y4666D01*
X9622D02*
X10622D01*
X9622Y4376D02*
Y4666D01*
Y4376D02*
X10622D01*
Y6586D02*
Y6876D01*
X9622D02*
X10622D01*
X9622Y6586D02*
Y6876D01*
Y6586D02*
X10622D01*
X319Y5737D02*
X744D01*
X319Y5337D02*
Y5737D01*
Y5337D02*
X744D01*
Y5737D01*
X319Y4866D02*
X744D01*
X319Y4466D02*
Y4866D01*
Y4466D02*
X744D01*
Y4866D01*
X7775Y3123D02*
Y3548D01*
Y3123D02*
X8175D01*
Y3548D01*
X7775D02*
X8175D01*
X7163Y3123D02*
Y3548D01*
Y3123D02*
X7563D01*
Y3548D01*
X7163D02*
X7563D01*
X7580Y7135D02*
Y7785D01*
Y7135D02*
X8020D01*
Y7785D01*
X7580D02*
X8020D01*
X7880Y7942D02*
Y8232D01*
X7720D02*
X7880D01*
X7720Y7942D02*
Y8232D01*
Y7942D02*
X7880D01*
X6772Y7224D02*
X6822D01*
Y7324D01*
X6772D02*
X6822D01*
X6772Y7224D02*
Y7324D01*
X6909D02*
X6959D01*
X6909Y7224D02*
Y7324D01*
Y7224D02*
X6959D01*
Y7324D01*
X8441Y7703D02*
X8491D01*
X8441Y7603D02*
Y7703D01*
Y7603D02*
X8491D01*
Y7703D01*
X7272Y7470D02*
X7327D01*
Y7575D01*
X7272D02*
X7327D01*
X7272Y7470D02*
Y7575D01*
X7267Y7284D02*
X7317D01*
X7267Y7184D02*
Y7284D01*
Y7184D02*
X7317D01*
Y7284D01*
X7125Y7701D02*
X7180D01*
X7125Y7596D02*
Y7701D01*
Y7596D02*
X7180D01*
Y7701D01*
X8294Y7699D02*
X8343D01*
Y7799D01*
X8294D02*
X8343D01*
X8294Y7699D02*
Y7799D01*
X7267Y7641D02*
X7317D01*
Y7741D01*
X7267D02*
X7317D01*
X7267Y7641D02*
Y7741D01*
X7720Y6738D02*
Y7028D01*
Y6738D02*
X7880D01*
Y7028D01*
X7720D02*
X7880D01*
X6975Y5789D02*
X7025D01*
Y5889D01*
X6975D02*
X7025D01*
X6975Y5789D02*
Y5889D01*
Y6028D02*
X7025D01*
Y6128D01*
X6975D02*
X7025D01*
X6975Y6028D02*
Y6128D01*
X8314Y5908D02*
X8364D01*
Y6008D01*
X8314D02*
X8364D01*
X8314Y5908D02*
Y6008D01*
X7865Y4029D02*
X7990D01*
X7865Y3829D02*
Y4029D01*
Y3829D02*
X7990D01*
Y4029D01*
X7245Y4048D02*
X7370D01*
X7245Y3848D02*
Y4048D01*
Y3848D02*
X7370D01*
Y4048D01*
D47*
X707Y2863D02*
X821D01*
X764Y2806D02*
Y2920D01*
X961Y2863D02*
X1075D01*
X1018Y2806D02*
Y2920D01*
X1215Y2863D02*
X1329D01*
X1272Y2806D02*
Y2920D01*
X1469Y2863D02*
X1583D01*
X1526Y2806D02*
Y2920D01*
X1723Y2863D02*
X1837D01*
X1780Y2806D02*
Y2920D01*
X1977Y2863D02*
X2091D01*
X2034Y2806D02*
Y2920D01*
X2231Y2863D02*
X2345D01*
X2288Y2806D02*
Y2920D01*
X2917Y2863D02*
X3031D01*
X2974Y2806D02*
Y2920D01*
X3171Y2863D02*
X3285D01*
X3228Y2806D02*
Y2920D01*
X3425Y2863D02*
X3539D01*
X3482Y2806D02*
Y2920D01*
X3679Y2863D02*
X3793D01*
X3736Y2806D02*
Y2920D01*
X3933Y2863D02*
X4047D01*
X3990Y2806D02*
Y2920D01*
X4187Y2863D02*
X4301D01*
X4244Y2806D02*
Y2920D01*
X4441Y2863D02*
X4555D01*
X4498Y2806D02*
Y2920D01*
X10643Y5927D02*
X10743D01*
X10693Y5877D02*
Y5977D01*
X10643Y5677D02*
X10743D01*
X10693Y5627D02*
Y5727D01*
X10643Y5427D02*
X10743D01*
X10693Y5377D02*
Y5477D01*
X9124Y6002D02*
X9222D01*
X9173Y5952D02*
Y6051D01*
X9574Y6002D02*
X9672D01*
X9623Y5952D02*
Y6051D01*
X9574Y5352D02*
X9672D01*
X9623Y5302D02*
Y5401D01*
X9124Y5352D02*
X9222D01*
X9173Y5302D02*
Y5401D01*
X9954Y5441D02*
X9985D01*
X9969Y5425D02*
Y5456D01*
X10119Y5443D02*
X10150D01*
X10135Y5428D02*
Y5458D01*
X9812Y5489D02*
X9843D01*
X9827Y5474D02*
Y5504D01*
X10310Y5428D02*
X10340D01*
X10325Y5413D02*
Y5443D01*
X10254Y4539D02*
X10305D01*
X10279Y4514D02*
Y4564D01*
X10643Y8137D02*
X10743D01*
X10693Y8087D02*
Y8187D01*
X10643Y7887D02*
X10743D01*
X10693Y7837D02*
Y7937D01*
X10643Y7637D02*
X10743D01*
X10693Y7587D02*
Y7687D01*
X9124Y8212D02*
X9222D01*
X9173Y8162D02*
Y8261D01*
X9574Y8212D02*
X9672D01*
X9623Y8162D02*
Y8261D01*
X9574Y7562D02*
X9672D01*
X9623Y7512D02*
Y7611D01*
X9124Y7562D02*
X9222D01*
X9173Y7512D02*
Y7611D01*
X9954Y7650D02*
X9985D01*
X9969Y7635D02*
Y7666D01*
X10119Y7653D02*
X10150D01*
X10135Y7638D02*
Y7668D01*
X9812Y7699D02*
X9843D01*
X9827Y7683D02*
Y7714D01*
X10310Y7638D02*
X10340D01*
X10325Y7623D02*
Y7653D01*
X10254Y6749D02*
X10305D01*
X10279Y6723D02*
Y6774D01*
X8757Y7940D02*
X8871D01*
X8814Y7883D02*
Y7997D01*
X8757Y7686D02*
X8871D01*
X8814Y7629D02*
Y7743D01*
X8757Y7432D02*
X8871D01*
X8814Y7375D02*
Y7489D01*
X8757Y7178D02*
X8871D01*
X8814Y7121D02*
Y7235D01*
X8757Y6924D02*
X8871D01*
X8814Y6867D02*
Y6981D01*
X8757Y6670D02*
X8871D01*
X8814Y6613D02*
Y6727D01*
X8757Y6416D02*
X8871D01*
X8814Y6359D02*
Y6473D01*
X8757Y6162D02*
X8871D01*
X8814Y6105D02*
Y6219D01*
X8757Y5908D02*
X8871D01*
X8814Y5851D02*
Y5965D01*
X8757Y5654D02*
X8871D01*
X8814Y5597D02*
Y5711D01*
X8757Y5400D02*
X8871D01*
X8814Y5343D02*
Y5457D01*
X8757Y5146D02*
X8871D01*
X8814Y5089D02*
Y5203D01*
X8757Y4892D02*
X8871D01*
X8814Y4835D02*
Y4949D01*
X8757Y4638D02*
X8871D01*
X8814Y4581D02*
Y4695D01*
X8757Y4384D02*
X8871D01*
X8814Y4327D02*
Y4441D01*
X6471Y4384D02*
X6585D01*
X6528Y4327D02*
Y4441D01*
X6471Y4638D02*
X6585D01*
X6528Y4581D02*
Y4695D01*
X6471Y4892D02*
X6585D01*
X6528Y4835D02*
Y4949D01*
X6471Y5146D02*
X6585D01*
X6528Y5089D02*
Y5203D01*
X6471Y5400D02*
X6585D01*
X6528Y5343D02*
Y5457D01*
X6471Y5654D02*
X6585D01*
X6528Y5597D02*
Y5711D01*
X6471Y5908D02*
X6585D01*
X6528Y5851D02*
Y5965D01*
X6471Y6162D02*
X6585D01*
X6528Y6105D02*
Y6219D01*
X6471Y6416D02*
X6585D01*
X6528Y6359D02*
Y6473D01*
X6471Y6670D02*
X6585D01*
X6528Y6613D02*
Y6727D01*
X6471Y6924D02*
X6585D01*
X6528Y6867D02*
Y6981D01*
X6471Y7178D02*
X6585D01*
X6528Y7121D02*
Y7235D01*
X6471Y7432D02*
X6585D01*
X6528Y7375D02*
Y7489D01*
X6471Y7686D02*
X6585D01*
X6528Y7629D02*
Y7743D01*
X6471Y7940D02*
X6585D01*
X6528Y7883D02*
Y7997D01*
X465Y8265D02*
X770D01*
X617Y8113D02*
Y8418D01*
X8534Y8308D02*
X8839D01*
X8687Y8156D02*
Y8461D01*
X8606Y3272D02*
X8910D01*
X8758Y3119D02*
Y3424D01*
X486Y3338D02*
X575D01*
X531Y3293D02*
Y3382D01*
X740Y3338D02*
X829D01*
X785Y3293D02*
Y3382D01*
X994Y3338D02*
X1083D01*
X1039Y3293D02*
Y3382D01*
X1248Y3338D02*
X1337D01*
X1293Y3293D02*
Y3382D01*
X1502Y3338D02*
X1591D01*
X1547Y3293D02*
Y3382D01*
X1756Y3338D02*
X1845D01*
X1801Y3293D02*
Y3382D01*
X2010Y3338D02*
X2099D01*
X2055Y3293D02*
Y3382D01*
X2264Y3338D02*
X2353D01*
X2309Y3293D02*
Y3382D01*
X2518Y3338D02*
X2607D01*
X2563Y3293D02*
Y3382D01*
X2772Y3338D02*
X2861D01*
X2817Y3293D02*
Y3382D01*
X486Y7910D02*
X575D01*
X531Y7865D02*
Y7954D01*
X486Y3592D02*
X575D01*
X531Y3547D02*
Y3636D01*
X486Y7656D02*
X575D01*
X531Y7611D02*
Y7700D01*
X740Y7910D02*
X829D01*
X785Y7865D02*
Y7954D01*
X740Y3592D02*
X829D01*
X785Y3547D02*
Y3636D01*
X740Y7656D02*
X829D01*
X785Y7611D02*
Y7700D01*
X994Y7910D02*
X1083D01*
X1039Y7865D02*
Y7954D01*
X994Y3592D02*
X1083D01*
X1039Y3547D02*
Y3636D01*
X994Y7656D02*
X1083D01*
X1039Y7611D02*
Y7700D01*
X1248Y7910D02*
X1337D01*
X1293Y7865D02*
Y7954D01*
X1248Y3592D02*
X1337D01*
X1293Y3547D02*
Y3636D01*
X1248Y7656D02*
X1337D01*
X1293Y7611D02*
Y7700D01*
X1502Y7910D02*
X1591D01*
X1547Y7865D02*
Y7954D01*
X1502Y3592D02*
X1591D01*
X1547Y3547D02*
Y3636D01*
X1502Y7656D02*
X1591D01*
X1547Y7611D02*
Y7700D01*
X1756Y7910D02*
X1845D01*
X1801Y7865D02*
Y7954D01*
X1756Y3592D02*
X1845D01*
X1801Y3547D02*
Y3636D01*
X1756Y7656D02*
X1845D01*
X1801Y7611D02*
Y7700D01*
X2010Y7910D02*
X2099D01*
X2055Y7865D02*
Y7954D01*
X2010Y3592D02*
X2099D01*
X2055Y3547D02*
Y3636D01*
X2010Y7656D02*
X2099D01*
X2055Y7611D02*
Y7700D01*
X2264Y7910D02*
X2353D01*
X2309Y7865D02*
Y7954D01*
X2264Y3592D02*
X2353D01*
X2309Y3547D02*
Y3636D01*
X2264Y7656D02*
X2353D01*
X2309Y7611D02*
Y7700D01*
X2518Y7910D02*
X2607D01*
X2563Y7865D02*
Y7954D01*
X2518Y3592D02*
X2607D01*
X2563Y3547D02*
Y3636D01*
X2518Y7656D02*
X2607D01*
X2563Y7611D02*
Y7700D01*
X2772Y7910D02*
X2861D01*
X2817Y7865D02*
Y7954D01*
X2772Y3592D02*
X2861D01*
X2817Y3547D02*
Y3636D01*
X2772Y7656D02*
X2861D01*
X2817Y7611D02*
Y7700D01*
X6146Y7559D02*
X6260D01*
X6203Y7502D02*
Y7616D01*
X6146Y7305D02*
X6260D01*
X6203Y7248D02*
Y7362D01*
X6146Y7051D02*
X6260D01*
X6203Y6994D02*
Y7108D01*
X6146Y6797D02*
X6260D01*
X6203Y6740D02*
Y6854D01*
X6146Y6543D02*
X6260D01*
X6203Y6486D02*
Y6600D01*
X6146Y6289D02*
X6260D01*
X6203Y6232D02*
Y6346D01*
X6146Y6035D02*
X6260D01*
X6203Y5978D02*
Y6092D01*
X6146Y5781D02*
X6260D01*
X6203Y5724D02*
Y5838D01*
X5494Y4623D02*
X5575D01*
X5535Y4582D02*
Y4663D01*
X5748Y4623D02*
X5829D01*
X5789Y4582D02*
Y4663D01*
X5240Y4623D02*
X5321D01*
X5281Y4582D02*
Y4663D01*
X4732Y4623D02*
X4813D01*
X4773Y4582D02*
Y4663D01*
X4478Y4623D02*
X4559D01*
X4519Y4582D02*
Y4663D01*
X6866Y5321D02*
X6896D01*
X6881Y5306D02*
Y5337D01*
X8214Y7104D02*
X8265D01*
X8240Y7079D02*
Y7130D01*
X7125Y7537D02*
X7155D01*
X7140Y7522D02*
Y7553D01*
X7646Y7686D02*
X7677D01*
X7661Y7671D02*
Y7701D01*
X3866Y7884D02*
X3896D01*
X3881Y7869D02*
Y7899D01*
X8092Y3703D02*
X8123D01*
X8108Y3688D02*
Y3719D01*
X8311Y6175D02*
X8341D01*
X8326Y6160D02*
Y6190D01*
X8318Y5639D02*
X8349D01*
X8334Y5624D02*
Y5654D01*
X8679Y6234D02*
X8710D01*
X8695Y6219D02*
Y6249D01*
X8672Y6414D02*
X8702D01*
X8687Y6398D02*
Y6429D01*
X8669Y5654D02*
X8700D01*
X8684Y5639D02*
Y5669D01*
X8672Y5913D02*
X8702D01*
X8687Y5898D02*
Y5928D01*
X6662Y5850D02*
X6693D01*
X6678Y5834D02*
Y5865D01*
X6841Y7407D02*
X6871D01*
X6856Y7391D02*
Y7422D01*
X6765Y7415D02*
X6795D01*
X6780Y7400D02*
Y7430D01*
X8280Y6414D02*
X8311D01*
X8296Y6398D02*
Y6429D01*
X8275Y5763D02*
X8306D01*
X8291Y5748D02*
Y5778D01*
X8473Y6314D02*
X8524D01*
X8499Y6289D02*
Y6340D01*
X7386Y8120D02*
X7437D01*
X7412Y8095D02*
Y8146D01*
X7760Y7615D02*
X7811D01*
X7785Y7590D02*
Y7640D01*
X8453Y7818D02*
X8504D01*
X8479Y7793D02*
Y7844D01*
Y7991D02*
X8529D01*
X8504Y7965D02*
Y8016D01*
X5403Y3411D02*
X5433D01*
X5418Y3396D02*
Y3426D01*
X3627Y3724D02*
X3658D01*
X3642Y3708D02*
Y3739D01*
X1554Y8128D02*
X1585D01*
X1570Y8113D02*
Y8143D01*
X2548Y4346D02*
X2578D01*
X2563Y4331D02*
Y4361D01*
X1184Y5387D02*
X1214D01*
X1199Y5372D02*
Y5403D01*
X1171Y4508D02*
X1201D01*
X1186Y4493D02*
Y4524D01*
X5308Y3705D02*
X5339D01*
X5323Y3690D02*
Y3721D01*
X5514Y3698D02*
X5545D01*
X5530Y3683D02*
Y3713D01*
X5611Y3703D02*
X5641D01*
X5626Y3688D02*
Y3719D01*
X5710Y3693D02*
X5740D01*
X5725Y3678D02*
Y3708D01*
X5809Y3695D02*
X5839D01*
X5824Y3680D02*
Y3711D01*
X5908Y3703D02*
X5939D01*
X5923Y3688D02*
Y3719D01*
X3028Y4826D02*
X3058D01*
X3043Y4811D02*
Y4841D01*
X6571Y5273D02*
X6601D01*
X6586Y5258D02*
Y5288D01*
X7465Y3711D02*
X7496D01*
X7480Y3696D02*
Y3726D01*
X7198Y6744D02*
X7229D01*
X7214Y6728D02*
Y6759D01*
X7445Y4899D02*
X7475D01*
X7460Y4884D02*
Y4914D01*
X7755Y6149D02*
X7785D01*
X7770Y6134D02*
Y6165D01*
X7864Y4884D02*
X7894D01*
X7879Y4869D02*
Y4900D01*
X3127Y7762D02*
X3157D01*
X3142Y7747D02*
Y7777D01*
M02*
