G04*
G04 #@! TF.GenerationSoftware,Altium Limited,Altium Designer,24.2.2 (26)*
G04*
G04 Layer_Physical_Order=1*
G04 Layer_Color=255*
%FSLAX44Y44*%
%MOMM*%
G71*
G04*
G04 #@! TF.SameCoordinates,1593786D-B9FD-428D-A88F-6B9BC25CD130*
G04*
G04*
G04 #@! TF.FilePolarity,Positive*
G04*
G01*
G75*
%ADD10C,1.2000*%
%ADD11R,1.2000X1.8000*%
%ADD12R,0.6000X1.5500*%
%ADD13C,0.2540*%
%ADD14R,0.9000X0.7000*%
%ADD15R,0.5500X0.6000*%
%ADD16C,0.5080*%
%ADD17R,1.8000X1.2000*%
%ADD18R,1.5500X0.6000*%
%ADD19R,0.7000X0.9000*%
%ADD20R,0.5000X0.6056*%
G04:AMPARAMS|DCode=21|XSize=1.9554mm|YSize=0.4208mm|CornerRadius=0.2104mm|HoleSize=0mm|Usage=FLASHONLY|Rotation=0.000|XOffset=0mm|YOffset=0mm|HoleType=Round|Shape=RoundedRectangle|*
%AMROUNDEDRECTD21*
21,1,1.9554,0.0000,0,0,0.0*
21,1,1.5347,0.4208,0,0,0.0*
1,1,0.4208,0.7673,0.0000*
1,1,0.4208,-0.7673,0.0000*
1,1,0.4208,-0.7673,0.0000*
1,1,0.4208,0.7673,0.0000*
%
%ADD21ROUNDEDRECTD21*%
%ADD22R,1.9554X0.4208*%
G04:AMPARAMS|DCode=23|XSize=1.4556mm|YSize=0.5698mm|CornerRadius=0.2849mm|HoleSize=0mm|Usage=FLASHONLY|Rotation=180.000|XOffset=0mm|YOffset=0mm|HoleType=Round|Shape=RoundedRectangle|*
%AMROUNDEDRECTD23*
21,1,1.4556,0.0000,0,0,180.0*
21,1,0.8858,0.5698,0,0,180.0*
1,1,0.5698,-0.4429,0.0000*
1,1,0.5698,0.4429,0.0000*
1,1,0.5698,0.4429,0.0000*
1,1,0.5698,-0.4429,0.0000*
%
%ADD23ROUNDEDRECTD23*%
%ADD24R,1.4556X0.5698*%
%ADD25R,0.6000X0.5500*%
%ADD26R,0.5725X0.6153*%
%ADD27R,0.6725X0.7154*%
%ADD28R,0.5000X0.4000*%
%ADD29R,1.8000X1.4000*%
%ADD30R,2.3114X0.5588*%
%ADD31R,1.4621X1.2581*%
%ADD32R,0.6000X1.5500*%
%ADD33R,1.2000X1.8000*%
%ADD34C,1.5240*%
%ADD35C,1.5000*%
%ADD36R,1.5000X1.5000*%
%ADD37C,0.5080*%
%ADD38C,0.7620*%
%ADD39C,3.4290*%
%ADD40R,1.5200X1.5200*%
%ADD41C,1.5200*%
%ADD42C,1.3208*%
G36*
X849498Y824584D02*
X850981Y821002D01*
X853136Y817777D01*
X854964Y815949D01*
Y769112D01*
X854456Y757936D01*
X854874Y753542D01*
X854020Y752602D01*
X852261D01*
X852230Y753859D01*
X852230D01*
Y763430D01*
Y768277D01*
X846328D01*
X840426D01*
Y765273D01*
X837498D01*
Y768318D01*
X831596D01*
Y770858D01*
X837498D01*
Y773042D01*
Y785276D01*
X825694D01*
Y783044D01*
X820658D01*
X819172Y782748D01*
X817912Y781906D01*
X815448Y779442D01*
X800861D01*
X799049Y779082D01*
X798316Y778592D01*
X763343D01*
Y779352D01*
X755979D01*
Y793230D01*
X757134D01*
Y794862D01*
X760178D01*
X760213Y794810D01*
X761995Y793619D01*
X764098Y793201D01*
X772956D01*
X775059Y793619D01*
X776842Y794810D01*
X778033Y796593D01*
X778451Y798696D01*
X778033Y800798D01*
X777399Y801746D01*
X778078Y803016D01*
X781215D01*
Y793307D01*
X800851D01*
Y794896D01*
X802426D01*
Y793230D01*
X812506D01*
Y793230D01*
X812590Y793326D01*
X823170D01*
Y801826D01*
Y812906D01*
X820072D01*
X819989Y813322D01*
X819147Y814583D01*
X813287Y820443D01*
X812027Y821285D01*
X810540Y821580D01*
X799348D01*
X799347Y821581D01*
X797565Y822772D01*
X795462Y823190D01*
X786604D01*
X784501Y822772D01*
X782718Y821581D01*
X781527Y819798D01*
X781109Y817696D01*
X781527Y815593D01*
X782161Y814645D01*
X781482Y813375D01*
X778078D01*
X777399Y814645D01*
X778033Y815593D01*
X778451Y817696D01*
X778033Y819798D01*
X776842Y821581D01*
X775059Y822772D01*
X772956Y823190D01*
X764098D01*
X761995Y822772D01*
X760213Y821581D01*
X759022Y819798D01*
X758603Y817696D01*
X759022Y815593D01*
X759655Y814645D01*
X758976Y813375D01*
X757134D01*
Y815422D01*
X753364D01*
Y809854D01*
X750824D01*
Y815422D01*
X747054D01*
Y810555D01*
X746915Y809854D01*
Y809426D01*
X747054Y808724D01*
Y804286D01*
Y793230D01*
X748209D01*
Y779352D01*
X738709D01*
Y778006D01*
X734882D01*
Y779474D01*
X725678D01*
Y822706D01*
X725031Y823353D01*
X725499Y824534D01*
X848747Y828355D01*
X849498Y824584D01*
D02*
G37*
G36*
X791062Y770657D02*
Y762492D01*
X789792Y761966D01*
X789516Y762243D01*
X787908Y762908D01*
Y757936D01*
X786638D01*
Y756666D01*
X781665D01*
X782331Y755058D01*
X783518Y753872D01*
X783211Y752736D01*
X783128Y752602D01*
X769621D01*
X768916Y753658D01*
X769112Y754131D01*
Y756152D01*
X768339Y758020D01*
X766910Y759449D01*
X765042Y760222D01*
X764140D01*
X763963Y760438D01*
X751026D01*
Y762978D01*
X764144D01*
X764175Y763016D01*
X765042D01*
X766910Y763789D01*
X768339Y765218D01*
X769112Y767085D01*
Y769107D01*
X768838Y769767D01*
X769544Y770823D01*
X790926D01*
X791062Y770657D01*
D02*
G37*
G36*
X687764Y723900D02*
X693166D01*
Y722630D01*
X694436D01*
Y717013D01*
X698568D01*
X698644Y715775D01*
Y715090D01*
X721724D01*
Y725323D01*
X723078D01*
Y719376D01*
X728980D01*
X734882D01*
Y725323D01*
X738104D01*
X738886Y724053D01*
X738871Y723978D01*
X751026D01*
Y721438D01*
X738871D01*
X738979Y720896D01*
X739939Y719458D01*
X738979Y718019D01*
X738618Y716208D01*
X738979Y714396D01*
X740005Y712860D01*
X741541Y711833D01*
X743353Y711473D01*
X758699D01*
X760511Y711833D01*
X761244Y712323D01*
X767481D01*
X775942Y703862D01*
X775456Y702689D01*
X758709D01*
Y701133D01*
X757134D01*
Y702766D01*
X748228D01*
X747054Y702766D01*
X747054Y702766D01*
X746970Y702738D01*
Y702738D01*
X736390D01*
Y691658D01*
Y683158D01*
X739475D01*
X739571Y682673D01*
X740413Y681413D01*
X746273Y675553D01*
X747533Y674711D01*
X749020Y674415D01*
X760212D01*
X760213Y674414D01*
X761995Y673223D01*
X764098Y672805D01*
X772956D01*
X775059Y673223D01*
X776842Y674414D01*
X778033Y676197D01*
X778451Y678300D01*
X778033Y680402D01*
X776842Y682185D01*
X777207Y683468D01*
X777672Y683915D01*
X783022D01*
X783407Y682645D01*
X782718Y682185D01*
X781527Y680402D01*
X781109Y678300D01*
X781527Y676197D01*
X782718Y674414D01*
X784501Y673223D01*
X786604Y672805D01*
X795462D01*
X797565Y673223D01*
X799347Y674414D01*
X800538Y676197D01*
X800957Y678300D01*
X800538Y680402D01*
X799347Y682185D01*
X798659Y682645D01*
X799044Y683915D01*
X802426D01*
Y680574D01*
X806196D01*
Y686142D01*
X807466D01*
Y687412D01*
X812506D01*
Y692404D01*
X814832D01*
Y678942D01*
X787908Y652018D01*
X745490D01*
X736981Y643509D01*
X735711Y643689D01*
Y645160D01*
X724991D01*
Y670532D01*
X725891Y671880D01*
X726285Y673862D01*
X725891Y675844D01*
X724769Y677524D01*
X723088Y678647D01*
X721106Y679042D01*
X719124Y678647D01*
X717443Y677524D01*
X716321Y675844D01*
X715927Y673862D01*
X716321Y671880D01*
X717221Y670532D01*
Y645160D01*
X707517D01*
Y634492D01*
X735584D01*
X735711Y634492D01*
X736854Y634185D01*
Y632767D01*
X735711Y632460D01*
X735584Y632460D01*
X722884D01*
Y627126D01*
Y621792D01*
X735584D01*
X735711Y621792D01*
X736854Y621485D01*
Y620067D01*
X735711Y619760D01*
X735711Y619760D01*
Y619760D01*
X735711Y619760D01*
X707517D01*
Y609092D01*
X735711D01*
X735711Y609092D01*
Y609092D01*
X735711Y609092D01*
X736854Y608785D01*
Y607367D01*
X735711Y607060D01*
Y607060D01*
X707517D01*
Y605611D01*
X705672D01*
Y610789D01*
X699770D01*
Y612059D01*
X698500D01*
Y618176D01*
X693868D01*
Y616355D01*
X693276Y615330D01*
X670857D01*
X669614Y616359D01*
X669773Y622256D01*
X670196Y622250D01*
Y622250D01*
X680466D01*
Y631790D01*
Y641330D01*
X671196D01*
X670311Y642240D01*
X672511Y724048D01*
X673799Y724709D01*
X674048Y724541D01*
Y723900D01*
X679450D01*
X684852D01*
Y725424D01*
X687764D01*
Y723900D01*
D02*
G37*
G36*
X792200Y751875D02*
X796314Y747760D01*
X796486Y746896D01*
X797447Y745458D01*
X796486Y744019D01*
X796126Y742208D01*
X796486Y740396D01*
X797447Y738958D01*
X796486Y737520D01*
X796126Y735708D01*
X796486Y733896D01*
X797447Y732458D01*
X796486Y731020D01*
X796126Y729208D01*
X796486Y727396D01*
X797447Y725958D01*
X796486Y724520D01*
X796378Y723978D01*
X808534D01*
Y721438D01*
X796378D01*
X796393Y721362D01*
X795612Y720092D01*
X785368D01*
Y751683D01*
X785628Y752856D01*
X787648D01*
X787709Y752881D01*
X791500Y752921D01*
X792200Y751875D01*
D02*
G37*
G36*
X838200Y620213D02*
X839106Y619608D01*
Y614264D01*
X850646D01*
Y611724D01*
X839106D01*
Y606238D01*
X834898D01*
Y600121D01*
X833628D01*
Y598851D01*
X827726D01*
Y597271D01*
X827405Y597031D01*
X826135Y597668D01*
Y600456D01*
X812038D01*
Y601726D01*
X810768D01*
Y607060D01*
X799825D01*
X799657Y608121D01*
X800533Y609092D01*
X826135D01*
Y611628D01*
X826522Y611886D01*
X828542D01*
X830410Y612659D01*
X831839Y614088D01*
X832612Y615956D01*
Y617976D01*
X831839Y619844D01*
X830410Y621273D01*
X828542Y622046D01*
X826522D01*
X826135Y622304D01*
Y624586D01*
X831850D01*
Y624338D01*
X832623Y622470D01*
X834052Y621041D01*
X835660Y620376D01*
Y625348D01*
X838200D01*
Y620213D01*
D02*
G37*
G36*
X707517Y583692D02*
X735711D01*
Y583692D01*
X736854Y583385D01*
Y581967D01*
X735711Y581660D01*
X735711Y581660D01*
Y581660D01*
X735711Y581660D01*
X707517D01*
Y570992D01*
X735711D01*
X735711Y570992D01*
Y570992D01*
X735711Y570992D01*
X736854Y570685D01*
Y569267D01*
X735711Y568960D01*
X735584Y568960D01*
X722884D01*
Y563626D01*
Y558292D01*
X735584D01*
X735711Y558292D01*
X736854Y557985D01*
Y556567D01*
X735711Y556260D01*
X735711Y556260D01*
X707517D01*
Y547370D01*
X705458D01*
Y558546D01*
X705063Y560528D01*
X703941Y562209D01*
X702260Y563331D01*
X700278Y563726D01*
X698296Y563331D01*
X696616Y562209D01*
X695493Y560528D01*
X695098Y558546D01*
Y547370D01*
X668938D01*
X667791Y548545D01*
X668568Y577437D01*
X668926Y577632D01*
X670196Y576877D01*
Y575422D01*
X693276D01*
X693868Y574397D01*
Y572536D01*
X698500D01*
Y578652D01*
X699770D01*
Y579922D01*
X705672D01*
Y585141D01*
X707517D01*
Y583692D01*
D02*
G37*
%LPC*%
G36*
X834136Y822345D02*
Y818642D01*
X837839D01*
X837173Y820250D01*
X835744Y821679D01*
X834136Y822345D01*
D02*
G37*
G36*
X831596D02*
X829988Y821679D01*
X828559Y820250D01*
X827894Y818642D01*
X831596D01*
Y822345D01*
D02*
G37*
G36*
X837839Y816102D02*
X834136D01*
Y812400D01*
X835744Y813065D01*
X837173Y814494D01*
X837839Y816102D01*
D02*
G37*
G36*
X831596D02*
X827894D01*
X828559Y814494D01*
X829988Y813065D01*
X831596Y812400D01*
Y816102D01*
D02*
G37*
G36*
X736346Y809899D02*
Y806196D01*
X740049D01*
X739383Y807804D01*
X737954Y809233D01*
X736346Y809899D01*
D02*
G37*
G36*
X733806D02*
X732198Y809233D01*
X730769Y807804D01*
X730104Y806196D01*
X733806D01*
Y809899D01*
D02*
G37*
G36*
X740049Y803656D02*
X736346D01*
Y799954D01*
X737954Y800619D01*
X739383Y802048D01*
X740049Y803656D01*
D02*
G37*
G36*
X733806D02*
X730104D01*
X730769Y802048D01*
X732198Y800619D01*
X733806Y799954D01*
Y803656D01*
D02*
G37*
G36*
X838708Y802279D02*
Y798576D01*
X842411D01*
X841745Y800184D01*
X840316Y801613D01*
X838708Y802279D01*
D02*
G37*
G36*
X836168D02*
X834560Y801613D01*
X833131Y800184D01*
X832466Y798576D01*
X836168D01*
Y802279D01*
D02*
G37*
G36*
X842411Y796036D02*
X838708D01*
Y792334D01*
X840316Y792999D01*
X841745Y794428D01*
X842411Y796036D01*
D02*
G37*
G36*
X836168D02*
X832466D01*
X833131Y794428D01*
X834560Y792999D01*
X836168Y792334D01*
Y796036D01*
D02*
G37*
G36*
X852230Y775664D02*
X847598D01*
Y770817D01*
X852230D01*
Y775664D01*
D02*
G37*
G36*
X845058D02*
X840426D01*
Y770817D01*
X845058D01*
Y775664D01*
D02*
G37*
G36*
X785368Y762908D02*
X783760Y762243D01*
X782331Y760814D01*
X781665Y759206D01*
X785368D01*
Y762908D01*
D02*
G37*
G36*
X684852Y721360D02*
X680720D01*
Y717013D01*
X684852D01*
Y721360D01*
D02*
G37*
G36*
X678180D02*
X674048D01*
Y717013D01*
X678180D01*
Y721360D01*
D02*
G37*
G36*
X691896D02*
X687764D01*
Y717013D01*
X691896D01*
Y721360D01*
D02*
G37*
G36*
X734882Y716836D02*
X730250D01*
Y711990D01*
X734882D01*
Y716836D01*
D02*
G37*
G36*
X727710D02*
X723078D01*
Y711990D01*
X727710D01*
Y716836D01*
D02*
G37*
G36*
X721724Y708170D02*
X711454D01*
Y699900D01*
X721724D01*
Y708170D01*
D02*
G37*
G36*
X708914D02*
X698644D01*
Y699900D01*
X708914D01*
Y708170D01*
D02*
G37*
G36*
X721724Y697360D02*
X711454D01*
Y689090D01*
X721724D01*
Y697360D01*
D02*
G37*
G36*
X708914D02*
X698644D01*
Y689090D01*
X708914D01*
Y697360D01*
D02*
G37*
G36*
X812506Y684872D02*
X808736D01*
Y680574D01*
X812506D01*
Y684872D01*
D02*
G37*
G36*
X693276Y641330D02*
X683006D01*
Y633060D01*
X693276D01*
Y641330D01*
D02*
G37*
G36*
X720344Y632460D02*
X707517D01*
Y628396D01*
X720344D01*
Y632460D01*
D02*
G37*
G36*
X693276Y630520D02*
X683006D01*
Y622250D01*
X693276D01*
Y630520D01*
D02*
G37*
G36*
X720344Y625856D02*
X707517D01*
Y621792D01*
X720344D01*
Y625856D01*
D02*
G37*
G36*
X705672Y618176D02*
X701040D01*
Y613329D01*
X705672D01*
Y618176D01*
D02*
G37*
G36*
X826135Y607060D02*
X813308D01*
Y602996D01*
X826135D01*
Y607060D01*
D02*
G37*
G36*
X832358Y606238D02*
X827726D01*
Y601391D01*
X832358D01*
Y606238D01*
D02*
G37*
G36*
X705672Y577382D02*
X701040D01*
Y572536D01*
X705672D01*
Y577382D01*
D02*
G37*
G36*
X720344Y568960D02*
X707517D01*
Y564896D01*
X720344D01*
Y568960D01*
D02*
G37*
G36*
X693276Y568502D02*
X683006D01*
Y560232D01*
X693276D01*
Y568502D01*
D02*
G37*
G36*
X680466D02*
X670196D01*
Y560232D01*
X680466D01*
Y568502D01*
D02*
G37*
G36*
X720344Y562356D02*
X707517D01*
Y558292D01*
X720344D01*
Y562356D01*
D02*
G37*
G36*
X693276Y557692D02*
X683006D01*
Y549422D01*
X693276D01*
Y557692D01*
D02*
G37*
G36*
X680466D02*
X670196D01*
Y549422D01*
X680466D01*
Y557692D01*
D02*
G37*
%LPD*%
D10*
X242220Y220980D02*
G03*
X236220Y226980I-6000J0D01*
G01*
X242220Y220980D02*
G03*
X236220Y226980I-6000J0D01*
G01*
Y20670D02*
G03*
X242220Y26670I0J6000D01*
G01*
X236220Y20670D02*
G03*
X242220Y26670I0J6000D01*
G01*
X20320Y226980D02*
G03*
X14320Y220980I0J-6000D01*
G01*
X20320Y226980D02*
G03*
X14320Y220980I0J-6000D01*
G01*
Y26670D02*
G03*
X20320Y20670I6000J0D01*
G01*
X14320Y26670D02*
G03*
X20320Y20670I6000J0D01*
G01*
X242220Y26670D02*
Y220980D01*
X14320Y26670D02*
Y220980D01*
X572420D02*
G03*
X566420Y226980I-6000J0D01*
G01*
X572420Y220980D02*
G03*
X566420Y226980I-6000J0D01*
G01*
Y20670D02*
G03*
X572420Y26670I0J6000D01*
G01*
X566420Y20670D02*
G03*
X572420Y26670I0J6000D01*
G01*
X350520Y226980D02*
G03*
X344520Y220980I0J-6000D01*
G01*
X350520Y226980D02*
G03*
X344520Y220980I0J-6000D01*
G01*
Y26670D02*
G03*
X350520Y20670I6000J0D01*
G01*
X344520Y26670D02*
G03*
X350520Y20670I6000J0D01*
G01*
X572420Y26670D02*
Y220980D01*
X344520Y26670D02*
Y220980D01*
D11*
X100952Y52552D02*
D03*
X146952D02*
D03*
X1001020Y424060D02*
D03*
X1097020D02*
D03*
X431152Y52552D02*
D03*
X477152D02*
D03*
X509008Y316850D02*
D03*
X605008D02*
D03*
X398412Y839496D02*
D03*
X352412D02*
D03*
X351904Y318236D02*
D03*
X397904D02*
D03*
X815272Y318770D02*
D03*
X779272D02*
D03*
X754092Y318744D02*
D03*
X718092D02*
D03*
D12*
X133952Y91302D02*
D03*
X123952D02*
D03*
X113952D02*
D03*
X1084020Y398810D02*
D03*
X1074020D02*
D03*
X1064020D02*
D03*
X1054020D02*
D03*
X1044020D02*
D03*
X1034020D02*
D03*
X1024020D02*
D03*
X1014020D02*
D03*
X464152Y91302D02*
D03*
X454152D02*
D03*
X444152D02*
D03*
X572008Y355600D02*
D03*
X562008D02*
D03*
X552008D02*
D03*
X542008D02*
D03*
X532008D02*
D03*
X522008D02*
D03*
X582008D02*
D03*
X592008D02*
D03*
X365412Y800746D02*
D03*
X375412D02*
D03*
X385412D02*
D03*
X384904Y356986D02*
D03*
X374904D02*
D03*
X364904D02*
D03*
X802272Y357520D02*
D03*
X792272D02*
D03*
X741092Y357494D02*
D03*
X731092D02*
D03*
D13*
X133952Y91302D02*
Y118767D01*
X223479Y208295D01*
X123952Y82042D02*
Y91302D01*
X120650Y78740D02*
X123952Y82042D01*
X107442Y78740D02*
X120650D01*
X96479Y89703D02*
X107442Y78740D01*
X96479Y89703D02*
Y208295D01*
X113952Y91302D02*
Y149567D01*
X172679Y208295D01*
X988060Y408632D02*
X1009442Y387250D01*
X979170Y453780D02*
X988060Y444890D01*
Y408632D02*
Y444890D01*
X1060450Y504190D02*
X1069340Y513080D01*
X1074020Y398810D02*
Y499980D01*
X1106170Y532130D01*
X1054020Y418915D02*
X1060450Y425345D01*
X1054020Y398810D02*
Y418915D01*
X1060450Y425345D02*
Y442930D01*
X1084020Y398810D02*
Y484980D01*
Y394060D02*
Y398810D01*
Y484980D02*
X1106170Y507130D01*
X1080830Y390870D02*
X1084020Y394060D01*
X1080830Y389482D02*
Y390870D01*
X1078598Y387250D02*
X1080830Y389482D01*
X1009442Y387250D02*
X1078598D01*
X980650Y460590D02*
X984878D01*
X1014020Y431448D01*
Y398810D02*
Y431448D01*
X1044020Y398810D02*
Y403560D01*
X1046480Y406020D02*
Y443080D01*
X1044020Y403560D02*
X1046480Y406020D01*
X1033780Y443080D02*
X1034020Y442840D01*
Y398810D02*
Y442840D01*
X1020810Y443080D02*
X1024020Y439870D01*
Y398810D02*
Y439870D01*
X1019810Y443080D02*
X1020810D01*
X999541Y482651D02*
Y499630D01*
X999130D02*
Y564630D01*
X979170Y462280D02*
X999541Y482651D01*
X979170Y462070D02*
Y462280D01*
Y462070D02*
X980650Y460590D01*
X1060450Y455930D02*
Y504190D01*
X1046480D02*
X1055370Y513080D01*
X1046480Y456080D02*
Y504190D01*
X1033780Y505460D02*
X1041400Y513080D01*
X1033780Y456080D02*
Y505460D01*
X1019810D02*
X1027430Y513080D01*
X1019810Y456080D02*
Y505460D01*
X464152Y91302D02*
Y118767D01*
X553679Y208295D01*
X454152Y82042D02*
Y91302D01*
X450850Y78740D02*
X454152Y82042D01*
X437642Y78740D02*
X450850D01*
X426679Y89703D02*
X437642Y78740D01*
X426679Y89703D02*
Y208295D01*
X444152Y91302D02*
Y149567D01*
X502879Y208295D01*
X385318Y778256D02*
Y796345D01*
X830470Y768527D02*
X831564Y769620D01*
X812038Y589026D02*
X848614D01*
X791118Y798781D02*
X817795D01*
X521970Y434848D02*
X522008Y434810D01*
Y355600D02*
Y434810D01*
X592028Y357012D02*
Y369616D01*
X591820Y369824D02*
X592028Y369616D01*
X362204Y364436D02*
Y371094D01*
X364904Y356986D02*
Y361736D01*
X362204Y364436D02*
X364904Y361736D01*
X125752Y468336D02*
Y469414D01*
X126238Y469900D01*
X118664Y460248D02*
Y461248D01*
X125752Y468336D01*
X118664Y549386D02*
X125752Y556474D01*
Y557552D01*
X126238Y558038D01*
X118664Y548386D02*
Y549386D01*
X592328Y434086D02*
X593090Y434848D01*
X542540Y357524D02*
Y369312D01*
X543052Y369824D01*
X542028Y357012D02*
X542540Y357524D01*
X287802Y801858D02*
X313944Y775716D01*
X98906Y801858D02*
X287802D01*
X89642Y792594D02*
X98906Y801858D01*
X80378Y792594D02*
X89642D01*
X78232Y790448D02*
X80378Y792594D01*
X242042Y718112D02*
Y767194D01*
X253886Y779038D02*
Y788302D01*
X256032Y790448D01*
X242042Y767194D02*
X253886Y779038D01*
X283578D02*
X292842Y769774D01*
X283578Y779038D02*
Y788302D01*
X292842Y681858D02*
Y769774D01*
X281432Y790448D02*
X283578Y788302D01*
X82108Y471124D02*
X292842Y681858D01*
X685800Y589026D02*
X721614D01*
X572018Y357022D02*
Y369052D01*
Y357022D02*
X572028Y357012D01*
X562065Y357049D02*
Y369533D01*
X562102Y369570D01*
X562028Y357012D02*
X562065Y357049D01*
X572008Y369062D02*
X572018Y369052D01*
X552366Y357350D02*
Y368978D01*
X552704Y369316D01*
X582028Y357012D02*
X582098Y357082D01*
Y368992D01*
X582168Y369062D01*
X552028Y357012D02*
X552366Y357350D01*
X532079Y370027D02*
X532130Y370078D01*
X532028Y357012D02*
X532079Y357063D01*
Y370027D01*
X827233Y557358D02*
X827958D01*
X842916Y572316D01*
Y581264D01*
X848646Y586994D01*
X850646D01*
X812038Y550926D02*
X820801D01*
X827233Y557358D01*
X699770Y601726D02*
X721614D01*
X681736Y605790D02*
X683736D01*
X690814Y598712D02*
X695994D01*
X697463Y600181D01*
X697678D01*
X699770Y602274D01*
X683736Y605790D02*
X690814Y598712D01*
X699770Y602274D02*
Y602488D01*
X721614Y550926D02*
X736346D01*
X104788Y461124D02*
X105664Y460248D01*
X77358Y461124D02*
X104788D01*
X105456Y548178D02*
X105664Y548386D01*
X77358Y548178D02*
X105456D01*
X77358Y471124D02*
X82108D01*
X77358Y558178D02*
X82108D01*
X242042Y718112D01*
X606222Y742696D02*
X652526D01*
X578938Y715412D02*
X606222Y742696D01*
X578938Y704644D02*
Y715412D01*
Y704644D02*
X586248Y697334D01*
X587248D01*
X610839Y710334D02*
X616577Y704596D01*
X620014D01*
X587248Y710334D02*
X610839D01*
X594038Y679772D02*
X620014Y653796D01*
X587248Y679772D02*
X594038D01*
X763156Y729094D02*
X763270Y728980D01*
X880491Y640461D02*
X881126Y641096D01*
X826781Y575807D02*
X827024Y575564D01*
X763999Y755175D02*
X764032Y755142D01*
X827188Y616966D02*
X827532D01*
X721106Y640334D02*
Y673862D01*
X751140Y729094D02*
X763156D01*
X828051Y640853D02*
X828294Y641096D01*
X751026Y768208D02*
X751082Y768152D01*
X868934Y564896D02*
X881126D01*
X689333Y740124D02*
X693420D01*
X870458Y590296D02*
X881126D01*
X715010Y754126D02*
Y760318D01*
X871474Y641096D02*
X881126D01*
X826172Y615950D02*
X827188Y616966D01*
X880353Y616469D02*
X881126Y615696D01*
X812557Y575807D02*
X826781D01*
X826273Y564653D02*
X826516Y564896D01*
X791464Y697629D02*
Y702818D01*
X813065Y640853D02*
X828051D01*
X813065Y564653D02*
X826273D01*
X751059Y755175D02*
X763999D01*
X870712Y616712D02*
X870955Y616469D01*
X751026Y729208D02*
X751140Y729094D01*
X721106Y640334D02*
X721614Y639826D01*
X679704Y740791D02*
Y749268D01*
X715010Y768318D02*
X715137Y768445D01*
X679577Y731328D02*
Y740664D01*
X751082Y768152D02*
X763976D01*
X715137Y768445D02*
Y774319D01*
X715264Y774446D01*
X763976Y768152D02*
X764032Y768096D01*
X791084Y697249D02*
X791464Y697629D01*
X813562Y615950D02*
X826172D01*
X679577Y740664D02*
X679704Y740791D01*
X870955Y616469D02*
X880353D01*
X812038Y576326D02*
X812557Y575807D01*
X679450Y731201D02*
X679577Y731328D01*
X751026Y755208D02*
X751059Y755175D01*
X808853Y768527D02*
X830470D01*
X808534Y768208D02*
X808853Y768527D01*
Y761388D02*
X844915D01*
X728980Y729208D02*
X751026D01*
X714762D02*
X728980D01*
X812038Y563626D02*
X813065Y564653D01*
X812038Y614426D02*
X813562Y615950D01*
X812038Y639826D02*
X813065Y640853D01*
X854606Y719526D02*
X856836Y717296D01*
X854606Y719526D02*
Y719550D01*
X856836Y717296D02*
X881126D01*
X869696Y741521D02*
X879951D01*
X854606Y733250D02*
X856836Y735480D01*
X854606Y732250D02*
Y733250D01*
X879951Y741521D02*
X881126Y742696D01*
X863654Y735480D02*
X869696Y741521D01*
X856836Y735480D02*
X863654D01*
X854606Y745950D02*
X856836Y748180D01*
X854606Y744950D02*
Y745950D01*
X861210Y748180D02*
X881126Y768096D01*
X856836Y748180D02*
X861210D01*
X848614Y589026D02*
X850646Y586994D01*
X681736Y584962D02*
X685800Y589026D01*
X688204Y749268D02*
X707676D01*
X715010Y741934D01*
X733820D01*
X791033Y798696D02*
X791118Y798781D01*
X817795D02*
X817880Y798866D01*
X810540Y817696D02*
X816400Y811836D01*
Y808846D02*
Y811836D01*
Y808846D02*
X817880Y807366D01*
X791033Y817696D02*
X810540D01*
X806236Y687800D02*
X807466Y686570D01*
X768527Y687800D02*
X806236D01*
X807466Y686142D02*
Y686570D01*
X751026Y716208D02*
X808534D01*
X791084Y697249D02*
X807415D01*
X807466Y697198D01*
X741731Y697249D02*
X768476D01*
X741680Y697198D02*
X741731Y697249D01*
X768476D02*
X768527Y697300D01*
X743160Y684159D02*
Y687218D01*
X741680Y688698D02*
X743160Y687218D01*
X749020Y678300D02*
X768527D01*
X743160Y684159D02*
X749020Y678300D01*
X710184Y724630D02*
X714762Y729208D01*
X701920Y740124D02*
X709636D01*
X714052Y735708D01*
X751026D01*
X693293Y731328D02*
Y739997D01*
X693420Y740124D01*
X693166Y731201D02*
X693293Y731328D01*
X733820Y741934D02*
X734094Y742208D01*
X751026D01*
X731206Y748708D02*
X751026D01*
X730242Y747744D02*
X731206Y748708D01*
X729742Y747744D02*
X730242D01*
X808534Y729208D02*
X823188D01*
X832846Y719550D01*
X841606D01*
X826288Y735708D02*
X829746Y732250D01*
X808534Y735708D02*
X826288D01*
X829746Y732250D02*
X841606D01*
X839376Y742208D02*
X841606Y744438D01*
X808534Y742208D02*
X839376D01*
X841606Y744438D02*
Y744950D01*
X844915Y761388D02*
X846328Y759976D01*
X808534Y761708D02*
X808853Y761388D01*
X751260Y774708D02*
X808534D01*
X768476Y798747D02*
X768527Y798696D01*
X752145Y798747D02*
X768476D01*
X752094Y798798D02*
X752145Y798747D01*
X751026Y774708D02*
X751260D01*
X752094Y775542D02*
Y798798D01*
X751260Y774708D02*
X752094Y775542D01*
X750440Y774121D02*
X751026Y774708D01*
X729744Y774121D02*
X750440D01*
X728980Y773357D02*
X729744Y774121D01*
X794947Y754622D02*
X795533Y755208D01*
X808534D01*
X800861Y748708D02*
X808534D01*
X794947Y754622D02*
X800861Y748708D01*
X794947Y754622D02*
Y770657D01*
X798678Y774389D01*
X816207Y774708D02*
X820658Y779159D01*
X808534Y774708D02*
X816207D01*
X820658Y779159D02*
X831596D01*
X1129030Y825808D02*
X1107648Y847190D01*
X1137920Y780660D02*
X1129030Y789550D01*
Y825808D02*
Y789550D01*
X1056640Y730250D02*
X1047750Y721360D01*
X1043070Y835630D02*
Y734460D01*
X1010920Y702310D01*
X1063070Y815525D02*
X1056640Y809095D01*
X1063070Y835630D02*
Y815525D01*
X1056640Y809095D02*
Y791510D01*
X1033070Y835630D02*
Y749460D01*
Y840380D02*
Y835630D01*
Y749460D02*
X1010920Y727310D01*
X1036260Y843570D02*
X1033070Y840380D01*
X1036260Y844958D02*
Y843570D01*
X1038492Y847190D02*
X1036260Y844958D01*
X1107648Y847190D02*
X1038492D01*
X1136440Y773850D02*
X1132212D01*
X1103070Y802992D01*
Y835630D02*
Y802992D01*
X1073070Y835630D02*
Y830880D01*
X1070610Y828420D02*
Y791360D01*
X1073070Y830880D02*
X1070610Y828420D01*
X1083310Y791360D02*
X1083070Y791600D01*
Y835630D02*
Y791600D01*
X1096280Y791360D02*
X1093070Y794570D01*
Y835630D02*
Y794570D01*
X1097280Y791360D02*
X1096280D01*
X1117549Y751789D02*
Y734810D01*
X1117960D02*
Y669810D01*
X1137920Y772160D02*
X1117549Y751789D01*
X1137920Y772370D02*
Y772160D01*
Y772370D02*
X1136440Y773850D01*
X1056640Y778510D02*
Y730250D01*
X1070610D02*
X1061720Y721360D01*
X1070610Y778360D02*
Y730250D01*
X1083310Y728980D02*
X1075690Y721360D01*
X1083310Y778360D02*
Y728980D01*
X1097280D02*
X1089660Y721360D01*
X1097280Y778360D02*
Y728980D01*
D14*
X1033780Y443080D02*
D03*
Y456080D02*
D03*
X1019810Y443080D02*
D03*
Y456080D02*
D03*
X1046480Y443080D02*
D03*
Y456080D02*
D03*
X1060450Y442930D02*
D03*
Y455930D02*
D03*
X1083310Y791360D02*
D03*
Y778360D02*
D03*
X1097280Y791360D02*
D03*
Y778360D02*
D03*
X1070610Y791360D02*
D03*
Y778360D02*
D03*
X1056640Y791510D02*
D03*
Y778510D02*
D03*
D15*
X979170Y453780D02*
D03*
Y462280D02*
D03*
X587248Y708084D02*
D03*
Y699584D02*
D03*
X817880Y807366D02*
D03*
Y798866D02*
D03*
X741680Y688698D02*
D03*
Y697198D02*
D03*
X587248Y688272D02*
D03*
Y679772D02*
D03*
X1137920Y780660D02*
D03*
Y772160D02*
D03*
D16*
X1064140Y416440D02*
X1064260Y416560D01*
X1064020Y398810D02*
X1064140Y398930D01*
Y416440D01*
X365506Y547624D02*
Y793750D01*
X304038Y486156D02*
X365506Y547624D01*
X375666Y471170D02*
X385064Y461772D01*
X375666Y795782D02*
X375666Y795782D01*
X155956Y461772D02*
X374904D01*
X375666Y471170D02*
Y795782D01*
X521970Y434848D02*
X593090D01*
X478536D02*
X521970D01*
X269494Y440690D02*
X304292D01*
X256032Y427228D02*
X269494Y440690D01*
X304292D02*
X305562Y441960D01*
X288544Y486156D02*
X304038D01*
X385064Y461772D02*
X451612D01*
X377190D02*
X385064D01*
X256032Y358648D02*
Y427228D01*
X52832Y358648D02*
X155956Y461772D01*
X374904Y459486D02*
X377190Y461772D01*
X374904Y356986D02*
Y459486D01*
X243312Y345968D02*
X286644D01*
X288456Y344156D01*
X380008D01*
X384444Y348592D01*
Y356526D01*
X384904Y356986D01*
X230632Y358648D02*
X243312Y345968D01*
X451612Y461772D02*
X567436Y577596D01*
X620014D01*
X809752Y369750D02*
Y369824D01*
X802272Y357520D02*
Y362270D01*
X809752Y369750D01*
X741092Y362244D02*
X747290Y368442D01*
Y370100D01*
X741092Y357494D02*
Y362244D01*
X747290Y370100D02*
X747776Y370586D01*
X593090Y434848D02*
X646729D01*
X649777Y437896D01*
X451612Y461772D02*
X478536Y434848D01*
X649777Y437896D02*
X652526D01*
X477012Y461772D02*
X496316Y442468D01*
X617474D01*
X639826Y464820D01*
X647265Y475996D02*
X657786D01*
X665226Y483436D02*
Y490220D01*
X700278Y525272D01*
Y558546D01*
X639826Y468557D02*
X647265Y475996D01*
X657786D02*
X665226Y483436D01*
X639826Y464820D02*
Y468557D01*
X578612Y484886D02*
X637032Y543306D01*
X578612Y461772D02*
Y484886D01*
X637032Y543306D02*
Y592762D01*
X615359Y481995D02*
Y494889D01*
X647265Y526796D02*
X658346D01*
X583452Y450088D02*
X615359Y481995D01*
Y494889D02*
X647265Y526796D01*
X539496Y450088D02*
X583452D01*
X669290Y584962D02*
X681736D01*
X527812Y461772D02*
X539496Y450088D01*
X657786Y602996D02*
X660835Y606044D01*
X647265Y602996D02*
X657786D01*
X681482Y606044D02*
X681736Y605790D01*
X660835Y606044D02*
X681482D01*
X637032Y592762D02*
X647265Y602996D01*
X587248Y688272D02*
Y697334D01*
X731092Y357494D02*
Y383968D01*
X730504Y384556D02*
X731092Y383968D01*
X792272Y357520D02*
X792376Y357624D01*
Y382556D02*
X792480Y382660D01*
X792376Y357624D02*
Y382556D01*
X787654Y407026D02*
X787709Y406971D01*
X787654Y407026D02*
Y487934D01*
X791460Y402200D02*
X792480D01*
X787709Y405951D02*
X791460Y402200D01*
X787709Y405951D02*
Y406971D01*
X733302Y403588D02*
X737053Y407339D01*
Y408358D01*
X732282Y403588D02*
X733302D01*
X737053Y408358D02*
X745744Y417050D01*
Y489381D01*
X721614Y576326D02*
X745998D01*
X746760Y577088D01*
X721614Y614426D02*
X776732D01*
X831564Y769620D02*
X831596Y769588D01*
Y769112D02*
Y769588D01*
X729742Y755744D02*
Y763024D01*
X728980Y763786D02*
X729742Y763024D01*
X806256Y808196D02*
X807466Y809406D01*
Y809854D01*
X791033Y808196D02*
X806256D01*
X753324D02*
X791033D01*
X752094Y809426D02*
X753324Y808196D01*
X752094Y809426D02*
Y809854D01*
X1052950Y818000D02*
X1052830Y817880D01*
X1053070Y835630D02*
X1052950Y835510D01*
Y818000D01*
D17*
X38608Y535178D02*
D03*
Y571178D02*
D03*
Y448124D02*
D03*
Y484124D02*
D03*
D18*
X77358Y548178D02*
D03*
Y558178D02*
D03*
Y461124D02*
D03*
Y471124D02*
D03*
D19*
X105664Y548386D02*
D03*
X118664D02*
D03*
X105664Y460248D02*
D03*
X118664D02*
D03*
X854606Y744950D02*
D03*
X841606D02*
D03*
X854606Y732250D02*
D03*
X841606D02*
D03*
X854606Y719550D02*
D03*
X841606D02*
D03*
D20*
X807466Y686142D02*
D03*
Y697198D02*
D03*
Y809854D02*
D03*
Y798798D02*
D03*
X752094Y809854D02*
D03*
Y798798D02*
D03*
Y686142D02*
D03*
Y697198D02*
D03*
D21*
X808534Y774708D02*
D03*
Y768208D02*
D03*
Y761708D02*
D03*
Y755208D02*
D03*
Y748708D02*
D03*
Y742208D02*
D03*
Y735708D02*
D03*
Y729208D02*
D03*
Y722708D02*
D03*
Y716208D02*
D03*
X751026D02*
D03*
Y722708D02*
D03*
Y729208D02*
D03*
Y735708D02*
D03*
Y742208D02*
D03*
Y748708D02*
D03*
Y755208D02*
D03*
Y761708D02*
D03*
Y768208D02*
D03*
D22*
Y774708D02*
D03*
D23*
X768527Y798696D02*
D03*
Y817696D02*
D03*
X791033D02*
D03*
Y808196D02*
D03*
Y697300D02*
D03*
Y678300D02*
D03*
X768527D02*
D03*
Y687800D02*
D03*
D24*
X791033Y798696D02*
D03*
X768527Y697300D02*
D03*
D25*
X688204Y749268D02*
D03*
X679704D02*
D03*
X701920Y740124D02*
D03*
X693420D02*
D03*
D26*
X679450Y731201D02*
D03*
Y722630D02*
D03*
X693166Y722630D02*
D03*
Y731201D02*
D03*
D27*
X846328Y759976D02*
D03*
Y769547D02*
D03*
X728980Y718106D02*
D03*
Y727678D02*
D03*
X831596Y779159D02*
D03*
Y769588D02*
D03*
X728980Y773357D02*
D03*
Y763786D02*
D03*
X699770Y588224D02*
D03*
Y578652D02*
D03*
Y612059D02*
D03*
Y602488D02*
D03*
X833628Y600121D02*
D03*
Y590550D02*
D03*
D28*
X729742Y755744D02*
D03*
Y747744D02*
D03*
X715010Y760318D02*
D03*
Y768318D02*
D03*
D29*
X710184Y724630D02*
D03*
Y698630D02*
D03*
X850646Y586994D02*
D03*
Y612994D02*
D03*
X681736Y605790D02*
D03*
Y631790D02*
D03*
Y558962D02*
D03*
Y584962D02*
D03*
D30*
X812038Y550926D02*
D03*
X721614D02*
D03*
Y563626D02*
D03*
Y576326D02*
D03*
Y589026D02*
D03*
Y601726D02*
D03*
Y614426D02*
D03*
Y627126D02*
D03*
Y639826D02*
D03*
X812038D02*
D03*
Y627126D02*
D03*
Y614426D02*
D03*
Y601726D02*
D03*
Y589026D02*
D03*
Y576326D02*
D03*
Y563626D02*
D03*
D31*
X792480Y382660D02*
D03*
Y402200D02*
D03*
X730504Y384556D02*
D03*
Y404096D02*
D03*
D32*
X1033070Y835630D02*
D03*
X1043070D02*
D03*
X1053070D02*
D03*
X1063070D02*
D03*
X1073070D02*
D03*
X1083070D02*
D03*
X1093070D02*
D03*
X1103070D02*
D03*
D33*
X1116070Y810380D02*
D03*
X1020070D02*
D03*
D34*
X223479Y208295D02*
D03*
X198079D02*
D03*
X172679D02*
D03*
X147279D02*
D03*
X121879D02*
D03*
X96479D02*
D03*
X71079D02*
D03*
X553679D02*
D03*
X528279D02*
D03*
X502879D02*
D03*
X477479D02*
D03*
X452079D02*
D03*
X426679D02*
D03*
X401279D02*
D03*
X620014Y755396D02*
D03*
Y729996D02*
D03*
Y704596D02*
D03*
Y679196D02*
D03*
Y653796D02*
D03*
Y628396D02*
D03*
Y602996D02*
D03*
Y577596D02*
D03*
X652526Y793496D02*
D03*
Y768096D02*
D03*
Y742696D02*
D03*
Y717296D02*
D03*
Y691896D02*
D03*
Y666496D02*
D03*
Y641096D02*
D03*
Y615696D02*
D03*
Y590296D02*
D03*
Y564896D02*
D03*
Y539496D02*
D03*
Y514096D02*
D03*
Y488696D02*
D03*
Y463296D02*
D03*
Y437896D02*
D03*
X881126D02*
D03*
Y463296D02*
D03*
Y488696D02*
D03*
Y514096D02*
D03*
Y539496D02*
D03*
Y564896D02*
D03*
Y590296D02*
D03*
Y615696D02*
D03*
Y641096D02*
D03*
Y666496D02*
D03*
Y691896D02*
D03*
Y717296D02*
D03*
Y742696D02*
D03*
Y768096D02*
D03*
Y793496D02*
D03*
D35*
X1106170Y557130D02*
D03*
Y532130D02*
D03*
X999130Y564630D02*
D03*
Y499630D02*
D03*
X954130D02*
D03*
X1010920Y677310D02*
D03*
Y702310D02*
D03*
X1117960Y669810D02*
D03*
Y734810D02*
D03*
X1162960D02*
D03*
D36*
X1106170Y507130D02*
D03*
X954130Y564630D02*
D03*
X1010920Y727310D02*
D03*
X1162960Y669810D02*
D03*
D37*
X1069340Y513080D02*
D03*
X1055370D02*
D03*
X1041400D02*
D03*
X1027430D02*
D03*
X591820Y369824D02*
D03*
X836930Y625348D02*
D03*
X832866Y817372D02*
D03*
X735076Y804926D02*
D03*
X786638Y757936D02*
D03*
X837438Y797306D02*
D03*
X305562Y441960D02*
D03*
X288544Y486156D02*
D03*
X126238Y469900D02*
D03*
Y558038D02*
D03*
X313944Y775716D02*
D03*
X562102Y369570D02*
D03*
X572008Y369062D02*
D03*
X552704Y369316D02*
D03*
X582168Y369062D02*
D03*
X532130Y370078D02*
D03*
X736346Y550926D02*
D03*
X787654Y487934D02*
D03*
X745744Y489381D02*
D03*
X746760Y577088D02*
D03*
X870712Y616712D02*
D03*
X776732Y614426D02*
D03*
X715264Y774446D02*
D03*
X791464Y702818D02*
D03*
X763270Y728980D02*
D03*
X764032Y755142D02*
D03*
Y768096D02*
D03*
X828294Y641096D02*
D03*
X827532Y616966D02*
D03*
X827024Y575564D02*
D03*
X826516Y564896D02*
D03*
X868934D02*
D03*
X871474Y641096D02*
D03*
X870458Y590296D02*
D03*
X679704Y740791D02*
D03*
X689333Y740124D02*
D03*
X721106Y673862D02*
D03*
X715010Y754126D02*
D03*
X1047750Y721360D02*
D03*
X1061720D02*
D03*
X1075690D02*
D03*
X1089660D02*
D03*
D38*
X1064260Y416560D02*
D03*
X385318Y778256D02*
D03*
X362204Y371094D02*
D03*
X809752Y369824D02*
D03*
X747776Y370586D02*
D03*
X543052Y369824D02*
D03*
X658346Y526796D02*
D03*
X669290Y584962D02*
D03*
X1052830Y817880D02*
D03*
D39*
X61468Y826008D02*
D03*
X868426Y830326D02*
D03*
X875538Y326644D02*
D03*
D40*
X52832Y333248D02*
D03*
D41*
X78232D02*
D03*
X103632D02*
D03*
X129032D02*
D03*
X154432D02*
D03*
X179832D02*
D03*
X205232D02*
D03*
X230632D02*
D03*
X256032D02*
D03*
X281432D02*
D03*
X52832Y790448D02*
D03*
Y358648D02*
D03*
Y765048D02*
D03*
X78232Y790448D02*
D03*
Y358648D02*
D03*
Y765048D02*
D03*
X103632Y790448D02*
D03*
Y358648D02*
D03*
Y765048D02*
D03*
X129032Y790448D02*
D03*
Y358648D02*
D03*
Y765048D02*
D03*
X154432Y790448D02*
D03*
Y358648D02*
D03*
Y765048D02*
D03*
X179832Y790448D02*
D03*
Y358648D02*
D03*
Y765048D02*
D03*
X205232Y790448D02*
D03*
Y358648D02*
D03*
Y765048D02*
D03*
X230632Y790448D02*
D03*
Y358648D02*
D03*
Y765048D02*
D03*
X256032Y790448D02*
D03*
Y358648D02*
D03*
Y765048D02*
D03*
X281432Y790448D02*
D03*
Y358648D02*
D03*
Y765048D02*
D03*
D42*
X553212Y461772D02*
D03*
X578612D02*
D03*
X527812D02*
D03*
X477012D02*
D03*
X451612D02*
D03*
M02*
