G04*
G04 #@! TF.GenerationSoftware,Altium Limited,Altium Designer,24.2.2 (26)*
G04*
G04 Layer_Color=16711935*
%FSLAX44Y44*%
%MOMM*%
G71*
G04*
G04 #@! TF.SameCoordinates,1593786D-B9FD-428D-A88F-6B9BC25CD130*
G04*
G04*
G04 #@! TF.FilePolarity,Negative*
G04*
G01*
G75*
%ADD42C,1.3208*%
%ADD58C,1.7272*%
%ADD59C,1.7032*%
%ADD60R,1.7032X1.7032*%
%ADD61C,0.7112*%
%ADD62C,0.9652*%
%ADD63C,3.6322*%
%ADD64R,1.7232X1.7232*%
%ADD65C,1.7232*%
%ADD66R,1.0032X1.0032*%
D42*
X553212Y461772D02*
D03*
X578612D02*
D03*
X527812D02*
D03*
X477012D02*
D03*
X451612D02*
D03*
D58*
X223479Y208295D02*
D03*
X198079D02*
D03*
X172679D02*
D03*
X147279D02*
D03*
X121879D02*
D03*
X96479D02*
D03*
X71079D02*
D03*
X553679D02*
D03*
X528279D02*
D03*
X502879D02*
D03*
X477479D02*
D03*
X452079D02*
D03*
X426679D02*
D03*
X401279D02*
D03*
X620014Y755396D02*
D03*
Y729996D02*
D03*
Y704596D02*
D03*
Y679196D02*
D03*
Y653796D02*
D03*
Y628396D02*
D03*
Y602996D02*
D03*
Y577596D02*
D03*
X652526Y793496D02*
D03*
Y768096D02*
D03*
Y742696D02*
D03*
Y717296D02*
D03*
Y691896D02*
D03*
Y666496D02*
D03*
Y641096D02*
D03*
Y615696D02*
D03*
Y590296D02*
D03*
Y564896D02*
D03*
Y539496D02*
D03*
Y514096D02*
D03*
Y488696D02*
D03*
Y463296D02*
D03*
Y437896D02*
D03*
X881126D02*
D03*
Y463296D02*
D03*
Y488696D02*
D03*
Y514096D02*
D03*
Y539496D02*
D03*
Y564896D02*
D03*
Y590296D02*
D03*
Y615696D02*
D03*
Y641096D02*
D03*
Y666496D02*
D03*
Y691896D02*
D03*
Y717296D02*
D03*
Y742696D02*
D03*
Y768096D02*
D03*
Y793496D02*
D03*
D59*
X1106170Y557130D02*
D03*
Y532130D02*
D03*
X999130Y564630D02*
D03*
Y499630D02*
D03*
X954130D02*
D03*
X1010920Y677310D02*
D03*
Y702310D02*
D03*
X1117960Y669810D02*
D03*
Y734810D02*
D03*
X1162960D02*
D03*
D60*
X1106170Y507130D02*
D03*
X954130Y564630D02*
D03*
X1010920Y727310D02*
D03*
X1162960Y669810D02*
D03*
D61*
X1069340Y513080D02*
D03*
X1055370D02*
D03*
X1041400D02*
D03*
X1027430D02*
D03*
X591820Y369824D02*
D03*
X836930Y625348D02*
D03*
X832866Y817372D02*
D03*
X735076Y804926D02*
D03*
X786638Y757936D02*
D03*
X837438Y797306D02*
D03*
X305562Y441960D02*
D03*
X288544Y486156D02*
D03*
X126238Y469900D02*
D03*
Y558038D02*
D03*
X313944Y775716D02*
D03*
X562102Y369570D02*
D03*
X572008Y369062D02*
D03*
X552704Y369316D02*
D03*
X582168Y369062D02*
D03*
X532130Y370078D02*
D03*
X736346Y550926D02*
D03*
X787654Y487934D02*
D03*
X745744Y489381D02*
D03*
X746760Y577088D02*
D03*
X870712Y616712D02*
D03*
X776732Y614426D02*
D03*
X715264Y774446D02*
D03*
X791464Y702818D02*
D03*
X763270Y728980D02*
D03*
X764032Y755142D02*
D03*
Y768096D02*
D03*
X828294Y641096D02*
D03*
X827532Y616966D02*
D03*
X827024Y575564D02*
D03*
X826516Y564896D02*
D03*
X868934D02*
D03*
X871474Y641096D02*
D03*
X870458Y590296D02*
D03*
X679704Y740791D02*
D03*
X689333Y740124D02*
D03*
X721106Y673862D02*
D03*
X715010Y754126D02*
D03*
X1047750Y721360D02*
D03*
X1061720D02*
D03*
X1075690D02*
D03*
X1089660D02*
D03*
D62*
X1064260Y416560D02*
D03*
X385318Y778256D02*
D03*
X362204Y371094D02*
D03*
X809752Y369824D02*
D03*
X747776Y370586D02*
D03*
X543052Y369824D02*
D03*
X658346Y526796D02*
D03*
X669290Y584962D02*
D03*
X1052830Y817880D02*
D03*
D63*
X61468Y826008D02*
D03*
X868426Y830326D02*
D03*
X875538Y326644D02*
D03*
D64*
X52832Y333248D02*
D03*
D65*
X78232D02*
D03*
X103632D02*
D03*
X129032D02*
D03*
X154432D02*
D03*
X179832D02*
D03*
X205232D02*
D03*
X230632D02*
D03*
X256032D02*
D03*
X281432D02*
D03*
X52832Y790448D02*
D03*
Y358648D02*
D03*
Y765048D02*
D03*
X78232Y790448D02*
D03*
Y358648D02*
D03*
Y765048D02*
D03*
X103632Y790448D02*
D03*
Y358648D02*
D03*
Y765048D02*
D03*
X129032Y790448D02*
D03*
Y358648D02*
D03*
Y765048D02*
D03*
X154432Y790448D02*
D03*
Y358648D02*
D03*
Y765048D02*
D03*
X179832Y790448D02*
D03*
Y358648D02*
D03*
Y765048D02*
D03*
X205232Y790448D02*
D03*
Y358648D02*
D03*
Y765048D02*
D03*
X230632Y790448D02*
D03*
Y358648D02*
D03*
Y765048D02*
D03*
X256032Y790448D02*
D03*
Y358648D02*
D03*
Y765048D02*
D03*
X281432Y790448D02*
D03*
Y358648D02*
D03*
Y765048D02*
D03*
D66*
X1027430Y539630D02*
D03*
Y524630D02*
D03*
X1069340Y539630D02*
D03*
Y524630D02*
D03*
X1055370Y539630D02*
D03*
Y524630D02*
D03*
X1041400Y539630D02*
D03*
Y524630D02*
D03*
X1089660Y694810D02*
D03*
Y709810D02*
D03*
X1047750Y694810D02*
D03*
Y709810D02*
D03*
X1061720Y694810D02*
D03*
Y709810D02*
D03*
X1075690Y694810D02*
D03*
Y709810D02*
D03*
M02*
