G04*
G04 #@! TF.GenerationSoftware,Altium Limited,Altium Designer,24.2.2 (26)*
G04*
G04 Layer_Physical_Order=2*
G04 Layer_Color=16711680*
%FSLAX42Y42*%
%MOMM*%
G71*
G04*
G04 #@! TF.SameCoordinates,ABDA7C27-4DF7-4F6F-95E8-AD7B6B15C795*
G04*
G04*
G04 #@! TF.FilePolarity,Positive*
G04*
G01*
G75*
%ADD12C,0.25*%
%ADD15C,0.51*%
%ADD31C,0.15*%
%ADD32C,0.20*%
%ADD33C,1.52*%
%ADD34C,1.50*%
%ADD35R,1.50X1.50*%
%ADD36C,0.51*%
%ADD37C,0.76*%
%ADD38C,3.43*%
%ADD39R,1.52X1.52*%
%ADD40C,1.52*%
%ADD41C,1.32*%
%ADD42R,0.80X0.80*%
D12*
X1018Y2863D02*
X1133Y2748D01*
X1412D01*
X1526Y2863D01*
X764D02*
X1079Y2548D01*
X1973D01*
X2288Y2863D01*
X3228D02*
X3342Y2748D01*
X3621D01*
X3736Y2863D01*
X2974D02*
X3289Y2548D01*
X4183D01*
X4498Y2863D01*
X9969Y5441D02*
Y5447D01*
X10046Y5523D01*
Y5602D01*
X10185Y5500D02*
Y5602D01*
X10135Y5449D02*
X10185Y5500D01*
X10135Y5443D02*
Y5449D01*
X9879Y5575D02*
X9906Y5602D01*
X9827Y5489D02*
X9879Y5540D01*
Y5575D01*
X10325Y5428D02*
Y5602D01*
X9969Y7650D02*
Y7656D01*
X10046Y7733D01*
Y7812D01*
X10185Y7710D02*
Y7812D01*
X10135Y7659D02*
X10185Y7710D01*
X10135Y7653D02*
Y7659D01*
X9879Y7784D02*
X9906Y7812D01*
X9827Y7699D02*
X9879Y7750D01*
Y7784D01*
X10325Y7638D02*
Y7812D01*
X7620Y7537D02*
X7639Y7557D01*
X7140Y7537D02*
X7620D01*
X7219Y7686D02*
X7661D01*
X7661Y7686D01*
X8329Y6172D02*
X8633D01*
X8326Y6175D02*
X8329Y6172D01*
X8334Y5639D02*
X8662D01*
X8677Y5654D01*
X8684D01*
X8560Y5761D02*
X8621Y5822D01*
X8291Y5761D02*
X8560D01*
X8633Y6172D02*
X8695Y6234D01*
X8288Y6414D02*
X8687D01*
X8636Y5872D02*
X8639D01*
X8621Y5857D02*
X8636Y5872D01*
X8680Y5913D02*
X8687D01*
X8639Y5872D02*
X8680Y5913D01*
X8621Y5822D02*
Y5857D01*
X8273Y5761D02*
X8291D01*
X6856Y7407D02*
X7023Y7239D01*
X7051D01*
X6780Y7073D02*
Y7415D01*
X7051Y7239D02*
X7214Y7076D01*
X6780Y7073D02*
X7369Y6485D01*
X1547Y7910D02*
X1565Y7928D01*
Y8123D01*
X1570Y8128D01*
X2563Y4346D02*
X3043Y4826D01*
X7634Y7296D02*
X7894Y7036D01*
X7915D01*
X8270Y5763D02*
X8273Y5761D01*
X7369Y5526D02*
Y6485D01*
X7214Y6744D02*
Y7076D01*
X3142Y7762D02*
X3219Y7685D01*
X6527D01*
X6528Y7686D01*
X5824Y3695D02*
X5824Y3696D01*
X5880Y3640D01*
X5952D01*
X6352Y4040D01*
Y4447D01*
X6344Y4455D02*
X6352Y4447D01*
X6344Y4455D02*
Y4518D01*
X6414Y4587D01*
Y4685D01*
X6493Y4765D01*
X6562D01*
X6642Y4845D01*
Y4939D01*
X6772Y5069D01*
Y5886D01*
X6727Y5931D02*
X6772Y5886D01*
X6551Y5931D02*
X6727D01*
X6528Y5908D02*
X6551Y5931D01*
X5723Y3696D02*
X5723Y3696D01*
X5723Y3696D02*
X6243Y4216D01*
Y4560D01*
X6312Y4629D01*
Y4851D01*
X6363Y4902D01*
Y5468D01*
X6414Y5519D01*
Y5701D01*
X6419Y5706D01*
Y5856D01*
X6414Y5861D02*
X6419Y5856D01*
X6414Y5861D02*
Y5955D01*
X6506Y6048D01*
Y6140D01*
X6528Y6162D01*
X5623Y3700D02*
X6192Y4269D01*
Y4581D01*
X6261Y4650D01*
Y4888D01*
X6312Y4939D01*
Y5489D01*
X6363Y5540D01*
Y5722D01*
X6368Y5728D01*
Y5835D01*
X6363Y5840D02*
X6368Y5835D01*
X6363Y5840D02*
Y5976D01*
X6414Y6027D01*
Y6302D01*
X6528Y6416D01*
X5526Y3695D02*
X5530Y3698D01*
Y3840D01*
X6141Y4451D01*
Y4602D01*
X6200Y4661D01*
Y5448D01*
X6261Y5510D01*
Y5511D01*
X6312Y5561D01*
Y5743D01*
X6317Y5749D01*
Y5814D01*
X6312Y5819D02*
X6317Y5814D01*
X6312Y5819D02*
Y5997D01*
X6363Y6048D01*
Y6413D01*
X6480Y6530D01*
X6524D01*
X6550Y6556D01*
Y6648D01*
X6528Y6670D02*
X6550Y6648D01*
X5921Y3703D02*
X5923Y3701D01*
X5921Y3703D02*
X5926D01*
X6293Y4071D01*
Y4539D01*
X6363Y4608D01*
Y4706D01*
X6414Y4757D01*
Y5447D01*
X6506Y5540D01*
Y5632D01*
X6528Y5654D01*
X7154Y7748D02*
X7155Y7750D01*
X7219Y7686D01*
X5323Y3705D02*
X5893Y4275D01*
Y6487D01*
X6203Y6797D01*
D15*
X10477Y4736D02*
Y5710D01*
X10279Y4539D02*
X10477Y4736D01*
X10504Y5931D02*
X10693D01*
X10477Y5710D02*
X10693Y5927D01*
X9408Y5587D02*
Y5767D01*
X9173Y5352D02*
X9408Y5587D01*
X9173Y6002D02*
X9408Y5767D01*
X10325Y5752D02*
X10504Y5931D01*
X10185Y5752D02*
X10325D01*
X10046D02*
X10185D01*
X9906D02*
X10046D01*
X9408Y5767D02*
X9891D01*
X9906Y5752D01*
X10477Y6946D02*
Y7920D01*
X10279Y6749D02*
X10477Y6946D01*
X10504Y8141D02*
X10693D01*
X10477Y7920D02*
X10693Y8137D01*
X9408Y7797D02*
Y7976D01*
X9173Y7562D02*
X9408Y7797D01*
X9173Y8212D02*
X9408Y7976D01*
X10325Y7962D02*
X10504Y8141D01*
X10185Y7962D02*
X10325D01*
X10046D02*
X10185D01*
X9906D02*
X10046D01*
X9408Y7976D02*
X9891D01*
X9906Y7962D01*
X6678Y5756D02*
Y5850D01*
Y5756D02*
X6706Y5728D01*
X4773Y4623D02*
X4788Y4638D01*
X6586Y5273D02*
X6706Y5393D01*
Y5728D01*
X7460Y4899D02*
Y5766D01*
X7770Y6149D02*
X7879Y6040D01*
Y4884D02*
Y6040D01*
D31*
X256Y2990D02*
X2415D01*
X256Y1047D02*
Y2990D01*
Y1047D02*
X2415D01*
Y2990D01*
X2466D02*
X4625D01*
X2466Y1047D02*
Y2990D01*
Y1047D02*
X4625D01*
Y2990D01*
D32*
X10622Y4376D02*
Y4666D01*
X9622D02*
X10622D01*
X9622Y4376D02*
Y4666D01*
Y4376D02*
X10622D01*
Y6586D02*
Y6876D01*
X9622D02*
X10622D01*
X9622Y6586D02*
Y6876D01*
Y6586D02*
X10622D01*
X319Y5737D02*
X744D01*
X319Y5337D02*
Y5737D01*
Y5337D02*
X744D01*
Y5737D01*
X319Y4866D02*
X744D01*
X319Y4466D02*
Y4866D01*
Y4466D02*
X744D01*
Y4866D01*
X7775Y3123D02*
Y3548D01*
Y3123D02*
X8175D01*
Y3548D01*
X7775D02*
X8175D01*
X7163Y3123D02*
Y3548D01*
Y3123D02*
X7563D01*
Y3548D01*
X7163D02*
X7563D01*
X7580Y7135D02*
Y7785D01*
Y7135D02*
X8020D01*
Y7785D01*
X7580D02*
X8020D01*
X7880Y7942D02*
Y8232D01*
X7720D02*
X7880D01*
X7720Y7942D02*
Y8232D01*
Y7942D02*
X7880D01*
X6772Y7224D02*
X6822D01*
Y7324D01*
X6772D02*
X6822D01*
X6772Y7224D02*
Y7324D01*
X6909D02*
X6959D01*
X6909Y7224D02*
Y7324D01*
Y7224D02*
X6959D01*
Y7324D01*
X8441Y7703D02*
X8491D01*
X8441Y7603D02*
Y7703D01*
Y7603D02*
X8491D01*
Y7703D01*
X7272Y7470D02*
X7327D01*
Y7575D01*
X7272D02*
X7327D01*
X7272Y7470D02*
Y7575D01*
X7267Y7284D02*
X7317D01*
X7267Y7184D02*
Y7284D01*
Y7184D02*
X7317D01*
Y7284D01*
X7125Y7701D02*
X7180D01*
X7125Y7596D02*
Y7701D01*
Y7596D02*
X7180D01*
Y7701D01*
X8294Y7699D02*
X8343D01*
Y7799D01*
X8294D02*
X8343D01*
X8294Y7699D02*
Y7799D01*
X7267Y7641D02*
X7317D01*
Y7741D01*
X7267D02*
X7317D01*
X7267Y7641D02*
Y7741D01*
X7720Y6738D02*
Y7028D01*
Y6738D02*
X7880D01*
Y7028D01*
X7720D02*
X7880D01*
X6975Y5789D02*
X7025D01*
Y5889D01*
X6975D02*
X7025D01*
X6975Y5789D02*
Y5889D01*
Y6028D02*
X7025D01*
Y6128D01*
X6975D02*
X7025D01*
X6975Y6028D02*
Y6128D01*
X8314Y5908D02*
X8364D01*
Y6008D01*
X8314D02*
X8364D01*
X8314Y5908D02*
Y6008D01*
X7865Y4029D02*
X7990D01*
X7865Y3829D02*
Y4029D01*
Y3829D02*
X7990D01*
Y4029D01*
X7245Y4048D02*
X7370D01*
X7245Y3848D02*
Y4048D01*
Y3848D02*
X7370D01*
Y4048D01*
D33*
X764Y2863D02*
D03*
X1018D02*
D03*
X1272D02*
D03*
X1526D02*
D03*
X1780D02*
D03*
X2034D02*
D03*
X2288D02*
D03*
X2974D02*
D03*
X3228D02*
D03*
X3482D02*
D03*
X3736D02*
D03*
X3990D02*
D03*
X4244D02*
D03*
X4498D02*
D03*
X8814Y7940D02*
D03*
Y7686D02*
D03*
Y7432D02*
D03*
Y7178D02*
D03*
Y6924D02*
D03*
Y6670D02*
D03*
Y6416D02*
D03*
Y6162D02*
D03*
Y5908D02*
D03*
Y5654D02*
D03*
Y5400D02*
D03*
Y5146D02*
D03*
Y4892D02*
D03*
Y4638D02*
D03*
Y4384D02*
D03*
X6528D02*
D03*
Y4638D02*
D03*
Y4892D02*
D03*
Y5146D02*
D03*
Y5400D02*
D03*
Y5654D02*
D03*
Y5908D02*
D03*
Y6162D02*
D03*
Y6416D02*
D03*
Y6670D02*
D03*
Y6924D02*
D03*
Y7178D02*
D03*
Y7432D02*
D03*
Y7686D02*
D03*
Y7940D02*
D03*
X6203Y7559D02*
D03*
Y7305D02*
D03*
Y7051D02*
D03*
Y6797D02*
D03*
Y6543D02*
D03*
Y6289D02*
D03*
Y6035D02*
D03*
Y5781D02*
D03*
D34*
X10693Y5927D02*
D03*
Y5677D02*
D03*
X9623Y6002D02*
D03*
Y5352D02*
D03*
X9173D02*
D03*
X10693Y8137D02*
D03*
Y7887D02*
D03*
X9623Y8212D02*
D03*
Y7562D02*
D03*
X9173D02*
D03*
D35*
X10693Y5427D02*
D03*
X9173Y6002D02*
D03*
X10693Y7637D02*
D03*
X9173Y8212D02*
D03*
D36*
X9969Y5441D02*
D03*
X10135Y5443D02*
D03*
X9827Y5489D02*
D03*
X10325Y5428D02*
D03*
X9969Y7650D02*
D03*
X10135Y7653D02*
D03*
X9827Y7699D02*
D03*
X10325Y7638D02*
D03*
X7140Y7537D02*
D03*
X7661Y7686D02*
D03*
X3881Y7884D02*
D03*
X8108Y3703D02*
D03*
X8326Y6175D02*
D03*
X8334Y5639D02*
D03*
X8695Y6234D02*
D03*
X8687Y6414D02*
D03*
X8684Y5654D02*
D03*
X8687Y5913D02*
D03*
X6678Y5850D02*
D03*
X6856Y7407D02*
D03*
X6780Y7415D02*
D03*
X8296Y6414D02*
D03*
X8291Y5763D02*
D03*
X5418Y3411D02*
D03*
X3642Y3724D02*
D03*
X1570Y8128D02*
D03*
X2563Y4346D02*
D03*
X1199Y5387D02*
D03*
X1186Y4508D02*
D03*
X5323Y3705D02*
D03*
X5530Y3698D02*
D03*
X5626Y3703D02*
D03*
X5725Y3693D02*
D03*
X5824Y3695D02*
D03*
X5923Y3703D02*
D03*
X3043Y4826D02*
D03*
X6586Y5273D02*
D03*
X7480Y3711D02*
D03*
X7214Y6744D02*
D03*
X7460Y4899D02*
D03*
X7770Y6149D02*
D03*
X7879Y4884D02*
D03*
X3142Y7762D02*
D03*
D37*
X10279Y4539D02*
D03*
Y6749D02*
D03*
X8240Y7104D02*
D03*
X8499Y6314D02*
D03*
X7412Y8120D02*
D03*
X7785Y7615D02*
D03*
X8479Y7818D02*
D03*
X8504Y7991D02*
D03*
D38*
X617Y8265D02*
D03*
X8687Y8308D02*
D03*
X8758Y3272D02*
D03*
D39*
X531Y3338D02*
D03*
D40*
X785D02*
D03*
X1039D02*
D03*
X1293D02*
D03*
X1547D02*
D03*
X1801D02*
D03*
X2055D02*
D03*
X2309D02*
D03*
X2563D02*
D03*
X2817D02*
D03*
X531Y7910D02*
D03*
Y3592D02*
D03*
Y7656D02*
D03*
X785Y7910D02*
D03*
Y3592D02*
D03*
Y7656D02*
D03*
X1039Y7910D02*
D03*
Y3592D02*
D03*
Y7656D02*
D03*
X1293Y7910D02*
D03*
Y3592D02*
D03*
Y7656D02*
D03*
X1547Y7910D02*
D03*
Y3592D02*
D03*
Y7656D02*
D03*
X1801Y7910D02*
D03*
Y3592D02*
D03*
Y7656D02*
D03*
X2055Y7910D02*
D03*
Y3592D02*
D03*
Y7656D02*
D03*
X2309Y7910D02*
D03*
Y3592D02*
D03*
Y7656D02*
D03*
X2563Y7910D02*
D03*
Y3592D02*
D03*
Y7656D02*
D03*
X2817Y7910D02*
D03*
Y3592D02*
D03*
Y7656D02*
D03*
D41*
X5535Y4623D02*
D03*
X5789D02*
D03*
X5281D02*
D03*
X4773D02*
D03*
X4519D02*
D03*
D42*
X9906Y5752D02*
D03*
Y5602D02*
D03*
X10325Y5752D02*
D03*
Y5602D02*
D03*
X10185Y5752D02*
D03*
Y5602D02*
D03*
X10046Y5752D02*
D03*
Y5602D02*
D03*
X9906Y7962D02*
D03*
Y7812D02*
D03*
X10325Y7962D02*
D03*
Y7812D02*
D03*
X10185Y7962D02*
D03*
Y7812D02*
D03*
X10046Y7962D02*
D03*
Y7812D02*
D03*
M02*
