G04*
G04 #@! TF.GenerationSoftware,Altium Limited,Altium Designer,24.2.2 (26)*
G04*
G04 Layer_Color=8421504*
%FSLAX44Y44*%
%MOMM*%
G71*
G04*
G04 #@! TF.SameCoordinates,1593786D-B9FD-428D-A88F-6B9BC25CD130*
G04*
G04*
G04 #@! TF.FilePolarity,Positive*
G04*
G01*
G75*
%ADD11R,1.2000X1.8000*%
%ADD12R,0.6000X1.5500*%
%ADD14R,0.9000X0.7000*%
%ADD15R,0.5500X0.6000*%
%ADD17R,1.8000X1.2000*%
%ADD18R,1.5500X0.6000*%
%ADD19R,0.7000X0.9000*%
%ADD20R,0.5000X0.6056*%
G04:AMPARAMS|DCode=21|XSize=1.9554mm|YSize=0.4208mm|CornerRadius=0.2104mm|HoleSize=0mm|Usage=FLASHONLY|Rotation=0.000|XOffset=0mm|YOffset=0mm|HoleType=Round|Shape=RoundedRectangle|*
%AMROUNDEDRECTD21*
21,1,1.9554,0.0000,0,0,0.0*
21,1,1.5347,0.4208,0,0,0.0*
1,1,0.4208,0.7673,0.0000*
1,1,0.4208,-0.7673,0.0000*
1,1,0.4208,-0.7673,0.0000*
1,1,0.4208,0.7673,0.0000*
%
%ADD21ROUNDEDRECTD21*%
%ADD22R,1.9554X0.4208*%
G04:AMPARAMS|DCode=23|XSize=1.4556mm|YSize=0.5698mm|CornerRadius=0.2849mm|HoleSize=0mm|Usage=FLASHONLY|Rotation=180.000|XOffset=0mm|YOffset=0mm|HoleType=Round|Shape=RoundedRectangle|*
%AMROUNDEDRECTD23*
21,1,1.4556,0.0000,0,0,180.0*
21,1,0.8858,0.5698,0,0,180.0*
1,1,0.5698,-0.4429,0.0000*
1,1,0.5698,0.4429,0.0000*
1,1,0.5698,0.4429,0.0000*
1,1,0.5698,-0.4429,0.0000*
%
%ADD23ROUNDEDRECTD23*%
%ADD24R,1.4556X0.5698*%
%ADD25R,0.6000X0.5500*%
%ADD26R,0.5725X0.6153*%
%ADD27R,0.6725X0.7154*%
%ADD28R,0.5000X0.4000*%
%ADD29R,1.8000X1.4000*%
%ADD30R,2.3114X0.5588*%
%ADD31R,1.4621X1.2581*%
%ADD32R,0.6000X1.5500*%
%ADD33R,1.2000X1.8000*%
D11*
X100952Y52552D02*
D03*
X146952D02*
D03*
X1001020Y424060D02*
D03*
X1097020D02*
D03*
X431152Y52552D02*
D03*
X477152D02*
D03*
X509008Y316850D02*
D03*
X605008D02*
D03*
X398412Y839496D02*
D03*
X352412D02*
D03*
X351904Y318236D02*
D03*
X397904D02*
D03*
X815272Y318770D02*
D03*
X779272D02*
D03*
X754092Y318744D02*
D03*
X718092D02*
D03*
D12*
X133952Y91302D02*
D03*
X123952D02*
D03*
X113952D02*
D03*
X1084020Y398810D02*
D03*
X1074020D02*
D03*
X1064020D02*
D03*
X1054020D02*
D03*
X1044020D02*
D03*
X1034020D02*
D03*
X1024020D02*
D03*
X1014020D02*
D03*
X464152Y91302D02*
D03*
X454152D02*
D03*
X444152D02*
D03*
X572008Y355600D02*
D03*
X562008D02*
D03*
X552008D02*
D03*
X542008D02*
D03*
X532008D02*
D03*
X522008D02*
D03*
X582008D02*
D03*
X592008D02*
D03*
X365412Y800746D02*
D03*
X375412D02*
D03*
X385412D02*
D03*
X384904Y356986D02*
D03*
X374904D02*
D03*
X364904D02*
D03*
X802272Y357520D02*
D03*
X792272D02*
D03*
X741092Y357494D02*
D03*
X731092D02*
D03*
D14*
X1033780Y443080D02*
D03*
Y456080D02*
D03*
X1019810Y443080D02*
D03*
Y456080D02*
D03*
X1046480Y443080D02*
D03*
Y456080D02*
D03*
X1060450Y442930D02*
D03*
Y455930D02*
D03*
X1083310Y791360D02*
D03*
Y778360D02*
D03*
X1097280Y791360D02*
D03*
Y778360D02*
D03*
X1070610Y791360D02*
D03*
Y778360D02*
D03*
X1056640Y791510D02*
D03*
Y778510D02*
D03*
D15*
X979170Y453780D02*
D03*
Y462280D02*
D03*
X587248Y708084D02*
D03*
Y699584D02*
D03*
X817880Y807366D02*
D03*
Y798866D02*
D03*
X741680Y688698D02*
D03*
Y697198D02*
D03*
X587248Y688272D02*
D03*
Y679772D02*
D03*
X1137920Y780660D02*
D03*
Y772160D02*
D03*
D17*
X38608Y535178D02*
D03*
Y571178D02*
D03*
Y448124D02*
D03*
Y484124D02*
D03*
D18*
X77358Y548178D02*
D03*
Y558178D02*
D03*
Y461124D02*
D03*
Y471124D02*
D03*
D19*
X105664Y548386D02*
D03*
X118664D02*
D03*
X105664Y460248D02*
D03*
X118664D02*
D03*
X854606Y744950D02*
D03*
X841606D02*
D03*
X854606Y732250D02*
D03*
X841606D02*
D03*
X854606Y719550D02*
D03*
X841606D02*
D03*
D20*
X807466Y686142D02*
D03*
Y697198D02*
D03*
Y809854D02*
D03*
Y798798D02*
D03*
X752094Y809854D02*
D03*
Y798798D02*
D03*
Y686142D02*
D03*
Y697198D02*
D03*
D21*
X808534Y774708D02*
D03*
Y768208D02*
D03*
Y761708D02*
D03*
Y755208D02*
D03*
Y748708D02*
D03*
Y742208D02*
D03*
Y735708D02*
D03*
Y729208D02*
D03*
Y722708D02*
D03*
Y716208D02*
D03*
X751026D02*
D03*
Y722708D02*
D03*
Y729208D02*
D03*
Y735708D02*
D03*
Y742208D02*
D03*
Y748708D02*
D03*
Y755208D02*
D03*
Y761708D02*
D03*
Y768208D02*
D03*
D22*
Y774708D02*
D03*
D23*
X768527Y798696D02*
D03*
Y817696D02*
D03*
X791033D02*
D03*
Y808196D02*
D03*
Y697300D02*
D03*
Y678300D02*
D03*
X768527D02*
D03*
Y687800D02*
D03*
D24*
X791033Y798696D02*
D03*
X768527Y697300D02*
D03*
D25*
X688204Y749268D02*
D03*
X679704D02*
D03*
X701920Y740124D02*
D03*
X693420D02*
D03*
D26*
X679450Y731201D02*
D03*
Y722630D02*
D03*
X693166Y722630D02*
D03*
Y731201D02*
D03*
D27*
X846328Y759976D02*
D03*
Y769547D02*
D03*
X728980Y718106D02*
D03*
Y727678D02*
D03*
X831596Y779159D02*
D03*
Y769588D02*
D03*
X728980Y773357D02*
D03*
Y763786D02*
D03*
X699770Y588224D02*
D03*
Y578652D02*
D03*
Y612059D02*
D03*
Y602488D02*
D03*
X833628Y600121D02*
D03*
Y590550D02*
D03*
D28*
X729742Y755744D02*
D03*
Y747744D02*
D03*
X715010Y760318D02*
D03*
Y768318D02*
D03*
D29*
X710184Y724630D02*
D03*
Y698630D02*
D03*
X850646Y586994D02*
D03*
Y612994D02*
D03*
X681736Y605790D02*
D03*
Y631790D02*
D03*
Y558962D02*
D03*
Y584962D02*
D03*
D30*
X812038Y550926D02*
D03*
X721614D02*
D03*
Y563626D02*
D03*
Y576326D02*
D03*
Y589026D02*
D03*
Y601726D02*
D03*
Y614426D02*
D03*
Y627126D02*
D03*
Y639826D02*
D03*
X812038D02*
D03*
Y627126D02*
D03*
Y614426D02*
D03*
Y601726D02*
D03*
Y589026D02*
D03*
Y576326D02*
D03*
Y563626D02*
D03*
D31*
X792480Y382660D02*
D03*
Y402200D02*
D03*
X730504Y384556D02*
D03*
Y404096D02*
D03*
D32*
X1033070Y835630D02*
D03*
X1043070D02*
D03*
X1053070D02*
D03*
X1063070D02*
D03*
X1073070D02*
D03*
X1083070D02*
D03*
X1093070D02*
D03*
X1103070D02*
D03*
D33*
X1116070Y810380D02*
D03*
X1020070D02*
D03*
M02*
