G04*
G04 #@! TF.GenerationSoftware,Altium Limited,Altium Designer,24.2.2 (26)*
G04*
G04 Layer_Color=32768*
%FSLAX42Y42*%
%MOMM*%
G71*
G04*
G04 #@! TF.SameCoordinates,ABDA7C27-4DF7-4F6F-95E8-AD7B6B15C795*
G04*
G04*
G04 #@! TF.FilePolarity,Positive*
G04*
G01*
G75*
%ADD31C,0.15*%
%ADD32C,0.20*%
%ADD43C,0.10*%
%ADD46C,0.15*%
%ADD69C,0.05*%
G36*
X8128Y7937D02*
X8027D01*
Y8159D01*
X8128D01*
Y7937D01*
D02*
G37*
G36*
X7574D02*
X7473D01*
Y8159D01*
X7574D01*
Y7937D01*
D02*
G37*
G36*
X8128Y6811D02*
X8027D01*
Y7033D01*
X8128D01*
Y6811D01*
D02*
G37*
G36*
X7574D02*
X7473D01*
Y7033D01*
X7574D01*
Y6811D01*
D02*
G37*
G36*
X8264Y5409D02*
X7078D01*
Y6509D01*
X8264D01*
Y5409D01*
D02*
G37*
G36*
X6298Y3960D02*
X4271D01*
Y4786D01*
X6298D01*
Y3960D01*
D02*
G37*
D31*
X256Y2990D02*
X2415D01*
X256Y1047D02*
Y2990D01*
Y1047D02*
X2415D01*
Y2990D01*
X2466D02*
X4625D01*
X2466Y1047D02*
Y2990D01*
Y1047D02*
X4625D01*
Y2990D01*
D32*
X10622Y4376D02*
Y4666D01*
X9622D02*
X10622D01*
X9622Y4376D02*
Y4666D01*
Y4376D02*
X10622D01*
Y6586D02*
Y6876D01*
X9622D02*
X10622D01*
X9622Y6586D02*
Y6876D01*
Y6586D02*
X10622D01*
X319Y5737D02*
X744D01*
X319Y5337D02*
Y5737D01*
Y5337D02*
X744D01*
Y5737D01*
X319Y4866D02*
X744D01*
X319Y4466D02*
Y4866D01*
Y4466D02*
X744D01*
Y4866D01*
X7775Y3123D02*
Y3548D01*
Y3123D02*
X8175D01*
Y3548D01*
X7775D02*
X8175D01*
X7163Y3123D02*
Y3548D01*
Y3123D02*
X7563D01*
Y3548D01*
X7163D02*
X7563D01*
X7580Y7135D02*
Y7785D01*
Y7135D02*
X8020D01*
Y7785D01*
X7580D02*
X8020D01*
X7880Y7942D02*
Y8232D01*
X7720D02*
X7880D01*
X7720Y7942D02*
Y8232D01*
Y7942D02*
X7880D01*
X6772Y7224D02*
X6822D01*
Y7324D01*
X6772D02*
X6822D01*
X6772Y7224D02*
Y7324D01*
X6909D02*
X6959D01*
X6909Y7224D02*
Y7324D01*
Y7224D02*
X6959D01*
Y7324D01*
X8441Y7703D02*
X8491D01*
X8441Y7603D02*
Y7703D01*
Y7603D02*
X8491D01*
Y7703D01*
X7272Y7470D02*
X7327D01*
Y7575D01*
X7272D02*
X7327D01*
X7272Y7470D02*
Y7575D01*
X7267Y7284D02*
X7317D01*
X7267Y7184D02*
Y7284D01*
Y7184D02*
X7317D01*
Y7284D01*
X7125Y7701D02*
X7180D01*
X7125Y7596D02*
Y7701D01*
Y7596D02*
X7180D01*
Y7701D01*
X8294Y7699D02*
X8343D01*
Y7799D01*
X8294D02*
X8343D01*
X8294Y7699D02*
Y7799D01*
X7267Y7641D02*
X7317D01*
Y7741D01*
X7267D02*
X7317D01*
X7267Y7641D02*
Y7741D01*
X7720Y6738D02*
Y7028D01*
Y6738D02*
X7880D01*
Y7028D01*
X7720D02*
X7880D01*
X6975Y5789D02*
X7025D01*
Y5889D01*
X6975D02*
X7025D01*
X6975Y5789D02*
Y5889D01*
Y6028D02*
X7025D01*
Y6128D01*
X6975D02*
X7025D01*
X6975Y6028D02*
Y6128D01*
X8314Y5908D02*
X8364D01*
Y6008D01*
X8314D02*
X8364D01*
X8314Y5908D02*
Y6008D01*
X7865Y4029D02*
X7990D01*
X7865Y3829D02*
Y4029D01*
Y3829D02*
X7990D01*
Y4029D01*
X7245Y4048D02*
X7370D01*
X7245Y3848D02*
Y4048D01*
Y3848D02*
X7370D01*
Y4048D01*
D43*
X1293Y1398D02*
Y1498D01*
X1243Y1448D02*
X1343D01*
X3503Y1398D02*
Y1498D01*
X3453Y1448D02*
X3553D01*
X10693Y5627D02*
Y5727D01*
X10643Y5677D02*
X10743D01*
X9398Y5627D02*
Y5727D01*
X9348Y5677D02*
X9448D01*
X9969Y4801D02*
Y4901D01*
X9919Y4851D02*
X10019D01*
X9881Y5677D02*
X9931D01*
X9906Y5652D02*
Y5702D01*
X10300Y5677D02*
X10350D01*
X10325Y5652D02*
Y5702D01*
X10160Y5677D02*
X10210D01*
X10185Y5652D02*
Y5702D01*
X10021Y5677D02*
X10071D01*
X10046Y5652D02*
Y5702D01*
X9830Y4801D02*
Y4901D01*
X9780Y4851D02*
X9880D01*
X10096Y4801D02*
Y4901D01*
X10046Y4851D02*
X10146D01*
X10236Y4800D02*
Y4900D01*
X10186Y4850D02*
X10286D01*
X9423Y4908D02*
Y4963D01*
X9396Y4936D02*
X9451D01*
X10693Y7837D02*
Y7937D01*
X10643Y7887D02*
X10743D01*
X9398Y7837D02*
Y7937D01*
X9348Y7887D02*
X9448D01*
X9969Y7011D02*
Y7111D01*
X9919Y7061D02*
X10019D01*
X9881Y7887D02*
X9931D01*
X9906Y7862D02*
Y7912D01*
X10300Y7887D02*
X10350D01*
X10325Y7862D02*
Y7912D01*
X10160Y7887D02*
X10210D01*
X10185Y7862D02*
Y7912D01*
X10021Y7887D02*
X10071D01*
X10046Y7862D02*
Y7912D01*
X9830Y7011D02*
Y7111D01*
X9780Y7061D02*
X9880D01*
X10096Y7011D02*
Y7111D01*
X10046Y7061D02*
X10146D01*
X10236Y7010D02*
Y7110D01*
X10186Y7060D02*
X10286D01*
X9423Y7118D02*
Y7173D01*
X9396Y7146D02*
X9451D01*
X5523Y3316D02*
X5623D01*
X5573Y3266D02*
Y3366D01*
X1074Y5489D02*
X1174D01*
X1124Y5439D02*
Y5539D01*
X1074Y4608D02*
X1174D01*
X1124Y4558D02*
Y4658D01*
X5875Y7016D02*
Y7071D01*
X5848Y7043D02*
X5903D01*
X3757Y8208D02*
Y8308D01*
X3707Y8258D02*
X3807D01*
X3752Y3280D02*
Y3380D01*
X3702Y3330D02*
X3802D01*
X8181Y8009D02*
Y8064D01*
X8154Y8036D02*
X8209D01*
X8434Y7455D02*
X8534D01*
X8484Y7405D02*
Y7505D01*
X8434Y7328D02*
X8534D01*
X8484Y7278D02*
Y7378D01*
X8434Y7201D02*
X8534D01*
X8484Y7151D02*
Y7251D01*
X6815Y7498D02*
X6870D01*
X6842Y7470D02*
Y7525D01*
X6952Y7406D02*
X7007D01*
X6979Y7379D02*
Y7434D01*
X7104Y7071D02*
Y7171D01*
X7054Y7121D02*
X7154D01*
X7419Y6907D02*
Y6962D01*
X7392Y6935D02*
X7447D01*
X8509Y5955D02*
Y6055D01*
X8459Y6005D02*
X8559D01*
X6820Y6143D02*
Y6243D01*
X6770Y6193D02*
X6870D01*
X6820Y5675D02*
Y5775D01*
X6770Y5725D02*
X6870D01*
X5875Y6818D02*
Y6873D01*
X5848Y6845D02*
X5903D01*
D46*
X8027Y6811D02*
X8128D01*
X8027D02*
Y7033D01*
X8128D01*
Y6811D02*
Y7033D01*
X8027Y8159D02*
X8128D01*
Y7937D02*
Y8159D01*
X8027Y7937D02*
X8128D01*
X8027D02*
Y8159D01*
X7473D02*
X7574D01*
Y7937D02*
Y8159D01*
X7473Y7937D02*
X7574D01*
X7473D02*
Y8159D01*
Y6811D02*
X7574D01*
X7473D02*
Y7033D01*
X7574D01*
Y6811D02*
Y7033D01*
X7078Y6509D02*
X8264D01*
X7078Y5409D02*
Y6509D01*
Y5409D02*
X8264D01*
Y6509D01*
X4271Y3960D02*
X6298D01*
Y4786D01*
X4271D02*
X6298D01*
X4271Y3960D02*
Y4786D01*
D69*
X993Y1780D02*
X1593D01*
X993Y1205D02*
Y1780D01*
Y1205D02*
X1593D01*
Y1780D01*
X3203D02*
X3803D01*
X3203Y1205D02*
Y1780D01*
Y1205D02*
X3803D01*
Y1780D01*
X10483Y5087D02*
X10903D01*
X10483D02*
Y6267D01*
X10903D01*
Y5087D02*
Y6267D01*
X9708Y5267D02*
Y6087D01*
X9088D02*
X9708D01*
X9088Y5267D02*
Y6087D01*
Y5267D02*
X9708D01*
X9910Y4741D02*
X10029D01*
X9910Y4961D02*
X10029D01*
X9910Y4741D02*
Y4961D01*
X10029Y4741D02*
Y4961D01*
X9856Y5802D02*
X9956D01*
X9856Y5552D02*
Y5802D01*
X9956Y5552D02*
Y5802D01*
X9856Y5552D02*
X9956D01*
X10275Y5802D02*
X10375D01*
X10275Y5552D02*
Y5802D01*
X10375Y5552D02*
Y5802D01*
X10275Y5552D02*
X10375D01*
X10135Y5802D02*
X10235D01*
X10135Y5552D02*
Y5802D01*
X10235Y5552D02*
Y5802D01*
X10135Y5552D02*
X10235D01*
X9996Y5802D02*
X10096D01*
X9996Y5552D02*
Y5802D01*
X10096Y5552D02*
Y5802D01*
X9996Y5552D02*
X10096D01*
X9770Y4741D02*
X9890D01*
X9770Y4961D02*
X9890D01*
X9770Y4741D02*
Y4961D01*
X9890Y4741D02*
Y4961D01*
X10036Y4741D02*
X10157D01*
X10036Y4961D02*
X10157D01*
X10036Y4741D02*
Y4961D01*
X10157Y4741D02*
Y4961D01*
X10176Y4740D02*
X10296D01*
X10176Y4960D02*
X10296D01*
X10176Y4740D02*
Y4960D01*
X10296Y4740D02*
Y4960D01*
X9378Y4846D02*
X9468D01*
X9378Y5026D02*
X9468D01*
X9378Y4846D02*
Y5026D01*
X9468Y4846D02*
Y5026D01*
X10483Y7297D02*
X10903D01*
X10483D02*
Y8477D01*
X10903D01*
Y7297D02*
Y8477D01*
X9708Y7477D02*
Y8297D01*
X9088D02*
X9708D01*
X9088Y7477D02*
Y8297D01*
Y7477D02*
X9708D01*
X9910Y6951D02*
X10029D01*
X9910Y7171D02*
X10029D01*
X9910Y6951D02*
Y7171D01*
X10029Y6951D02*
Y7171D01*
X9856Y8012D02*
X9956D01*
X9856Y7762D02*
Y8012D01*
X9956Y7762D02*
Y8012D01*
X9856Y7762D02*
X9956D01*
X10275Y8012D02*
X10375D01*
X10275Y7762D02*
Y8012D01*
X10375Y7762D02*
Y8012D01*
X10275Y7762D02*
X10375D01*
X10135Y8012D02*
X10235D01*
X10135Y7762D02*
Y8012D01*
X10235Y7762D02*
Y8012D01*
X10135Y7762D02*
X10235D01*
X9996Y8012D02*
X10096D01*
X9996Y7762D02*
Y8012D01*
X10096Y7762D02*
Y8012D01*
X9996Y7762D02*
X10096D01*
X9770Y6951D02*
X9890D01*
X9770Y7171D02*
X9890D01*
X9770Y6951D02*
Y7171D01*
X9890Y6951D02*
Y7171D01*
X10036Y6951D02*
X10157D01*
X10036Y7171D02*
X10157D01*
X10036Y6951D02*
Y7171D01*
X10157Y6951D02*
Y7171D01*
X10176Y6950D02*
X10296D01*
X10176Y7170D02*
X10296D01*
X10176Y6950D02*
Y7170D01*
X10296Y6950D02*
Y7170D01*
X9378Y7056D02*
X9468D01*
X9378Y7236D02*
X9468D01*
X9378Y7056D02*
Y7236D01*
X9468Y7056D02*
Y7236D01*
X6123Y3074D02*
Y3649D01*
X5023Y3074D02*
X6123D01*
X5023D02*
Y3649D01*
X6123D01*
X-2542Y3059D02*
Y8189D01*
X4112D01*
Y3059D02*
Y8189D01*
X-2542Y3059D02*
X4112D01*
X1014Y5429D02*
Y5549D01*
X1234Y5429D02*
Y5549D01*
X1014D02*
X1234D01*
X1014Y5429D02*
X1234D01*
X1014Y4548D02*
Y4668D01*
X1234Y4548D02*
Y4668D01*
X1014D02*
X1234D01*
X1014Y4548D02*
X1234D01*
X5830Y7133D02*
X5920D01*
X5830Y6953D02*
X5920D01*
Y7133D01*
X5830Y6953D02*
Y7133D01*
X3457Y7925D02*
X4057D01*
Y8500D01*
X3457D02*
X4057D01*
X3457Y7925D02*
Y8500D01*
X3452Y3662D02*
X4052D01*
X3452Y3087D02*
Y3662D01*
Y3087D02*
X4052D01*
Y3662D01*
X8136Y8126D02*
X8226D01*
X8136Y7946D02*
X8226D01*
Y8126D01*
X8136Y7946D02*
Y8126D01*
X8594Y7395D02*
Y7515D01*
X8374Y7395D02*
Y7515D01*
Y7395D02*
X8594D01*
X8374Y7515D02*
X8594D01*
Y7268D02*
Y7388D01*
X8374Y7268D02*
Y7388D01*
Y7268D02*
X8594D01*
X8374Y7388D02*
X8594D01*
Y7141D02*
Y7261D01*
X8374Y7141D02*
Y7261D01*
Y7141D02*
X8594D01*
X8374Y7261D02*
X8594D01*
X6932Y7453D02*
Y7543D01*
X6752Y7453D02*
Y7543D01*
Y7453D02*
X6932D01*
X6752Y7543D02*
X6932D01*
X7069Y7361D02*
Y7451D01*
X6889Y7361D02*
Y7451D01*
Y7361D02*
X7069D01*
X6889Y7451D02*
X7069D01*
X7004Y6911D02*
X7204D01*
X7004D02*
Y7331D01*
X7204D01*
Y6911D02*
Y7331D01*
X7374Y6845D02*
X7464D01*
X7374Y7025D02*
X7464D01*
X7374Y6845D02*
Y7025D01*
X7464Y6845D02*
Y7025D01*
X8409Y6215D02*
X8609D01*
Y5795D02*
Y6215D01*
X8409Y5795D02*
X8609D01*
X8409D02*
Y6215D01*
X6720Y6403D02*
X6920D01*
Y5983D02*
Y6403D01*
X6720Y5983D02*
X6920D01*
X6720D02*
Y6403D01*
Y5935D02*
X6920D01*
Y5515D02*
Y5935D01*
X6720Y5515D02*
X6920D01*
X6720D02*
Y5935D01*
X5830Y6935D02*
X5920D01*
X5830Y6755D02*
X5920D01*
Y6935D01*
X5830Y6755D02*
Y6935D01*
M02*
