G04*
G04 #@! TF.GenerationSoftware,Altium Limited,Altium Designer,24.2.2 (26)*
G04*
G04 Layer_Color=32896*
%FSLAX42Y42*%
%MOMM*%
G71*
G04*
G04 #@! TF.SameCoordinates,ABDA7C27-4DF7-4F6F-95E8-AD7B6B15C795*
G04*
G04*
G04 #@! TF.FilePolarity,Positive*
G04*
G01*
G75*
%ADD31C,0.15*%
%ADD32C,0.20*%
%ADD43C,0.10*%
D31*
X256Y2990D02*
X2415D01*
X256Y1047D02*
Y2990D01*
Y1047D02*
X2415D01*
Y2990D01*
X2466D02*
X4625D01*
X2466Y1047D02*
Y2990D01*
Y1047D02*
X4625D01*
Y2990D01*
X7671Y6035D02*
Y6289D01*
X7544Y6162D02*
X7798D01*
X5187Y6543D02*
Y7051D01*
Y6543D02*
Y6797D01*
X4933D02*
X5187D01*
X4933D02*
X5441D01*
X256Y2990D02*
X2415D01*
X256Y1047D02*
Y2990D01*
Y1047D02*
X2415D01*
Y2990D01*
X2466D02*
X4625D01*
X2466Y1047D02*
Y2990D01*
Y1047D02*
X4625D01*
Y2990D01*
D32*
X10622Y4376D02*
Y4666D01*
X9622D02*
X10622D01*
X9622Y4376D02*
Y4666D01*
Y4376D02*
X10622D01*
Y6586D02*
Y6876D01*
X9622D02*
X10622D01*
X9622Y6586D02*
Y6876D01*
Y6586D02*
X10622D01*
X319Y5737D02*
X744D01*
X319Y5337D02*
Y5737D01*
Y5337D02*
X744D01*
Y5737D01*
X319Y4866D02*
X744D01*
X319Y4466D02*
Y4866D01*
Y4466D02*
X744D01*
Y4866D01*
X7775Y3123D02*
Y3548D01*
Y3123D02*
X8175D01*
Y3548D01*
X7775D02*
X8175D01*
X7163Y3123D02*
Y3548D01*
Y3123D02*
X7563D01*
Y3548D01*
X7163D02*
X7563D01*
X7580Y7135D02*
Y7785D01*
Y7135D02*
X8020D01*
Y7785D01*
X7580D02*
X8020D01*
X7880Y7942D02*
Y8232D01*
X7720D02*
X7880D01*
X7720Y7942D02*
Y8232D01*
Y7942D02*
X7880D01*
X6772Y7224D02*
X6822D01*
Y7324D01*
X6772D02*
X6822D01*
X6772Y7224D02*
Y7324D01*
X6909D02*
X6959D01*
X6909Y7224D02*
Y7324D01*
Y7224D02*
X6959D01*
Y7324D01*
X8441Y7703D02*
X8491D01*
X8441Y7603D02*
Y7703D01*
Y7603D02*
X8491D01*
Y7703D01*
X7272Y7470D02*
X7327D01*
Y7575D01*
X7272D02*
X7327D01*
X7272Y7470D02*
Y7575D01*
X7267Y7284D02*
X7317D01*
X7267Y7184D02*
Y7284D01*
Y7184D02*
X7317D01*
Y7284D01*
X7125Y7701D02*
X7180D01*
X7125Y7596D02*
Y7701D01*
Y7596D02*
X7180D01*
Y7701D01*
X8294Y7699D02*
X8343D01*
Y7799D01*
X8294D02*
X8343D01*
X8294Y7699D02*
Y7799D01*
X7267Y7641D02*
X7317D01*
Y7741D01*
X7267D02*
X7317D01*
X7267Y7641D02*
Y7741D01*
X7720Y6738D02*
Y7028D01*
Y6738D02*
X7880D01*
Y7028D01*
X7720D02*
X7880D01*
X6975Y5789D02*
X7025D01*
Y5889D01*
X6975D02*
X7025D01*
X6975Y5789D02*
Y5889D01*
Y6028D02*
X7025D01*
Y6128D01*
X6975D02*
X7025D01*
X6975Y6028D02*
Y6128D01*
X8314Y5908D02*
X8364D01*
Y6008D01*
X8314D02*
X8364D01*
X8314Y5908D02*
Y6008D01*
X7865Y4029D02*
X7990D01*
X7865Y3829D02*
Y4029D01*
Y3829D02*
X7990D01*
Y4029D01*
X7245Y4048D02*
X7370D01*
X7245Y3848D02*
Y4048D01*
Y3848D02*
X7370D01*
Y4048D01*
D43*
X481Y5537D02*
X581D01*
X531Y5487D02*
Y5587D01*
X481Y4666D02*
X581D01*
X531Y4616D02*
Y4716D01*
X7975Y3285D02*
Y3385D01*
X7925Y3335D02*
X8025D01*
X7363Y3285D02*
Y3385D01*
X7313Y3335D02*
X7413D01*
X7800Y7410D02*
Y7510D01*
X7750Y7460D02*
X7850D01*
X7800Y8037D02*
Y8137D01*
X7750Y8087D02*
X7850D01*
X6747Y7274D02*
X6847D01*
X6797Y7224D02*
Y7324D01*
X6747Y7274D02*
X6847D01*
X6797Y7224D02*
Y7324D01*
X6884Y7274D02*
X6984D01*
X6934Y7224D02*
Y7324D01*
X6884Y7274D02*
X6984D01*
X6934Y7224D02*
Y7324D01*
X8416Y7653D02*
X8516D01*
X8466Y7603D02*
Y7703D01*
X7250Y7523D02*
X7350D01*
X7300Y7473D02*
Y7573D01*
X7242Y7234D02*
X7342D01*
X7292Y7184D02*
Y7284D01*
X7103Y7648D02*
X7203D01*
X7153Y7598D02*
Y7698D01*
X8269Y7749D02*
X8369D01*
X8318Y7699D02*
Y7799D01*
X7242Y7691D02*
X7342D01*
X7292Y7641D02*
Y7741D01*
X7800Y6833D02*
Y6933D01*
X7750Y6883D02*
X7850D01*
X6950Y5839D02*
X7050D01*
X7000Y5789D02*
Y5889D01*
X6950Y6078D02*
X7050D01*
X7000Y6028D02*
Y6128D01*
X8289Y5958D02*
X8389D01*
X8339Y5908D02*
Y6008D01*
X7877Y3929D02*
X7977D01*
X7927Y3879D02*
Y3979D01*
X7258Y3948D02*
X7358D01*
X7308Y3898D02*
Y3998D01*
M02*
