%TF.GenerationSoftware,Altium Limited,Altium Designer,24.2.2 (26)*%
G04 Layer_Physical_Order=1*
G04 Layer_Color=255*
%FSLAX45Y45*%
%MOMM*%
%TF.SameCoordinates,E03CB206-BB87-4E68-BEA4-A169BFC7E2EA*%
%TF.FilePolarity,Positive*%
%TF.FileFunction,Copper,L1,Top,Signal*%
%TF.Part,CustomerPanel*%
G01*
G75*
%TA.AperFunction,SMDPad,CuDef*%
%ADD10R,1.20000X1.80000*%
%ADD11R,0.60000X1.55000*%
%TA.AperFunction,Conductor*%
%ADD12C,0.25400*%
%TA.AperFunction,ConnectorPad*%
%ADD13R,1.55000X0.60000*%
%ADD14R,1.80000X1.20000*%
%TA.AperFunction,SMDPad,CuDef*%
%ADD15R,0.70000X0.90000*%
%ADD16R,0.60000X0.55000*%
%TA.AperFunction,Conductor*%
%ADD17C,0.50800*%
%TA.AperFunction,SMDPad,CuDef*%
%ADD18R,1.80000X1.20000*%
%ADD19R,1.55000X0.60000*%
%ADD20R,0.55000X0.60000*%
%ADD21R,0.50000X0.60560*%
G04:AMPARAMS|DCode=22|XSize=1.95543mm|YSize=0.42077mm|CornerRadius=0.21038mm|HoleSize=0mm|Usage=FLASHONLY|Rotation=0.000|XOffset=0mm|YOffset=0mm|HoleType=Round|Shape=RoundedRectangle|*
%AMROUNDEDRECTD22*
21,1,1.95543,0.00000,0,0,0.0*
21,1,1.53467,0.42077,0,0,0.0*
1,1,0.42077,0.76733,0.00000*
1,1,0.42077,-0.76733,0.00000*
1,1,0.42077,-0.76733,0.00000*
1,1,0.42077,0.76733,0.00000*
%
%ADD22ROUNDEDRECTD22*%
%ADD23R,1.95543X0.42077*%
G04:AMPARAMS|DCode=24|XSize=1.45564mm|YSize=0.56981mm|CornerRadius=0.2849mm|HoleSize=0mm|Usage=FLASHONLY|Rotation=180.000|XOffset=0mm|YOffset=0mm|HoleType=Round|Shape=RoundedRectangle|*
%AMROUNDEDRECTD24*
21,1,1.45564,0.00000,0,0,180.0*
21,1,0.88584,0.56981,0,0,180.0*
1,1,0.56980,-0.44292,0.00000*
1,1,0.56980,0.44292,0.00000*
1,1,0.56980,0.44292,0.00000*
1,1,0.56980,-0.44292,0.00000*
%
%ADD24ROUNDEDRECTD24*%
%ADD25R,1.45564X0.56981*%
%ADD26R,0.57247X0.61535*%
%ADD27R,0.67248X0.71535*%
%ADD28R,0.50000X0.40000*%
%ADD29R,1.80000X1.40000*%
%ADD30R,2.31140X0.55880*%
%ADD31R,1.46213X1.25814*%
%TA.AperFunction,ComponentPad*%
%ADD32C,1.52400*%
%ADD33C,1.50000*%
%ADD34R,1.50000X1.50000*%
%TA.AperFunction,ViaPad*%
%ADD35C,0.50800*%
%ADD36C,0.76200*%
%ADD37C,3.42900*%
%TA.AperFunction,ComponentPad*%
%ADD38R,1.52000X1.52000*%
%ADD39C,1.52000*%
%ADD40C,1.32080*%
G36*
X8494975Y8248381D02*
X8509814Y8212557D01*
X8531357Y8180315D01*
X8549640Y8162032D01*
Y7693660D01*
X8544560Y7581900D01*
X8548745Y7537956D01*
X8540201Y7528560D01*
X8522608D01*
X8522304Y7541134D01*
X8522304D01*
Y7636846D01*
Y7685314D01*
X8463280D01*
X8404256D01*
Y7655270D01*
X8374984D01*
Y7685715D01*
X8315960D01*
Y7711115D01*
X8374984D01*
Y7732960D01*
Y7855294D01*
X8256936D01*
Y7832974D01*
X8206583D01*
X8191717Y7830017D01*
X8179114Y7821596D01*
X8154483Y7796964D01*
X8008605D01*
X7990486Y7793360D01*
X7983156Y7788463D01*
X7633433D01*
Y7796055D01*
X7559787D01*
Y7934835D01*
X7571340D01*
Y7951160D01*
X7601782D01*
X7602129Y7950641D01*
X7619954Y7938730D01*
X7640981Y7934548D01*
X7729565D01*
X7750592Y7938730D01*
X7768417Y7950641D01*
X7780328Y7968467D01*
X7784511Y7989494D01*
X7780328Y8010521D01*
X7773994Y8020000D01*
X7780783Y8032700D01*
X7812145D01*
Y7935604D01*
X8008509D01*
Y7951501D01*
X8024260D01*
Y7934835D01*
X8125060D01*
Y7934835D01*
X8125900Y7935796D01*
X8231700D01*
Y8020794D01*
Y8131594D01*
X8200721D01*
X8199891Y8135764D01*
X8191471Y8148367D01*
X8132873Y8206965D01*
X8120270Y8215385D01*
X8105404Y8218342D01*
X7993476D01*
X7993471Y8218349D01*
X7975646Y8230259D01*
X7954619Y8234442D01*
X7866035D01*
X7845008Y8230259D01*
X7827183Y8218349D01*
X7815272Y8200523D01*
X7811089Y8179496D01*
X7815272Y8158469D01*
X7821606Y8148990D01*
X7814817Y8136290D01*
X7780783D01*
X7773994Y8148990D01*
X7780328Y8158469D01*
X7784511Y8179496D01*
X7780328Y8200523D01*
X7768417Y8218349D01*
X7750592Y8230259D01*
X7729565Y8234442D01*
X7640981D01*
X7619954Y8230259D01*
X7602129Y8218349D01*
X7590218Y8200523D01*
X7586035Y8179496D01*
X7590218Y8158469D01*
X7596551Y8148990D01*
X7589763Y8136290D01*
X7571340D01*
Y8156756D01*
X7533640D01*
Y8101076D01*
X7508240D01*
Y8156756D01*
X7470540D01*
Y8108090D01*
X7469145Y8101076D01*
Y8096799D01*
X7470540Y8089784D01*
Y8045396D01*
Y7934835D01*
X7482093D01*
Y7796055D01*
X7387090D01*
Y7782600D01*
X7348824D01*
Y7797281D01*
X7256780D01*
Y8229600D01*
X7250311Y8236069D01*
X7254989Y8247876D01*
X8487474Y8286092D01*
X8494975Y8248381D01*
D02*
G37*
G36*
X6877636Y7241540D02*
X6931660D01*
Y7228840D01*
X6944360D01*
Y7172673D01*
X6985683D01*
X6986440Y7160286D01*
Y7153435D01*
X7217240D01*
Y7255769D01*
X7230776D01*
Y7196303D01*
X7289800D01*
X7348824D01*
Y7255769D01*
X7381041D01*
X7388856Y7243069D01*
X7388707Y7242317D01*
X7510262D01*
Y7216917D01*
X7388707D01*
X7389785Y7211498D01*
X7399393Y7197118D01*
X7389785Y7182738D01*
X7386181Y7164619D01*
X7389785Y7146499D01*
X7400048Y7131138D01*
X7415409Y7120875D01*
X7433529Y7117270D01*
X7586995D01*
X7605114Y7120875D01*
X7612444Y7125772D01*
X7674808D01*
X7759421Y7041159D01*
X7754560Y7029426D01*
X7587091D01*
Y7013874D01*
X7571340D01*
Y7030195D01*
X7482284D01*
X7470541Y7030195D01*
X7470540Y7030195D01*
X7469699Y7029915D01*
Y7029915D01*
X7363900D01*
Y6919115D01*
Y6834116D01*
X7394745D01*
X7395709Y6829271D01*
X7404129Y6816668D01*
X7462732Y6758065D01*
X7475335Y6749644D01*
X7490201Y6746687D01*
X7602124D01*
X7602129Y6746681D01*
X7619954Y6734770D01*
X7640981Y6730588D01*
X7729565D01*
X7750592Y6734770D01*
X7768417Y6746681D01*
X7780328Y6764507D01*
X7784511Y6785534D01*
X7780328Y6806561D01*
X7768417Y6824386D01*
X7772069Y6837221D01*
X7776724Y6841688D01*
X7830217D01*
X7834070Y6828988D01*
X7827183Y6824386D01*
X7815272Y6806561D01*
X7811089Y6785534D01*
X7815272Y6764507D01*
X7827183Y6746681D01*
X7845008Y6734770D01*
X7866035Y6730588D01*
X7954619D01*
X7975646Y6734770D01*
X7993471Y6746681D01*
X8005382Y6764507D01*
X8009565Y6785534D01*
X8005382Y6806561D01*
X7993471Y6824386D01*
X7986584Y6828988D01*
X7990437Y6841688D01*
X8024260D01*
Y6808274D01*
X8061960D01*
Y6863954D01*
X8074660D01*
Y6876654D01*
X8125060D01*
Y6926580D01*
X8148320D01*
Y6791960D01*
X7879080Y6522720D01*
X7454900D01*
X7369810Y6437630D01*
X7357110Y6439426D01*
Y6454140D01*
X7249907D01*
Y6707860D01*
X7258913Y6721339D01*
X7262855Y6741160D01*
X7258913Y6760981D01*
X7247685Y6777785D01*
X7230881Y6789013D01*
X7211060Y6792955D01*
X7191239Y6789013D01*
X7174435Y6777785D01*
X7163207Y6760981D01*
X7159265Y6741160D01*
X7163207Y6721339D01*
X7172213Y6707860D01*
Y6454140D01*
X7075170D01*
Y6347460D01*
X7355840D01*
X7357110Y6347460D01*
X7368540Y6344394D01*
Y6330206D01*
X7357110Y6327140D01*
X7355840Y6327140D01*
X7228840D01*
Y6273800D01*
Y6220460D01*
X7355840D01*
X7357110Y6220460D01*
X7368540Y6217394D01*
Y6203206D01*
X7357110Y6200140D01*
X7357110Y6200141D01*
Y6200140D01*
X7357109Y6200140D01*
X7075170D01*
Y6093460D01*
X7357109D01*
X7357110Y6093460D01*
Y6093459D01*
X7357110Y6093460D01*
X7368540Y6090394D01*
Y6076206D01*
X7357110Y6073140D01*
Y6073140D01*
X7075170D01*
Y6058647D01*
X7056724D01*
Y6110432D01*
X6997700D01*
Y6123132D01*
X6985000D01*
Y6184300D01*
X6938676D01*
Y6166089D01*
X6932760Y6155840D01*
X6708573D01*
X6696145Y6166131D01*
X6697730Y6225096D01*
X6701960Y6225039D01*
Y6225040D01*
X6804660D01*
Y6320439D01*
Y6415839D01*
X6711964D01*
X6703105Y6424940D01*
X6725105Y7243025D01*
X6737988Y7249635D01*
X6740476Y7247948D01*
Y7241540D01*
X6794500D01*
X6848524D01*
Y7256780D01*
X6877636D01*
Y7241540D01*
D02*
G37*
G36*
X7910622Y7709113D02*
Y7548753D01*
X7912112Y7541260D01*
X7905236Y7531648D01*
X7915006Y7531752D01*
X7922000Y7521284D01*
X7963141Y7480143D01*
X7964861Y7471497D01*
X7974469Y7457117D01*
X7964861Y7442737D01*
X7961257Y7424618D01*
X7964861Y7406499D01*
X7974471Y7392116D01*
X7964861Y7377734D01*
X7961257Y7359614D01*
X7964861Y7341495D01*
X7974469Y7327115D01*
X7964861Y7312735D01*
X7961257Y7294616D01*
X7964861Y7276496D01*
X7974469Y7262117D01*
X7964861Y7247737D01*
X7963783Y7242317D01*
X8085338D01*
Y7216917D01*
X7963783D01*
X7963933Y7216165D01*
X7956117Y7203465D01*
X7853680D01*
Y7528560D01*
X7683282D01*
X7676640Y7541260D01*
X7679167Y7553960D01*
X7676209Y7568826D01*
X7667789Y7581429D01*
X7667458Y7581759D01*
X7654856Y7590180D01*
X7639990Y7593137D01*
X7639266D01*
X7631603Y7605837D01*
X7631817Y7606914D01*
X7510262D01*
Y7632314D01*
X7641433D01*
X7641750Y7632700D01*
X7650425D01*
X7669096Y7640434D01*
X7683386Y7654724D01*
X7691120Y7673395D01*
Y7693605D01*
X7688384Y7700210D01*
X7695440Y7710770D01*
X7909263D01*
X7910622Y7709113D01*
D02*
G37*
G36*
X8620760Y6227879D02*
X8519160D01*
Y6132479D01*
X8506460D01*
Y6119779D01*
X8391060D01*
Y6064920D01*
X8348980D01*
Y6003752D01*
X8336280D01*
Y5991052D01*
X8277256D01*
Y5975250D01*
X8274050Y5972854D01*
X8261350Y5979219D01*
Y6007100D01*
X8120380D01*
Y6019800D01*
X8107680D01*
Y6073140D01*
X7998248D01*
X7996571Y6083752D01*
X8005334Y6093460D01*
X8261350D01*
Y6123193D01*
X8261726D01*
X8276592Y6126151D01*
X8289194Y6134571D01*
X8299355Y6144731D01*
X8307775Y6157334D01*
X8310732Y6172200D01*
X8307775Y6187066D01*
X8299355Y6199669D01*
X8286752Y6208089D01*
X8271886Y6211047D01*
X8266881Y6210051D01*
X8261350Y6221900D01*
Y6248400D01*
X8620760D01*
Y6227879D01*
D02*
G37*
G36*
X7075170Y5839460D02*
X7357110D01*
Y5839460D01*
X7368540Y5836394D01*
Y5822206D01*
X7357110Y5819140D01*
X7357110Y5819141D01*
Y5819140D01*
X7357109Y5819140D01*
X7075170D01*
Y5712460D01*
X7357109D01*
X7357110Y5712460D01*
Y5712459D01*
X7357110Y5712460D01*
X7368540Y5709394D01*
Y5695206D01*
X7357110Y5692140D01*
X7355840Y5692140D01*
X7228840D01*
Y5638800D01*
Y5585460D01*
X7355840D01*
X7357110Y5585460D01*
X7368540Y5582394D01*
Y5570452D01*
X7368087Y5570008D01*
X7357109Y5565141D01*
X7357110Y5565140D01*
X7357109Y5565140D01*
X7075170D01*
Y5476240D01*
X7054575D01*
Y5588000D01*
X7050633Y5607821D01*
X7039405Y5624625D01*
X7022601Y5635853D01*
X7002780Y5639795D01*
X6982959Y5635853D01*
X6966155Y5624625D01*
X6954927Y5607821D01*
X6950985Y5588000D01*
Y5476240D01*
X6689375D01*
X6677908Y5487991D01*
X6685899Y5785137D01*
X6698834Y5793719D01*
X6701960Y5792498D01*
Y5756760D01*
X6932760D01*
X6938676Y5746511D01*
Y5727899D01*
X6985000D01*
Y5789066D01*
X6997700D01*
Y5801766D01*
X7056724D01*
Y5853953D01*
X7075170D01*
Y5839460D01*
D02*
G37*
%LPC*%
G36*
X8522304Y7759181D02*
X8475980D01*
Y7710714D01*
X8522304D01*
Y7759181D01*
D02*
G37*
G36*
X8450580D02*
X8404256D01*
Y7710714D01*
X8450580D01*
Y7759181D01*
D02*
G37*
G36*
X6848524Y7216140D02*
X6807200D01*
Y7172673D01*
X6848524D01*
Y7216140D01*
D02*
G37*
G36*
X6781800D02*
X6740476D01*
Y7172673D01*
X6781800D01*
Y7216140D01*
D02*
G37*
G36*
X6918960D02*
X6877636D01*
Y7172673D01*
X6918960D01*
Y7216140D01*
D02*
G37*
G36*
X7348824Y7170903D02*
X7302500D01*
Y7122435D01*
X7348824D01*
Y7170903D01*
D02*
G37*
G36*
X7277100D02*
X7230776D01*
Y7122435D01*
X7277100D01*
Y7170903D01*
D02*
G37*
G36*
X7217240Y7084235D02*
X7114540D01*
Y7001535D01*
X7217240D01*
Y7084235D01*
D02*
G37*
G36*
X7089140D02*
X6986440D01*
Y7001535D01*
X7089140D01*
Y7084235D01*
D02*
G37*
G36*
X7217240Y6976135D02*
X7114540D01*
Y6893436D01*
X7217240D01*
Y6976135D01*
D02*
G37*
G36*
X7089140D02*
X6986440D01*
Y6893436D01*
X7089140D01*
Y6976135D01*
D02*
G37*
G36*
X8125060Y6851254D02*
X8087360D01*
Y6808274D01*
X8125060D01*
Y6851254D01*
D02*
G37*
G36*
X6932760Y6415839D02*
X6830060D01*
Y6333139D01*
X6932760D01*
Y6415839D01*
D02*
G37*
G36*
X7203440Y6327140D02*
X7075170D01*
Y6286500D01*
X7203440D01*
Y6327140D01*
D02*
G37*
G36*
X6932760Y6307739D02*
X6830060D01*
Y6225040D01*
X6932760D01*
Y6307739D01*
D02*
G37*
G36*
X7203440Y6261100D02*
X7075170D01*
Y6220460D01*
X7203440D01*
Y6261100D01*
D02*
G37*
G36*
X7056724Y6184300D02*
X7010400D01*
Y6135832D01*
X7056724D01*
Y6184300D01*
D02*
G37*
G36*
X8493760Y6227879D02*
X8391060D01*
Y6145179D01*
X8493760D01*
Y6227879D01*
D02*
G37*
G36*
X8261350Y6073140D02*
X8133080D01*
Y6032500D01*
X8261350D01*
Y6073140D01*
D02*
G37*
G36*
X8323580Y6064920D02*
X8277256D01*
Y6016452D01*
X8323580D01*
Y6064920D01*
D02*
G37*
G36*
X7056724Y5776366D02*
X7010400D01*
Y5727899D01*
X7056724D01*
Y5776366D01*
D02*
G37*
G36*
X7203440Y5692140D02*
X7075170D01*
Y5651500D01*
X7203440D01*
Y5692140D01*
D02*
G37*
G36*
X6932760Y5687560D02*
X6830060D01*
Y5604861D01*
X6932760D01*
Y5687560D01*
D02*
G37*
G36*
X6804660D02*
X6701960D01*
Y5604861D01*
X6804660D01*
Y5687560D01*
D02*
G37*
G36*
X7203440Y5626100D02*
X7075170D01*
Y5585460D01*
X7203440D01*
Y5626100D01*
D02*
G37*
G36*
X6932760Y5579461D02*
X6830060D01*
Y5496761D01*
X6932760D01*
Y5579461D01*
D02*
G37*
G36*
X6804660D02*
X6701960D01*
Y5496761D01*
X6804660D01*
Y5579461D01*
D02*
G37*
%LPD*%
D10*
X1060318Y1353561D02*
D03*
X1520322D02*
D03*
X3270118D02*
D03*
X3730122D02*
D03*
X6050082Y3171038D02*
D03*
X5090079D02*
D03*
X3984122Y8397499D02*
D03*
X3524118D02*
D03*
X3519038Y3184901D02*
D03*
X3979042D02*
D03*
X8152719Y3190240D02*
D03*
X7792720D02*
D03*
X7540920Y3189981D02*
D03*
X7180920D02*
D03*
D11*
X1390320Y1741058D02*
D03*
X1290320D02*
D03*
X1190320D02*
D03*
X3600120D02*
D03*
X3500120D02*
D03*
X3400120D02*
D03*
X5920080Y3558540D02*
D03*
X5820080D02*
D03*
X5220081D02*
D03*
X5320081D02*
D03*
X5420081D02*
D03*
X5520080D02*
D03*
X5620080D02*
D03*
X5720080D02*
D03*
X3654120Y8010002D02*
D03*
X3754120D02*
D03*
X3854120D02*
D03*
X3849040Y3572398D02*
D03*
X3749040D02*
D03*
X3649040D02*
D03*
X8022722Y3577742D02*
D03*
X7922722D02*
D03*
X7410922Y3577478D02*
D03*
X7310923D02*
D03*
D12*
X1390320Y1741058D02*
Y2015714D01*
X2285594Y2910987D01*
X1290320Y1648460D02*
Y1741058D01*
X1257300Y1615440D02*
X1290320Y1648460D01*
X1125220Y1615440D02*
X1257300D01*
X1015594Y1725066D02*
X1125220Y1615440D01*
X1015594Y1725066D02*
Y2910987D01*
X1190320Y1741058D02*
Y2323714D01*
X1777594Y2910987D01*
X9278078Y5725160D02*
X9064260Y5511342D01*
X9729560Y5814060D02*
X9640660Y5725160D01*
X9278078D02*
X9640660D01*
X10233660Y5001260D02*
X10322560Y4912360D01*
X9179860Y4865560D02*
X10191560D01*
X10513060Y4544060D01*
X9380910Y5065560D02*
X9445210Y5001260D01*
X9179860Y5065560D02*
X9380910D01*
X9445210Y5001260D02*
X9621060D01*
X9179860Y4765560D02*
X10041560D01*
X9132360D02*
X9179860D01*
X10041560D02*
X10263060Y4544060D01*
X9100460Y4797460D02*
X9132360Y4765560D01*
X9086578Y4797460D02*
X9100460D01*
X9064260Y4819779D02*
X9086578Y4797460D01*
X9064260Y5511342D02*
Y4819779D01*
X9797660Y5799260D02*
Y5756978D01*
X9506242Y5465560D01*
X9179860D02*
X9506242D01*
X9179860Y5165560D02*
X9227360D01*
X9251960Y5140960D02*
X9622560D01*
X9227360Y5165560D02*
X9251960Y5140960D01*
X9622560Y5267960D02*
X9620160Y5265560D01*
X9179860D02*
X9620160D01*
X9622560Y5397660D02*
X9590460Y5365560D01*
X9179860D02*
X9590460D01*
X9622560Y5407660D02*
Y5397660D01*
X10018272Y5610348D02*
X10188060D01*
Y5614460D02*
X10838060D01*
X9814560Y5814060D02*
X10018272Y5610348D01*
X9812460Y5814060D02*
X9814560D01*
X9812460D02*
X9797660Y5799260D01*
X9751060Y5001260D02*
X10233660D01*
Y5140960D02*
X10322560Y5052060D01*
X9752560Y5140960D02*
X10233660D01*
X10246360Y5267960D02*
X10322560Y5191760D01*
X9752560Y5267960D02*
X10246360D01*
Y5407660D02*
X10322560Y5331460D01*
X9752560Y5407660D02*
X10246360D01*
X3600120Y1741058D02*
Y2015714D01*
X4495394Y2910987D01*
X3500120Y1648460D02*
Y1741058D01*
X3467100Y1615440D02*
X3500120Y1648460D01*
X3335020Y1615440D02*
X3467100D01*
X3225394Y1725066D02*
X3335020Y1615440D01*
X3225394Y1725066D02*
Y2910987D01*
X3400120Y1741058D02*
Y2323714D01*
X3987394Y2910987D01*
X3644430Y3577008D02*
Y3716490D01*
Y3577008D02*
X3649040Y3572398D01*
X3639820Y3721100D02*
X3644430Y3716490D01*
X3854120Y8010002D02*
X3871420Y7992702D01*
Y7905813D02*
Y7992702D01*
Y7905813D02*
X3881120Y7896113D01*
Y7889240D02*
Y7896113D01*
X2878018Y8021122D02*
X3139440Y7759700D01*
X989061Y8021122D02*
X2878018D01*
X1567180Y8125460D02*
X1567322Y8125602D01*
X3699902D01*
X3722220Y8103283D01*
Y8089402D02*
Y8103283D01*
Y8089402D02*
X3754120Y8057502D01*
Y8010002D02*
Y8057502D01*
X2560320Y3589020D02*
Y4343400D01*
X1183640Y4505960D02*
X1185141Y4507461D01*
Y4603519D02*
X1186642Y4605020D01*
X1185141Y4507461D02*
Y4603519D01*
X1191491Y5389649D02*
X1196340Y5384800D01*
X1186642Y5486400D02*
X1191491Y5481551D01*
Y5389649D02*
Y5481551D01*
X4785360Y4345940D02*
X5220081Y3911219D01*
Y3558540D02*
Y3911219D01*
X7911181Y7990347D02*
X8177952D01*
X8120380Y5892800D02*
X8486140D01*
X7147621Y7294616D02*
X7510262D01*
X6997700Y6019800D02*
X7216140D01*
X6997700Y6025276D02*
Y6027420D01*
Y6019800D02*
Y6025276D01*
X6858000Y5892800D02*
X7216140D01*
X8304703Y7687808D02*
X8315635Y7698740D01*
X5872480Y7105879D02*
X6108395D01*
X5862483Y6975881D02*
X5872480D01*
X5789381Y7048983D02*
X5862483Y6975881D01*
X7417308Y6975028D02*
X7520940D01*
X7684760D01*
X3040380Y4823460D02*
Y5288280D01*
X3654120Y5902020D01*
Y8010002D01*
X7910327Y7989494D02*
X7911181Y7990347D01*
X8177952D02*
X8178800Y7991196D01*
X8120380Y5511800D02*
X8208010D01*
X8272328Y5576118D01*
X8279582D01*
X8429158Y5725698D01*
Y5815178D01*
X8486460Y5872480D01*
X8506460D01*
X8486140Y5892800D02*
X8506460Y5872480D01*
X7101840Y7248835D02*
X7147621Y7294616D01*
X7510262D02*
X7511400Y7293478D01*
X7631562D01*
X7912212Y7033148D02*
X7914640Y7030720D01*
Y6978828D02*
Y7030720D01*
X7910840Y6975028D02*
X7914640Y6978828D01*
X7910327Y6975536D02*
X7910840Y6975028D01*
X8074152D01*
X8074660Y6974515D01*
X6817360Y6060440D02*
X6837360D01*
X6908145Y5989655D01*
X6959935D01*
X6974632Y6004352D01*
X6976775D01*
X6997700Y6025276D01*
X6817360Y5852160D02*
X6858000Y5892800D01*
X7510262Y7164619D02*
X8085338D01*
X5940379Y6800261D02*
X6200140Y6540500D01*
X5872480Y6800261D02*
X5940379D01*
X8085338Y7684618D02*
X8088528Y7687808D01*
X8304703D01*
X8315635Y7698740D02*
X8315960Y7698415D01*
X8120380Y5638800D02*
X8130652Y5649072D01*
X8262732D01*
X8689340Y5651500D02*
X8811260D01*
X8120380Y5765800D02*
X8125572Y5760608D01*
X8267812D01*
X8704580Y5905500D02*
X8811260D01*
X6797040Y7410450D02*
Y7495215D01*
X7363460Y5511800D02*
X7366000Y5523321D01*
X7216140Y5511800D02*
X7363460D01*
X6794500Y7314555D02*
X6795770Y7315825D01*
Y7409180D01*
X6931660Y7314555D02*
X6932930Y7315825D01*
Y7402505D01*
X6934200Y7403775D01*
X6893331D02*
X6934200D01*
X7211060Y6405880D02*
Y6741160D01*
Y6405880D02*
X7216140Y6400800D01*
X8120380D02*
X8130652Y6411072D01*
X8280512D01*
X8714740Y6413500D02*
X8811260D01*
X8120380Y6146800D02*
X8135620Y6162040D01*
X8261726D01*
X8271886Y6172200D01*
X8705850Y6170930D02*
X8709548Y6167232D01*
X8803528D01*
X8811260Y6159500D01*
X6165774Y7048500D02*
X6200140D01*
X6108395Y7105879D02*
X6165774Y7048500D01*
X782320Y7907020D02*
X803783Y7928483D01*
X896422D01*
X989061Y8021122D01*
X5820278Y3572662D02*
X5820979Y3573358D01*
Y3692459D01*
X5720182Y3572759D02*
X5720278Y3572662D01*
X5720182Y3572759D02*
Y3693058D01*
X5620278Y3572662D02*
X5620649Y3573028D01*
Y3697869D01*
X5520279Y3572662D02*
X5523662Y3576041D01*
Y3692322D01*
X5920278Y3572662D02*
Y3698702D01*
X7289800Y7736114D02*
X7297440Y7743754D01*
X7504400D01*
X7510262Y7749616D01*
X7955331Y7554615D02*
X8085338D01*
X7949468Y7548753D02*
X7955331Y7554615D01*
X7949468Y7548753D02*
Y7709113D01*
X7986781Y7746426D01*
X8008605Y7489617D02*
X8085338D01*
X7949468Y7548753D02*
X8008605Y7489617D01*
X7512604Y7749616D02*
X8085338D01*
X7510262D02*
X7512604D01*
X7520940Y7757952D01*
Y7990515D01*
X8085338Y7749616D02*
X8162072D01*
X8206583Y7794127D01*
X8315960D01*
X7520940Y7990515D02*
X7521448Y7990007D01*
X7684760D01*
X7685273Y7989494D01*
X8546059Y7197801D02*
Y7198035D01*
Y7197801D02*
X8568360Y7175500D01*
X8811260D01*
X8546059Y7325035D02*
Y7335037D01*
X8568360Y7357339D01*
X8636544D01*
X8696960Y7417750D01*
X8799510D01*
X8811260Y7429500D01*
X8546059Y7452035D02*
Y7462037D01*
X8568360Y7484339D01*
X8612099D01*
X8811260Y7683500D01*
X773582Y4713778D02*
X821080D01*
X2928422Y6821119D01*
Y7700284D01*
X2835783Y7792918D02*
X2928422Y7700284D01*
X2835783Y7792918D02*
Y7885557D01*
X2814320Y7907020D02*
X2835783Y7885557D01*
X773582Y5584322D02*
X821080D01*
X2420422Y7183658D01*
Y7674483D01*
X2538857Y7792918D01*
Y7885557D01*
X2560320Y7907020D01*
X7150100Y7685715D02*
X7151370Y7686985D01*
Y7745730D01*
X7639761Y7684059D02*
X7640320Y7683500D01*
X7510821Y7684059D02*
X7639761D01*
X7510262Y7684618D02*
X7510821Y7684059D01*
X7150100Y7543800D02*
Y7605715D01*
X7636886Y7553960D02*
X7640320D01*
X7639990Y7554290D02*
X7640320Y7553960D01*
X7510592Y7554290D02*
X7639990D01*
X7510262Y7554615D02*
X7510592Y7554290D01*
X7297420Y7479975D02*
X7302419D01*
X7312061Y7489617D01*
X7510262D01*
X7019199Y7403775D02*
X7096364D01*
X7140524Y7359614D01*
X7510262D01*
X6882039Y7495215D02*
X7076765D01*
X7150105Y7421875D01*
X7338202D01*
X7340940Y7424618D01*
X7510262D01*
X773582Y4613778D02*
X1047882D01*
X1056640Y4605020D01*
X5789381Y7048983D02*
Y7156663D01*
X6062218Y7429500D01*
X6525260D01*
X7684760Y6975028D02*
X7685273Y6975536D01*
X7416800Y6974515D02*
X7417308Y6975028D01*
X8074660Y6863954D02*
Y6868236D01*
X8062361Y6880535D02*
X8074660Y6868236D01*
X7685273Y6880535D02*
X8062361D01*
X7416800Y6889516D02*
X7431598Y6874718D01*
Y6844137D02*
Y6874718D01*
Y6844137D02*
X7490201Y6785534D01*
X7685273D01*
X8085338Y7619614D02*
X8088528Y7616424D01*
X8449153D01*
X8463280Y7602301D01*
X7910327Y8179496D02*
X8105404D01*
X8164002Y8120898D01*
Y8090997D02*
Y8120898D01*
Y8090997D02*
X8178800Y8076194D01*
X8085338Y7294616D02*
X8231881D01*
X8328462Y7198035D01*
X8416061D01*
X8085338Y7359614D02*
X8262884D01*
X8297464Y7325035D01*
X8416061D01*
X8085338Y7424618D02*
X8393760D01*
X8416061Y7446914D01*
Y7452035D01*
X5320279Y3572662D02*
X5320792Y3573170D01*
Y3702812D01*
X773582Y5484322D02*
X1054562D01*
X1056640Y5486400D01*
X9278078Y8074660D02*
X9064260Y7860842D01*
X9729560Y8163560D02*
X9640660Y8074660D01*
X9278078D02*
X9640660D01*
X10233660Y7350760D02*
X10322560Y7261860D01*
X9179860Y7215060D02*
X10191560D01*
X10513060Y6893560D01*
X9380910Y7415060D02*
X9445210Y7350760D01*
X9179860Y7415060D02*
X9380910D01*
X9445210Y7350760D02*
X9621060D01*
X9179860Y7115060D02*
X10041560D01*
X9132360D02*
X9179860D01*
X10041560D02*
X10263060Y6893560D01*
X9100460Y7146960D02*
X9132360Y7115060D01*
X9086578Y7146960D02*
X9100460D01*
X9064260Y7169279D02*
X9086578Y7146960D01*
X9064260Y7860842D02*
Y7169279D01*
X9797660Y8148760D02*
Y8106478D01*
X9506242Y7815060D01*
X9179860D02*
X9506242D01*
X9179860Y7515060D02*
X9227360D01*
X9251960Y7490460D02*
X9622560D01*
X9227360Y7515060D02*
X9251960Y7490460D01*
X9622560Y7617460D02*
X9620160Y7615060D01*
X9179860D02*
X9620160D01*
X9622560Y7747160D02*
X9590460Y7715060D01*
X9179860D02*
X9590460D01*
X9622560Y7757160D02*
Y7747160D01*
X10018272Y7959848D02*
X10188060D01*
Y7963960D02*
X10838060D01*
X9814560Y8163560D02*
X10018272Y7959848D01*
X9812460Y8163560D02*
X9814560D01*
X9812460D02*
X9797660Y8148760D01*
X9751060Y7350760D02*
X10233660D01*
Y7490460D02*
X10322560Y7401560D01*
X9752560Y7490460D02*
X10233660D01*
X10246360Y7617460D02*
X10322560Y7541260D01*
X9752560Y7617460D02*
X10246360D01*
Y7757160D02*
X10322560Y7680960D01*
X9752560Y7757160D02*
X10246360D01*
D13*
X9179860Y4765560D02*
D03*
Y4865560D02*
D03*
Y4965560D02*
D03*
Y5065560D02*
D03*
Y5165560D02*
D03*
Y5265560D02*
D03*
Y5365560D02*
D03*
Y5465560D02*
D03*
Y7115060D02*
D03*
Y7215060D02*
D03*
Y7315060D02*
D03*
Y7415060D02*
D03*
Y7515060D02*
D03*
Y7615060D02*
D03*
Y7715060D02*
D03*
Y7815060D02*
D03*
D14*
X9432360Y5595560D02*
D03*
Y4635560D02*
D03*
Y7945060D02*
D03*
Y6985060D02*
D03*
D15*
X9622560Y5267960D02*
D03*
X9752560D02*
D03*
X9622560Y5407660D02*
D03*
X9752560D02*
D03*
X9622560Y5140960D02*
D03*
X9752560D02*
D03*
X9621060Y5001260D02*
D03*
X9751060D02*
D03*
X1056640Y5486400D02*
D03*
X1186642D02*
D03*
X1056640Y4605020D02*
D03*
X1186642D02*
D03*
X8546059Y7452035D02*
D03*
X8416061D02*
D03*
X8546059Y7325035D02*
D03*
X8416061D02*
D03*
X8546059Y7198035D02*
D03*
X8416061D02*
D03*
X9622560Y7617460D02*
D03*
X9752560D02*
D03*
X9622560Y7757160D02*
D03*
X9752560D02*
D03*
X9622560Y7490460D02*
D03*
X9752560D02*
D03*
X9621060Y7350760D02*
D03*
X9751060D02*
D03*
D16*
X9729560Y5814060D02*
D03*
X9814560D02*
D03*
X6882039Y7495215D02*
D03*
X6797040D02*
D03*
X7019199Y7403775D02*
D03*
X6934200D02*
D03*
X9729560Y8163560D02*
D03*
X9814560D02*
D03*
D17*
X9356160Y4964360D02*
X9357360Y4963160D01*
X9179860Y4965560D02*
X9181060Y4964360D01*
X9356160D01*
X3756660Y4351020D02*
Y4709160D01*
Y3651597D02*
Y4351020D01*
X4785360Y4345940D02*
X6462207D01*
X3756660Y4351020D02*
X4785360D01*
X3348990D02*
X3756660D01*
X528320Y3589020D02*
X1493520Y4554220D01*
X3145790D02*
X3348990Y4351020D01*
X1493520Y4554220D02*
X3145790D01*
X3753640Y3576998D02*
Y3648577D01*
X3756660Y3651597D01*
Y4714240D02*
Y7960360D01*
X3749040Y3572398D02*
X3753640Y3576998D01*
X6462207Y4345940D02*
X6497767Y4381500D01*
X6525260D01*
X5278120Y4620260D02*
X5394960Y4503420D01*
X4770120Y4620260D02*
X4963160Y4427220D01*
X5834517Y4503420D02*
X6153587Y4822490D01*
X6174740Y4427220D02*
X6398260Y4650740D01*
X5394960Y4503420D02*
X5834517D01*
X4963160Y4427220D02*
X6174740D01*
X4516120Y4620260D02*
X4785360Y4351020D01*
X4516120Y4620260D02*
X5674360Y5778500D01*
X6200140D01*
X5786120Y4620260D02*
Y4851400D01*
X6370320Y5435600D01*
Y5930163D01*
X6472657Y6032500D01*
X6577863D01*
X6608343Y6062980D01*
X6814820D01*
X6817360Y6060440D01*
X6153587Y4822490D02*
Y4951430D01*
X6472657Y5270500D01*
X6583456D01*
X6692900Y5852160D02*
X6817360D01*
X7289800Y7640401D02*
X7297420Y7632781D01*
Y7559975D02*
Y7632781D01*
X7472898Y3686962D02*
X7477760Y3708400D01*
X7410922Y3624981D02*
X7472898Y3686962D01*
X7410922Y3577478D02*
Y3624981D01*
X7520940Y8096799D02*
Y8101076D01*
Y8096799D02*
X7533239Y8084495D01*
X7910327D01*
X8062559D01*
X8074660Y8096595D01*
Y8101076D01*
X7322820Y4038417D02*
X7333021D01*
X7370526Y4075928D01*
Y4086123D01*
X7457440Y4173037D01*
Y4896348D01*
Y5763260D02*
X7459980Y5765800D01*
X7216140D02*
X7459980D01*
X7216140Y6146800D02*
X7767320D01*
X7876540Y4072799D02*
Y4881880D01*
Y4072799D02*
X7877094Y4072245D01*
Y4062044D02*
Y4072245D01*
Y4062044D02*
X7914599Y4024539D01*
X7924800D01*
X7305040Y3848100D02*
X7310923Y3842222D01*
Y3577478D02*
Y3842222D01*
X7922722Y3577742D02*
X7923759Y3578779D01*
Y3828100D01*
X7924800Y3829141D01*
X5872480Y6885259D02*
Y6975881D01*
X2306320Y3589020D02*
X2433122Y3462218D01*
X2866441D01*
X2884561Y3444098D01*
X3800084D01*
X3844442Y3488456D01*
Y3567801D01*
X3849040Y3572398D01*
X6398260Y4650740D02*
Y4688103D01*
X6472657Y4762500D01*
X6577863D01*
X6652260Y4836897D01*
Y4904740D01*
X7002780Y5255260D01*
Y5588000D01*
X9356160Y7313860D02*
X9357360Y7312660D01*
X9179860Y7315060D02*
X9181060Y7313860D01*
X9356160D01*
D18*
X386080Y5354320D02*
D03*
Y5714319D02*
D03*
Y4483781D02*
D03*
Y4843780D02*
D03*
D19*
X773582Y5484322D02*
D03*
Y5584322D02*
D03*
Y4613778D02*
D03*
Y4713778D02*
D03*
D20*
X5872480Y7083379D02*
D03*
Y6998381D02*
D03*
X8178800Y8076194D02*
D03*
Y7991196D02*
D03*
X7416800Y6889516D02*
D03*
Y6974515D02*
D03*
X5872480Y6885259D02*
D03*
Y6800261D02*
D03*
D21*
X8074660Y6863954D02*
D03*
Y6974515D02*
D03*
Y8101076D02*
D03*
Y7990515D02*
D03*
X7520940Y8101076D02*
D03*
Y7990515D02*
D03*
Y6863954D02*
D03*
Y6974515D02*
D03*
D22*
X8085338Y7749616D02*
D03*
Y7684618D02*
D03*
Y7619614D02*
D03*
Y7554615D02*
D03*
Y7489617D02*
D03*
Y7424618D02*
D03*
Y7359614D02*
D03*
Y7294616D02*
D03*
Y7229617D02*
D03*
Y7164619D02*
D03*
X7510262D02*
D03*
Y7229617D02*
D03*
Y7294616D02*
D03*
Y7359614D02*
D03*
Y7424618D02*
D03*
Y7489617D02*
D03*
Y7554615D02*
D03*
Y7619614D02*
D03*
Y7684618D02*
D03*
D23*
Y7749616D02*
D03*
D24*
X7685273Y7989494D02*
D03*
Y8179496D02*
D03*
X7910327D02*
D03*
Y8084495D02*
D03*
Y6975536D02*
D03*
Y6785534D02*
D03*
X7685273D02*
D03*
Y6880535D02*
D03*
D25*
X7910327Y7989494D02*
D03*
X7685273Y6975536D02*
D03*
D26*
X6794500Y7314555D02*
D03*
Y7228840D02*
D03*
X6931660D02*
D03*
Y7314555D02*
D03*
D27*
X8463280Y7602301D02*
D03*
Y7698014D02*
D03*
X7289800Y7183603D02*
D03*
Y7279315D02*
D03*
X8315960Y7794127D02*
D03*
Y7698415D02*
D03*
X7289800Y7736114D02*
D03*
Y7640401D02*
D03*
X6997700Y5884779D02*
D03*
Y5789066D02*
D03*
Y6123132D02*
D03*
Y6027420D02*
D03*
X8336280Y6003752D02*
D03*
Y5908040D02*
D03*
D28*
X7297420Y7559975D02*
D03*
Y7479975D02*
D03*
X7150100Y7605715D02*
D03*
Y7685715D02*
D03*
D29*
X7101840Y7248835D02*
D03*
Y6988835D02*
D03*
X8506460Y5872480D02*
D03*
Y6132479D02*
D03*
X6817360Y6060440D02*
D03*
Y6320439D02*
D03*
Y5592161D02*
D03*
Y5852160D02*
D03*
D30*
X8120380Y5511800D02*
D03*
X7216140D02*
D03*
Y5638800D02*
D03*
Y5765800D02*
D03*
Y5892800D02*
D03*
Y6019800D02*
D03*
Y6146800D02*
D03*
Y6273800D02*
D03*
Y6400800D02*
D03*
X8120380D02*
D03*
Y6273800D02*
D03*
Y6146800D02*
D03*
Y6019800D02*
D03*
Y5892800D02*
D03*
Y5765800D02*
D03*
Y5638800D02*
D03*
D31*
X7924800Y3829141D02*
D03*
Y4024539D02*
D03*
X7305040Y3848100D02*
D03*
Y4043497D02*
D03*
D32*
X761594Y2910987D02*
D03*
X1015594D02*
D03*
X1269594D02*
D03*
X1523594D02*
D03*
X1777594D02*
D03*
X2031594D02*
D03*
X2285594D02*
D03*
X2971394D02*
D03*
X3225394D02*
D03*
X3479394D02*
D03*
X3733394D02*
D03*
X3987394D02*
D03*
X4241394D02*
D03*
X4495394D02*
D03*
X6200140Y7556500D02*
D03*
Y7302500D02*
D03*
Y7048500D02*
D03*
Y6794500D02*
D03*
Y6540500D02*
D03*
Y6286500D02*
D03*
Y6032500D02*
D03*
Y5778500D02*
D03*
X6525260Y7937500D02*
D03*
Y7683500D02*
D03*
Y7429500D02*
D03*
Y7175500D02*
D03*
Y6921500D02*
D03*
Y6667500D02*
D03*
Y6413500D02*
D03*
Y6159500D02*
D03*
Y5905500D02*
D03*
Y5651500D02*
D03*
Y5397500D02*
D03*
Y5143500D02*
D03*
Y4889500D02*
D03*
Y4635500D02*
D03*
Y4381500D02*
D03*
X8811260D02*
D03*
Y4635500D02*
D03*
Y4889500D02*
D03*
Y5143500D02*
D03*
Y5397500D02*
D03*
Y5651500D02*
D03*
Y5905500D02*
D03*
Y6159500D02*
D03*
Y6413500D02*
D03*
Y6667500D02*
D03*
Y6921500D02*
D03*
Y7175500D02*
D03*
Y7429500D02*
D03*
Y7683500D02*
D03*
Y7937500D02*
D03*
D33*
X10763060Y4544060D02*
D03*
X10513060D02*
D03*
X10838060Y5614460D02*
D03*
X10188060D02*
D03*
Y6064460D02*
D03*
X10763060Y6893560D02*
D03*
X10513060D02*
D03*
X10838060Y7963960D02*
D03*
X10188060D02*
D03*
Y8413960D02*
D03*
D34*
X10263060Y4544060D02*
D03*
X10838060Y6064460D02*
D03*
X10263060Y6893560D02*
D03*
X10838060Y8413960D02*
D03*
D35*
X10322560Y4912360D02*
D03*
Y5052060D02*
D03*
Y5191760D02*
D03*
Y5331460D02*
D03*
X3639820Y3721100D02*
D03*
X3881120Y7889240D02*
D03*
X1567180Y8125460D02*
D03*
X2560320Y4343400D02*
D03*
X1196340Y5384800D02*
D03*
X1183640Y4505960D02*
D03*
X5320792Y3702812D02*
D03*
X5527040Y3695700D02*
D03*
X5623560Y3700780D02*
D03*
X5722620Y3690620D02*
D03*
X5821329Y3692809D02*
D03*
X5920740Y3700780D02*
D03*
X3040380Y4823460D02*
D03*
X6583456Y5270500D02*
D03*
X6692900Y5852160D02*
D03*
X7477760Y3708400D02*
D03*
X8689340Y5651500D02*
D03*
X8704580Y5905500D02*
D03*
X6797040Y7410450D02*
D03*
X6893331Y7403775D02*
D03*
X7211060Y6741160D02*
D03*
X8714740Y6413500D02*
D03*
X7457440Y4896348D02*
D03*
X7767320Y6146800D02*
D03*
X7876540Y4881880D02*
D03*
X3139440Y7759700D02*
D03*
X7640320Y7683500D02*
D03*
X7150100Y7543800D02*
D03*
X10322560Y7261860D02*
D03*
Y7401560D02*
D03*
Y7541260D02*
D03*
Y7680960D02*
D03*
D36*
X9357360Y4963160D02*
D03*
Y7312660D02*
D03*
D37*
X614680Y8262620D02*
D03*
X8684260Y8305800D02*
D03*
X8755380Y3268980D02*
D03*
D38*
X528320Y3335020D02*
D03*
D39*
X782320D02*
D03*
X1036320D02*
D03*
X1290320D02*
D03*
X1544320D02*
D03*
X1798320D02*
D03*
X2052320D02*
D03*
X2306320D02*
D03*
X2560320D02*
D03*
X2814320D02*
D03*
X528320Y7907020D02*
D03*
Y3589020D02*
D03*
Y7653020D02*
D03*
X782320Y7907020D02*
D03*
Y3589020D02*
D03*
Y7653020D02*
D03*
X1036320Y7907020D02*
D03*
Y3589020D02*
D03*
Y7653020D02*
D03*
X1290320Y7907020D02*
D03*
Y3589020D02*
D03*
Y7653020D02*
D03*
X1544320Y7907020D02*
D03*
Y3589020D02*
D03*
Y7653020D02*
D03*
X1798320Y7907020D02*
D03*
Y3589020D02*
D03*
Y7653020D02*
D03*
X2052320Y7907020D02*
D03*
Y3589020D02*
D03*
Y7653020D02*
D03*
X2306320Y7907020D02*
D03*
Y3589020D02*
D03*
Y7653020D02*
D03*
X2560320Y7907020D02*
D03*
Y3589020D02*
D03*
Y7653020D02*
D03*
X2814320Y7907020D02*
D03*
Y3589020D02*
D03*
Y7653020D02*
D03*
D40*
X5532120Y4620260D02*
D03*
X5786120D02*
D03*
X5278120D02*
D03*
X4770120D02*
D03*
X4516120D02*
D03*
%TF.MD5,d5a7a3fdd5a539e3991a350fc8fc5dd1*%
M02*
